<?xml version="1.0" encoding="UTF-8"?>
<!-- Generator: Adobe Illustrator 24.0.3, SVG Export Plug-In . SVG Version: 6.00 Build 0)  -->
<svg width="755px" height="425px" xmlns="http://www.w3.org/2000/svg" xmlns:xlink="http://www.w3.org/1999/xlink" version="1.1" id="Calque_1" x="0px" y="0px" viewBox="0 0 1920 1080" style="enable-background:new 0 0 1920 1080;" xml:space="preserve">
<style type="text/css">
	.st0{fill:#D6C94D;}
	.st1{fill:#070707;}
	.st2{fill:#FFF173;}
	.st3{fill:#FFFFFF;}
	.st4{fill:#E2DA74;}
	.st5{fill:none;stroke:#000000;stroke-width:10;stroke-miterlimit:10;}
</style>
<g>
	<g>
		<g>
			<g>
				<g>
					<g>
						<g>
							<g>
								<g>
									<path class="st0" d="M632.09,458.45c-147.73-30.13-326.19,53.76-356.6,190.74C244,791.05,388.94,910.34,408.18,926.18           c123.95,102.02,340.83,147.92,437.87,43.12c72.17-77.94,45.27-203.83,38.15-237.18           C861.62,626.44,780.36,488.7,632.09,458.45z"></path>
								</g>
							</g>
						</g>
					</g>
				</g>
			</g>
		</g>
	</g>
</g>
<g>
	<g>
		<g>
			<g>
				<g>
					<g>
						<g>
							<g>
								<g>
									<path class="st1" d="M665.74,1051.15c-1.08,0-1.96-0.87-1.97-1.95c-0.01-1.09,0.87-1.97,1.95-1.98           c1.95-0.01,3.91-0.05,5.85-0.09c1.07-0.03,1.99,0.83,2.01,1.91c0.03,1.09-0.83,1.99-1.92,2.01           c-1.96,0.05-3.95,0.08-5.92,0.1C665.75,1051.15,665.74,1051.15,665.74,1051.15z M646.14,1050.73c-0.03,0-0.07,0-0.1,0           c-1.96-0.1-3.95-0.21-5.9-0.34c-1.08-0.07-1.9-1.01-1.83-2.09c0.07-1.08,1-1.89,2.09-1.83c1.93,0.13,3.9,0.24,5.84,0.34           c1.08,0.05,1.92,0.98,1.86,2.06C648.05,1049.91,647.18,1050.73,646.14,1050.73z M691.19,1049.95           c-1.01,0-1.86-0.77-1.96-1.79c-0.1-1.08,0.7-2.04,1.78-2.13c1.94-0.17,3.89-0.37,5.81-0.58c1.08-0.12,2.05,0.66,2.17,1.74           c0.12,1.08-0.66,2.05-1.74,2.17c-1.95,0.21-3.93,0.41-5.89,0.59C691.31,1049.95,691.25,1049.95,691.19,1049.95z            M620.75,1048.59c-0.08,0-0.15,0-0.23-0.01c-1.95-0.23-3.93-0.48-5.87-0.73c-1.08-0.14-1.83-1.13-1.69-2.21           c0.14-1.08,1.13-1.83,2.21-1.69c1.92,0.25,3.87,0.5,5.81,0.73c1.08,0.13,1.85,1.1,1.72,2.18           C622.58,1047.86,621.73,1048.59,620.75,1048.59z M716.44,1046.52c-0.93,0-1.76-0.66-1.93-1.61           c-0.2-1.07,0.51-2.09,1.58-2.29c1.92-0.36,3.85-0.73,5.73-1.13c1.06-0.22,2.1,0.46,2.33,1.52c0.22,1.06-0.46,2.1-1.52,2.33           c-1.91,0.4-3.86,0.78-5.82,1.15C716.67,1046.51,716.55,1046.52,716.44,1046.52z M595.54,1044.82           c-0.12,0-0.23-0.01-0.35-0.03c-1.92-0.35-3.87-0.71-5.81-1.09c-1.07-0.21-1.76-1.24-1.55-2.3c0.21-1.07,1.24-1.76,2.3-1.55           c1.92,0.37,3.85,0.74,5.75,1.08c1.07,0.19,1.78,1.22,1.58,2.28C597.3,1044.16,596.47,1044.82,595.54,1044.82z            M741.21,1040.59c-0.85,0-1.63-0.55-1.88-1.4c-0.31-1.04,0.28-2.13,1.32-2.45c1.87-0.56,3.74-1.14,5.56-1.74           c1.03-0.34,2.14,0.22,2.48,1.25c0.34,1.03-0.22,2.14-1.25,2.48c-1.85,0.61-3.76,1.2-5.66,1.77           C741.59,1040.56,741.4,1040.59,741.21,1040.59z M570.6,1039.57c-0.15,0-0.31-0.02-0.46-0.05c-1.9-0.46-3.84-0.94-5.75-1.42           c-1.05-0.27-1.69-1.34-1.42-2.39c0.27-1.05,1.34-1.69,2.39-1.42c1.9,0.48,3.82,0.96,5.7,1.41c1.06,0.25,1.7,1.32,1.45,2.37           C572.29,1038.96,571.49,1039.57,570.6,1039.57z M545.97,1032.92c-0.19,0-0.38-0.03-0.56-0.08           c-1.89-0.57-3.8-1.15-5.66-1.73c-1.04-0.32-1.61-1.43-1.29-2.46c0.32-1.04,1.43-1.61,2.46-1.29           c1.85,0.58,3.74,1.15,5.61,1.72c1.04,0.31,1.63,1.41,1.32,2.45C547.6,1032.37,546.82,1032.92,545.97,1032.92z            M765.14,1031.85c-0.76,0-1.48-0.44-1.8-1.18c-0.44-0.99,0.02-2.15,1.01-2.59c1.79-0.78,3.57-1.6,5.3-2.42           c0.98-0.47,2.15-0.05,2.62,0.93c0.47,0.98,0.05,2.15-0.93,2.62c-1.77,0.84-3.59,1.67-5.41,2.47           C765.67,1031.8,765.4,1031.85,765.14,1031.85z M521.74,1024.97c-0.22,0-0.44-0.04-0.66-0.11           c-1.84-0.66-3.71-1.34-5.55-2.02c-1.02-0.38-1.54-1.51-1.16-2.53c0.38-1.02,1.51-1.54,2.53-1.16           c1.83,0.68,3.68,1.35,5.51,2.01c1.02,0.37,1.55,1.49,1.19,2.51C523.31,1024.47,522.55,1024.97,521.74,1024.97z            M787.73,1020.07c-0.66,0-1.3-0.33-1.68-0.94c-0.57-0.92-0.28-2.13,0.64-2.7c1.65-1.02,3.3-2.07,4.9-3.13           c0.9-0.6,2.12-0.35,2.72,0.55c0.6,0.9,0.35,2.12-0.55,2.72c-1.64,1.09-3.32,2.16-5.01,3.2           C788.43,1019.97,788.08,1020.07,787.73,1020.07z M497.96,1015.78c-0.25,0-0.51-0.05-0.76-0.15           c-1.81-0.76-3.64-1.53-5.44-2.3c-1-0.43-1.46-1.59-1.03-2.58c0.43-1,1.58-1.46,2.58-1.03c1.78,0.77,3.59,1.53,5.39,2.28           c1,0.42,1.48,1.57,1.06,2.57C499.46,1015.33,498.73,1015.78,497.96,1015.78z M474.7,1005.37c-0.28,0-0.57-0.06-0.85-0.19           c-1.75-0.84-3.54-1.71-5.3-2.58c-0.97-0.48-1.37-1.66-0.89-2.63c0.48-0.97,1.66-1.37,2.63-0.89           c1.75,0.87,3.52,1.73,5.26,2.56c0.98,0.47,1.39,1.64,0.92,2.62C476.13,1004.96,475.43,1005.37,474.7,1005.37z            M808.35,1005.14c-0.56,0-1.11-0.24-1.5-0.69c-0.7-0.83-0.6-2.07,0.23-2.77c1.47-1.25,2.94-2.54,4.36-3.83           c0.8-0.73,2.04-0.67,2.78,0.13c0.73,0.8,0.67,2.04-0.13,2.78c-1.46,1.33-2.96,2.65-4.46,3.93           C809.25,1004.99,808.8,1005.14,808.35,1005.14z M452.01,993.77c-0.32,0-0.64-0.08-0.94-0.24           c-1.71-0.93-3.45-1.89-5.16-2.85c-0.95-0.53-1.28-1.73-0.75-2.68c0.53-0.95,1.73-1.28,2.68-0.75           c1.7,0.95,3.42,1.9,5.11,2.83c0.95,0.52,1.3,1.71,0.78,2.67C453.38,993.4,452.71,993.77,452.01,993.77z M826.4,987.21           c-0.45,0-0.91-0.16-1.28-0.47c-0.82-0.71-0.92-1.95-0.21-2.77c1.26-1.46,2.5-2.97,3.7-4.47c0.68-0.85,1.91-0.99,2.76-0.31           c0.85,0.68,0.99,1.91,0.31,2.76c-1.23,1.54-2.51,3.09-3.79,4.58C827.5,986.97,826.95,987.21,826.4,987.21z M429.99,980.97           c-0.35,0-0.71-0.1-1.03-0.29c-1.67-1.03-3.36-2.09-5-3.14c-0.92-0.58-1.18-1.8-0.6-2.71c0.58-0.92,1.8-1.18,2.71-0.6           c1.63,1.04,3.3,2.09,4.96,3.11c0.92,0.57,1.21,1.78,0.64,2.71C431.29,980.64,430.65,980.97,429.99,980.97z M408.71,966.94           c-0.39,0-0.78-0.12-1.13-0.36c-1.6-1.13-3.22-2.28-4.81-3.43c-0.88-0.64-1.08-1.87-0.44-2.74           c0.64-0.88,1.87-1.08,2.74-0.44c1.57,1.14,3.18,2.28,4.77,3.4c0.89,0.62,1.1,1.85,0.48,2.74           C409.94,966.65,409.33,966.94,408.71,966.94z M841.42,966.66c-0.35,0-0.71-0.1-1.03-0.29c-0.92-0.57-1.21-1.78-0.64-2.71           c1.01-1.64,2.01-3.32,2.97-5c0.54-0.94,1.74-1.27,2.68-0.73c0.94,0.54,1.27,1.74,0.73,2.68c-0.98,1.72-2,3.44-3.04,5.11           C842.72,966.33,842.08,966.66,841.42,966.66z M388.33,951.64c-0.43,0-0.87-0.14-1.23-0.43c-1.28-1.03-2.56-2.07-3.81-3.1           l-0.77-0.63c-0.84-0.69-0.96-1.93-0.27-2.77c0.69-0.84,1.93-0.96,2.77-0.27l0.77,0.63c1.24,1.02,2.51,2.05,3.77,3.07           c0.85,0.68,0.98,1.92,0.3,2.76C389.47,951.39,388.9,951.64,388.33,951.64z M853.18,944.07c-0.26,0-0.53-0.05-0.78-0.16           c-1-0.43-1.45-1.59-1.02-2.58c0.77-1.77,1.52-3.58,2.23-5.38c0.4-1.01,1.54-1.5,2.55-1.1c1.01,0.4,1.5,1.54,1.1,2.55           c-0.73,1.84-1.5,3.69-2.28,5.5C854.66,943.63,853.94,944.07,853.18,944.07z M368.85,935.12c-0.47,0-0.94-0.17-1.31-0.5           c-1.45-1.3-2.93-2.64-4.38-3.98c-0.8-0.73-0.85-1.98-0.12-2.78c0.73-0.8,1.98-0.85,2.78-0.12           c1.44,1.33,2.91,2.65,4.35,3.94c0.81,0.72,0.88,1.97,0.15,2.78C369.93,934.9,369.39,935.12,368.85,935.12z M861.76,920.08           c-0.18,0-0.36-0.02-0.54-0.08c-1.04-0.3-1.64-1.39-1.34-2.43c0.53-1.85,1.05-3.74,1.54-5.63c0.27-1.05,1.34-1.68,2.4-1.41           c1.05,0.27,1.68,1.34,1.41,2.4c-0.5,1.92-1.02,3.85-1.57,5.73C863.4,919.52,862.61,920.08,861.76,920.08z M350.29,917.59           c-0.5,0-1-0.19-1.39-0.57c-1.39-1.39-2.8-2.8-4.17-4.19c-0.76-0.77-0.75-2.02,0.03-2.78c0.77-0.76,2.02-0.75,2.78,0.03           c1.36,1.39,2.75,2.79,4.13,4.16c0.77,0.76,0.77,2.01,0.01,2.78C351.3,917.4,350.8,917.59,350.29,917.59z M332.67,899.14           c-0.54,0-1.07-0.22-1.46-0.65c-1.32-1.46-2.65-2.95-3.94-4.41c-0.72-0.81-0.64-2.06,0.17-2.77           c0.81-0.72,2.06-0.64,2.77,0.17c1.28,1.45,2.59,2.92,3.91,4.37c0.73,0.8,0.67,2.05-0.14,2.78           C333.61,898.97,333.14,899.14,332.67,899.14z M867.41,895.23c-0.11,0-0.22-0.01-0.33-0.03c-1.07-0.18-1.79-1.2-1.6-2.27           c0.33-1.9,0.64-3.84,0.92-5.77c0.16-1.07,1.15-1.82,2.23-1.66c1.07,0.16,1.82,1.16,1.66,2.23           c-0.29,1.96-0.6,3.93-0.94,5.86C869.18,894.56,868.35,895.23,867.41,895.23z M316.08,879.76c-0.57,0-1.14-0.25-1.53-0.73           c-1.24-1.53-2.48-3.09-3.69-4.62c-0.67-0.85-0.52-2.09,0.33-2.76c0.85-0.67,2.09-0.52,2.76,0.33           c1.2,1.52,2.42,3.06,3.65,4.58c0.68,0.84,0.55,2.08-0.29,2.76C316.95,879.62,316.51,879.76,316.08,879.76z M870.5,869.93           c-0.05,0-0.1,0-0.15-0.01c-1.08-0.08-1.89-1.03-1.81-2.11c0.15-1.92,0.27-3.88,0.38-5.83c0.06-1.08,0.99-1.92,2.07-1.85           c1.08,0.06,1.91,0.99,1.85,2.07c-0.11,1.98-0.24,3.96-0.39,5.91C872.38,869.14,871.52,869.93,870.5,869.93z M300.66,859.44           c-0.61,0-1.22-0.29-1.6-0.83c-1.15-1.61-2.29-3.24-3.39-4.85c-0.62-0.89-0.39-2.12,0.51-2.73           c0.89-0.61,2.12-0.39,2.73,0.51c1.09,1.59,2.22,3.2,3.35,4.8c0.63,0.88,0.42,2.11-0.46,2.74           C301.45,859.33,301.05,859.44,300.66,859.44z M871.37,844.46c-1.08,0-1.96-0.87-1.96-1.95c-0.01-1.94-0.04-3.91-0.08-5.85           c-0.02-1.09,0.84-1.98,1.92-2.01c1.07-0.03,1.98,0.84,2.01,1.92c0.04,1.97,0.07,3.96,0.08,5.92           c0.01,1.09-0.87,1.97-1.95,1.98C871.38,844.46,871.37,844.46,871.37,844.46z M286.61,838.17c-0.66,0-1.31-0.33-1.68-0.94           c-1.03-1.69-2.05-3.39-3.04-5.08c-0.55-0.94-0.24-2.14,0.7-2.69c0.93-0.55,2.14-0.24,2.69,0.7           c0.98,1.66,1.99,3.35,3.01,5.02c0.57,0.93,0.27,2.14-0.65,2.7C287.31,838.07,286.95,838.17,286.61,838.17z M870.32,818.99           c-1.02,0-1.88-0.79-1.96-1.82c-0.15-1.93-0.31-3.89-0.48-5.83c-0.1-1.08,0.7-2.04,1.78-2.13c1.08-0.09,2.04,0.7,2.13,1.78           c0.18,1.96,0.34,3.95,0.49,5.89c0.08,1.08-0.73,2.03-1.81,2.11C870.42,818.99,870.37,818.99,870.32,818.99z M274.17,815.91           c-0.72,0-1.41-0.39-1.75-1.08c-0.89-1.76-1.78-3.55-2.63-5.31c-0.47-0.98-0.06-2.15,0.92-2.62           c0.98-0.47,2.15-0.06,2.62,0.92c0.84,1.74,1.71,3.5,2.59,5.24c0.49,0.97,0.1,2.15-0.86,2.64           C274.77,815.84,274.47,815.91,274.17,815.91z M867.61,793.65c-0.97,0-1.81-0.71-1.94-1.7c-0.26-1.92-0.55-3.87-0.84-5.8           c-0.16-1.07,0.58-2.07,1.65-2.24c1.07-0.16,2.07,0.58,2.24,1.65c0.29,1.95,0.58,3.91,0.84,5.85           c0.15,1.08-0.6,2.07-1.68,2.22C867.79,793.64,867.7,793.65,867.61,793.65z M263.66,792.69c-0.78,0-1.52-0.47-1.83-1.24           c-0.73-1.84-1.45-3.7-2.13-5.53c-0.38-1.02,0.14-2.15,1.16-2.53c1.02-0.38,2.15,0.14,2.53,1.16           c0.67,1.81,1.38,3.64,2.1,5.45c0.4,1.01-0.09,2.15-1.1,2.55C264.15,792.65,263.9,792.69,263.66,792.69z M255.45,768.57           c-0.86,0-1.65-0.57-1.89-1.43c-0.54-1.9-1.05-3.83-1.54-5.73c-0.27-1.05,0.37-2.12,1.42-2.39           c1.05-0.27,2.12,0.37,2.39,1.42c0.48,1.87,0.99,3.76,1.51,5.63c0.3,1.04-0.31,2.13-1.36,2.43           C255.8,768.55,255.62,768.57,255.45,768.57z M863.43,768.5c-0.92,0-1.75-0.65-1.93-1.59c-0.36-1.89-0.74-3.77-1.14-5.75           c-0.22-1.06,0.47-2.1,1.53-2.32c1.06-0.22,2.1,0.47,2.32,1.53c0.41,2,0.78,3.89,1.15,5.79c0.21,1.07-0.49,2.1-1.56,2.3           C863.68,768.49,863.55,768.5,863.43,768.5z M249.93,743.71c-0.95,0-1.78-0.69-1.94-1.65c-0.31-1.95-0.6-3.93-0.86-5.87           c-0.14-1.08,0.62-2.06,1.69-2.2c1.08-0.14,2.06,0.62,2.2,1.69c0.25,1.91,0.53,3.85,0.84,5.76           c0.17,1.07-0.56,2.08-1.63,2.25C250.14,743.7,250.03,743.71,249.93,743.71z M858.04,743.58c-0.88,0-1.69-0.6-1.91-1.49           c-0.46-1.87-0.95-3.78-1.45-5.67c-0.28-1.05,0.35-2.12,1.4-2.4c1.05-0.28,2.12,0.35,2.4,1.4c0.5,1.91,1,3.84,1.46,5.73           c0.26,1.05-0.38,2.12-1.44,2.38C858.35,743.56,858.19,743.58,858.04,743.58z M851.09,719.05c-0.83,0-1.6-0.53-1.87-1.37           c-0.59-1.84-1.2-3.71-1.82-5.56c-0.35-1.03,0.21-2.14,1.24-2.49c1.03-0.34,2.14,0.21,2.49,1.24           c0.63,1.87,1.25,3.76,1.84,5.62c0.33,1.03-0.24,2.14-1.27,2.47C851.49,719.02,851.29,719.05,851.09,719.05z M247.48,718.38           c-1.06,0-1.93-0.84-1.96-1.9c-0.06-1.97-0.1-3.97-0.1-5.94c0-1.09,0.88-1.97,1.96-1.97c0,0,0,0,0,0           c1.08,0,1.96,0.88,1.97,1.96c0,1.93,0.03,3.89,0.1,5.82c0.03,1.09-0.82,1.99-1.9,2.03           C247.52,718.38,247.5,718.38,247.48,718.38z M842.57,695.02c-0.79,0-1.53-0.47-1.83-1.25c-0.71-1.81-1.43-3.64-2.17-5.44           c-0.41-1.01,0.07-2.15,1.08-2.56c1.01-0.41,2.15,0.07,2.56,1.08c0.74,1.82,1.48,3.67,2.19,5.49           c0.39,1.01-0.1,2.15-1.12,2.55C843.05,694.98,842.8,695.02,842.57,695.02z M248.38,692.93c-0.07,0-0.14,0-0.2-0.01           c-1.08-0.11-1.86-1.08-1.75-2.16c0.2-1.96,0.44-3.95,0.7-5.9c0.15-1.08,1.14-1.83,2.21-1.68c1.08,0.15,1.83,1.14,1.68,2.21           c-0.26,1.91-0.49,3.86-0.69,5.78C250.23,692.17,249.38,692.93,248.38,692.93z M832.56,671.57c-0.74,0-1.45-0.42-1.78-1.14           c-0.81-1.75-1.65-3.54-2.5-5.29c-0.47-0.98-0.06-2.15,0.92-2.62c0.98-0.47,2.15-0.06,2.62,0.92           c0.85,1.78,1.7,3.57,2.52,5.34c0.46,0.98,0.03,2.15-0.96,2.61C833.12,671.51,832.84,671.57,832.56,671.57z M252.72,667.83           c-0.15,0-0.31-0.02-0.47-0.06c-1.05-0.26-1.7-1.32-1.45-2.37c0.46-1.9,0.97-3.84,1.49-5.74c0.29-1.05,1.37-1.66,2.42-1.37           c1.05,0.29,1.66,1.37,1.37,2.42c-0.52,1.87-1.01,3.76-1.46,5.63C254.41,667.23,253.6,667.83,252.72,667.83z M821.13,648.79           c-0.7,0-1.37-0.37-1.73-1.03c-0.92-1.71-1.87-3.43-2.82-5.13c-0.53-0.95-0.19-2.14,0.75-2.67           c0.95-0.53,2.14-0.19,2.67,0.75c0.96,1.71,1.92,3.45,2.85,5.18c0.52,0.95,0.16,2.15-0.79,2.66           C821.77,648.71,821.45,648.79,821.13,648.79z M260.36,643.57c-0.24,0-0.48-0.04-0.71-0.13c-1.01-0.39-1.51-1.53-1.12-2.54           c0.71-1.83,1.46-3.68,2.23-5.49c0.42-1,1.58-1.47,2.58-1.04c1,0.42,1.47,1.58,1.04,2.58c-0.75,1.78-1.49,3.59-2.19,5.38           C261.89,643.1,261.15,643.57,260.36,643.57z M808.29,626.76c-0.65,0-1.29-0.33-1.67-0.92c-1.03-1.64-2.09-3.3-3.14-4.94           c-0.59-0.91-0.33-2.13,0.58-2.72c0.91-0.59,2.13-0.33,2.72,0.58c1.07,1.65,2.14,3.33,3.18,4.99           c0.58,0.92,0.3,2.13-0.62,2.71C809.01,626.67,808.65,626.76,808.29,626.76z M271.08,620.49c-0.32,0-0.64-0.08-0.94-0.24           c-0.95-0.52-1.31-1.71-0.79-2.66c0.94-1.73,1.92-3.47,2.91-5.18c0.54-0.94,1.75-1.26,2.69-0.72           c0.94,0.54,1.26,1.75,0.71,2.69c-0.97,1.68-1.93,3.39-2.85,5.09C272.45,620.12,271.78,620.49,271.08,620.49z            M794.06,605.62c-0.61,0-1.21-0.28-1.59-0.81c-1.14-1.58-2.31-3.17-3.46-4.72c-0.65-0.87-0.47-2.1,0.4-2.75           c0.87-0.65,2.1-0.47,2.75,0.4c1.17,1.57,2.35,3.17,3.5,4.77c0.64,0.88,0.44,2.11-0.44,2.74           C794.86,605.5,794.46,605.62,794.06,605.62z M284.55,598.86c-0.39,0-0.79-0.12-1.13-0.36c-0.89-0.63-1.1-1.85-0.47-2.74           c1.13-1.61,2.31-3.23,3.5-4.82c0.65-0.87,1.88-1.05,2.75-0.4c0.87,0.65,1.05,1.88,0.4,2.75c-1.17,1.56-2.32,3.15-3.44,4.73           C285.77,598.58,285.16,598.86,284.55,598.86z M778.45,585.5c-0.56,0-1.12-0.24-1.51-0.71c-1.24-1.49-2.51-2.99-3.77-4.45           c-0.71-0.82-0.62-2.06,0.21-2.77c0.82-0.71,2.06-0.62,2.77,0.21c1.27,1.48,2.55,2.99,3.81,4.5           c0.69,0.83,0.58,2.07-0.25,2.77C779.34,585.35,778.89,585.5,778.45,585.5z M300.37,578.89c-0.46,0-0.93-0.16-1.3-0.49           c-0.81-0.72-0.89-1.96-0.17-2.77c1.29-1.46,2.63-2.94,3.98-4.4c0.74-0.8,1.98-0.84,2.78-0.11c0.8,0.74,0.84,1.98,0.11,2.78           c-1.32,1.43-2.64,2.89-3.91,4.33C301.46,578.66,300.92,578.89,300.37,578.89z M761.46,566.56c-0.51,0-1.03-0.2-1.41-0.6           c-1.34-1.39-2.71-2.79-4.08-4.16c-0.77-0.77-0.77-2.01,0-2.78c0.77-0.77,2.01-0.77,2.78,0c1.39,1.39,2.78,2.8,4.13,4.21           c0.75,0.78,0.73,2.03-0.05,2.78C762.44,566.38,761.95,566.56,761.46,566.56z M318.17,560.66c-0.53,0-1.05-0.21-1.44-0.63           c-0.74-0.8-0.69-2.04,0.1-2.78c1.43-1.33,2.91-2.67,4.38-3.98c0.81-0.72,2.05-0.65,2.77,0.16           c0.72,0.81,0.65,2.05-0.16,2.77c-1.45,1.29-2.91,2.61-4.32,3.93C319.13,560.49,318.65,560.66,318.17,560.66z M743.1,548.95           c-0.46,0-0.93-0.16-1.3-0.5c-1.46-1.29-2.94-2.58-4.41-3.84c-0.83-0.71-0.92-1.95-0.22-2.77c0.71-0.82,1.95-0.92,2.77-0.22           c1.49,1.27,2.99,2.58,4.46,3.89c0.81,0.72,0.89,1.96,0.17,2.77C744.18,548.72,743.64,548.95,743.1,548.95z M337.62,544.2           c-0.59,0-1.17-0.26-1.56-0.76c-0.66-0.86-0.5-2.09,0.35-2.76c1.55-1.2,3.14-2.4,4.72-3.57c0.87-0.65,2.1-0.46,2.75,0.41           c0.65,0.87,0.46,2.1-0.41,2.75c-1.56,1.16-3.13,2.34-4.66,3.52C338.47,544.07,338.04,544.2,337.62,544.2z M723.38,532.82           c-0.41,0-0.82-0.13-1.18-0.39c-1.55-1.16-3.13-2.33-4.71-3.46c-0.88-0.63-1.08-1.86-0.44-2.74           c0.63-0.88,1.86-1.08,2.74-0.44c1.59,1.15,3.2,2.33,4.77,3.51c0.87,0.65,1.04,1.88,0.39,2.75           C724.56,532.55,723.97,532.82,723.38,532.82z M358.44,529.51c-0.65,0-1.28-0.32-1.65-0.9c-0.59-0.91-0.33-2.13,0.59-2.72           c1.65-1.06,3.33-2.13,5-3.16c0.92-0.57,2.13-0.29,2.71,0.64c0.57,0.92,0.29,2.13-0.64,2.71c-1.65,1.02-3.32,2.07-4.94,3.12           C359.18,529.41,358.81,529.51,358.44,529.51z M702.38,518.4c-0.36,0-0.72-0.1-1.04-0.3c-1.65-1.03-3.32-2.06-4.98-3.05           c-0.93-0.56-1.24-1.76-0.68-2.7c0.56-0.93,1.76-1.24,2.7-0.68c1.68,1.01,3.38,2.04,5.05,3.09c0.92,0.58,1.2,1.79,0.62,2.71           C703.67,518.08,703.03,518.4,702.38,518.4z M380.39,516.56c-0.7,0-1.38-0.37-1.73-1.03c-0.51-0.96-0.16-2.15,0.8-2.66           c1.72-0.93,3.48-1.86,5.23-2.76c0.96-0.5,2.15-0.12,2.65,0.85c0.5,0.96,0.12,2.15-0.85,2.65           c-1.73,0.89-3.47,1.81-5.17,2.73C381.03,516.49,380.71,516.56,380.39,516.56z M680.21,505.86c-0.3,0-0.6-0.07-0.89-0.21           c-1.72-0.88-3.48-1.75-5.23-2.59c-0.98-0.47-1.39-1.65-0.91-2.62c0.47-0.98,1.65-1.39,2.62-0.91           c1.77,0.86,3.56,1.74,5.3,2.63c0.97,0.49,1.35,1.68,0.86,2.64C681.62,505.47,680.93,505.86,680.21,505.86z M403.29,505.34           c-0.75,0-1.47-0.43-1.8-1.17c-0.44-0.99,0.01-2.15,1-2.59c1.79-0.8,3.63-1.59,5.44-2.37c1-0.42,2.15,0.04,2.58,1.04           c0.42,1-0.04,2.15-1.04,2.58c-1.8,0.76-3.61,1.55-5.38,2.34C403.83,505.28,403.56,505.34,403.29,505.34z M426.97,495.83           c-0.81,0-1.56-0.5-1.85-1.3c-0.37-1.02,0.16-2.15,1.18-2.51c1.86-0.67,3.74-1.33,5.59-1.96c1.03-0.35,2.14,0.2,2.5,1.22           c0.35,1.03-0.2,2.14-1.22,2.49c-1.84,0.63-3.7,1.28-5.53,1.94C427.42,495.79,427.2,495.83,426.97,495.83z M657.02,495.35           c-0.24,0-0.49-0.05-0.73-0.14c-1.79-0.72-3.63-1.43-5.44-2.11c-1.02-0.38-1.53-1.51-1.15-2.53           c0.38-1.02,1.51-1.53,2.53-1.15c1.84,0.69,3.7,1.41,5.52,2.14c1.01,0.4,1.5,1.55,1.1,2.55           C658.54,494.88,657.8,495.35,657.02,495.35z M451.27,488.04c-0.86,0-1.65-0.57-1.89-1.43c-0.29-1.04,0.31-2.13,1.36-2.42           c1.89-0.53,3.81-1.06,5.71-1.56c1.05-0.28,2.12,0.35,2.4,1.4c0.28,1.05-0.35,2.12-1.4,2.4c-1.88,0.5-3.79,1.02-5.65,1.54           C451.62,488.02,451.44,488.04,451.27,488.04z M632.98,486.98c-0.19,0-0.37-0.03-0.56-0.08c-1.87-0.56-3.76-1.1-5.61-1.61           c-1.05-0.29-1.66-1.37-1.37-2.42c0.29-1.05,1.37-1.66,2.42-1.37c1.88,0.52,3.8,1.07,5.69,1.63           c1.04,0.31,1.63,1.4,1.32,2.44C634.6,486.42,633.82,486.98,632.98,486.98z M476.04,482c-0.91,0-1.73-0.64-1.92-1.57           c-0.22-1.06,0.46-2.1,1.53-2.32c1.91-0.4,3.87-0.78,5.81-1.15c1.07-0.2,2.09,0.5,2.3,1.57c0.2,1.07-0.5,2.09-1.56,2.3           c-1.92,0.36-3.85,0.75-5.74,1.14C476.31,481.99,476.17,482,476.04,482z M608.45,480.83c-0.13,0-0.26-0.01-0.39-0.04           c-1.9-0.39-3.83-0.76-5.74-1.11c-1.07-0.2-1.77-1.22-1.58-2.29c0.2-1.07,1.22-1.77,2.29-1.58           c1.94,0.35,3.89,0.73,5.81,1.12c1.06,0.22,1.75,1.26,1.53,2.32C610.18,480.19,609.36,480.83,608.45,480.83z M501.17,477.74           c-0.97,0-1.81-0.72-1.95-1.71c-0.14-1.08,0.61-2.06,1.69-2.21c1.94-0.26,3.92-0.5,5.87-0.73c1.08-0.12,2.05,0.65,2.18,1.73           c0.12,1.08-0.65,2.05-1.73,2.18c-1.93,0.22-3.88,0.47-5.8,0.72C501.35,477.73,501.26,477.74,501.17,477.74z M583.29,476.82           c-0.08,0-0.15,0-0.23-0.01c-1.92-0.22-3.87-0.43-5.81-0.62c-1.08-0.1-1.87-1.07-1.77-2.15s1.07-1.87,2.15-1.77           c1.96,0.19,3.94,0.4,5.88,0.63c1.08,0.13,1.85,1.1,1.73,2.18C585.12,476.09,584.27,476.82,583.29,476.82z M526.54,475.3           c-1.03,0-1.9-0.81-1.96-1.85c-0.06-1.08,0.76-2.01,1.85-2.08c1.96-0.12,3.94-0.22,5.9-0.3c1.09-0.06,2,0.8,2.05,1.88           c0.05,1.08-0.8,2-1.88,2.05c-1.94,0.08-3.9,0.18-5.83,0.29C526.61,475.3,526.57,475.3,526.54,475.3z M557.88,474.91           c-0.02,0-0.05,0-0.07,0c-1.94-0.07-3.9-0.12-5.84-0.15c-1.09-0.02-1.95-0.91-1.93-2c0.02-1.07,0.89-1.93,1.96-1.93           c0.01,0,0.02,0,0.03,0c1.96,0.03,3.95,0.09,5.91,0.15c1.08,0.04,1.93,0.95,1.9,2.03           C559.8,474.08,558.93,474.91,557.88,474.91z"></path>
								</g>
							</g>
						</g>
					</g>
				</g>
			</g>
		</g>
	</g>
</g>
<g>
	<g>
		<g>
			<g>
				<g>
					<g>
						<g>
							<g>
								<g>
									<path class="st0" d="M1165.18,902.34c132.56,71.83,327.71,43.54,396.68-78.66c71.43-126.54-32.5-282.86-46.3-303.62           c-88.88-133.68-283-240.74-406.35-168.73c-91.74,53.55-102.65,181.82-105.55,215.8           C994.5,674.8,1032.13,830.24,1165.18,902.34z"></path>
								</g>
							</g>
						</g>
					</g>
				</g>
			</g>
		</g>
	</g>
</g>
<g>
	<g>
		<g>
			<g>
				<g>
					<g>
						<g>
							<g>
								<g>
									<path class="st1" d="M1363.57,937.44c-0.01,0-0.03,0-0.04,0c-1.95-0.04-3.94-0.1-5.91-0.17c-1.08-0.04-1.93-0.95-1.89-2.04           c0.04-1.09,0.96-1.94,2.04-1.89c1.95,0.07,3.92,0.13,5.85,0.17c1.09,0.02,1.95,0.92,1.92,2.01           C1365.51,936.59,1364.63,937.44,1363.57,937.44z M1383.18,937.32c-1.05,0-1.93-0.84-1.96-1.9           c-0.04-1.08,0.81-1.99,1.9-2.03c1.94-0.07,3.91-0.15,5.85-0.25c1.08-0.05,2.01,0.78,2.06,1.86           c0.05,1.08-0.78,2.01-1.86,2.06c-1.97,0.1-3.96,0.18-5.92,0.25C1383.22,937.32,1383.2,937.32,1383.18,937.32z            M1338.12,936.01c-0.06,0-0.12,0-0.18-0.01c-1.97-0.18-3.95-0.38-5.88-0.59c-1.08-0.12-1.86-1.09-1.74-2.17           c0.12-1.08,1.09-1.85,2.17-1.74c1.91,0.21,3.87,0.4,5.82,0.58c1.08,0.1,1.88,1.06,1.78,2.14           C1339.98,935.25,1339.13,936.01,1338.12,936.01z M1408.61,935.54c-0.99,0-1.84-0.75-1.95-1.76           c-0.11-1.08,0.67-2.05,1.75-2.16c1.94-0.21,3.9-0.43,5.82-0.67c1.08-0.14,2.06,0.63,2.19,1.71           c0.13,1.08-0.63,2.06-1.71,2.19c-1.94,0.24-3.92,0.47-5.89,0.68C1408.75,935.54,1408.68,935.54,1408.61,935.54z            M1312.85,932.78c-0.11,0-0.21-0.01-0.32-0.03c-1.93-0.32-3.89-0.66-5.83-1.01c-1.07-0.19-1.78-1.22-1.58-2.28           c0.19-1.07,1.22-1.78,2.28-1.58c1.91,0.35,3.85,0.68,5.76,1c1.07,0.18,1.8,1.19,1.62,2.26           C1314.62,932.09,1313.79,932.78,1312.85,932.78z M1433.85,931.91c-0.93,0-1.76-0.66-1.93-1.61           c-0.19-1.07,0.51-2.09,1.58-2.29c1.92-0.35,3.86-0.72,5.76-1.1c1.06-0.21,2.1,0.48,2.31,1.54c0.21,1.06-0.48,2.1-1.54,2.31           c-1.92,0.39-3.88,0.76-5.83,1.12C1434.09,931.9,1433.97,931.91,1433.85,931.91z M1287.87,927.72           c-0.15,0-0.31-0.02-0.46-0.05c-1.91-0.46-3.84-0.94-5.74-1.44c-1.05-0.27-1.68-1.34-1.41-2.4c0.27-1.05,1.34-1.68,2.4-1.41           c1.88,0.49,3.78,0.96,5.67,1.42c1.06,0.25,1.7,1.32,1.45,2.37C1289.56,927.12,1288.76,927.72,1287.87,927.72z            M1458.75,926.36c-0.87,0-1.67-0.58-1.9-1.46c-0.28-1.05,0.35-2.12,1.4-2.4c1.88-0.5,3.79-1.02,5.65-1.55           c1.05-0.3,2.13,0.31,2.43,1.35c0.3,1.04-0.31,2.13-1.35,2.43c-1.89,0.54-3.82,1.07-5.72,1.57           C1459.08,926.34,1458.92,926.36,1458.75,926.36z M1263.34,920.82c-0.2,0-0.4-0.03-0.6-0.1c-1.88-0.61-3.77-1.24-5.61-1.87           c-1.03-0.35-1.57-1.47-1.22-2.5c0.35-1.03,1.47-1.57,2.5-1.22c1.82,0.62,3.69,1.25,5.54,1.85c1.03,0.33,1.6,1.44,1.27,2.47           C1264.94,920.29,1264.17,920.82,1263.34,920.82z M1483.11,918.84c-0.81,0-1.57-0.5-1.85-1.31           c-0.36-1.02,0.17-2.15,1.19-2.51c1.83-0.65,3.68-1.33,5.48-2.01c1.01-0.38,2.15,0.13,2.53,1.14           c0.38,1.01-0.13,2.15-1.14,2.53c-1.83,0.69-3.7,1.38-5.56,2.04C1483.55,918.8,1483.33,918.84,1483.11,918.84z            M1239.42,912.04c-0.25,0-0.5-0.05-0.75-0.15c-1.81-0.75-3.64-1.53-5.45-2.31c-0.99-0.43-1.45-1.59-1.02-2.59           c0.43-0.99,1.59-1.45,2.59-1.02c1.78,0.78,3.59,1.55,5.38,2.28c1,0.41,1.48,1.56,1.07,2.57           C1240.93,911.58,1240.2,912.04,1239.42,912.04z M1506.72,909.25c-0.74,0-1.46-0.42-1.79-1.14           c-0.45-0.99-0.02-2.15,0.96-2.61c1.77-0.81,3.54-1.65,5.28-2.5c0.98-0.48,2.15-0.07,2.63,0.91           c0.47,0.98,0.07,2.15-0.91,2.63c-1.76,0.86-3.56,1.71-5.35,2.53C1507.27,909.19,1506.99,909.25,1506.72,909.25z            M1216.31,901.33c-0.3,0-0.61-0.07-0.9-0.22c-1.74-0.9-3.5-1.83-5.23-2.77c-0.95-0.52-1.31-1.71-0.79-2.66           c0.52-0.95,1.71-1.31,2.66-0.79c1.7,0.92,3.44,1.84,5.16,2.73c0.96,0.5,1.34,1.68,0.85,2.65           C1217.71,900.94,1217.02,901.33,1216.31,901.33z M1529.34,897.5c-0.68,0-1.33-0.35-1.7-0.97           c-0.55-0.94-0.23-2.14,0.71-2.69c1.68-0.98,3.37-1.99,5.02-3.01c0.92-0.57,2.13-0.28,2.7,0.64           c0.57,0.92,0.28,2.13-0.64,2.7c-1.68,1.03-3.39,2.06-5.1,3.06C1530.01,897.41,1529.67,897.5,1529.34,897.5z            M1194.44,888.81c-0.36,0-0.72-0.1-1.05-0.31c-1.67-1.05-3.34-2.14-4.97-3.22c-0.91-0.6-1.15-1.82-0.55-2.72           c0.6-0.9,1.82-1.15,2.72-0.55c1.61,1.07,3.26,2.13,4.9,3.17c0.92,0.58,1.19,1.79,0.61,2.71           C1195.72,888.48,1195.09,888.81,1194.44,888.81z M1550.66,883.51c-0.6,0-1.2-0.28-1.58-0.8c-0.64-0.87-0.46-2.1,0.42-2.75           c1.57-1.16,3.14-2.34,4.66-3.52c0.86-0.67,2.09-0.51,2.76,0.35c0.67,0.86,0.51,2.09-0.35,2.76           c-1.55,1.2-3.15,2.41-4.74,3.59C1551.47,883.38,1551.06,883.51,1550.66,883.51z M1173.55,874.23           c-0.42,0-0.84-0.13-1.2-0.41c-1.56-1.2-3.13-2.43-4.66-3.65c-0.85-0.68-0.98-1.92-0.31-2.76c0.68-0.85,1.92-0.98,2.76-0.31           c1.51,1.21,3.05,2.42,4.59,3.6c0.86,0.66,1.02,1.89,0.36,2.76C1174.73,873.97,1174.14,874.23,1173.55,874.23z            M1570.28,867.25c-0.53,0-1.05-0.21-1.44-0.63c-0.74-0.79-0.7-2.04,0.1-2.78c1.42-1.32,2.83-2.68,4.21-4.03           c0.77-0.76,2.02-0.75,2.78,0.02c0.76,0.77,0.75,2.02-0.02,2.78c-1.4,1.38-2.84,2.76-4.29,4.11           C1571.24,867.08,1570.76,867.25,1570.28,867.25z M1154.07,857.83c-0.48,0-0.95-0.17-1.33-0.52           c-1.45-1.33-2.9-2.7-4.31-4.06c-0.78-0.75-0.81-2-0.05-2.78c0.75-0.78,2-0.81,2.78-0.05c1.39,1.34,2.82,2.69,4.25,4           c0.8,0.74,0.85,1.98,0.11,2.78C1155.13,857.62,1154.6,857.83,1154.07,857.83z M1587.81,848.78c-0.44,0-0.89-0.15-1.26-0.46           c-0.83-0.7-0.94-1.94-0.25-2.77c1.24-1.48,2.47-3,3.66-4.52c0.67-0.85,1.91-1,2.76-0.33c0.85,0.67,1,1.91,0.33,2.76           c-1.22,1.55-2.47,3.1-3.74,4.61C1588.93,848.54,1588.37,848.78,1587.81,848.78z M1136.14,839.74           c-0.54,0-1.07-0.22-1.46-0.64c-1.31-1.45-2.64-2.94-3.93-4.42c-0.71-0.82-0.63-2.06,0.19-2.77           c0.82-0.71,2.06-0.63,2.77,0.19c1.28,1.47,2.59,2.94,3.88,4.36c0.73,0.8,0.67,2.05-0.13,2.78           C1137.08,839.57,1136.61,839.74,1136.14,839.74z M1602.82,828.23c-0.36,0-0.72-0.1-1.05-0.31           c-0.92-0.58-1.19-1.8-0.61-2.71c1.03-1.63,2.05-3.3,3.04-4.96c0.55-0.93,1.76-1.24,2.69-0.69           c0.93,0.55,1.24,1.76,0.69,2.69c-1,1.7-2.05,3.4-3.1,5.06C1604.11,827.91,1603.47,828.23,1602.82,828.23z M1119.86,820.15           c-0.59,0-1.18-0.27-1.57-0.77c-1.19-1.56-2.38-3.15-3.54-4.74c-0.64-0.88-0.45-2.11,0.43-2.75           c0.88-0.64,2.11-0.45,2.75,0.43c1.15,1.57,2.32,3.14,3.49,4.68c0.66,0.86,0.49,2.1-0.37,2.75           C1120.69,820.02,1120.27,820.15,1119.86,820.15z M1614.97,805.86c-0.27,0-0.55-0.06-0.82-0.18           c-0.99-0.45-1.42-1.62-0.97-2.61c0.8-1.75,1.59-3.55,2.34-5.33c0.42-1,1.57-1.47,2.57-1.05c1,0.42,1.47,1.57,1.05,2.57           c-0.76,1.82-1.57,3.65-2.39,5.44C1616.43,805.43,1615.72,805.86,1614.97,805.86z M1105.29,799.27           c-0.65,0-1.28-0.32-1.66-0.91c-1.05-1.65-2.1-3.33-3.13-5c-0.57-0.93-0.28-2.14,0.65-2.7c0.93-0.57,2.14-0.28,2.7,0.65           c1.01,1.65,2.05,3.31,3.09,4.94c0.58,0.91,0.32,2.13-0.6,2.71C1106.02,799.17,1105.65,799.27,1105.29,799.27z            M1623.99,782.04c-0.19,0-0.38-0.03-0.57-0.08c-1.04-0.31-1.63-1.41-1.31-2.45c0.56-1.84,1.1-3.73,1.6-5.6           c0.28-1.05,1.36-1.67,2.41-1.39c1.05,0.28,1.67,1.36,1.39,2.41c-0.52,1.91-1.07,3.83-1.64,5.71           C1625.61,781.5,1624.83,782.04,1623.99,782.04z M1092.45,777.3c-0.7,0-1.38-0.38-1.74-1.04c-0.92-1.72-1.84-3.48-2.73-5.23           c-0.49-0.97-0.11-2.15,0.85-2.64c0.97-0.5,2.15-0.11,2.64,0.85c0.88,1.72,1.79,3.46,2.7,5.17           c0.51,0.96,0.15,2.15-0.81,2.66C1093.07,777.23,1092.76,777.3,1092.45,777.3z M1629.76,757.23c-0.11,0-0.21-0.01-0.32-0.03           c-1.07-0.18-1.79-1.19-1.62-2.26c0.31-1.9,0.61-3.84,0.87-5.76c0.15-1.08,1.13-1.83,2.21-1.68           c1.08,0.15,1.83,1.14,1.68,2.21c-0.27,1.96-0.57,3.94-0.89,5.87C1631.54,756.55,1630.71,757.23,1629.76,757.23z            M1081.31,754.41c-0.75,0-1.47-0.44-1.8-1.17c-0.79-1.79-1.58-3.61-2.34-5.41c-0.42-1,0.05-2.15,1.05-2.58           c1-0.42,2.15,0.05,2.58,1.05c0.75,1.78,1.53,3.58,2.31,5.35c0.44,0.99-0.01,2.15-1,2.59           C1081.84,754.36,1081.57,754.41,1081.31,754.41z M1632.4,731.9c-0.03,0-0.06,0-0.09,0c-1.08-0.05-1.92-0.97-1.87-2.05           c0.09-1.93,0.15-3.89,0.19-5.83c0.02-1.07,0.9-1.93,1.96-1.93c0.01,0,0.03,0,0.04,0c1.09,0.02,1.95,0.92,1.93,2           c-0.04,1.98-0.1,3.97-0.19,5.93C1634.32,731.08,1633.45,731.9,1632.4,731.9z M1071.84,730.78c-0.8,0-1.56-0.5-1.85-1.3           c-0.66-1.83-1.32-3.7-1.96-5.56c-0.35-1.03,0.19-2.14,1.22-2.5c1.03-0.35,2.14,0.2,2.5,1.22c0.63,1.84,1.28,3.69,1.94,5.5           c0.37,1.02-0.16,2.15-1.18,2.52C1072.29,730.74,1072.07,730.78,1071.84,730.78z M1064.01,706.55           c-0.85,0-1.64-0.56-1.89-1.42c-0.54-1.88-1.07-3.8-1.59-5.7c-0.28-1.05,0.34-2.13,1.38-2.41c1.05-0.28,2.13,0.34,2.41,1.38           c0.51,1.88,1.04,3.78,1.57,5.64c0.3,1.04-0.3,2.13-1.35,2.43C1064.37,706.53,1064.19,706.55,1064.01,706.55z            M1632.17,706.41c-1.03,0-1.9-0.8-1.96-1.85c-0.12-1.93-0.26-3.9-0.42-5.84c-0.09-1.08,0.71-2.03,1.79-2.12           c1.07-0.09,2.03,0.71,2.12,1.79c0.17,1.97,0.31,3.97,0.43,5.93c0.07,1.08-0.76,2.02-1.84,2.08           C1632.26,706.41,1632.21,706.41,1632.17,706.41z M1057.77,681.84c-0.9,0-1.72-0.63-1.92-1.55           c-0.42-1.92-0.83-3.86-1.22-5.78c-0.22-1.06,0.47-2.1,1.53-2.32c1.06-0.22,2.1,0.47,2.32,1.53           c0.39,1.9,0.79,3.83,1.21,5.73c0.23,1.06-0.44,2.11-1.5,2.34C1058.05,681.82,1057.91,681.84,1057.77,681.84z            M1629.41,681.06c-0.95,0-1.79-0.69-1.94-1.66c-0.3-1.9-0.62-3.84-0.96-5.77c-0.19-1.07,0.53-2.09,1.6-2.28           c1.07-0.18,2.09,0.53,2.28,1.6c0.34,1.95,0.67,3.91,0.97,5.84c0.17,1.07-0.57,2.08-1.64,2.24           C1629.61,681.05,1629.51,681.06,1629.41,681.06z M1053.1,656.78c-0.95,0-1.79-0.69-1.94-1.67           c-0.3-1.92-0.59-3.89-0.86-5.85c-0.15-1.08,0.6-2.07,1.67-2.22c1.08-0.15,2.07,0.6,2.22,1.67           c0.27,1.94,0.56,3.89,0.85,5.79c0.17,1.07-0.57,2.08-1.64,2.24C1053.3,656.77,1053.2,656.78,1053.1,656.78z            M1624.45,656.06c-0.89,0-1.69-0.61-1.91-1.51c-0.45-1.87-0.93-3.78-1.42-5.68c-0.27-1.05,0.36-2.12,1.41-2.39           c1.05-0.27,2.12,0.36,2.39,1.41c0.5,1.92,0.98,3.85,1.43,5.74c0.25,1.06-0.4,2.12-1.45,2.37           C1624.76,656.04,1624.6,656.06,1624.45,656.06z M1617.59,631.51c-0.83,0-1.61-0.53-1.87-1.37           c-0.58-1.84-1.19-3.71-1.81-5.57c-0.34-1.03,0.21-2.14,1.24-2.49c1.03-0.34,2.14,0.21,2.49,1.24           c0.63,1.87,1.24,3.76,1.83,5.62c0.33,1.03-0.24,2.14-1.28,2.47C1617.99,631.48,1617.79,631.51,1617.59,631.51z            M1049.99,631.48c-1,0-1.86-0.77-1.95-1.79c-0.18-1.95-0.35-3.93-0.5-5.89c-0.08-1.08,0.73-2.03,1.81-2.11           c1.08-0.08,2.03,0.73,2.11,1.81c0.15,1.94,0.32,3.9,0.49,5.83c0.1,1.08-0.7,2.04-1.78,2.14           C1050.11,631.47,1050.05,631.48,1049.99,631.48z M1609.1,607.47c-0.79,0-1.53-0.48-1.83-1.25           c-0.71-1.82-1.44-3.65-2.16-5.44c-0.41-1.01,0.08-2.15,1.08-2.56c1.01-0.41,2.15,0.08,2.56,1.08           c0.73,1.81,1.46,3.66,2.18,5.5c0.39,1.01-0.11,2.15-1.12,2.54C1609.58,607.42,1609.34,607.47,1609.1,607.47z            M1048.46,606.03c-1.06,0-1.93-0.84-1.96-1.91c-0.06-1.96-0.1-3.95-0.13-5.91c-0.02-1.09,0.85-1.98,1.94-1.99           c0.01,0,0.02,0,0.03,0c1.07,0,1.95,0.86,1.96,1.94c0.03,1.94,0.07,3.91,0.13,5.85c0.03,1.09-0.82,1.99-1.91,2.02           C1048.5,606.03,1048.48,606.03,1048.46,606.03z M1599.18,583.98c-0.75,0-1.46-0.43-1.79-1.15           c-0.81-1.77-1.64-3.55-2.47-5.32c-0.46-0.98-0.04-2.15,0.94-2.62c0.98-0.46,2.15-0.04,2.62,0.94           c0.84,1.78,1.67,3.58,2.49,5.36c0.45,0.99,0.01,2.15-0.97,2.6C1599.73,583.92,1599.45,583.98,1599.18,583.98z            M1048.56,580.55c-0.02,0-0.05,0-0.07,0c-1.08-0.04-1.93-0.95-1.89-2.04c0.07-1.97,0.16-3.95,0.27-5.91           c0.06-1.08,0.98-1.92,2.07-1.86c1.08,0.06,1.92,0.98,1.86,2.07c-0.1,1.93-0.19,3.9-0.26,5.84           C1050.48,579.71,1049.61,580.55,1048.56,580.55z M1587.98,561.06c-0.71,0-1.39-0.38-1.74-1.06           c-0.89-1.71-1.82-3.45-2.74-5.18c-0.51-0.96-0.15-2.15,0.8-2.66c0.96-0.51,2.15-0.16,2.66,0.8           c0.94,1.74,1.87,3.5,2.77,5.22c0.5,0.96,0.13,2.15-0.83,2.65C1588.59,560.99,1588.28,561.06,1587.98,561.06z            M1050.33,555.1c-0.06,0-0.12,0-0.19-0.01c-1.08-0.1-1.87-1.06-1.77-2.14c0.19-2.04,0.38-3.96,0.58-5.89           c0.11-1.08,1.08-1.86,2.16-1.75c1.08,0.11,1.86,1.08,1.75,2.16c-0.2,1.91-0.39,3.83-0.58,5.85           C1052.19,554.34,1051.34,555.1,1050.33,555.1z M1575.59,538.75c-0.67,0-1.33-0.35-1.69-0.97           c-0.98-1.67-1.99-3.36-3.01-5.04c-0.56-0.93-0.27-2.14,0.66-2.7c0.93-0.56,2.14-0.27,2.7,0.66           c1.02,1.69,2.04,3.4,3.03,5.08c0.55,0.93,0.24,2.14-0.7,2.69C1576.27,538.67,1575.93,538.75,1575.59,538.75z            M1053.35,529.75c-0.09,0-0.19-0.01-0.29-0.02c-1.07-0.16-1.82-1.15-1.66-2.23c0.28-1.95,0.59-3.91,0.89-5.85           c0.17-1.07,1.18-1.8,2.25-1.63c1.07,0.17,1.8,1.18,1.63,2.25c-0.31,1.92-0.6,3.87-0.89,5.8           C1055.15,529.05,1054.31,529.75,1053.35,529.75z M1562.04,517.11c-0.64,0-1.26-0.31-1.64-0.88l-0.54-0.81           c-0.89-1.34-1.81-2.7-2.73-4.05c-0.61-0.9-0.38-2.12,0.51-2.73c0.9-0.61,2.12-0.38,2.73,0.51           c0.93,1.37,1.86,2.74,2.76,4.09l0.54,0.81c0.6,0.9,0.35,2.12-0.55,2.72C1562.79,517.01,1562.41,517.11,1562.04,517.11z            M1057.78,504.62c-0.13,0-0.27-0.01-0.4-0.04c-1.06-0.22-1.74-1.26-1.52-2.32c0.4-1.93,0.82-3.88,1.25-5.78           c0.24-1.06,1.29-1.73,2.35-1.49c1.06,0.24,1.73,1.29,1.49,2.35c-0.42,1.88-0.84,3.81-1.24,5.73           C1059.51,503.99,1058.69,504.62,1057.78,504.62z M1547.29,496.32c-0.59,0-1.18-0.27-1.57-0.78           c-1.16-1.53-2.36-3.09-3.57-4.64c-0.67-0.86-0.52-2.09,0.34-2.76c0.86-0.67,2.09-0.52,2.76,0.34           c1.22,1.56,2.43,3.14,3.6,4.68c0.66,0.86,0.49,2.1-0.38,2.75C1548.12,496.19,1547.7,496.32,1547.29,496.32z M1063.8,479.84           c-0.18,0-0.35-0.02-0.53-0.07c-1.05-0.29-1.66-1.38-1.36-2.42c0.53-1.91,1.09-3.82,1.64-5.69c0.31-1.04,1.4-1.63,2.45-1.32           c1.04,0.31,1.63,1.41,1.32,2.45c-0.55,1.84-1.1,3.74-1.63,5.62C1065.45,479.27,1064.66,479.84,1063.8,479.84z            M1531.28,476.48c-0.55,0-1.1-0.23-1.49-0.69c-1.27-1.48-2.56-2.97-3.84-4.42c-0.72-0.82-0.64-2.06,0.18-2.77           c0.82-0.72,2.06-0.64,2.77,0.18c1.29,1.47,2.6,2.97,3.87,4.46c0.71,0.82,0.61,2.06-0.21,2.77           C1532.19,476.33,1531.73,476.48,1531.28,476.48z M1514.17,457.59c-0.52,0-1.03-0.2-1.42-0.61           c-1.34-1.4-2.71-2.81-4.06-4.19c-0.76-0.77-0.75-2.02,0.03-2.78c0.77-0.76,2.02-0.75,2.78,0.03           c1.37,1.4,2.75,2.82,4.1,4.23c0.75,0.78,0.72,2.03-0.06,2.78C1515.14,457.41,1514.65,457.59,1514.17,457.59z            M1071.61,455.57c-0.22,0-0.45-0.04-0.68-0.12c-1.02-0.37-1.54-1.5-1.17-2.52c0.68-1.86,1.39-3.73,2.09-5.54           c0.39-1.01,1.53-1.51,2.54-1.12c1.01,0.39,1.51,1.53,1.12,2.54c-0.7,1.79-1.39,3.63-2.06,5.47           C1073.16,455.07,1072.41,455.57,1071.61,455.57z M1496.07,439.68c-0.48,0-0.97-0.18-1.34-0.53           c-1.42-1.34-2.87-2.68-4.29-3.98c-0.8-0.73-0.85-1.98-0.12-2.78c0.73-0.8,1.98-0.85,2.78-0.12           c1.43,1.31,2.89,2.66,4.32,4.01c0.79,0.74,0.83,1.99,0.09,2.78C1497.12,439.48,1496.59,439.68,1496.07,439.68z            M1081.42,432.04c-0.28,0-0.57-0.06-0.84-0.19c-0.98-0.46-1.4-1.64-0.94-2.62c0.85-1.79,1.72-3.58,2.6-5.33           c0.49-0.97,1.67-1.36,2.64-0.87c0.97,0.49,1.36,1.67,0.87,2.64c-0.87,1.72-1.73,3.49-2.56,5.25           C1082.87,431.63,1082.16,432.04,1081.42,432.04z M1477.05,422.74c-0.45,0-0.9-0.15-1.27-0.46           c-1.48-1.25-2.99-2.51-4.5-3.76c-0.84-0.69-0.96-1.93-0.26-2.77c0.69-0.84,1.93-0.95,2.77-0.26           c1.52,1.25,3.04,2.52,4.53,3.79c0.83,0.7,0.93,1.94,0.23,2.77C1478.16,422.5,1477.61,422.74,1477.05,422.74z            M1093.51,409.61c-0.35,0-0.7-0.09-1.02-0.29c-0.93-0.57-1.22-1.78-0.65-2.7c1.03-1.69,2.1-3.38,3.16-5.02           c0.59-0.91,1.81-1.17,2.72-0.58c0.91,0.59,1.17,1.81,0.58,2.72c-1.05,1.62-2.09,3.27-3.11,4.93           C1094.82,409.27,1094.17,409.61,1093.51,409.61z M1457.17,406.78c-0.41,0-0.83-0.13-1.19-0.4           c-1.55-1.18-3.12-2.36-4.69-3.52c-0.87-0.65-1.05-1.88-0.41-2.75c0.65-0.87,1.88-1.05,2.75-0.41           c1.58,1.17,3.17,2.37,4.73,3.55c0.86,0.66,1.03,1.89,0.37,2.75C1458.35,406.51,1457.76,406.78,1457.17,406.78z            M1436.47,391.87c-0.38,0-0.77-0.11-1.1-0.34c-1.61-1.1-3.25-2.2-4.87-3.28c-0.9-0.6-1.15-1.82-0.55-2.72           c0.6-0.9,1.82-1.15,2.72-0.55c1.63,1.08,3.29,2.2,4.91,3.31c0.9,0.61,1.13,1.83,0.52,2.73           C1437.72,391.57,1437.1,391.87,1436.47,391.87z M1108.09,388.72c-0.43,0-0.86-0.14-1.22-0.43           c-0.85-0.68-0.99-1.91-0.31-2.76c1.24-1.55,2.51-3.09,3.77-4.59c0.7-0.83,1.94-0.93,2.77-0.23           c0.83,0.7,0.93,1.94,0.23,2.77c-1.24,1.46-2.49,2.98-3.7,4.49C1109.24,388.47,1108.66,388.72,1108.09,388.72z M1415,378.06           c-0.35,0-0.7-0.09-1.02-0.28c-1.65-1-3.34-2.01-5.03-3c-0.94-0.55-1.25-1.75-0.7-2.69c0.55-0.94,1.76-1.25,2.69-0.7           c1.7,1,3.41,2.02,5.07,3.03c0.93,0.56,1.23,1.77,0.66,2.7C1416.32,377.73,1415.67,378.06,1415,378.06z M1125.3,369.96           c-0.52,0-1.04-0.21-1.43-0.62c-0.74-0.79-0.71-2.03,0.08-2.78c1.44-1.36,2.92-2.71,4.4-4.01c0.81-0.72,2.06-0.64,2.77,0.18           c0.72,0.81,0.64,2.06-0.18,2.77c-1.44,1.27-2.89,2.59-4.29,3.91C1126.27,369.78,1125.78,369.96,1125.3,369.96z            M1392.83,365.48c-0.31,0-0.63-0.07-0.92-0.23c-1.72-0.91-3.47-1.82-5.19-2.71c-0.97-0.5-1.35-1.68-0.85-2.65           c0.5-0.97,1.68-1.35,2.65-0.85c1.74,0.89,3.5,1.81,5.24,2.73c0.96,0.51,1.32,1.7,0.82,2.66           C1394.22,365.1,1393.54,365.48,1392.83,365.48z M1369.97,354.22c-0.27,0-0.55-0.06-0.81-0.18           c-1.77-0.81-3.57-1.61-5.35-2.39c-0.99-0.44-1.45-1.59-1.01-2.59c0.44-0.99,1.59-1.45,2.59-1.01           c1.79,0.78,3.61,1.6,5.4,2.41c0.99,0.45,1.42,1.61,0.97,2.6C1371.43,353.79,1370.72,354.22,1369.97,354.22z            M1145.08,353.96c-0.63,0-1.24-0.3-1.62-0.85c-0.62-0.89-0.39-2.12,0.51-2.73c1.62-1.12,3.29-2.22,4.96-3.28           c0.92-0.58,2.13-0.31,2.71,0.6c0.58,0.92,0.31,2.13-0.6,2.71c-1.63,1.03-3.26,2.11-4.84,3.2           C1145.85,353.85,1145.46,353.96,1145.08,353.96z M1346.44,344.42c-0.23,0-0.47-0.04-0.69-0.13           c-1.83-0.69-3.68-1.37-5.49-2.02c-1.02-0.37-1.55-1.49-1.18-2.51c0.37-1.02,1.49-1.55,2.51-1.19           c1.83,0.66,3.7,1.35,5.55,2.05c1.02,0.38,1.53,1.52,1.14,2.53C1347.98,343.93,1347.24,344.42,1346.44,344.42z            M1167.12,341.24c-0.73,0-1.44-0.41-1.78-1.12c-0.47-0.98-0.05-2.15,0.93-2.62c1.78-0.85,3.61-1.68,5.42-2.46           c1-0.43,2.15,0.03,2.58,1.02c0.43,1-0.03,2.15-1.02,2.58c-1.77,0.76-3.55,1.57-5.29,2.4           C1167.69,341.18,1167.41,341.24,1167.12,341.24z M1322.29,336.27c-0.18,0-0.37-0.03-0.56-0.08           c-1.87-0.56-3.76-1.1-5.62-1.61c-1.05-0.29-1.66-1.37-1.37-2.42c0.29-1.05,1.37-1.66,2.42-1.37           c1.88,0.52,3.79,1.07,5.69,1.63c1.04,0.31,1.63,1.4,1.33,2.44C1323.92,335.72,1323.14,336.27,1322.29,336.27z            M1190.89,332.11c-0.85,0-1.63-0.55-1.88-1.4c-0.31-1.04,0.28-2.13,1.32-2.45c1.89-0.57,3.82-1.11,5.73-1.61           c1.05-0.28,2.12,0.35,2.4,1.4c0.28,1.05-0.35,2.12-1.4,2.4c-1.87,0.49-3.75,1.02-5.6,1.57           C1191.26,332.08,1191.07,332.11,1190.89,332.11z M1297.59,330.02c-0.13,0-0.27-0.01-0.4-0.04c-1.9-0.4-3.83-0.78-5.73-1.14           c-1.07-0.2-1.77-1.23-1.57-2.29c0.2-1.07,1.23-1.77,2.29-1.57c1.93,0.36,3.88,0.75,5.81,1.15           c1.06,0.22,1.74,1.26,1.52,2.33C1299.32,329.38,1298.5,330.02,1297.59,330.02z M1215.75,326.6c-0.96,0-1.8-0.7-1.94-1.68           c-0.16-1.07,0.58-2.07,1.65-2.23c1.95-0.29,3.93-0.56,5.89-0.79c1.08-0.13,2.05,0.64,2.18,1.72           c0.13,1.08-0.64,2.05-1.72,2.18c-1.92,0.23-3.86,0.49-5.77,0.77C1215.94,326.59,1215.84,326.6,1215.75,326.6z            M1272.44,325.95c-0.07,0-0.15,0-0.22-0.01c-1.92-0.22-3.88-0.41-5.81-0.59c-1.08-0.1-1.88-1.05-1.78-2.13           c0.1-1.08,1.05-1.88,2.13-1.78c1.96,0.18,3.94,0.38,5.9,0.6c1.08,0.12,1.85,1.1,1.73,2.17           C1274.28,325.21,1273.43,325.95,1272.44,325.95z M1241.13,324.47c-1.07,0-1.94-0.85-1.96-1.92           c-0.02-1.09,0.84-1.98,1.92-2.01c1.95-0.04,3.95-0.06,5.94-0.05c1.09,0.01,1.96,0.89,1.96,1.97           c-0.01,1.08-0.88,1.96-1.97,1.96c0,0-0.01,0-0.01,0c-1.95-0.01-3.92,0.01-5.83,0.05           C1241.16,324.47,1241.15,324.47,1241.13,324.47z"></path>
								</g>
							</g>
						</g>
					</g>
				</g>
			</g>
		</g>
	</g>
</g>
<g>
	<g>
		<g>
			<g>
				<g>
					<g>
						<g>
							<g>
								<g>
									<ellipse class="st1" cx="1308.2" cy="803.79" rx="168.45" ry="39.2"></ellipse>
								</g>
							</g>
						</g>
					</g>
				</g>
			</g>
		</g>
	</g>
</g>
<g>
	<g>
		<g>
			<g>
				<g>
					<g>
						<g>
							<g>
								<g>
									<path class="st3" d="M1139.61,382.32c7.84-2.78,18.82,11.48,28.88,24.54c32.5,42.22,23.17,68.96,46.36,93.51           c28.34,30,64.81,13.9,71.96,35.85c4.8,14.75-6.98,36.43-21.97,44.65c-32.78,17.97-91.04-22.79-117.22-74.94           C1121.91,454.72,1124.65,387.63,1139.61,382.32z"></path>
								</g>
							</g>
						</g>
					</g>
				</g>
			</g>
		</g>
	</g>
</g>
<g>
	<g>
		<g>
			<g>
				<g>
					<g>
						<g>
							<g>
								<g>
									<path d="M1246.89,587.12c-5.64,0-11.68-0.98-18.01-2.95c-14.86-4.63-31.22-14.75-46.05-28.5           c-15.22-14.11-28.01-31-36.97-48.86c-8.51-16.95-14.58-36.95-17.56-57.82l3.89-0.55c2.92,20.46,8.86,40.04,17.18,56.61           c17.61,35.06,50.78,66.06,80.68,75.37c13.15,4.09,24.84,3.65,33.83-1.28c14.92-8.18,25.34-29.14,21.05-42.31           c-3.04-9.35-12.1-10.98-24.64-13.24c-14.08-2.54-31.61-5.7-46.88-21.87c-10.18-10.78-14.3-22.15-17.96-33.82l3.75-1.17           c3.64,11.64,7.44,22.11,17.06,32.29c14.38,15.23,31.2,18.26,44.72,20.7c12.83,2.31,23.91,4.31,27.68,15.89           c2.4,7.38,1.06,16.96-3.68,26.27c-4.56,8.96-11.57,16.51-19.22,20.71C1260.26,585.6,1253.89,587.12,1246.89,587.12z"></path>
								</g>
							</g>
						</g>
					</g>
				</g>
			</g>
		</g>
	</g>
</g>
<g>
	<g>
		<g>
			<g>
				<g>
					<g>
						<g>
							<g>
								<g>
									<path d="M1188.23,445.82c-5.18-13.61-11.95-25.61-21.31-37.77c-8.98-11.67-20.17-26.2-26.66-23.89           c-4.21,1.49-7.74,10.36-9.21,23.14l-3.9-0.45c0.99-8.65,3.85-23.58,11.8-26.4c9.18-3.26,20.32,11.2,31.09,25.19           c9.6,12.47,16.55,24.79,21.87,38.77L1188.23,445.82z"></path>
								</g>
							</g>
						</g>
					</g>
				</g>
			</g>
		</g>
	</g>
</g>
<g>
	<g>
		<g>
			<g>
				<g>
					<g>
						<g>
							<g>
								<g>
									<path class="st3" d="M1229.81,509.96c36.09-22.2,75.9-10.25,84.24-7.5c92.4,30.39,159.49,192.94,96.52,275.8           c-42.06,55.36-162.33,88.65-193.04,24.39C1199.71,765.38,1153.03,557.18,1229.81,509.96z"></path>
								</g>
							</g>
						</g>
					</g>
				</g>
			</g>
		</g>
	</g>
</g>
<g>
	<g>
		<g>
			<g>
				<g>
					<g>
						<g>
							<g>
								<g>
									<path d="M1283.82,839.76c-9.76,0-18.91-1.14-27.18-3.42c-9.19-2.54-17.27-6.48-23.99-11.72           c-7.19-5.6-12.87-12.7-16.9-21.13l3.55-1.69c7.36,15.4,20.28,25.75,38.39,30.75c16.27,4.49,36.15,4.38,57.5-0.34l0.85,3.84           C1304.82,838.52,1293.99,839.76,1283.82,839.76z"></path>
								</g>
							</g>
						</g>
					</g>
				</g>
			</g>
		</g>
	</g>
</g>
<g>
	<g>
		<g>
			<g>
				<g>
					<g>
						<g>
							<g>
								<g>
									<path d="M1412.13,779.44l-3.13-2.38c12.44-16.37,20.19-36.45,23.03-59.68c2.61-21.32,0.87-45.26-5.02-69.22           c-11.67-47.48-38.5-92.31-71.77-119.94l2.51-3.02c33.89,28.15,61.21,73.77,73.07,122.03c6,24.42,7.77,48.84,5.1,70.63           C1433.01,741.79,1425,762.51,1412.13,779.44z"></path>
								</g>
							</g>
						</g>
					</g>
				</g>
			</g>
		</g>
	</g>
</g>
<g>
	<g>
		<g>
			<g>
				<g>
					<g>
						<g>
							<g>
								<g>
									<path d="M1186.79,667.45c-3.06-36.86-1.85-68.61,3.6-94.36c6.64-31.42,19.56-53.22,38.4-64.81           c15.61-9.6,33.66-14.11,53.63-13.4c14.58,0.52,26.47,3.79,32.26,5.7l-1.23,3.73c-5.59-1.84-17.07-5-31.17-5.5           c-19.18-0.69-36.48,3.62-51.43,12.82c-17.88,11-30.2,31.95-36.61,62.27c-5.37,25.38-6.55,56.74-3.52,93.22L1186.79,667.45z           "></path>
								</g>
							</g>
						</g>
					</g>
				</g>
			</g>
		</g>
	</g>
</g>
<g>
	<g>
		<g>
			<g>
				<g>
					<g>
						<g>
							<g>
								<g>
									<polygon class="st2" points="1059.88,85.04 1049.21,83.92 1034.6,94.87 1041.99,97.47          "></polygon>
								</g>
							</g>
						</g>
					</g>
				</g>
			</g>
		</g>
	</g>
</g>
<g>
	<g>
		<g>
			<g>
				<g>
					<g>
						<g>
							<g>
								<g>
									<path class="st3" d="M570.54,643.65c17.08-58.44,57.26-52.07,83.53-104.14c29.07-57.62,3.54-112.37,38.41-147.19           c3.77-3.76,15.44-15.12,27.66-12.32c18.87,4.33,26.26,39.49,28.03,47.9c15.73,74.85-38.4,181.14-104.38,232.38           c-20.68,16.06-62.3,42.08-74.66,25.65C561.25,675.46,568.22,651.58,570.54,643.65z"></path>
								</g>
							</g>
						</g>
					</g>
				</g>
			</g>
		</g>
	</g>
</g>
<g>
	<g>
		<g>
			<g>
				<g>
					<g>
						<g>
							<g>
								<g>
									<path d="M581.33,693.14c-1.13,0-2.2-0.07-3.22-0.2c-4.55-0.61-8.09-2.56-10.54-5.82c-7.6-10.1-3.02-29.96,1.09-44.03           l1.89,0.55l-1.89-0.55c9.48-32.43,25.83-45.2,43.15-58.71c14.13-11.03,28.74-22.43,40.51-45.76           c13.45-26.66,15.09-53.22,16.53-76.65c0.84-13.67,1.64-26.59,4.58-38.5c3.33-13.49,8.94-23.84,17.67-32.55           c10.59-10.58,20.52-14.9,29.49-12.84c8.64,1.98,15.97,9.91,21.8,23.57c4.5,10.56,6.84,21.67,7.72,25.85           c7.48,35.57-0.23,80.42-21.69,126.28C708.18,597,677.78,636.38,645,661.84c-4.93,3.83-18.01,13.58-32.83,21.35           C599.55,689.81,589.2,693.14,581.33,693.14z M716.17,381.52c-6.7,0-14.18,4.09-22.3,12.19           c-17.99,17.97-19.43,41.39-21.1,68.51c-1.47,23.81-3.13,50.79-16.94,78.18c-12.16,24.11-27.13,35.79-41.6,47.09           c-16.8,13.11-32.67,25.5-41.8,56.72c-2.23,7.63-9.02,30.86-1.72,40.56c1.82,2.41,4.41,3.81,7.92,4.28           c7.26,0.97,18.23-2.26,31.72-9.33c14.53-7.62,27.39-17.2,32.24-20.97c32.31-25.09,62.29-63.95,82.26-106.62           c21.11-45.09,28.71-89.06,21.41-123.81c-0.86-4.08-3.13-14.91-7.49-25.12c-5.3-12.43-11.71-19.59-19.06-21.28           C718.55,381.65,717.37,381.52,716.17,381.52z"></path>
								</g>
							</g>
						</g>
					</g>
				</g>
			</g>
		</g>
	</g>
</g>
<g>
	<g>
		<g>
			<g>
				<g>
					<g>
						<g>
							<g>
								<g>
									<ellipse class="st1" cx="633.92" cy="887.78" rx="187.51" ry="43.63"></ellipse>
								</g>
							</g>
						</g>
					</g>
				</g>
			</g>
		</g>
	</g>
</g>
<g>
	<g>
		<g>
			<g>
				<g>
					<g>
						<g>
							<g>
								<g>
									<circle class="st0" cx="618.64" cy="211.3" r="15.29"></circle>
								</g>
							</g>
						</g>
					</g>
				</g>
			</g>
		</g>
	</g>
</g>
<g>
	<g>
		<g>
			<g>
				<g>
					<g>
						<g>
							<g>
								<g>
									<path class="st3" d="M783.68,323.74c-6.08,0-11.03-4.95-11.03-11.03c0-6.08,4.95-11.03,11.03-11.03           c6.08,0,11.03,4.95,11.03,11.03C794.71,318.79,789.76,323.74,783.68,323.74z M783.68,305.6c-3.92,0-7.1,3.19-7.1,7.1           c0,3.92,3.19,7.1,7.1,7.1s7.1-3.19,7.1-7.1C790.78,308.79,787.6,305.6,783.68,305.6z"></path>
								</g>
							</g>
						</g>
					</g>
				</g>
			</g>
		</g>
	</g>
</g>
<g>
	<g>
		<g>
			<g>
				<g>
					<g>
						<g>
							<g>
								<g>
									<path class="st0" d="M600.14,307.64c-6.08,0-11.03-4.95-11.03-11.03c0-6.08,4.95-11.03,11.03-11.03           c6.08,0,11.03,4.95,11.03,11.03C611.17,302.69,606.22,307.64,600.14,307.64z M600.14,289.5c-3.92,0-7.1,3.19-7.1,7.1           c0,3.92,3.19,7.1,7.1,7.1c3.92,0,7.1-3.19,7.1-7.1C607.24,292.69,604.05,289.5,600.14,289.5z"></path>
								</g>
							</g>
						</g>
					</g>
				</g>
			</g>
		</g>
	</g>
</g>
<g>
	<g>
		<g>
			<g>
				<g>
					<g>
						<g>
							<g>
								<g>
									<path d="M1052.52,379.65c8.26,5.99,18.65,20.87,21.03,26.55c0.7,1.67,6.49,15.93,1.66,22.96           c-7.06,10.27-31.87-2.03-47.37-15.17c-11.13-9.44-27.34-27.7-25.3-36.62c2.88-12.58,24.07-3.69,32.7,6.54           c3.52,4.17,6.57,8.88,10.82,11.98c-1.31-0.96-3.4-12.02-3.26-13.49C1043.33,376.75,1047.01,375.65,1052.52,379.65z"></path>
								</g>
							</g>
						</g>
					</g>
				</g>
			</g>
		</g>
	</g>
</g>
<g>
	<g>
		<g>
			<g>
				<g>
					<g>
						<g>
							<g>
								<g>
									<path d="M1146.15,340.97c5.29,8.72,9.11,26.47,9.09,32.62c-0.01,1.81-0.2,17.2-7.37,21.81           c-10.49,6.74-28.59-14.22-37.78-32.35c-6.6-13.02-14.46-36.13-9.12-43.56c7.53-10.48,23.62,5.93,27.61,18.7           c1.63,5.21,2.61,10.73,5.33,15.23c-0.84-1.39,1.53-12.4,2.22-13.7C1138.81,334.74,1142.62,335.16,1146.15,340.97z"></path>
								</g>
							</g>
						</g>
					</g>
				</g>
			</g>
		</g>
	</g>
</g>
<g>
	<g>
		<g>
			<g>
				<g>
					<g>
						<g>
							<g>
								<g>
									<path class="st3" d="M511.96,592.52c10.13-45.18,73.35-78.29,120.86-57.91c36.69,15.74,52.43,58.41,71.67,110.56           c28.92,78.38,59.73,161.91,23.89,221.12c-41.63,68.78-149.72,66.03-178.48,15.79c-22.63-39.52-4.44-78.05-23.89-168.16           C511.76,647.93,504.11,627.51,511.96,592.52z"></path>
								</g>
							</g>
						</g>
					</g>
				</g>
			</g>
		</g>
	</g>
</g>
<g>
	<g>
		<g>
			<g>
				<g>
					<g>
						<g>
							<g>
								<g>
									<path d="M610.88,421.05c19.2,5.34,38.58,61.27,8.71,87.06c-21.49,18.56-59.43,13.7-68.78-2.61           C536,479.66,586.81,414.36,610.88,421.05z"></path>
								</g>
							</g>
						</g>
					</g>
				</g>
			</g>
		</g>
	</g>
</g>
<g>
	<g>
		<g>
			<g>
				<g>
					<g>
						<g>
							<g>
								<g>
									<path d="M662.42,916.48l-1.01-3.8c13.51-3.61,25.85-9.29,36.69-16.9c11.71-8.22,21.33-18.48,28.6-30.5           c13.62-22.5,18.41-50.09,14.66-84.36c-2.47-22.57-8.6-48.16-19.3-80.53c-6.01-18.19-12.82-36.66-19.41-54.52           c-9.42-25.54-18.32-49.65-29.16-68.66c-11.86-20.79-25.03-33.75-41.45-40.79c-24.91-10.69-56.65-6.85-82.83,10.01           l-2.13-3.3c27.26-17.56,60.41-21.51,86.51-10.31c17.24,7.4,31.01,20.89,43.31,42.46c11.01,19.29,19.96,43.55,29.43,69.23           c6.61,17.91,13.43,36.4,19.46,54.66c10.78,32.64,16.97,58.49,19.47,81.34c3.85,35.16-1.12,63.56-15.2,86.82           c-7.56,12.49-17.55,23.15-29.71,31.68C689.14,906.87,676.37,912.75,662.42,916.48z"></path>
								</g>
							</g>
						</g>
					</g>
				</g>
			</g>
		</g>
	</g>
</g>
<g>
	<g>
		<g>
			<g>
				<g>
					<g>
						<g>
							<g>
								<g>
									<path class="st4" d="M630.34,399.89c-3.48-36.91-33.83-60.59-68.65-51.37c-16.29,4.31-25.13,15.84-29.93,26.87           c-33.68,20.32-62.52,56.55-47.18,96.53c6.85,17.86,25.91,29.3,42.92,36c9.84,3.88,47.46,16.34,54.23,1.05           c3.89-8.8-16.28-29.03-12.43-33.95c3.73-4.77,24.85,11.46,27.12,7.84c2.09-3.34-15.35-17.74-12.43-26.12           c2.56-7.35,17.56-0.79,29.38-10.45c4.74-3.87,8.23-9.74,10.44-16.31C629.02,423.29,631.65,413.72,630.34,399.89z"></path>
								</g>
							</g>
						</g>
					</g>
				</g>
			</g>
		</g>
	</g>
</g>
<g>
	<g>
		<g>
			<g>
				<g>
					<g>
						<g>
							<g>
								<g>
									<path class="st3" d="M619.63,502.85c-5.02,0-9.72-2.42-12.36-4.51l2.44-3.08c0.42,0.33,10.33,7.96,17.64,0.2l2.86,2.69           C626.95,501.62,623.21,502.85,619.63,502.85z"></path>
								</g>
							</g>
						</g>
					</g>
				</g>
			</g>
		</g>
	</g>
</g>
<g>
	<g>
		<g>
			<g>
				<g>
					<g>
						<g>
							<g>
								<g>
									<path class="st3" d="M834.16,442.97c-60.16,12.09-59.04,64.58-114.07,89.5c-60.9,27.58-111.88-14.24-150.93,24.57           c-4.22,4.2-16.99,17.24-15.79,33.34c1.85,24.87,35.76,40.21,43.87,43.87c72.18,32.63,184.59-18.89,243.94-94.77           c18.6-23.78,49.79-72.7,35.1-91.26C866.9,436.38,842.32,441.32,834.16,442.97z"></path>
								</g>
							</g>
						</g>
					</g>
				</g>
			</g>
		</g>
	</g>
</g>
<g>
	<g>
		<g>
			<g>
				<g>
					<g>
						<g>
							<g>
								<g>
									<path d="M596.43,636.05c-4.04-1.83-14.77-6.68-24.67-14.21c-12.68-9.65-19.53-20.19-20.36-31.31           c-0.85-11.5,4.65-23.24,16.37-34.88c9.79-9.73,20.82-15.2,34.69-17.22c12.24-1.78,25.17-0.64,38.87,0.57           c5.51,0.49,11.2,0.99,16.97,1.31c13.98,0.77,24.96,0.25,35.59-1.7l0.71,3.87c-10.95,2.01-22.21,2.55-36.51,1.76           c-5.84-0.32-11.56-0.83-17.1-1.32c-27.02-2.38-50.36-4.44-70.44,15.52c-10.86,10.8-15.99,21.5-15.22,31.8           c0.8,10.82,8.87,26.92,42.72,42.23L596.43,636.05z"></path>
								</g>
							</g>
						</g>
					</g>
				</g>
			</g>
		</g>
	</g>
</g>
<g>
	<g>
		<g>
			<g>
				<g>
					<g>
						<g>
							<g>
								<g>
									<path d="M842.73,540.7l-3.1-2.42c4.43-5.67,19.69-25.83,29.8-47.22c9.36-19.79,11.19-34.17,5.3-41.61           c-8.63-10.9-32.38-6.13-40.19-4.56c-32.02,6.44-46.53,24.88-60.56,42.71l-1.02,1.3c-3.96,5.04-8.05,10.25-12.51,15.3           l-2.95-2.6c4.38-4.97,8.44-10.13,12.37-15.13l1.02-1.3c8.31-10.57,15.41-19.25,24.79-26.77           c10.85-8.71,23.31-14.39,38.08-17.36c4-0.8,12.26-2.46,20.69-2.46c0.1,0,0.21,0,0.31,0c10.9,0.05,18.66,2.89,23.04,8.44           c6.98,8.81,5.35,24.2-4.83,45.73C862.7,514.49,847.22,534.95,842.73,540.7z"></path>
								</g>
							</g>
						</g>
					</g>
				</g>
			</g>
		</g>
	</g>
</g>
<g>
	<g>
		<g>
			<g>
				<g>
					<g>
						<g>
							<g>
								<g>
									<path d="M649.48,646.18l-0.06-3.93c27.82-0.44,58.76-8.57,89.49-23.51l1.72,3.53           C709.38,637.47,677.87,645.73,649.48,646.18z"></path>
								</g>
							</g>
						</g>
					</g>
				</g>
			</g>
		</g>
	</g>
</g>
<g>
	<g>
		<g>
			<g>
				<g>
					<g>
						<g>
							<g>
								<g>
									<path d="M900.59,387.03c-15.16-6.1-29.59,22.29-35,31.65c-0.36,0.63-0.83,1.29-1.54,1.44c-0.85,0.17-1.65-0.49-2.18-1.19           c-1.91-2.52-2.27-5.85-3.2-8.88c-3.76-12.22-10.98-0.44-13.47,5.7c-6.55,16.15,2.84,40.51,23.4,39.16           c15.45-1.01,25.11-14.14,30.03-27.59c3.77-10.29,6.31-21.07,5.87-32.08C904.33,390.46,902.85,387.95,900.59,387.03z"></path>
								</g>
							</g>
						</g>
					</g>
				</g>
			</g>
		</g>
	</g>
</g>
<g>
	<g>
		<g>
			<g>
				<g>
					<g>
						<g>
							<g>
								<g>
									<path d="M722.61,316.99c-16.31,0.89-17.36,32.72-18.3,43.5c-0.06,0.72-0.2,1.52-0.78,1.95c-0.7,0.52-1.7,0.25-2.47-0.15           c-2.8-1.48-4.54-4.34-6.66-6.69c-8.58-9.48-10.13,4.25-9.79,10.87c0.9,17.41,19.73,35.49,37.78,25.56           c13.57-7.46,16.76-23.44,15.52-37.72c-0.94-10.92-3.2-21.76-8.27-31.55C727.45,318.51,725.04,316.86,722.61,316.99z"></path>
								</g>
							</g>
						</g>
					</g>
				</g>
			</g>
		</g>
	</g>
</g>
<g>
	<g>
		<g>
			<g>
				<g>
					<g>
						<g>
							<g>
								<g>
									<polygon class="st0" points="600.14,584.9 593.55,584.9 593.55,578.31 589.62,578.31 589.62,584.9 583.03,584.9            583.03,588.83 589.62,588.83 589.62,595.42 593.55,595.42 593.55,588.83 600.14,588.83          "></polygon>
								</g>
							</g>
						</g>
					</g>
				</g>
			</g>
		</g>
	</g>
</g>
<g>
	<g>
		<g>
			<g>
				<g>
					<g>
						<g>
							<g>
								<g>
									<polygon class="st0" points="693.12,514.43 686.53,514.43 686.53,507.84 682.6,507.84 682.6,514.43 676.01,514.43            676.01,518.36 682.6,518.36 682.6,524.95 686.53,524.95 686.53,518.36 693.12,518.36          "></polygon>
								</g>
							</g>
						</g>
					</g>
				</g>
			</g>
		</g>
	</g>
</g>
<g>
	<g>
		<g>
			<g>
				<g>
					<g>
						<g>
							<g>
								<g>
									<polygon class="st0" points="733.8,496.89 727.21,496.89 727.21,490.3 723.28,490.3 723.28,496.89 716.69,496.89            716.69,500.82 723.28,500.82 723.28,507.41 727.21,507.41 727.21,500.82 733.8,500.82          "></polygon>
								</g>
							</g>
						</g>
					</g>
				</g>
			</g>
		</g>
	</g>
</g>
<g>
	<g>
		<g>
			<g>
				<g>
					<g>
						<g>
							<g>
								<g>
									<polygon class="st0" points="703.64,468.34 697.05,468.34 697.05,461.75 693.12,461.75 693.12,468.34 686.53,468.34            686.53,472.27 693.12,472.27 693.12,478.86 697.05,478.86 697.05,472.27 703.64,472.27          "></polygon>
								</g>
							</g>
						</g>
					</g>
				</g>
			</g>
		</g>
	</g>
</g>
<g>
	<g>
		<g>
			<g>
				<g>
					<g>
						<g>
							<g>
								<g>
									<polygon class="st0" points="738.79,440.54 732.2,440.54 732.2,433.95 728.27,433.95 728.27,440.54 721.68,440.54            721.68,444.47 728.27,444.47 728.27,451.06 732.2,451.06 732.2,444.47 738.79,444.47          "></polygon>
								</g>
							</g>
						</g>
					</g>
				</g>
			</g>
		</g>
	</g>
</g>
<g>
	<g>
		<g>
			<g>
				<g>
					<g>
						<g>
							<g>
								<g>
									<polygon class="st0" points="710.23,422.24 703.64,422.24 703.64,415.65 699.71,415.65 699.71,422.24 693.12,422.24            693.12,426.17 699.71,426.17 699.71,432.76 703.64,432.76 703.64,426.17 710.23,426.17          "></polygon>
								</g>
							</g>
						</g>
					</g>
				</g>
			</g>
		</g>
	</g>
</g>
<g>
	<g>
		<g>
			<g>
				<g>
					<g>
						<g>
							<g>
								<g>
									<polygon class="st0" points="687.89,167.88 681.3,167.88 681.3,161.29 677.37,161.29 677.37,167.88 670.78,167.88            670.78,171.81 677.37,171.81 677.37,178.4 681.3,178.4 681.3,171.81 687.89,171.81          "></polygon>
								</g>
							</g>
						</g>
					</g>
				</g>
			</g>
		</g>
	</g>
</g>
<g>
	<g>
		<g>
			<g>
				<g>
					<g>
						<g>
							<g>
								<g>
									<polygon class="st3" points="687.89,277.02 681.3,277.02 681.3,270.43 677.37,270.43 677.37,277.02 670.78,277.02            670.78,280.95 677.37,280.95 677.37,287.54 681.3,287.54 681.3,280.95 687.89,280.95          "></polygon>
								</g>
							</g>
						</g>
					</g>
				</g>
			</g>
		</g>
	</g>
</g>
<g>
	<g>
		<g>
			<g>
				<g>
					<g>
						<g>
							<g>
								<g>
									<polygon class="st0" points="643.57,560 636.98,560 636.98,553.41 633.05,553.41 633.05,560 626.46,560 626.46,563.93            633.05,563.93 633.05,570.52 636.98,570.52 636.98,563.93 643.57,563.93          "></polygon>
								</g>
							</g>
						</g>
					</g>
				</g>
			</g>
		</g>
	</g>
</g>
<g>
	<g>
		<g>
			<g>
				<g>
					<g>
						<g>
							<g>
								<g>
									<polygon class="st0" points="711.36,565.92 704.77,565.92 704.77,559.33 700.84,559.33 700.84,565.92 694.25,565.92            694.25,569.85 700.84,569.85 700.84,576.45 704.77,576.45 704.77,569.85 711.36,569.85          "></polygon>
								</g>
							</g>
						</g>
					</g>
				</g>
			</g>
		</g>
	</g>
</g>
<g>
	<g>
		<g>
			<g>
				<g>
					<g>
						<g>
							<g>
								<g>
									<polygon class="st0" points="753.85,568.56 747.26,568.56 747.26,561.97 743.33,561.97 743.33,568.56 736.74,568.56            736.74,572.49 743.33,572.49 743.33,579.08 747.26,579.08 747.26,572.49 753.85,572.49          "></polygon>
								</g>
							</g>
						</g>
					</g>
				</g>
			</g>
		</g>
	</g>
</g>
<g>
	<g>
		<g>
			<g>
				<g>
					<g>
						<g>
							<g>
								<g>
									<polygon class="st0" points="773,533.41 766.41,533.41 766.41,526.82 762.48,526.82 762.48,533.41 755.89,533.41            755.89,537.34 762.48,537.34 762.48,543.93 766.41,543.93 766.41,537.34 773,537.34          "></polygon>
								</g>
							</g>
						</g>
					</g>
				</g>
			</g>
		</g>
	</g>
</g>
<g>
	<g>
		<g>
			<g>
				<g>
					<g>
						<g>
							<g>
								<g>
									<polygon class="st0" points="819.54,541.96 812.95,541.96 812.95,535.37 809.02,535.37 809.02,541.96 802.43,541.96            802.43,545.89 809.02,545.89 809.02,552.48 812.95,552.48 812.95,545.89 819.54,545.89          "></polygon>
								</g>
							</g>
						</g>
					</g>
				</g>
			</g>
		</g>
	</g>
</g>
<g>
	<g>
		<g>
			<g>
				<g>
					<g>
						<g>
							<g>
								<g>
									<polygon class="st0" points="867.78,476.89 861.19,476.89 861.19,470.3 857.26,470.3 857.26,476.89 850.67,476.89            850.67,480.82 857.26,480.82 857.26,487.41 861.19,487.41 861.19,480.82 867.78,480.82          "></polygon>
								</g>
							</g>
						</g>
					</g>
				</g>
			</g>
		</g>
	</g>
</g>
<g>
	<g>
		<g>
			<g>
				<g>
					<g>
						<g>
							<g>
								<g>
									<polygon class="st0" points="828.1,476.89 821.5,476.89 821.5,470.3 817.57,470.3 817.57,476.89 810.98,476.89            810.98,480.82 817.57,480.82 817.57,487.41 821.5,487.41 821.5,480.82 828.1,480.82          "></polygon>
								</g>
							</g>
						</g>
					</g>
				</g>
			</g>
		</g>
	</g>
</g>
<g>
	<g>
		<g>
			<g>
				<g>
					<g>
						<g>
							<g>
								<g>
									<polygon class="st0" points="637.34,610.5 630.75,610.5 630.75,603.91 626.82,603.91 626.82,610.5 620.23,610.5            620.23,614.43 626.82,614.43 626.82,621.02 630.75,621.02 630.75,614.43 637.34,614.43          "></polygon>
								</g>
							</g>
						</g>
					</g>
				</g>
			</g>
		</g>
	</g>
</g>
<g>
	<g>
		<g>
			<g>
				<g>
					<g>
						<g>
							<g>
								<g>
									<polygon class="st0" points="702.81,610.5 696.22,610.5 696.22,603.91 692.28,603.91 692.28,610.5 685.69,610.5            685.69,614.43 692.28,614.43 692.28,621.02 696.22,621.02 696.22,614.43 702.81,614.43          "></polygon>
								</g>
							</g>
						</g>
					</g>
				</g>
			</g>
		</g>
	</g>
</g>
<g>
	<g>
		<g>
			<g>
				<g>
					<g>
						<g>
							<g>
								<g>
									<path d="M533.4,780.95c-0.03-0.49-3.32-49.74-13.62-86.17c-10.41-36.82-12.9-67.43-12.93-67.74l3.92-0.31           c0.02,0.3,2.5,30.55,12.79,66.98c10.41,36.84,13.72,86.48,13.76,86.98L533.4,780.95z"></path>
								</g>
							</g>
						</g>
					</g>
				</g>
			</g>
		</g>
	</g>
</g>
<g>
	<g>
		<g>
			<g>
				<g>
					<g>
						<g>
							<g>
								<g>
									<path d="M535.29,830.59c-0.75-10.71-1.2-36.35-1.2-36.6l3.93-0.07c0,0.26,0.45,25.79,1.19,36.4L535.29,830.59z"></path>
								</g>
							</g>
						</g>
					</g>
				</g>
			</g>
		</g>
	</g>
</g>
<g>
	<g>
		<g>
			<g>
				<g>
					<g>
						<g>
							<g>
								<g>
									<polygon class="st0" points="938.47,133.64 955.57,252.22 844.67,225.2 835.14,118.18          "></polygon>
								</g>
							</g>
						</g>
					</g>
				</g>
			</g>
		</g>
	</g>
</g>
<g>
	<g>
		<g>
			<g>
				<g>
					<g>
						<g>
							<g>
								<g>
									<polygon points="938.47,133.64 1045.08,77.38 1058.25,194.77 955.57,252.22          "></polygon>
								</g>
							</g>
						</g>
					</g>
				</g>
			</g>
		</g>
	</g>
</g>
<g>
	<g>
		<g>
			<g>
				<g>
					<g>
						<g>
							<g>
								<g>
									<polygon class="st2" points="835.14,118.18 940.11,69.46 1045.08,77.38 938.47,133.64          "></polygon>
								</g>
							</g>
						</g>
					</g>
				</g>
			</g>
		</g>
	</g>
</g>
<g>
	<g>
		<g>
			<g>
				<g>
					<g>
						<g>
							<g>
								<g>
									<polygon points="893.4,165.02 888.92,125.47 908.87,114.25 910.8,117.68 893.12,127.62 897.31,164.58          "></polygon>
								</g>
							</g>
						</g>
					</g>
				</g>
			</g>
		</g>
	</g>
</g>
<g>
	<g>
		<g>
			<g>
				<g>
					<g>
						<g>
							<g>
								<g>
									<polygon points="890.55,238.4 842.84,226.77 836.05,150.53 839.96,150.18 846.51,223.62 891.48,234.58          "></polygon>
								</g>
							</g>
						</g>
					</g>
				</g>
			</g>
		</g>
	</g>
</g>
<g>
	<g>
		<g>
			<g>
				<g>
					<g>
						<g>
							<g>
								<g>
									
										<rect x="906.35" y="232.91" transform="matrix(0.2368 -0.9716 0.9716 0.2368 459.3908 1066.202)" width="3.93" height="15.59"></rect>
								</g>
							</g>
						</g>
					</g>
				</g>
			</g>
		</g>
	</g>
</g>
<g>
	<g>
		<g>
			<g>
				<g>
					<g>
						<g>
							<g>
								<g>
									<g>
										<polygon class="st3" points="1059.38,204.2 962.96,166.58 1043.58,132.37 1050.46,140.37 1047.48,142.93 1042.47,137.11             973.38,166.43 1059.3,199.95 1079.95,190.99 1053.14,149.62 1056.44,147.48 1085.77,192.74           "></polygon>
									</g>
								</g>
							</g>
						</g>
					</g>
				</g>
			</g>
		</g>
	</g>
	<g>
		<g>
			<g>
				<g>
					<g>
						<g>
							<g>
								<g>
									<g>
										<polyline class="st3" points="1059.34,202.08 1058.93,212.93 968.19,183.41 963.33,166.51           "></polyline>
									</g>
								</g>
							</g>
						</g>
					</g>
				</g>
			</g>
		</g>
	</g>
	<g>
		<g>
			<g>
				<g>
					<g>
						<g>
							<g>
								<g>
									<g>
										<polygon points="1058.93,212.93 1085.82,201.21 1085.82,192.47 1059.27,204           "></polygon>
									</g>
								</g>
							</g>
						</g>
					</g>
				</g>
			</g>
		</g>
	</g>
	<g>
		<g>
			<g>
				<g>
					<g>
						<g>
							<g>
								<g>
									<g>
										<polygon class="st2" points="972.91,166.51 1042.45,136.83 1053.18,149.58 1080.1,190.92 1059.6,200.27           "></polygon>
									</g>
								</g>
							</g>
						</g>
					</g>
				</g>
			</g>
		</g>
	</g>
</g>
<g>
	<g>
		<g>
			<g>
				<g>
					<g>
						<g>
							<g>
								<g>
									
										<rect x="1007.13" y="150.74" transform="matrix(0.3629 -0.9318 0.9318 0.3629 474.4927 1055.4479)" width="3.93" height="59.98"></rect>
								</g>
							</g>
						</g>
					</g>
				</g>
			</g>
		</g>
	</g>
</g>
<g>
	<g>
		<g>
			<g>
				<g>
					<g>
						<g>
							<g>
								<g>
									
										<rect x="1042.26" y="190.96" transform="matrix(0.3629 -0.9318 0.9318 0.3629 484.2105 1096.7971)" width="3.93" height="6.64"></rect>
								</g>
							</g>
						</g>
					</g>
				</g>
			</g>
		</g>
	</g>
</g>
<g>
	<g>
		<g>
			<g>
				<g>
					<g>
						<g>
							<g>
								<g>
									<g>
										<path d="M871.29,205.99l-0.96-3.81c4.66-1.18,6.72-9.58,4.51-18.34c-2.21-8.77-8.02-15.18-12.68-14l-0.96-3.81            c6.95-1.76,14.62,5.65,17.45,16.85C881.48,194.08,878.25,204.23,871.29,205.99z"></path>
									</g>
								</g>
							</g>
						</g>
					</g>
				</g>
			</g>
		</g>
	</g>
	<g>
		<g>
			<g>
				<g>
					<g>
						<g>
							<g>
								<g>
									<g>
										
											<ellipse transform="matrix(0.9696 -0.2448 0.2448 0.9696 -21.3617 212.8721)" class="st0" cx="845.54" cy="192.36" rx="15.12" ry="26.04"></ellipse>
									</g>
								</g>
							</g>
						</g>
					</g>
				</g>
			</g>
		</g>
	</g>
	<g>
		<g>
			<g>
				<g>
					<g>
						<g>
							<g>
								<g>
									<g>
										<path d="M849.68,219.85c-3.82,0-7.79-1.94-11.4-5.65c-4.21-4.31-7.52-10.59-9.3-17.66c-3.84-15.23,0.42-28.99,9.71-31.34            c9.29-2.35,19.58,7.74,23.43,22.97l0,0c1.79,7.08,1.86,14.16,0.2,19.96c-1.77,6.17-5.29,10.21-9.91,11.38            C851.5,219.74,850.59,219.85,849.68,219.85z M841.37,168.8c-0.58,0-1.16,0.07-1.73,0.21            c-6.92,1.75-10.06,13.91-6.86,26.56c1.62,6.41,4.57,12.05,8.3,15.88c3.46,3.55,7.14,5.06,10.35,4.24            c3.21-0.81,5.73-3.88,7.09-8.65c1.47-5.14,1.39-11.5-0.23-17.92C855.36,177.52,847.92,168.8,841.37,168.8z"></path>
									</g>
								</g>
							</g>
						</g>
					</g>
				</g>
			</g>
		</g>
	</g>
	<g>
		<g>
			<g>
				<g>
					<g>
						<g>
							<g>
								<g>
									<g>
										
											<ellipse transform="matrix(0.9696 -0.2448 0.2448 0.9696 -21.3617 212.8721)" cx="845.54" cy="192.36" rx="10.64" ry="18.33"></ellipse>
									</g>
								</g>
							</g>
						</g>
					</g>
				</g>
			</g>
		</g>
	</g>
	<g>
		<g>
			<g>
				<g>
					<g>
						<g>
							<g>
								<g>
									<g>
										<path d="M858.67,215.26l-2.3-3.19l11.56-8.35c0.83-0.59,1.72-1.16,2.82-1.8c2.31-1.35,7.32-5.8,4.1-18.07            c-3.91-14.86-12.55-14.02-12.91-13.98l-0.17,0.02l-0.15-0.01l-17.32-0.63l0.14-3.93l17.18,0.62            c1.68-0.15,12.48-0.41,17.03,16.9c1.67,6.36,1.56,11.75-0.33,16.05c-1.63,3.7-4.2,5.61-5.58,6.42            c-0.99,0.58-1.79,1.09-2.5,1.6L858.67,215.26z"></path>
									</g>
								</g>
							</g>
						</g>
					</g>
				</g>
			</g>
		</g>
	</g>
	<g>
		<g>
			<g>
				<g>
					<g>
						<g>
							<g>
								<g>
									<g>
										
											<rect x="836.13" y="179.24" transform="matrix(0.9977 -0.0682 0.0682 0.9977 -10.3975 57.6998)" class="st3" width="8.31" height="3.93"></rect>
									</g>
								</g>
							</g>
						</g>
					</g>
				</g>
			</g>
		</g>
	</g>
	<g>
		<g>
			<g>
				<g>
					<g>
						<g>
							<g>
								<g>
									<g>
										
											<rect x="856.05" y="175.33" transform="matrix(0.9942 -0.1079 0.1079 0.9942 -14.0768 94.3466)" width="18.08" height="3.93"></rect>
									</g>
								</g>
							</g>
						</g>
					</g>
				</g>
			</g>
		</g>
	</g>
	<g>
		<g>
			<g>
				<g>
					<g>
						<g>
							<g>
								<g>
									<g>
										
											<rect x="858.77" y="181.01" transform="matrix(0.9883 -0.1527 0.1527 0.9883 -17.7683 134.6522)" width="17.6" height="3.93"></rect>
									</g>
								</g>
							</g>
						</g>
					</g>
				</g>
			</g>
		</g>
	</g>
</g>
<g>
	<g>
		<g>
			<g>
				<g>
					<g>
						<g>
							<g>
								<g>
									<g>
										<path d="M932.23,213.21l-0.96-3.81c2.68-0.68,4.78-3.26,5.93-7.28c1.26-4.39,1.19-9.84-0.2-15.33            c-1.39-5.49-3.91-10.32-7.1-13.59c-2.92-2.99-6-4.27-8.68-3.59l-0.96-3.81c4.09-1.03,8.51,0.62,12.46,4.66            c3.67,3.76,6.55,9.22,8.1,15.37c1.55,6.16,1.61,12.33,0.17,17.38C939.43,208.62,936.32,212.17,932.23,213.21z"></path>
									</g>
								</g>
							</g>
						</g>
					</g>
				</g>
			</g>
		</g>
	</g>
	<g>
		<g>
			<g>
				<g>
					<g>
						<g>
							<g>
								<g>
									<g>
										
											<ellipse transform="matrix(0.9696 -0.2448 0.2448 0.9696 -20.8412 226.6627)" class="st0" cx="901.27" cy="197.16" rx="18.24" ry="31.41"></ellipse>
									</g>
								</g>
							</g>
						</g>
					</g>
				</g>
			</g>
		</g>
	</g>
	<g>
		<g>
			<g>
				<g>
					<g>
						<g>
							<g>
								<g>
									<g>
										<path d="M906.26,229.91c-4.5,0-9.18-2.3-13.47-6.69c-5.03-5.15-8.98-12.65-11.12-21.12c-2.14-8.47-2.22-16.94-0.24-23.86            c2.09-7.3,6.23-12.07,11.66-13.44c5.43-1.37,11.34,0.86,16.65,6.29c5.03,5.15,8.98,12.65,11.12,21.12l0,0            c2.14,8.47,2.22,16.94,0.24,23.86c-2.09,7.3-6.23,12.07-11.66,13.44C908.39,229.78,907.33,229.91,906.26,229.91z             M896.26,168.34c-0.75,0-1.48,0.09-2.2,0.27c-4.02,1.01-7.16,4.82-8.85,10.71c-1.79,6.27-1.7,14.02,0.27,21.82            c1.97,7.8,5.56,14.67,10.12,19.33c4.28,4.39,8.85,6.24,12.87,5.23c4.02-1.01,7.16-4.82,8.85-10.71            c1.79-6.27,1.7-14.02-0.27-21.82l0,0c-1.97-7.8-5.56-14.67-10.12-19.33C903.41,170.24,899.7,168.34,896.26,168.34z"></path>
									</g>
								</g>
							</g>
						</g>
					</g>
				</g>
			</g>
		</g>
	</g>
	<g>
		<g>
			<g>
				<g>
					<g>
						<g>
							<g>
								<g>
									<g>
										
											<ellipse transform="matrix(0.9696 -0.2448 0.2448 0.9696 -20.8412 226.6627)" cx="901.27" cy="197.16" rx="12.84" ry="22.1"></ellipse>
									</g>
								</g>
							</g>
						</g>
					</g>
				</g>
			</g>
		</g>
	</g>
	<g>
		<g>
			<g>
				<g>
					<g>
						<g>
							<g>
								<g>
									<g>
										<path d="M916.87,224.46l-2.3-3.19l13.95-10.07c0.99-0.71,2.05-1.39,3.37-2.15c2.86-1.67,9.09-7.18,5.13-22.25            c-4.82-18.31-15.56-17.22-16.01-17.16l-0.15,0.02l-0.17,0l-20.89-0.76l0.14-3.93l20.76,0.75c0.86-0.08,4.22-0.2,8.07,1.89            c7.02,3.81,10.43,11.99,12.06,18.18c1.99,7.57,1.86,14-0.38,19.09c-1.92,4.36-4.94,6.6-6.57,7.55            c-1.2,0.7-2.17,1.32-3.05,1.95L916.87,224.46z"></path>
									</g>
								</g>
							</g>
						</g>
					</g>
				</g>
			</g>
		</g>
	</g>
	<g>
		<g>
			<g>
				<g>
					<g>
						<g>
							<g>
								<g>
									<g>
										
											<rect x="889.92" y="181.74" transform="matrix(0.9977 -0.0682 0.0682 0.9977 -10.441 61.4306)" class="st3" width="10.03" height="3.93"></rect>
									</g>
								</g>
							</g>
						</g>
					</g>
				</g>
			</g>
		</g>
	</g>
	<g>
		<g>
			<g>
				<g>
					<g>
						<g>
							<g>
								<g>
									<g>
										
											<rect x="913.95" y="177.03" transform="matrix(0.9942 -0.1078 0.1078 0.9942 -13.9074 100.7569)" width="21.81" height="3.93"></rect>
									</g>
								</g>
							</g>
						</g>
					</g>
				</g>
			</g>
		</g>
	</g>
	<g>
		<g>
			<g>
				<g>
					<g>
						<g>
							<g>
								<g>
									<g>
										
											<rect x="917.22" y="183.88" transform="matrix(0.9883 -0.1527 0.1527 0.9883 -17.4994 143.8911)" width="21.23" height="3.93"></rect>
									</g>
								</g>
							</g>
						</g>
					</g>
				</g>
			</g>
		</g>
	</g>
</g>
<g>
	<g>
		<g>
			<g>
				<g>
					<g>
						<g>
							<g>
								<g>
									<polygon points="951.56,89.32 961.31,82.65 915.57,47.46 900.74,58.32 917.01,110.79          "></polygon>
								</g>
							</g>
						</g>
					</g>
				</g>
			</g>
		</g>
	</g>
	<g>
		<g>
			<g>
				<g>
					<g>
						<g>
							<g>
								<g>
									<path d="M915.89,113.8l-17.44-56.24L915.59,45l49.06,37.74l-12.06,8.25L915.89,113.8z M903.03,59.07l15.11,48.71           l32.35-20.1l7.49-5.12l-42.43-32.64L903.03,59.07z"></path>
								</g>
							</g>
						</g>
					</g>
				</g>
			</g>
		</g>
	</g>
</g>
<g>
	<g>
		<g>
			<g>
				<g>
					<g>
						<g>
							<g>
								<g>
									
										<rect x="707.27" y="195.19" transform="matrix(0.9847 -0.1745 0.1745 0.9847 -22.7242 135.9068)" class="st3" width="108.21" height="3.93"></rect>
								</g>
							</g>
						</g>
					</g>
				</g>
			</g>
		</g>
	</g>
</g>
<g>
	<g>
		<g>
			<g>
				<g>
					<g>
						<g>
							<g>
								<g>
									
										<rect x="693.14" y="235.65" transform="matrix(0.9523 -0.3051 0.3051 0.9523 -36.1007 244.1954)" class="st3" width="140.35" height="3.93"></rect>
								</g>
							</g>
						</g>
					</g>
				</g>
			</g>
		</g>
	</g>
</g>
<g>
	<g>
		<g>
			<g>
				<g>
					<g>
						<g>
							<g>
								<g>
									
										<rect x="729" y="255.25" transform="matrix(0.9504 -0.3109 0.3109 0.9504 -43.5667 241.1567)" width="11.09" height="3.93"></rect>
								</g>
							</g>
						</g>
					</g>
				</g>
			</g>
		</g>
	</g>
</g>
<g>
	<g>
		<g>
			<g>
				<g>
					<g>
						<g>
							<g>
								<g>
									
										<rect x="743.72" y="241.85" transform="matrix(0.9504 -0.3109 0.3109 0.9504 -37.3694 253.2298)" width="63.58" height="3.93"></rect>
								</g>
							</g>
						</g>
					</g>
				</g>
			</g>
		</g>
	</g>
</g>
<g>
	<g>
		<g>
			<g>
				<g>
					<g>
						<g>
							<g>
								<g>
									<polygon class="st0" points="892.79,54.56 906.22,108.33 915.57,111.67 899.45,56.89          "></polygon>
								</g>
							</g>
						</g>
					</g>
				</g>
			</g>
		</g>
	</g>
</g>
<g>
	<g>
		<g>
			<g>
				<g>
					<g>
						<g>
							<g>
								<g>
									<polygon class="st3" points="909.18,111.47 904.57,109.82 898.53,85.66 902.35,84.71 907.87,106.83 910.5,107.77                     "></polygon>
								</g>
							</g>
						</g>
					</g>
				</g>
			</g>
		</g>
	</g>
</g>
<g>
	<g>
		<g>
			<g>
				<g>
					<g>
						<g>
							<g>
								<g>
									
										<rect x="897.14" y="77.3" transform="matrix(0.9702 -0.2422 0.2422 0.9702 7.436 220.1721)" class="st3" width="3.93" height="5.08"></rect>
								</g>
							</g>
						</g>
					</g>
				</g>
			</g>
		</g>
	</g>
</g>
<g>
	<g>
		<g>
			<g>
				<g>
					<g>
						<g>
							<g>
								<g>
									
										<rect x="741.84" y="238.74" transform="matrix(0.9422 -0.3351 0.3351 0.9422 -32.8934 290.7982)" class="st3" width="168.58" height="3.93"></rect>
								</g>
							</g>
						</g>
					</g>
				</g>
			</g>
		</g>
	</g>
</g>
<g>
	<g>
		<g>
			<g>
				<g>
					<g>
						<g>
							<g>
								<g>
									
										<rect x="749.88" y="214.24" transform="matrix(0.9699 -0.2435 0.2435 0.9699 -29.2503 195.8252)" class="st0" width="54.9" height="3.93"></rect>
								</g>
							</g>
						</g>
					</g>
				</g>
			</g>
		</g>
	</g>
</g>
<g>
	<g>
		<g>
			<g>
				<g>
					<g>
						<g>
							<g>
								<g>
									
										<rect x="733.42" y="224.04" transform="matrix(0.9754 -0.2204 0.2204 0.9754 -31.6286 168.539)" class="st0" width="12.02" height="3.93"></rect>
								</g>
							</g>
						</g>
					</g>
				</g>
			</g>
		</g>
	</g>
</g>
<g>
	<g>
		<g>
			<g>
				<g>
					<g>
						<g>
							<g>
								<g>
									
										<rect x="890.24" y="260.81" transform="matrix(0.8965 -0.4431 0.4431 0.8965 -23.5032 424.9469)" class="st3" width="14.93" height="3.93"></rect>
								</g>
							</g>
						</g>
					</g>
				</g>
			</g>
		</g>
	</g>
</g>
<g>
	<g>
		<g>
			<g>
				<g>
					<g>
						<g>
							<g>
								<g>
									
										<rect x="907.04" y="230.35" transform="matrix(0.8965 -0.4431 0.4431 0.8965 -3.6282 449.1012)" class="st3" width="104.61" height="3.93"></rect>
								</g>
							</g>
						</g>
					</g>
				</g>
			</g>
		</g>
	</g>
</g>
<g>
	<g>
		<g>
			<g>
				<g>
					<g>
						<g>
							<g>
								<g>
									
										<rect x="992.25" y="108.37" transform="matrix(0.8922 -0.4517 0.4517 0.8922 59.7259 470.8297)" class="st3" width="47.34" height="3.93"></rect>
								</g>
							</g>
						</g>
					</g>
				</g>
			</g>
		</g>
	</g>
</g>
<g>
	<g>
		<g>
			<g>
				<g>
					<g>
						<g>
							<g>
								<g>
									
										<rect x="964.62" y="131.24" transform="matrix(0.8706 -0.492 0.492 0.8706 62.8365 505.3126)" class="st3" width="54.84" height="3.93"></rect>
								</g>
							</g>
						</g>
					</g>
				</g>
			</g>
		</g>
	</g>
</g>
<g>
	<g>
		<g>
			<g>
				<g>
					<g>
						<g>
							<g>
								<g>
									
										<rect x="983.82" y="122.57" transform="matrix(0.8756 -0.483 0.483 0.8756 62.677 492.4508)" class="st3" width="7.27" height="3.93"></rect>
								</g>
							</g>
						</g>
					</g>
				</g>
			</g>
		</g>
	</g>
</g>
<g>
	<g>
		<g>
			<g>
				<g>
					<g>
						<g>
							<g>
								<g>
									
										<rect x="853.57" y="68.86" transform="matrix(0.8543 -0.5197 0.5197 0.8543 90.0673 462.9809)" class="st3" width="34.73" height="3.93"></rect>
								</g>
							</g>
						</g>
					</g>
				</g>
			</g>
		</g>
	</g>
</g>
<g>
	<g>
		<g>
			<g>
				<g>
					<g>
						<g>
							<g>
								<g>
									
										<rect x="843.64" y="82.32" transform="matrix(0.8618 -0.5073 0.5073 0.8618 76.3876 448.9222)" class="st3" width="36.76" height="3.93"></rect>
								</g>
							</g>
						</g>
					</g>
				</g>
			</g>
		</g>
	</g>
</g>
<g>
	<g>
		<g>
			<g>
				<g>
					<g>
						<g>
							<g>
								<g>
									<path d="M1238.36,430.56c-13.22,7.79-19.24,39.08-7.75,57.78c8.71,14.18,24.49,16.25,30.97,17.1           c16.51,2.16,41.42-2.82,45.86-15.66C1315.23,467.22,1261.09,417.16,1238.36,430.56z"></path>
								</g>
							</g>
						</g>
					</g>
				</g>
			</g>
		</g>
	</g>
</g>
<g>
	<g>
		<g>
			<g>
				<g>
					<g>
						<g>
							<g>
								<g>
									<path class="st4" d="M1220.39,427.86c4.31,17.02,14.88,35.7,31.05,39.35c19.45,4.39,38.22-16.13,42.01-11.79           c3.39,3.88-11.62,20.33-8.15,24.16c2.5,2.76,14.77-6.8,16.46-4.83c2.13,2.47-16.48,17.92-13.6,22.96           c2.65,4.62,24.5,2.44,35.72-10.34c14.46-16.46,8.95-47.81-5.2-66.69c-17.74-23.67-61.39-39.36-89.09-24.66           C1217.27,402.56,1217.36,415.87,1220.39,427.86z"></path>
								</g>
							</g>
						</g>
					</g>
				</g>
			</g>
		</g>
	</g>
</g>
<g>
	<g>
		<g>
			<g>
				<g>
					<g>
						<g>
							<g>
								<g>
									<path class="st3" d="M1246.15,498.29c-2.08,0-4.29-0.34-6.59-1.03c-4.82-1.43-8.37-3.87-8.52-3.97l2.24-3.23           c0.12,0.09,12.45,8.43,20.67,1.61l2.51,3.02C1253.57,497.08,1250.08,498.29,1246.15,498.29z"></path>
								</g>
							</g>
						</g>
					</g>
				</g>
			</g>
		</g>
	</g>
</g>
<g>
	<g>
		<g>
			<g>
				<g>
					<g>
						<g>
							<g>
								<g>
									<path class="st3" d="M1060.15,425.13c8.61-8.69,25.2-5.29,33.34-3.51c50.64,11.05,52.38,54.4,98.28,78.97           c52.21,27.95,92.68-5.28,121.09,26.32c15.17,16.87,22.33,47.13,10.53,63.18c-30.61,41.63-199.78,2.42-250.96-93.01           C1069.52,491.65,1043.43,442,1060.15,425.13z"></path>
								</g>
							</g>
						</g>
					</g>
				</g>
			</g>
		</g>
	</g>
</g>
<g>
	<g>
		<g>
			<g>
				<g>
					<g>
						<g>
							<g>
								<g>
									<path d="M1199.07,593.95c-25.8-8.85-50.39-21.26-71.1-35.88l2.27-3.21c20.41,14.41,44.65,26.65,70.1,35.38L1199.07,593.95z           "></path>
								</g>
							</g>
						</g>
					</g>
				</g>
			</g>
		</g>
	</g>
</g>
<g>
	<g>
		<g>
			<g>
				<g>
					<g>
						<g>
							<g>
								<g>
									<path d="M1274.94,608.02c-0.5,0-1.01,0-1.52-0.01l0.04-3.93c24.31,0.24,41.9-5.35,49.53-15.72           c9.38-12.76,6.92-41.43-10.41-60.7c-13.88-15.45-30.42-14.73-51.35-13.83c-1.96,0.08-3.95,0.17-5.96,0.24           c-13.56,0.49-29.5,0.53-46.99-5.3c-5.5-1.83-10.97-4.19-16.26-7.02c-20.63-11.04-32.31-25.59-43.61-39.66           c-4.61-5.74-8.97-11.17-13.83-16.23c-4.6-4.79-9.12-8.66-13.83-11.83c-7.78-5.25-16.45-8.87-26.51-11.06           c-7.03-1.53-23.5-5.13-31.53,2.97c-8.04,8.12-4.84,25.3-0.74,38.29c4.58,14.49,11.39,27.66,13.36,31.35l-3.46,1.86           c-2.02-3.76-8.97-17.2-13.65-32.02c-6.44-20.4-5.87-34.61,1.7-42.24c9.55-9.63,27.49-5.72,35.16-4.05           c10.55,2.3,19.67,6.11,27.87,11.65c4.94,3.33,9.67,7.38,14.46,12.37c4.98,5.18,9.39,10.68,14.06,16.49           c11.05,13.76,22.47,27.99,42.4,38.66c5.09,2.72,10.35,5,15.64,6.76c16.87,5.61,32.39,5.57,45.61,5.1           c2.01-0.07,3.98-0.16,5.94-0.24c21.1-0.91,39.32-1.69,54.44,15.13c7.75,8.62,13.53,20.59,15.85,32.85           c2.5,13.2,0.65,24.85-5.19,32.81c-4.34,5.91-11.32,10.4-20.73,13.34C1296.95,606.68,1286.7,608.02,1274.94,608.02z"></path>
								</g>
							</g>
						</g>
					</g>
				</g>
			</g>
		</g>
	</g>
</g>
<g>
	<g>
		<g>
			<g>
				<g>
					<g>
						<g>
							<g>
								<g>
									<path class="st0" d="M750.43,615.04c0,0-7.25-18.2,10.52-26.21c17.77-8.01,29.94,0,29.94,0S761.1,609.57,750.43,615.04z"></path>
								</g>
							</g>
						</g>
					</g>
				</g>
			</g>
		</g>
	</g>
</g>
<g>
	<g>
		<g>
			<g>
				<g>
					<g>
						<g>
							<g>
								<g>
									<path d="M1159,575.48l-3.71-1.29c2.54-7.33,3.54-22.74-10.85-28.57c-13.45-5.45-23.92,5.37-24.36,5.83l-2.86-2.7           c0.51-0.54,12.72-13.25,28.7-6.78c7.21,2.92,12.03,8.33,13.94,15.65C1161.3,563.21,1160.99,569.71,1159,575.48z"></path>
								</g>
							</g>
						</g>
					</g>
				</g>
			</g>
		</g>
	</g>
</g>
<g>
	<g>
		<g>
			<g>
				<g>
					<g>
						<g>
							<g>
								<g>
									<path d="M754.46,634.23l-1.22-3.74c0.12-0.04,12.68-4.19,29.15-13.77c15.16-8.83,36.84-24.21,54.04-47.37l3.16,2.34           c-17.62,23.73-39.81,39.46-55.32,48.48C767.45,629.95,754.98,634.06,754.46,634.23z"></path>
								</g>
							</g>
						</g>
					</g>
				</g>
			</g>
		</g>
	</g>
</g>
<g>
	<g>
		<g>
			<g>
				<g>
					<g>
						<g>
							<g>
								<g>
									<path d="M514.39,731.83c-1.29-31-26-117.96-26.25-118.83l3.78-1.08c1.02,3.59,25.09,88.28,26.4,119.75L514.39,731.83z"></path>
								</g>
							</g>
						</g>
					</g>
				</g>
			</g>
		</g>
	</g>
</g>
<g>
	<g>
		<g>
			<g>
				<g>
					<g>
						<g>
							<g>
								<g>
									<rect x="514.39" y="740.09" width="3.93" height="19.3"></rect>
								</g>
							</g>
						</g>
					</g>
				</g>
			</g>
		</g>
	</g>
</g>
<g>
	<g>
		<g>
			<g>
				<g>
					<g>
						<g>
							<g>
								<g>
									
										<rect x="729.01" y="866.18" transform="matrix(0.9961 -0.0885 0.0885 0.9961 -76.3461 68.1668)" class="st3" width="3.93" height="58.68"></rect>
								</g>
							</g>
						</g>
					</g>
				</g>
			</g>
		</g>
	</g>
</g>
<g>
	<g>
		<g>
			<g>
				<g>
					<g>
						<g>
							<g>
								<g>
									<rect x="563.51" y="899.74" class="st3" width="3.93" height="28.67"></rect>
								</g>
							</g>
						</g>
					</g>
				</g>
			</g>
		</g>
	</g>
</g>
<g>
	<g>
		<g>
			<g>
				<g>
					<g>
						<g>
							<g>
								<g>
									
										<rect x="1374.01" y="811.96" transform="matrix(0.089 -0.996 0.996 0.089 462.9142 2133.9553)" class="st3" width="47.93" height="3.93"></rect>
								</g>
							</g>
						</g>
					</g>
				</g>
			</g>
		</g>
	</g>
</g>
<g>
	<g>
		<g>
			<g>
				<g>
					<g>
						<g>
							<g>
								<g>
									<path class="st3" d="M1444.86,714.44l-3.85-0.78c2.46-12.18,3.66-33.81-4.58-67.7c-4.95-20.37-11.05-35.67-11.12-35.82           l3.65-1.46c0.06,0.15,6.25,15.67,11.27,36.3C1444.89,664.08,1449.47,691.64,1444.86,714.44z"></path>
								</g>
							</g>
						</g>
					</g>
				</g>
			</g>
		</g>
	</g>
</g>
<g>
	<g>
		<g>
			<g>
				<g>
					<g>
						<g>
							<g>
								<g>
									
										<rect x="1420.02" y="593.05" transform="matrix(0.9052 -0.4249 0.4249 0.9052 -119.7635 660.9874)" class="st3" width="3.93" height="11.87"></rect>
								</g>
							</g>
						</g>
					</g>
				</g>
			</g>
		</g>
	</g>
</g>
<g>
	<g>
		<g>
			<g>
				<g>
					<g>
						<g>
							<g>
								<g>
									<path class="st3" d="M1137.62,580.85c-31.06-16.92-63.78-53.02-64.11-53.39l2.92-2.63c0.32,0.36,32.61,35.97,63.07,52.57           L1137.62,580.85z"></path>
								</g>
							</g>
						</g>
					</g>
				</g>
			</g>
		</g>
	</g>
</g>
</svg>
