<?xml version="1.0" encoding="UTF-8"?>
<!-- Generator: Adobe Illustrator 24.0.3, SVG Export Plug-In . SVG Version: 6.00 Build 0)  -->
<svg width="1510px" height="849px" xmlns="http://www.w3.org/2000/svg" xmlns:xlink="http://www.w3.org/1999/xlink" version="1.1" id="Calque_1" x="0px" y="0px" viewBox="0 0 1920 1080" style="enable-background:new 0 0 1920 1080;" xml:space="preserve">
<style type="text/css">
	.st0{fill:#D6C94D;}
	.st1{fill:#070707;}
	.st2{fill:#FFF173;}
	.st3{fill:#FFFFFF;}
	.st4{fill:#E2DA74;}
	.st5{fill:none;stroke:#000000;stroke-width:10;stroke-miterlimit:10;}
</style>
<g>
	<g>
		<g>
			<g>
				<g>
					<g>
						<g>
							<g>
								<g>
									<path class="st4" d="M1249.99,300.5h-47.41c-6.6,0-12-5.4-12-12v-12.49c0-6.6,5.4-12,12-12h47.41c6.6,0,12,5.4,12,12v12.49           C1261.99,295.1,1256.59,300.5,1249.99,300.5z"></path>
								</g>
							</g>
						</g>
					</g>
				</g>
			</g>
		</g>
	</g>
</g>
<g>
	<g>
		<g>
			<g>
				<g>
					<g>
						<g>
							<g>
								<g>
									
										<rect x="1219.62" y="362.84" transform="matrix(0.6237 -0.7817 0.7817 0.6237 170.3614 1104.1522)" class="st4" width="24.61" height="24.61"></rect>
								</g>
							</g>
						</g>
					</g>
				</g>
			</g>
		</g>
	</g>
</g>
<g>
	<g>
		<g>
			<g>
				<g>
					<g>
						<g>
							<g>
								<g>
									<circle class="st4" cx="1061.24" cy="290.25" r="15.28"></circle>
								</g>
							</g>
						</g>
					</g>
				</g>
			</g>
		</g>
	</g>
</g>
<g>
	<g>
		<g>
			<g>
				<g>
					<g>
						<g>
							<g>
								<g>
									<path class="st4" d="M1430.86,313.15h-58.44c-6.6,0-12-5.4-12-12v-40.87c0-6.6,5.4-12,12-12h58.44c6.6,0,12,5.4,12,12           v40.87C1442.86,307.75,1437.46,313.15,1430.86,313.15z"></path>
								</g>
							</g>
						</g>
					</g>
				</g>
			</g>
		</g>
	</g>
</g>
<g>
	<g>
		<g>
			<g>
				<g>
					<g>
						<g>
							<g>
								<g>
									<circle class="st4" cx="1430.62" cy="285.62" r="12.26"></circle>
								</g>
							</g>
						</g>
					</g>
				</g>
			</g>
		</g>
	</g>
</g>
<g>
	<g>
		<g>
			<g>
				<g>
					<g>
						<g>
							<g>
								<g>
									<path class="st0" d="M778.75,324.48c-182.28-37.18-402.49,66.33-440.02,235.36c-38.86,175.04,139.98,322.24,163.73,341.78           c152.95,125.88,420.56,182.53,540.3,53.21c89.05-96.17,55.86-251.52,47.07-292.66           C1061.97,531.77,961.7,361.8,778.75,324.48z"></path>
								</g>
							</g>
						</g>
					</g>
				</g>
			</g>
		</g>
	</g>
</g>
<g>
	<g>
		<g>
			<g>
				<g>
					<g>
						<g>
							<g>
								<g>
									<path class="st1" d="M822.12,1053.29c-1.33,0-2.42-1.07-2.42-2.41c-0.01-1.34,1.07-2.43,2.41-2.44           c2.41-0.02,4.84-0.06,7.21-0.12c1.32-0.02,2.45,1.02,2.49,2.36c0.03,1.34-1.02,2.45-2.36,2.49           c-2.41,0.06-4.86,0.1-7.3,0.12C822.13,1053.29,822.13,1053.29,822.12,1053.29z M797.94,1052.77c-0.04,0-0.08,0-0.12,0           c-2.41-0.12-4.86-0.26-7.28-0.42c-1.34-0.09-2.35-1.24-2.26-2.58c0.09-1.34,1.24-2.35,2.58-2.26           c2.4,0.16,4.82,0.3,7.21,0.42c1.34,0.07,2.37,1.2,2.3,2.54C800.29,1051.76,799.22,1052.77,797.94,1052.77z M853.52,1051.8           c-1.24,0-2.3-0.95-2.41-2.21c-0.12-1.33,0.87-2.51,2.2-2.63c2.4-0.21,4.81-0.46,7.17-0.72c1.33-0.14,2.53,0.81,2.68,2.14           c0.15,1.33-0.81,2.53-2.14,2.68c-2.39,0.26-4.84,0.51-7.27,0.73C853.67,1051.8,853.6,1051.8,853.52,1051.8z M766.6,1050.13           c-0.09,0-0.19-0.01-0.29-0.02c-2.39-0.28-4.82-0.59-7.24-0.91c-1.33-0.18-2.26-1.39-2.09-2.72s1.4-2.26,2.72-2.09           c2.39,0.32,4.8,0.62,7.17,0.9c1.33,0.16,2.28,1.36,2.13,2.69C768.86,1049.22,767.81,1050.13,766.6,1050.13z            M884.68,1047.58c-1.15,0-2.17-0.82-2.38-1.98c-0.24-1.32,0.63-2.58,1.94-2.83c2.36-0.44,4.74-0.9,7.06-1.39           c1.31-0.28,2.6,0.57,2.87,1.88c0.27,1.31-0.57,2.6-1.88,2.87c-2.37,0.49-4.78,0.97-7.18,1.41           C884.97,1047.56,884.82,1047.58,884.68,1047.58z M735.5,1045.48c-0.14,0-0.29-0.01-0.43-0.04           c-2.38-0.43-4.79-0.88-7.17-1.35c-1.31-0.26-2.17-1.53-1.92-2.84c0.26-1.31,1.53-2.17,2.84-1.92           c2.35,0.46,4.74,0.91,7.1,1.33c1.32,0.24,2.19,1.5,1.96,2.82C737.67,1044.66,736.65,1045.48,735.5,1045.48z            M915.25,1040.25c-1.04,0-2.01-0.68-2.32-1.73c-0.38-1.28,0.35-2.63,1.63-3.02c2.3-0.69,4.61-1.41,6.86-2.15           c1.27-0.42,2.64,0.28,3.06,1.55c0.42,1.27-0.28,2.64-1.55,3.06c-2.3,0.75-4.65,1.49-6.99,2.19           C915.71,1040.22,915.47,1040.25,915.25,1040.25z M704.72,1038.99c-0.19,0-0.38-0.02-0.57-0.07           c-2.36-0.57-4.74-1.16-7.1-1.76c-1.3-0.33-2.08-1.65-1.75-2.95c0.33-1.3,1.65-2.08,2.95-1.75c2.33,0.59,4.7,1.18,7.04,1.74           c1.3,0.31,2.1,1.62,1.79,2.93C706.81,1038.25,705.82,1038.99,704.72,1038.99z M674.34,1030.79c-0.23,0-0.46-0.03-0.7-0.1           c-2.32-0.69-4.67-1.41-6.98-2.13c-1.28-0.4-1.99-1.76-1.59-3.04c0.4-1.28,1.76-1.99,3.04-1.59           c2.3,0.72,4.63,1.43,6.93,2.12c1.28,0.38,2.01,1.73,1.63,3.02C676.34,1030.11,675.38,1030.79,674.34,1030.79z            M944.77,1029.47c-0.93,0-1.82-0.54-2.22-1.45c-0.54-1.23,0.02-2.66,1.25-3.19c2.2-0.96,4.4-1.97,6.54-2.99           c1.21-0.57,2.66-0.06,3.23,1.15c0.57,1.21,0.06,2.66-1.15,3.23c-2.19,1.04-4.44,2.07-6.68,3.05           C945.43,1029.41,945.1,1029.47,944.77,1029.47z M644.44,1020.99c-0.27,0-0.55-0.05-0.82-0.14           c-2.27-0.81-4.58-1.65-6.85-2.49c-1.26-0.47-1.9-1.86-1.43-3.12c0.47-1.26,1.86-1.9,3.12-1.43           c2.26,0.84,4.55,1.67,6.8,2.47c1.26,0.45,1.92,1.84,1.47,3.1C646.37,1020.37,645.43,1020.99,644.44,1020.99z            M972.64,1014.93c-0.81,0-1.61-0.41-2.07-1.15c-0.7-1.14-0.35-2.63,0.79-3.34c2.04-1.25,4.07-2.55,6.05-3.86           c1.12-0.74,2.62-0.44,3.36,0.68c0.74,1.12,0.44,2.62-0.68,3.36c-2.02,1.34-4.1,2.67-6.19,3.95           C973.52,1014.82,973.08,1014.93,972.64,1014.93z M615.1,1009.64c-0.31,0-0.63-0.06-0.93-0.19           c-2.24-0.93-4.5-1.89-6.71-2.84c-1.23-0.53-1.8-1.96-1.27-3.19c0.53-1.23,1.96-1.8,3.19-1.27           c2.19,0.95,4.43,1.89,6.65,2.82c1.24,0.52,1.82,1.93,1.31,3.17C616.95,1009.08,616.05,1009.64,615.1,1009.64z            M586.39,996.8c-0.35,0-0.71-0.08-1.05-0.24c-2.18-1.04-4.38-2.12-6.55-3.18c-1.2-0.59-1.69-2.05-1.1-3.25           c0.59-1.2,2.05-1.69,3.25-1.1c2.14,1.06,4.33,2.12,6.49,3.16c1.21,0.58,1.72,2.03,1.14,3.23           C588.16,996.29,587.29,996.8,586.39,996.8z M998.09,996.51c-0.69,0-1.37-0.29-1.85-0.86c-0.87-1.02-0.74-2.55,0.28-3.42           c1.82-1.54,3.63-3.13,5.38-4.73c0.99-0.9,2.52-0.83,3.43,0.16c0.9,0.99,0.83,2.52-0.16,3.43           c-1.79,1.64-3.65,3.27-5.51,4.84C999.2,996.32,998.64,996.51,998.09,996.51z M558.39,982.49c-0.39,0-0.79-0.1-1.16-0.3           c-2.12-1.15-4.26-2.34-6.36-3.52c-1.17-0.66-1.58-2.13-0.93-3.3c0.66-1.17,2.13-1.58,3.3-0.93           c2.09,1.17,4.21,2.35,6.31,3.49c1.18,0.64,1.61,2.11,0.97,3.29C560.08,982.03,559.25,982.49,558.39,982.49z            M1020.36,974.38c-0.56,0-1.12-0.19-1.58-0.59c-1.02-0.87-1.13-2.4-0.26-3.42c1.55-1.8,3.08-3.66,4.57-5.52           c0.84-1.05,2.36-1.22,3.41-0.38c1.05,0.84,1.22,2.36,0.38,3.41c-1.52,1.91-3.1,3.81-4.68,5.66           C1021.72,974.1,1021.05,974.38,1020.36,974.38z M531.22,966.69c-0.44,0-0.88-0.12-1.27-0.36           c-2.06-1.28-4.14-2.58-6.17-3.88c-1.13-0.72-1.46-2.22-0.74-3.35c0.72-1.13,2.22-1.46,3.35-0.74           c2.02,1.29,4.08,2.58,6.12,3.84c1.14,0.7,1.49,2.2,0.79,3.34C532.83,966.28,532.03,966.69,531.22,966.69z M504.97,949.37           c-0.48,0-0.97-0.14-1.39-0.44c-1.98-1.39-3.98-2.82-5.94-4.23c-1.08-0.79-1.33-2.3-0.54-3.39c0.79-1.08,2.3-1.33,3.39-0.54           c1.94,1.41,3.92,2.82,5.88,4.2c1.1,0.77,1.36,2.28,0.59,3.38C506.48,949.02,505.73,949.37,504.97,949.37z M1038.9,949.03           c-0.44,0-0.88-0.12-1.27-0.36c-1.14-0.7-1.49-2.2-0.79-3.34c1.25-2.02,2.48-4.09,3.67-6.16c0.66-1.16,2.15-1.57,3.31-0.9           c1.16,0.66,1.57,2.15,0.9,3.31c-1.21,2.12-2.48,4.25-3.75,6.31C1040.5,948.62,1039.71,949.03,1038.9,949.03z M479.81,930.5           c-0.53,0-1.07-0.17-1.52-0.53c-1.57-1.26-3.16-2.55-4.7-3.82l-0.95-0.78c-1.03-0.85-1.18-2.38-0.33-3.41           c0.85-1.03,2.38-1.18,3.41-0.33l0.95,0.78c1.53,1.26,3.1,2.53,4.66,3.78c1.05,0.84,1.21,2.36,0.38,3.41           C481.23,930.19,480.52,930.5,479.81,930.5z M1053.41,921.16c-0.32,0-0.65-0.06-0.96-0.2c-1.23-0.53-1.79-1.96-1.26-3.19           c0.94-2.18,1.87-4.41,2.76-6.64c0.49-1.24,1.9-1.85,3.15-1.36c1.24,0.49,1.85,1.9,1.36,3.15c-0.9,2.27-1.85,4.56-2.81,6.78           C1055.24,920.61,1054.35,921.16,1053.41,921.16z M455.78,910.11c-0.58,0-1.15-0.2-1.62-0.62           c-1.81-1.62-3.63-3.27-5.41-4.91c-0.99-0.91-1.05-2.44-0.15-3.43c0.91-0.99,2.44-1.05,3.43-0.15           c1.77,1.62,3.57,3.26,5.36,4.87c1,0.89,1.08,2.43,0.19,3.42C457.11,909.84,456.45,910.11,455.78,910.11z M1063.99,891.56           c-0.22,0-0.45-0.03-0.67-0.1c-1.29-0.37-2.03-1.71-1.66-3c0.66-2.28,1.3-4.62,1.9-6.95c0.34-1.3,1.66-2.08,2.96-1.74           c1.3,0.34,2.08,1.66,1.74,2.96c-0.61,2.37-1.26,4.75-1.93,7.07C1066.01,890.86,1065.04,891.56,1063.99,891.56z            M432.88,888.49c-0.62,0-1.24-0.23-1.71-0.71c-1.71-1.7-3.44-3.44-5.14-5.17c-0.94-0.96-0.92-2.49,0.03-3.43           c0.96-0.94,2.49-0.92,3.43,0.03c1.69,1.72,3.41,3.45,5.1,5.13c0.95,0.94,0.95,2.48,0.01,3.43           C434.13,888.25,433.5,888.49,432.88,888.49z M411.14,865.71c-0.66,0-1.32-0.27-1.8-0.8c-1.63-1.8-3.27-3.63-4.86-5.44           c-0.89-1-0.79-2.54,0.21-3.42c1-0.89,2.54-0.79,3.42,0.21c1.58,1.79,3.2,3.61,4.82,5.39c0.9,0.99,0.82,2.53-0.17,3.42           C412.3,865.5,411.72,865.71,411.14,865.71z M1070.97,860.89c-0.14,0-0.27-0.01-0.41-0.04c-1.32-0.23-2.21-1.48-1.98-2.8           c0.4-2.35,0.78-4.74,1.14-7.13c0.2-1.32,1.43-2.24,2.75-2.04c1.32,0.2,2.24,1.43,2.04,2.75c-0.36,2.42-0.75,4.85-1.15,7.24           C1073.15,860.06,1072.13,860.89,1070.97,860.89z M390.67,841.8c-0.71,0-1.41-0.31-1.89-0.9c-1.53-1.89-3.06-3.81-4.55-5.71           c-0.83-1.05-0.64-2.58,0.41-3.4c1.05-0.83,2.58-0.64,3.4,0.41c1.48,1.88,2.99,3.78,4.51,5.65           c0.84,1.04,0.68,2.57-0.36,3.41C391.74,841.63,391.2,841.8,390.67,841.8z M1074.78,829.67c-0.06,0-0.12,0-0.19-0.01           c-1.34-0.1-2.34-1.27-2.24-2.6c0.18-2.37,0.34-4.79,0.47-7.2c0.07-1.34,1.21-2.37,2.56-2.29c1.34,0.07,2.36,1.22,2.29,2.56           c-0.14,2.44-0.3,4.89-0.48,7.29C1077.1,828.7,1076.04,829.67,1074.78,829.67z M371.64,816.73c-0.76,0-1.51-0.35-1.98-1.02           c-1.41-1.99-2.82-4-4.18-5.98c-0.76-1.1-0.48-2.61,0.62-3.37c1.1-0.76,2.61-0.48,3.37,0.62c1.35,1.96,2.74,3.95,4.14,5.92           c0.78,1.09,0.52,2.61-0.57,3.38C372.62,816.59,372.13,816.73,371.64,816.73z M1075.85,798.24c-1.33,0-2.42-1.08-2.42-2.41           c-0.01-2.39-0.05-4.82-0.1-7.22c-0.03-1.34,1.03-2.45,2.37-2.48c1.33-0.04,2.45,1.03,2.48,2.37           c0.05,2.43,0.09,4.88,0.1,7.3c0.01,1.34-1.07,2.43-2.41,2.44C1075.86,798.24,1075.85,798.24,1075.85,798.24z M354.3,790.48           c-0.82,0-1.61-0.41-2.07-1.16c-1.27-2.08-2.54-4.19-3.75-6.26c-0.68-1.15-0.29-2.64,0.86-3.32           c1.16-0.68,2.64-0.29,3.32,0.86c1.2,2.05,2.45,4.13,3.71,6.19c0.7,1.14,0.34,2.64-0.81,3.33           C355.17,790.36,354.73,790.48,354.3,790.48z M1074.56,766.82c-1.26,0-2.32-0.97-2.42-2.24c-0.18-2.38-0.38-4.8-0.6-7.2           c-0.12-1.33,0.86-2.51,2.2-2.63c1.34-0.12,2.51,0.86,2.63,2.2c0.22,2.42,0.42,4.87,0.6,7.27c0.1,1.34-0.9,2.5-2.24,2.6           C1074.68,766.81,1074.62,766.82,1074.56,766.82z M338.95,763.02c-0.88,0-1.74-0.49-2.16-1.33           c-1.1-2.17-2.19-4.38-3.24-6.55c-0.58-1.21-0.08-2.66,1.13-3.24c1.21-0.58,2.66-0.08,3.24,1.13           c1.03,2.14,2.11,4.32,3.2,6.46c0.61,1.19,0.13,2.65-1.07,3.26C339.69,762.93,339.32,763.02,338.95,763.02z M1071.21,735.54           c-1.19,0-2.23-0.88-2.4-2.09c-0.33-2.36-0.67-4.77-1.03-7.15c-0.2-1.32,0.71-2.56,2.04-2.76c1.33-0.2,2.56,0.71,2.76,2.04           c0.36,2.4,0.71,4.83,1.04,7.22c0.18,1.33-0.74,2.55-2.07,2.73C1071.43,735.54,1071.32,735.54,1071.21,735.54z            M325.99,734.37c-0.96,0-1.88-0.58-2.25-1.53c-0.9-2.27-1.79-4.56-2.63-6.83c-0.47-1.26,0.17-2.65,1.43-3.12           c1.26-0.47,2.65,0.17,3.12,1.43c0.83,2.23,1.7,4.49,2.59,6.72c0.49,1.24-0.11,2.65-1.36,3.15           C326.59,734.31,326.28,734.37,325.99,734.37z M315.85,704.61c-1.06,0-2.03-0.7-2.33-1.77c-0.66-2.34-1.3-4.72-1.9-7.07           c-0.33-1.3,0.45-2.62,1.75-2.95c1.3-0.33,2.62,0.45,2.95,1.75c0.59,2.31,1.22,4.64,1.87,6.95           c0.36,1.29-0.39,2.63-1.67,2.99C316.29,704.58,316.07,704.61,315.85,704.61z M1066.05,704.51c-1.14,0-2.15-0.81-2.38-1.96           c-0.45-2.33-0.91-4.65-1.41-7.1c-0.27-1.31,0.58-2.59,1.89-2.86c1.31-0.27,2.59,0.58,2.86,1.89           c0.5,2.46,0.97,4.8,1.42,7.15c0.25,1.31-0.61,2.59-1.92,2.84C1066.36,704.5,1066.2,704.51,1066.05,704.51z M309.04,673.93           c-1.17,0-2.2-0.85-2.39-2.04c-0.39-2.41-0.74-4.85-1.06-7.25c-0.17-1.33,0.76-2.55,2.09-2.72           c1.33-0.17,2.55,0.76,2.72,2.09c0.31,2.35,0.66,4.75,1.04,7.11c0.21,1.32-0.69,2.57-2.01,2.78           C309.3,673.92,309.17,673.93,309.04,673.93z M1059.4,673.76c-1.09,0-2.08-0.74-2.35-1.84c-0.57-2.32-1.17-4.67-1.79-7           c-0.34-1.29,0.43-2.62,1.73-2.96c1.29-0.34,2.62,0.43,2.96,1.73c0.62,2.35,1.23,4.73,1.81,7.07           c0.32,1.3-0.47,2.61-1.77,2.94C1059.79,673.74,1059.59,673.76,1059.4,673.76z M1050.83,643.49c-1.03,0-1.98-0.66-2.31-1.69           c-0.73-2.27-1.48-4.58-2.25-6.87c-0.43-1.27,0.26-2.64,1.53-3.07c1.27-0.43,2.64,0.26,3.07,1.53           c0.77,2.31,1.54,4.64,2.27,6.93c0.41,1.28-0.3,2.64-1.57,3.05C1051.32,643.46,1051.07,643.49,1050.83,643.49z            M306.02,642.67c-1.3,0-2.38-1.04-2.42-2.35c-0.08-2.43-0.12-4.9-0.12-7.33c0-1.34,1.08-2.43,2.42-2.43c0,0,0,0,0,0           c1.34,0,2.42,1.08,2.42,2.42c0,2.38,0.04,4.79,0.12,7.18c0.04,1.34-1.01,2.46-2.35,2.5           C306.07,642.67,306.05,642.67,306.02,642.67z M1040.31,613.85c-0.97,0-1.89-0.59-2.26-1.54c-0.87-2.23-1.77-4.49-2.68-6.71           c-0.5-1.24,0.09-2.66,1.33-3.16c1.24-0.51,2.66,0.09,3.16,1.33c0.91,2.24,1.82,4.52,2.7,6.78           c0.49,1.25-0.13,2.65-1.38,3.14C1040.9,613.79,1040.6,613.85,1040.31,613.85z M307.14,611.27c-0.08,0-0.17,0-0.25-0.01           c-1.33-0.14-2.3-1.33-2.16-2.66c0.25-2.42,0.54-4.87,0.87-7.28c0.18-1.33,1.4-2.26,2.73-2.08c1.33,0.18,2.26,1.4,2.08,2.73           c-0.32,2.36-0.61,4.76-0.85,7.13C309.42,610.34,308.36,611.27,307.14,611.27z M1027.97,584.91c-0.91,0-1.79-0.52-2.2-1.41           c-1.01-2.17-2.05-4.37-3.09-6.53c-0.58-1.21-0.07-2.66,1.13-3.24c1.21-0.58,2.66-0.07,3.24,1.13           c1.05,2.18,2.1,4.4,3.11,6.6c0.56,1.21,0.04,2.66-1.18,3.22C1028.65,584.84,1028.31,584.91,1027.97,584.91z M312.48,580.3           c-0.19,0-0.38-0.02-0.57-0.07c-1.3-0.32-2.1-1.63-1.78-2.93c0.57-2.35,1.19-4.74,1.84-7.09c0.36-1.29,1.69-2.05,2.98-1.69           c1.29,0.36,2.05,1.69,1.69,2.98c-0.64,2.3-1.24,4.64-1.8,6.94C314.57,579.56,313.58,580.3,312.48,580.3z M1013.86,556.8           c-0.86,0-1.7-0.46-2.13-1.27c-1.14-2.1-2.31-4.23-3.48-6.33c-0.65-1.17-0.24-2.65,0.93-3.3c1.17-0.65,2.65-0.24,3.3,0.93           c1.18,2.12,2.37,4.27,3.52,6.39c0.64,1.18,0.2,2.65-0.98,3.29C1014.65,556.7,1014.25,556.8,1013.86,556.8z M321.92,550.37           c-0.29,0-0.59-0.05-0.88-0.17c-1.25-0.49-1.87-1.89-1.38-3.14c0.88-2.26,1.8-4.54,2.75-6.77c0.52-1.23,1.95-1.81,3.18-1.29           c1.23,0.52,1.81,1.95,1.29,3.18c-0.93,2.19-1.84,4.43-2.7,6.64C323.8,549.78,322.89,550.37,321.92,550.37z M998.02,529.62           c-0.81,0-1.6-0.4-2.06-1.14c-1.27-2.03-2.58-4.08-3.88-6.09c-0.73-1.12-0.41-2.63,0.72-3.35c1.12-0.73,2.63-0.41,3.35,0.72           c1.32,2.03,2.63,4.1,3.92,6.15c0.71,1.13,0.37,2.63-0.77,3.34C998.91,529.5,998.46,529.62,998.02,529.62z M335.14,521.89           c-0.39,0-0.79-0.09-1.15-0.29c-1.18-0.64-1.61-2.11-0.97-3.29c1.16-2.13,2.36-4.28,3.59-6.39           c0.67-1.16,2.15-1.55,3.31-0.88c1.16,0.67,1.55,2.16,0.88,3.31c-1.2,2.07-2.38,4.18-3.52,6.27           C336.83,521.43,336,521.89,335.14,521.89z M980.46,503.53c-0.75,0-1.49-0.35-1.97-1c-1.4-1.94-2.84-3.9-4.27-5.82           c-0.8-1.07-0.58-2.59,0.49-3.39c1.07-0.8,2.59-0.58,3.39,0.49c1.45,1.94,2.9,3.92,4.32,5.88c0.78,1.09,0.54,2.6-0.55,3.39           C981.45,503.38,980.95,503.53,980.46,503.53z M351.76,495.2c-0.48,0-0.97-0.14-1.4-0.44c-1.09-0.77-1.35-2.29-0.58-3.38           c1.4-1.98,2.85-3.98,4.31-5.94c0.8-1.07,2.32-1.29,3.39-0.49c1.07,0.8,1.29,2.32,0.49,3.39c-1.44,1.93-2.86,3.89-4.24,5.84           C353.27,494.84,352.52,495.2,351.76,495.2z M961.19,478.71c-0.69,0-1.38-0.3-1.86-0.87c-1.53-1.84-3.1-3.68-4.65-5.49           c-0.87-1.01-0.76-2.55,0.25-3.42c1.01-0.88,2.55-0.76,3.42,0.25c1.57,1.83,3.15,3.69,4.7,5.55           c0.86,1.03,0.72,2.56-0.31,3.42C962.29,478.53,961.74,478.71,961.19,478.71z M371.29,470.55c-0.57,0-1.14-0.2-1.6-0.61           c-1-0.89-1.1-2.42-0.21-3.42c1.6-1.81,3.25-3.64,4.91-5.42c0.91-0.98,2.44-1.04,3.43-0.13c0.98,0.91,1.04,2.44,0.13,3.43           c-1.63,1.76-3.25,3.55-4.83,5.34C372.63,470.27,371.96,470.55,371.29,470.55z M940.23,455.34c-0.63,0-1.27-0.25-1.74-0.74           c-1.66-1.72-3.36-3.45-5.04-5.13c-0.95-0.95-0.95-2.48,0-3.43s2.48-0.95,3.43,0c1.7,1.7,3.41,3.45,5.1,5.19           c0.93,0.96,0.9,2.5-0.06,3.43C941.44,455.11,940.84,455.34,940.23,455.34z M393.25,448.06c-0.65,0-1.3-0.26-1.78-0.77           c-0.91-0.98-0.85-2.52,0.13-3.43c1.77-1.64,3.59-3.29,5.41-4.92c1-0.89,2.53-0.8,3.42,0.2c0.89,1,0.8,2.53-0.2,3.42           c-1.8,1.6-3.59,3.23-5.33,4.84C394.43,447.85,393.84,448.06,393.25,448.06z M917.58,433.61c-0.57,0-1.15-0.2-1.61-0.61           c-1.79-1.59-3.62-3.18-5.44-4.74c-1.02-0.87-1.14-2.4-0.27-3.42c0.87-1.02,2.4-1.14,3.42-0.27           c1.84,1.57,3.69,3.19,5.51,4.8c1,0.89,1.09,2.42,0.2,3.42C918.91,433.33,918.25,433.61,917.58,433.61z M417.25,427.75           c-0.73,0-1.44-0.32-1.92-0.94c-0.82-1.06-0.62-2.58,0.44-3.4c1.91-1.47,3.87-2.95,5.83-4.41c1.08-0.8,2.59-0.57,3.39,0.51           c0.8,1.08,0.57,2.59-0.51,3.39c-1.94,1.43-3.87,2.9-5.75,4.35C418.29,427.59,417.77,427.75,417.25,427.75z M893.24,413.71           c-0.51,0-1.02-0.16-1.45-0.49c-1.92-1.44-3.87-2.88-5.81-4.27c-1.09-0.78-1.33-2.3-0.55-3.39c0.78-1.09,2.3-1.33,3.39-0.55           c1.96,1.42,3.94,2.87,5.88,4.33c1.07,0.8,1.29,2.32,0.48,3.4C894.7,413.38,893.97,413.71,893.24,413.71z M442.94,409.62           c-0.8,0-1.58-0.39-2.04-1.11c-0.73-1.13-0.4-2.63,0.72-3.35c2.03-1.31,4.11-2.62,6.17-3.9c1.14-0.71,2.63-0.35,3.34,0.79           c0.7,1.14,0.35,2.63-0.79,3.34c-2.04,1.26-4.09,2.56-6.1,3.85C443.85,409.5,443.39,409.62,442.94,409.62z M867.33,395.92           c-0.44,0-0.88-0.12-1.28-0.37c-2.03-1.27-4.1-2.54-6.15-3.76c-1.15-0.69-1.52-2.18-0.84-3.33           c0.69-1.15,2.18-1.53,3.33-0.84c2.08,1.24,4.17,2.52,6.23,3.81c1.14,0.71,1.48,2.21,0.77,3.34           C868.93,395.51,868.14,395.92,867.33,395.92z M470.03,393.65c-0.86,0-1.7-0.46-2.14-1.28c-0.63-1.18-0.19-2.65,0.99-3.28           c2.12-1.14,4.3-2.29,6.46-3.4c1.19-0.61,2.65-0.15,3.27,1.04c0.61,1.19,0.15,2.65-1.04,3.27c-2.14,1.1-4.28,2.23-6.38,3.36           C470.81,393.56,470.41,393.65,470.03,393.65z M839.98,380.44c-0.37,0-0.75-0.08-1.1-0.26c-2.14-1.09-4.31-2.16-6.46-3.2           c-1.21-0.58-1.71-2.03-1.13-3.24c0.58-1.21,2.03-1.71,3.24-1.13c2.18,1.05,4.38,2.14,6.55,3.24           c1.19,0.61,1.67,2.07,1.06,3.26C841.71,379.95,840.86,380.44,839.98,380.44z M498.28,379.8c-0.93,0-1.82-0.54-2.22-1.44           c-0.54-1.22,0.01-2.66,1.23-3.2c2.22-0.99,4.48-1.97,6.72-2.92c1.23-0.52,2.66,0.05,3.18,1.28           c0.52,1.23-0.05,2.66-1.28,3.18c-2.22,0.94-4.45,1.91-6.64,2.89C498.95,379.73,498.61,379.8,498.28,379.8z M527.5,368.06           c-0.99,0-1.93-0.62-2.28-1.6c-0.45-1.26,0.2-2.65,1.46-3.1c2.29-0.82,4.61-1.64,6.9-2.42c1.27-0.43,2.65,0.24,3.08,1.51           c0.43,1.27-0.24,2.65-1.51,3.08c-2.27,0.77-4.56,1.58-6.83,2.4C528.05,368.01,527.78,368.06,527.5,368.06z M811.36,367.47           c-0.3,0-0.6-0.06-0.9-0.17c-2.21-0.88-4.47-1.76-6.72-2.6c-1.25-0.47-1.89-1.87-1.42-3.12c0.47-1.25,1.87-1.89,3.12-1.42           c2.28,0.86,4.57,1.74,6.81,2.64c1.24,0.5,1.85,1.91,1.35,3.15C813.23,366.89,812.32,367.47,811.36,367.47z M557.48,358.45           c-1.06,0-2.03-0.7-2.33-1.77c-0.36-1.29,0.39-2.63,1.68-2.99c2.34-0.66,4.71-1.31,7.05-1.92c1.29-0.34,2.62,0.43,2.96,1.73           c0.34,1.29-0.43,2.62-1.73,2.96c-2.32,0.61-4.66,1.25-6.98,1.9C557.92,358.42,557.7,358.45,557.48,358.45z M781.69,357.14           c-0.23,0-0.46-0.03-0.69-0.1c-2.29-0.68-4.62-1.35-6.93-1.99c-1.29-0.36-2.05-1.69-1.69-2.98           c0.36-1.29,1.69-2.05,2.98-1.69c2.34,0.64,4.7,1.32,7.02,2.01c1.28,0.38,2.01,1.73,1.63,3.02           C783.7,356.46,782.74,357.14,781.69,357.14z M588.05,351c-1.13,0-2.14-0.79-2.37-1.93c-0.27-1.31,0.57-2.59,1.88-2.87           c2.38-0.49,4.79-0.97,7.16-1.42c1.32-0.25,2.58,0.62,2.83,1.93c0.25,1.32-0.61,2.58-1.93,2.83           c-2.35,0.45-4.74,0.92-7.09,1.4C588.37,350.98,588.21,351,588.05,351z M751.43,349.56c-0.16,0-0.32-0.02-0.49-0.05           c-2.34-0.48-4.72-0.94-7.08-1.37c-1.32-0.24-2.19-1.5-1.95-2.82c0.24-1.32,1.51-2.19,2.82-1.95           c2.39,0.44,4.81,0.9,7.17,1.39c1.31,0.27,2.16,1.55,1.89,2.86C753.57,348.77,752.56,349.56,751.43,349.56z M619.06,345.74           c-1.2,0-2.24-0.89-2.4-2.11c-0.18-1.33,0.76-2.55,2.08-2.72c2.4-0.32,4.84-0.62,7.24-0.9c1.33-0.15,2.53,0.8,2.69,2.13           c0.15,1.33-0.8,2.53-2.13,2.69c-2.37,0.28-4.78,0.58-7.16,0.89C619.27,345.73,619.16,345.74,619.06,345.74z M720.38,344.61           c-0.09,0-0.19-0.01-0.28-0.02c-2.38-0.28-4.79-0.53-7.17-0.76c-1.33-0.13-2.31-1.31-2.18-2.65           c0.13-1.33,1.31-2.31,2.65-2.18c2.41,0.23,4.85,0.49,7.26,0.77c1.33,0.15,2.28,1.36,2.13,2.69           C722.64,343.7,721.59,344.61,720.38,344.61z M650.35,342.73c-1.27,0-2.34-0.99-2.42-2.28c-0.08-1.34,0.94-2.48,2.28-2.56           c2.42-0.14,4.87-0.27,7.28-0.37c1.33-0.05,2.47,0.98,2.52,2.32c0.06,1.34-0.98,2.47-2.32,2.52c-2.38,0.1-4.8,0.22-7.2,0.36           C650.45,342.73,650.4,342.73,650.35,342.73z M689.03,342.25c-0.03,0-0.06,0-0.09,0c-2.38-0.08-4.81-0.15-7.21-0.19           c-1.34-0.02-2.41-1.13-2.38-2.47c0.02-1.34,1.12-2.41,2.47-2.38c2.43,0.04,4.89,0.11,7.3,0.19           c1.34,0.05,2.39,1.17,2.34,2.51C691.4,341.22,690.33,342.25,689.03,342.25z"></path>
								</g>
							</g>
						</g>
					</g>
				</g>
			</g>
		</g>
	</g>
</g>
<g>
	<g>
		<g>
			<g>
				<g>
					<g>
						<g>
							<g>
								<g>
									<ellipse class="st1" cx="771.05" cy="904.78" rx="231.37" ry="53.84"></ellipse>
								</g>
							</g>
						</g>
					</g>
				</g>
			</g>
		</g>
	</g>
</g>
<g>
	<g>
		<g>
			<g>
				<g>
					<g>
						<g>
							<g>
								<g>
									<circle class="st0" cx="564.96" cy="1050.88" r="18.86"></circle>
								</g>
							</g>
						</g>
					</g>
				</g>
			</g>
		</g>
	</g>
</g>
<g>
	<g>
		<g>
			<g>
				<g>
					<g>
						<g>
							<g>
								<g>
									<ellipse cx="1351.94" cy="888.72" rx="181.09" ry="28.7"></ellipse>
								</g>
							</g>
						</g>
					</g>
				</g>
			</g>
		</g>
	</g>
</g>
<g>
	<g>
		<g>
			<g>
				<g>
					<g>
						<g>
							<g>
								<g>
									<polygon points="1328.25,764.98 1486.33,712.27 1486.33,870.65 1339.07,911.3          "></polygon>
								</g>
							</g>
						</g>
					</g>
				</g>
			</g>
		</g>
	</g>
</g>
<g>
	<g>
		<g>
			<g>
				<g>
					<g>
						<g>
							<g>
								<g>
									<path class="st3" d="M579.17,531.46c12.49-55.75,90.51-96.61,149.13-71.46c45.27,19.42,64.7,72.07,88.44,136.43           c35.68,96.71,73.7,199.78,29.48,272.85c-51.36,84.87-184.74,81.48-220.23,19.49c-27.92-48.77-5.48-96.31-29.48-207.49           C578.93,599.83,569.49,574.63,579.17,531.46z"></path>
								</g>
							</g>
						</g>
					</g>
				</g>
			</g>
		</g>
	</g>
</g>
<g>
	<g>
		<g>
			<g>
				<g>
					<g>
						<g>
							<g>
								<g>
									<polygon class="st3" points="1277.98,47.56 1269.85,47.56 1269.85,39.42 1265,39.42 1265,47.56 1256.87,47.56            1256.87,52.41 1265,52.41 1265,60.54 1269.85,60.54 1269.85,52.41 1277.98,52.41          "></polygon>
								</g>
							</g>
						</g>
					</g>
				</g>
			</g>
		</g>
	</g>
</g>
<g>
	<g>
		<g>
			<g>
				<g>
					<g>
						<g>
							<g>
								<g>
									<polygon class="st0" points="1617.57,225.49 1609.44,225.49 1609.44,217.36 1604.59,217.36 1604.59,225.49 1596.46,225.49            1596.46,230.34 1604.59,230.34 1604.59,238.47 1609.44,238.47 1609.44,230.34 1617.57,230.34          "></polygon>
								</g>
							</g>
						</g>
					</g>
				</g>
			</g>
		</g>
	</g>
</g>
<g>
	<g>
		<g>
			<g>
				<g>
					<g>
						<g>
							<g>
								<g>
									<polygon class="st0" points="1240.27,589.62 1232.14,589.62 1232.14,581.48 1227.29,581.48 1227.29,589.62 1219.16,589.62            1219.16,594.47 1227.29,594.47 1227.29,602.6 1232.14,602.6 1232.14,594.47 1240.27,594.47          "></polygon>
								</g>
							</g>
						</g>
					</g>
				</g>
			</g>
		</g>
	</g>
</g>
<g>
	<g>
		<g>
			<g>
				<g>
					<g>
						<g>
							<g>
								<g>
									<path d="M701.23,319.88c23.69,6.59,47.6,75.6,10.74,107.42c-26.52,22.9-73.33,16.9-84.86-3.22           C608.84,392.19,671.53,311.62,701.23,319.88z"></path>
								</g>
							</g>
						</g>
					</g>
				</g>
			</g>
		</g>
	</g>
</g>
<g>
	<g>
		<g>
			<g>
				<g>
					<g>
						<g>
							<g>
								<g>
									<path d="M934.37,868.74c-1.86-7.31-14.79-8.3-20.68-8.6c-9.48-0.48-21.41,0.18-28.15,7.65c-6.33,7.03-7.91,18-6.01,27.02           c4.93,23.38,32.6,35.21,54.5,33.94c9.38-0.54,18.68-2.4,27.69-4.99c4.34-1.25,8.63-2.68,12.85-4.28           c7.85-2.99,1.09-7.84-3.33-10.02c-8.45-4.16-17.62-5.75-26.46-8.74c-5.61-1.9-21.01-5.73-21.43-13.5           C922.95,879.7,936.08,875.45,934.37,868.74z"></path>
								</g>
							</g>
						</g>
					</g>
				</g>
			</g>
		</g>
	</g>
</g>
<g>
	<g>
		<g>
			<g>
				<g>
					<g>
						<g>
							<g>
								<g>
									<path class="st3" d="M933.33,930.73c-1.41,0-2.81-0.03-4.2-0.08c-13.09-0.53-24.58-3.6-33.23-8.86           c-10.02-6.1-16.33-15.01-18.74-26.47c-2.27-10.76,0.32-22.19,6.58-29.14c5.79-6.42,15.63-9.18,30.07-8.45           c3.53,0.18,8.12,0.54,12.39,1.76c5.95,1.7,9.48,4.61,10.52,8.66v0c1.22,4.78-2.52,8.3-5.82,11.41           c-2.7,2.54-5.26,4.95-5.12,7.53c0.28,5.2,11.86,8.83,17.42,10.58c0.9,0.28,1.7,0.53,2.36,0.76           c0.86,0.29,2.82,0.75,5.09,1.29c13.36,3.17,26.64,6.77,29.51,12.83c0.81,1.7,0.79,3.52-0.05,5.24           c-1.32,2.7-3.91,4.14-6.28,5.18c-4,1.76-8.19,3.01-11.39,3.89C953.3,929.38,943.11,930.73,933.33,930.73z M909.36,862.45           c-10.58,0-17.8,2.29-22.01,6.97c-5.26,5.83-7.39,15.6-5.44,24.89c2.13,10.1,7.69,17.95,16.52,23.33           c17.07,10.39,43.8,9.77,62.72,4.54c3.04-0.84,7.01-2.01,10.72-3.65c1.56-0.69,3.25-1.57,3.88-2.87           c0.22-0.45,0.18-0.72,0.03-1.04c-2.11-4.46-19.64-8.62-26.24-10.18c-2.59-0.61-4.45-1.06-5.52-1.42           c-0.64-0.22-1.41-0.46-2.27-0.73c-7.61-2.39-20.34-6.39-20.81-14.94c-0.26-4.83,3.4-8.28,6.64-11.32           c3-2.82,4.92-4.81,4.45-6.68l0,0c-1.25-4.89-10.72-6.38-18.45-6.78C912.11,862.49,910.71,862.45,909.36,862.45z"></path>
								</g>
							</g>
						</g>
					</g>
				</g>
			</g>
		</g>
	</g>
</g>
<g>
	<g>
		<g>
			<g>
				<g>
					<g>
						<g>
							<g>
								<g>
									<path d="M606.49,780.28c-0.99-23.79-3.28-56.49-12.35-98.5c-2.86-13.25-5.53-25.13-7.89-35.62           c-1.79-7.98-3.49-15.52-4.98-22.4l4.74-1.03c1.49,6.86,3.18,14.39,4.98,22.36c2.36,10.49,5.03,22.38,7.9,35.66           c9.15,42.37,11.46,75.33,12.46,99.32L606.49,780.28z"></path>
								</g>
							</g>
						</g>
					</g>
				</g>
			</g>
		</g>
	</g>
</g>
<g>
	<g>
		<g>
			<g>
				<g>
					<g>
						<g>
							<g>
								<g>
									<path class="st0" d="M623.88,889.97c-3.56-6.22-6.39-12.52-8.65-19.25l4.6-1.54c2.16,6.43,4.86,12.44,8.26,18.38           L623.88,889.97z"></path>
								</g>
							</g>
						</g>
					</g>
				</g>
			</g>
		</g>
	</g>
</g>
<g>
	<g>
		<g>
			<g>
				<g>
					<g>
						<g>
							<g>
								<g>
									<path d="M764.83,931.19l-1.25-4.69c16.67-4.45,31.9-11.47,45.27-20.86c14.44-10.14,26.32-22.8,35.29-37.63           c16.8-27.76,22.72-61.81,18.09-104.09c-3.05-27.85-10.62-59.43-23.81-99.37c-7.42-22.46-15.82-45.24-23.96-67.28           c-11.62-31.5-22.6-61.25-35.98-84.71c-14.63-25.65-30.88-41.64-51.14-50.33c-30.74-13.19-69.91-8.46-102.2,12.35           l-2.63-4.08c33.64-21.66,74.54-26.54,106.74-12.73c21.28,9.13,38.26,25.77,53.44,52.39           c13.58,23.81,24.62,53.74,36.31,85.43c8.15,22.09,16.57,44.91,24.01,67.45c13.3,40.28,20.94,72.17,24.03,100.37           c4.75,43.38-1.39,78.42-18.76,107.13c-9.33,15.41-21.66,28.56-36.66,39.09C797.79,919.33,782.05,926.59,764.83,931.19z"></path>
								</g>
							</g>
						</g>
					</g>
				</g>
			</g>
		</g>
	</g>
</g>
<g>
	<g>
		<g>
			<g>
				<g>
					<g>
						<g>
							<g>
								<g>
									<path class="st3" d="M642.12,487.57c-42.27,44.46-14,119.18,4.92,167.72c12.93,33.15,30.09,64.46,49.9,93.97           c15.57,23.2,34.3,43.97,51.08,66.26c15.5,20.59,28.06,43.33,43.59,63.92c20.48,27.17,47.49,44.31,80.98,30.1           c39.48-16.75,73.57-66.19,26.72-95.73c-45.55-28.71-98.83-54.34-123.44-105.59c-16.96-35.31-16.51-75.76-16.37-114.05           c0.15-40.75,1.91-111.57-45.7-128.81c-13.84-5.01-29.52-3.09-43.02,2.78C658.81,473.34,649.4,479.92,642.12,487.57z"></path>
								</g>
							</g>
						</g>
					</g>
				</g>
			</g>
		</g>
	</g>
</g>
<g>
	<g>
		<g>
			<g>
				<g>
					<g>
						<g>
							<g>
								<g>
									<path d="M769.01,850.72l-1.31-2.02c-6.86-10.59-13.95-21.53-21.63-31.73c-6.4-8.5-13.28-17.02-19.35-24.54l-0.45-0.55           c-10.66-13.21-21.69-26.87-31.36-41.27l4.03-2.7c9.55,14.23,20.51,27.8,31.1,40.93l0.44,0.55           c6.1,7.55,13.01,16.11,19.45,24.67c7.78,10.33,14.92,21.35,21.82,32.01l1.31,2.02L769.01,850.72z"></path>
								</g>
							</g>
						</g>
					</g>
				</g>
			</g>
		</g>
	</g>
</g>
<g>
	<g>
		<g>
			<g>
				<g>
					<g>
						<g>
							<g>
								<g>
									<path d="M644.78,656.17c-9.69-24.84-24.32-62.38-26.75-97.43c-0.84-12.16-0.17-23.44,1.99-33.54           c3.28-15.33,10.12-28.56,20.34-39.3c7.73-8.12,17.63-14.84,29.44-19.97c15.44-6.7,31.35-7.71,44.81-2.84           c18.73,6.78,31.99,22.37,39.41,46.34l-4.63,1.44c-7.05-22.75-18.97-36.89-36.43-43.21c-12.29-4.45-26.94-3.49-41.23,2.72           c-11.21,4.87-20.58,11.22-27.85,18.86c-9.59,10.09-16.02,22.53-19.11,36.97c-2.07,9.65-2.7,20.49-1.89,32.19           c2.37,34.31,16.85,71.43,26.43,96L644.78,656.17z"></path>
								</g>
							</g>
						</g>
					</g>
				</g>
			</g>
		</g>
	</g>
</g>
<g>
	<g>
		<g>
			<g>
				<g>
					<g>
						<g>
							<g>
								<g>
									<path d="M848.86,917.1c-14.71,0-28.85-5.9-42.28-17.67l3.2-3.65c19.26,16.89,40.07,20.77,61.84,11.53           c12.11-5.14,23.61-13.37,32.36-23.17c9.26-10.36,14.6-21.4,15.45-31.92c1.15-14.21-6.27-26.78-21.44-36.35           c-6.95-4.38-14.23-8.78-21.27-13.04c-6.25-3.78-12.71-7.68-19.05-11.63c-11.17-6.97-25.71-16.38-39.23-27.42           c-20.61-16.84-35.26-34.67-44.78-54.5c-7.1-14.78-11.75-31.59-14.22-51.39c-2.56-20.5-2.48-41.49-2.4-61.79l0.01-1.93           l4.85,0.02l-0.01,1.93c-0.08,20.15-0.16,40.98,2.36,61.17c2.4,19.27,6.91,35.58,13.78,49.89           c9.21,19.17,23.43,36.46,43.48,52.84c13.3,10.87,27.68,20.17,38.73,27.06c6.3,3.93,12.75,7.83,18.99,11.6           c7.06,4.27,14.37,8.68,21.35,13.09c21.22,13.38,24.6,29.59,23.69,40.84c-0.94,11.59-6.7,23.61-16.67,34.76           c-9.22,10.32-21.33,18.99-34.09,24.4C865.16,915.33,856.93,917.1,848.86,917.1z"></path>
								</g>
							</g>
						</g>
					</g>
				</g>
			</g>
		</g>
	</g>
</g>
<g>
	<g>
		<g>
			<g>
				<g>
					<g>
						<g>
							<g>
								<g>
									<path class="st4" d="M725.25,293.76c-4.3-45.54-41.74-74.76-84.71-63.38c-20.1,5.32-31.01,19.54-36.93,33.16           c-41.56,25.07-77.15,69.78-58.22,119.11c8.46,22.04,31.97,36.15,52.97,44.42c12.14,4.78,58.57,20.16,66.91,1.3           c4.81-10.86-20.09-35.82-15.34-41.89c4.61-5.89,30.66,14.15,33.47,9.67c2.58-4.12-18.95-21.89-15.34-32.23           c3.16-9.06,21.66-0.97,36.26-12.89c5.85-4.77,10.15-12.02,12.89-20.12C723.61,322.64,726.86,310.83,725.25,293.76z"></path>
								</g>
							</g>
						</g>
					</g>
				</g>
			</g>
		</g>
	</g>
</g>
<g>
	<g>
		<g>
			<g>
				<g>
					<g>
						<g>
							<g>
								<g>
									<polygon class="st0" points="707.5,494.31 699.36,494.31 699.36,486.18 694.51,486.18 694.51,494.31 686.38,494.31            686.38,499.16 694.51,499.16 694.51,507.29 699.36,507.29 699.36,499.16 707.5,499.16          "></polygon>
								</g>
							</g>
						</g>
					</g>
				</g>
			</g>
		</g>
	</g>
</g>
<g>
	<g>
		<g>
			<g>
				<g>
					<g>
						<g>
							<g>
								<g>
									<polygon class="st0" points="725.66,567.02 717.52,567.02 717.52,558.89 712.67,558.89 712.67,567.02 704.54,567.02            704.54,571.87 712.67,571.87 712.67,580 717.52,580 717.52,571.87 725.66,571.87          "></polygon>
								</g>
							</g>
						</g>
					</g>
				</g>
			</g>
		</g>
	</g>
</g>
<g>
	<g>
		<g>
			<g>
				<g>
					<g>
						<g>
							<g>
								<g>
									<polygon class="st0" points="838.05,867.52 829.92,867.52 829.92,859.39 825.07,859.39 825.07,867.52 816.94,867.52            816.94,872.37 825.07,872.37 825.07,880.5 829.92,880.5 829.92,872.37 838.05,872.37          "></polygon>
								</g>
							</g>
						</g>
					</g>
				</g>
			</g>
		</g>
	</g>
</g>
<g>
	<g>
		<g>
			<g>
				<g>
					<g>
						<g>
							<g>
								<g>
									<polygon class="st0" points="762.27,762.55 754.14,762.55 754.14,754.42 749.29,754.42 749.29,762.55 741.15,762.55            741.15,767.4 749.29,767.4 749.29,775.53 754.14,775.53 754.14,767.4 762.27,767.4          "></polygon>
								</g>
							</g>
						</g>
					</g>
				</g>
			</g>
		</g>
	</g>
</g>
<g>
	<g>
		<g>
			<g>
				<g>
					<g>
						<g>
							<g>
								<g>
									<polygon class="st0" points="687.98,615.57 679.84,615.57 679.84,607.44 675,607.44 675,615.57 666.86,615.57            666.86,620.42 675,620.42 675,628.56 679.84,628.56 679.84,620.42 687.98,620.42          "></polygon>
								</g>
							</g>
						</g>
					</g>
				</g>
			</g>
		</g>
	</g>
</g>
<g>
	<g>
		<g>
			<g>
				<g>
					<g>
						<g>
							<g>
								<g>
									<polygon class="st0" points="662.35,534.89 654.22,534.89 654.22,526.76 649.37,526.76 649.37,534.89 641.24,534.89            641.24,539.74 649.37,539.74 649.37,547.87 654.22,547.87 654.22,539.74 662.35,539.74          "></polygon>
								</g>
							</g>
						</g>
					</g>
				</g>
			</g>
		</g>
	</g>
</g>
<g>
	<g>
		<g>
			<g>
				<g>
					<g>
						<g>
							<g>
								<g>
									<polygon class="st0" points="741.57,647.5 733.44,647.5 733.44,639.37 728.59,639.37 728.59,647.5 720.46,647.5            720.46,652.35 728.59,652.35 728.59,660.49 733.44,660.49 733.44,652.35 741.57,652.35          "></polygon>
								</g>
							</g>
						</g>
					</g>
				</g>
			</g>
		</g>
	</g>
</g>
<g>
	<g>
		<g>
			<g>
				<g>
					<g>
						<g>
							<g>
								<g>
									<polygon class="st0" points="715.1,699.29 706.97,699.29 706.97,691.16 702.12,691.16 702.12,699.29 693.98,699.29            693.98,704.14 702.12,704.14 702.12,712.27 706.97,712.27 706.97,704.14 715.1,704.14          "></polygon>
								</g>
							</g>
						</g>
					</g>
				</g>
			</g>
		</g>
	</g>
</g>
<g>
	<g>
		<g>
			<g>
				<g>
					<g>
						<g>
							<g>
								<g>
									<polygon class="st0" points="827.49,796.9 819.36,796.9 819.36,788.77 814.51,788.77 814.51,796.9 806.38,796.9            806.38,801.75 814.51,801.75 814.51,809.89 819.36,809.89 819.36,801.75 827.49,801.75          "></polygon>
								</g>
							</g>
						</g>
					</g>
				</g>
			</g>
		</g>
	</g>
</g>
<g>
	<g>
		<g>
			<g>
				<g>
					<g>
						<g>
							<g>
								<g>
									<polygon class="st0" points="894.62,846.98 886.49,846.98 886.49,838.84 881.64,838.84 881.64,846.98 873.51,846.98            873.51,851.83 881.64,851.83 881.64,859.96 886.49,859.96 886.49,851.83 894.62,851.83          "></polygon>
								</g>
							</g>
						</g>
					</g>
				</g>
			</g>
		</g>
	</g>
</g>
<g>
	<g>
		<g>
			<g>
				<g>
					<g>
						<g>
							<g>
								<g>
									
										<rect x="669.16" y="671.07" transform="matrix(0.8784 -0.478 0.478 0.8784 -255.4716 406.8176)" width="4.85" height="68.59"></rect>
								</g>
							</g>
						</g>
					</g>
				</g>
			</g>
		</g>
	</g>
</g>
<g>
	<g>
		<g>
			<g>
				<g>
					<g>
						<g>
							<g>
								<g>
									<path class="st3" d="M556.06,618.56c-6.79-28.41-6.43-55.68-4.93-73.55c1.62-19.37,4.81-31.87,4.94-32.39l4.7,1.21           c-0.13,0.5-12.68,50.45,0.01,103.6L556.06,618.56z"></path>
								</g>
							</g>
						</g>
					</g>
				</g>
			</g>
		</g>
	</g>
</g>
<g>
	<g>
		<g>
			<g>
				<g>
					<g>
						<g>
							<g>
								<g>
									
										<rect x="569.3" y="638.79" transform="matrix(0.9475 -0.3199 0.3199 0.9475 -177.8633 217.0399)" class="st3" width="4.85" height="22.28"></rect>
								</g>
							</g>
						</g>
					</g>
				</g>
			</g>
		</g>
	</g>
</g>
<g>
	<g>
		<g>
			<g>
				<g>
					<g>
						<g>
							<g>
								<g>
									<polygon class="st4" points="1222.14,894.43 1180.99,731.16 1328.25,764.98 1339.07,911.3          "></polygon>
								</g>
							</g>
						</g>
					</g>
				</g>
			</g>
		</g>
	</g>
</g>
<g>
	<g>
		<g>
			<g>
				<g>
					<g>
						<g>
							<g>
								<g>
									<path d="M1339.07,913.72c-0.49,0-0.98-0.15-1.4-0.44c-0.59-0.42-0.97-1.08-1.02-1.8l-10.7-144.53l-145.51-33.42l1.09-4.73           l147.25,33.82c1.04,0.24,1.8,1.12,1.88,2.18l10.61,143.37l142.63-39.37V712.27h4.85v158.38c0,1.09-0.73,2.05-1.78,2.34           l-147.25,40.65C1339.51,913.69,1339.29,913.72,1339.07,913.72z"></path>
								</g>
							</g>
						</g>
					</g>
				</g>
			</g>
		</g>
	</g>
</g>
<g>
	<g>
		<g>
			<g>
				<g>
					<g>
						<g>
							<g>
								<g>
									<polygon class="st3" points="1181.56,733.52 1180.43,728.8 1357.96,686.1 1486.77,709.89 1485.89,714.66 1358.09,691.05                     "></polygon>
								</g>
							</g>
						</g>
					</g>
				</g>
			</g>
		</g>
	</g>
</g>
<g>
	<g>
		<g>
			<g>
				<g>
					<g>
						<g>
							<g>
								<g>
									<polygon class="st2" points="1180.99,731.16 1328.25,764.98 1274.11,849.4 1131.19,811.78          "></polygon>
								</g>
							</g>
						</g>
					</g>
				</g>
			</g>
		</g>
	</g>
	<g>
		<g>
			<g>
				<g>
					<g>
						<g>
							<g>
								<g>
									<path d="M1274.11,851.83c-0.21,0-0.41-0.03-0.62-0.08l-142.92-37.62c-0.74-0.2-1.35-0.73-1.63-1.45           c-0.29-0.71-0.21-1.52,0.19-2.17l49.81-80.62c0.55-0.88,1.6-1.32,2.61-1.09l147.25,33.82c0.77,0.18,1.4,0.72,1.7,1.45           c0.3,0.73,0.22,1.56-0.2,2.23l-54.14,84.42C1275.7,851.42,1274.92,851.83,1274.11,851.83z M1134.97,810.27l138.05,36.34           l51.32-80.04l-142.2-32.66L1134.97,810.27z"></path>
								</g>
							</g>
						</g>
					</g>
				</g>
			</g>
		</g>
	</g>
</g>
<g>
	<g>
		<g>
			<g>
				<g>
					<g>
						<g>
							<g>
								<g>
									<polygon class="st2" points="1328.25,764.98 1361.27,821.23 1562.66,764.98 1486.33,712.27          "></polygon>
								</g>
							</g>
						</g>
					</g>
				</g>
			</g>
		</g>
	</g>
	<g>
		<g>
			<g>
				<g>
					<g>
						<g>
							<g>
								<g>
									<path d="M1361.27,823.65c-0.84,0-1.65-0.44-2.09-1.2l-33.02-56.25c-0.37-0.63-0.44-1.39-0.18-2.08           c0.26-0.68,0.81-1.22,1.5-1.45l158.08-52.71c0.72-0.24,1.52-0.13,2.14,0.31l76.33,52.71c0.77,0.53,1.17,1.47,1.01,2.4           c-0.16,0.93-0.83,1.68-1.74,1.93l-201.39,56.25C1361.71,823.62,1361.49,823.65,1361.27,823.65z M1331.85,766.33           l30.56,52.06l194.61-54.36l-71.08-49.08L1331.85,766.33z"></path>
								</g>
							</g>
						</g>
					</g>
				</g>
			</g>
		</g>
	</g>
</g>
<g>
	<g>
		<g>
			<g>
				<g>
					<g>
						<g>
							<g>
								<g>
									<polyline class="st2" points="1212.05,854.38 1222.14,894.43 1271.24,901.51          "></polyline>
								</g>
							</g>
						</g>
					</g>
				</g>
			</g>
		</g>
	</g>
	<g>
		<g>
			<g>
				<g>
					<g>
						<g>
							<g>
								<g>
									<path d="M1270.89,903.91l-49.1-7.08c-0.97-0.14-1.77-0.85-2.01-1.81l-10.09-40.05l4.7-1.18l9.69,38.47l47.49,6.85           L1270.89,903.91z"></path>
								</g>
							</g>
						</g>
					</g>
				</g>
			</g>
		</g>
	</g>
</g>
<g>
	<g>
		<g>
			<g>
				<g>
					<g>
						<g>
							<g>
								<g>
									<line class="st2" x1="1286.16" y1="903.66" x2="1313.59" y2="907.62"></line>
								</g>
							</g>
						</g>
					</g>
				</g>
			</g>
		</g>
	</g>
	<g>
		<g>
			<g>
				<g>
					<g>
						<g>
							<g>
								<g>
									
										<rect x="1297.45" y="891.79" transform="matrix(0.1427 -0.9898 0.9898 0.1427 217.9622 2062.9355)" width="4.85" height="27.71"></rect>
								</g>
							</g>
						</g>
					</g>
				</g>
			</g>
		</g>
	</g>
</g>
<g>
	<g>
		<g>
			<g>
				<g>
					<g>
						<g>
							<g>
								<g>
									<polyline points="1358.02,725.45 1358.02,688.58 1180.99,731.16 1328.25,764.98 1358.02,754.42 1358.02,688.58                     "></polyline>
								</g>
							</g>
						</g>
					</g>
				</g>
			</g>
		</g>
	</g>
</g>
<g>
	<g>
		<g>
			<g>
				<g>
					<g>
						<g>
							<g>
								<g>
									<polygon class="st2" points="1358.02,754.42 1358.02,685.78 1486.33,709.48          "></polygon>
								</g>
							</g>
						</g>
					</g>
				</g>
			</g>
		</g>
	</g>
</g>
<g>
	<g>
		<g>
			<g>
				<g>
					<g>
						<g>
							<g>
								<g>
									<polygon class="st3" points="1336.87,914.42 1329.99,821.41 1334.83,821.05 1341.27,908.17 1385.84,895.87 1387.13,900.55                     "></polygon>
								</g>
							</g>
						</g>
					</g>
				</g>
			</g>
		</g>
	</g>
</g>
<g>
	<g>
		<g>
			<g>
				<g>
					<g>
						<g>
							<g>
								<g>
									
										<rect x="1396.79" y="890.53" transform="matrix(0.964 -0.266 0.266 0.964 -186.8969 406.068)" class="st3" width="17.47" height="4.85"></rect>
								</g>
							</g>
						</g>
					</g>
				</g>
			</g>
		</g>
	</g>
</g>
<g>
	<g>
		<g>
			<g>
				<g>
					<g>
						<g>
							<g>
								<g>
									<path class="st4" d="M1468.9,451.85c0.03,0.7,0.05,1.41,0.05,2.12c0,21.71-16.52,46.73-46.73,46.73           c-8.92,0.02-17.64-2.56-25.11-7.43c1.3,0.16,2.6,0.24,3.91,0.24c7.39,0.01,14.57-2.46,20.38-7.03           c-7.02-0.14-13.19-4.72-15.34-11.41c1.02,0.2,2.06,0.29,3.1,0.3c1.46,0,2.91-0.19,4.31-0.57           c-7.66-1.55-13.17-8.29-13.17-16.1v-0.19c2.28,1.28,4.84,1.98,7.46,2.05c-7.22-4.82-9.46-14.42-5.11-21.93           c8.32,10.27,20.62,16.51,33.83,17.17c-0.28-1.23-0.42-2.49-0.42-3.76c-0.01-9.06,7.33-16.41,16.39-16.42           c4.55,0,8.89,1.88,12,5.2c3.68-0.72,7.21-2.07,10.44-3.98c-1.23,3.8-3.79,7.03-7.22,9.1c3.25-0.4,6.42-1.27,9.41-2.59           C1474.88,446.64,1472.11,449.52,1468.9,451.85z"></path>
								</g>
							</g>
						</g>
					</g>
				</g>
			</g>
		</g>
	</g>
</g>
<g>
	<g>
		<g>
			<g>
				<g>
					<g>
						<g>
							<g>
								<g>
									<path d="M1422.11,509.31c-9.37,0-18.47-2.7-26.33-7.82c-0.95-0.62-1.34-1.8-0.95-2.86c0.39-1.06,1.45-1.71,2.57-1.58           c1.2,0.15,2.42,0.22,3.62,0.23c4.86,0,9.71-1.18,14.02-3.39c-5.27-2-9.5-6.3-11.29-11.87c-0.26-0.82-0.08-1.71,0.49-2.35           c0.11-0.13,0.24-0.24,0.37-0.34c-4.15-3.5-6.74-8.73-6.74-14.43v-0.19c0-0.86,0.46-1.66,1.2-2.09           c0.42-0.24,0.89-0.35,1.35-0.33c-3.14-5.64-3.3-12.74,0.12-18.67c0.4-0.69,1.11-1.14,1.91-1.2           c0.79-0.07,1.57,0.27,2.07,0.89c7.26,8.95,17.75,14.69,29.13,16.03c-0.02-0.37-0.03-0.73-0.03-1.1           c0-5.02,1.95-9.75,5.5-13.31c3.55-3.56,8.28-5.52,13.31-5.53c4.74-0.01,9.31,1.79,12.77,4.98c2.97-0.71,5.8-1.86,8.43-3.42           c0.87-0.52,1.96-0.44,2.75,0.19c0.79,0.63,1.1,1.68,0.79,2.64c-0.43,1.34-1.01,2.61-1.71,3.8           c0.21-0.09,0.41-0.17,0.62-0.26c0.99-0.44,2.14-0.17,2.83,0.66c0.69,0.82,0.76,2.01,0.16,2.91           c-2.12,3.19-4.72,5.99-7.72,8.34c0.01,0.31,0.01,0.63,0.01,0.95c0,11.93-4.61,23.99-12.64,33.11           c-6.45,7.32-18.03,16.05-36.51,16.05C1422.19,509.31,1422.15,509.31,1422.11,509.31z M1406.77,501.66           c4.91,1.86,10.15,2.82,15.44,2.8c16.68,0,27.09-7.83,32.88-14.41c7.26-8.24,11.43-19.14,11.43-29.9           c0-0.67-0.02-1.35-0.05-2c-0.04-0.82,0.33-1.6,1-2.09c0.78-0.57,1.54-1.17,2.26-1.81c-0.59,0.1-1.18,0.19-1.78,0.26           c-1.14,0.14-2.21-0.53-2.59-1.62c-0.37-1.08,0.06-2.28,1.04-2.87c0.76-0.46,1.47-0.98,2.12-1.57           c-1.19,0.37-2.4,0.67-3.62,0.91c-0.82,0.16-1.67-0.11-2.24-0.72c-2.63-2.82-6.35-4.43-10.21-4.43c0,0-0.01,0-0.01,0           c-3.73,0-7.24,1.46-9.88,4.1c-2.64,2.64-4.09,6.15-4.08,9.89c0,1.09,0.12,2.17,0.36,3.22c0.17,0.74-0.02,1.52-0.51,2.1           c-0.49,0.58-1.22,0.9-1.98,0.86c-12.55-0.62-24.37-6.07-32.98-15.1c-1.57,5.7,0.61,12,5.73,15.42           c0.9,0.6,1.29,1.72,0.96,2.75c-0.33,1.03-1.28,1.7-2.37,1.69c-1.52-0.04-3.04-0.27-4.5-0.68           c1.35,5.03,5.46,9.05,10.75,10.12c1.1,0.22,1.9,1.17,1.94,2.29c0.04,1.12-0.7,2.12-1.78,2.42           c-1.33,0.37-2.71,0.58-4.09,0.64c2.5,3.78,6.74,6.19,11.42,6.28c1.02,0.02,1.93,0.68,2.25,1.65c0.33,0.97,0,2.04-0.8,2.68           C1418.21,498.27,1412.63,500.7,1406.77,501.66z"></path>
								</g>
							</g>
						</g>
					</g>
				</g>
			</g>
		</g>
	</g>
</g>
<g>
	<g>
		<g>
			<g>
				<g>
					<g>
						<g>
							<g>
								<g>
									<path class="st4" d="M1197.67,474.34h-18.88c-7.22-0.04-13.12,5.76-13.21,12.99v18.55c0.09,7.22,5.99,13.02,13.21,12.98           h18.88c7.22,0.04,13.12-5.76,13.21-12.98v-18.55C1210.8,480.11,1204.9,474.31,1197.67,474.34z M1188.23,504.02           c-4.1-0.07-7.36-3.45-7.29-7.55c0.07-4.1,3.45-7.36,7.55-7.29c4.05,0.07,7.29,3.37,7.29,7.42           C1195.74,500.73,1192.37,504.05,1188.23,504.02L1188.23,504.02z M1200.5,487.33c-1.54-0.03-2.76-1.29-2.73-2.83           s1.29-2.76,2.83-2.73c1.52,0.03,2.73,1.26,2.73,2.78c-0.01,1.55-1.27,2.79-2.82,2.78           C1200.51,487.33,1200.51,487.33,1200.5,487.33L1200.5,487.33z"></path>
								</g>
							</g>
						</g>
					</g>
				</g>
			</g>
		</g>
	</g>
</g>
<g>
	<g>
		<g>
			<g>
				<g>
					<g>
						<g>
							<g>
								<g>
									<path d="M1177.96,516.65c-8.47,0-15.44-6.88-15.55-15.38l0-18.58c0.1-8.53,7.08-15.41,15.57-15.41c0.03,0,0.05,0,0.08,0           h18.86c0.02,0,0.05,0,0.07,0c8.49,0,15.46,6.88,15.57,15.38v18.58c-0.1,8.52-7.07,15.4-15.56,15.4c-0.03,0-0.06,0-0.09,0           h-18.86C1178.02,516.65,1177.99,516.65,1177.96,516.65z M1178,472.14c-5.86,0-10.66,4.74-10.73,10.59v18.52           c0.07,5.82,4.87,10.55,10.71,10.55c0.02,0,0.04,0,0.06,0h18.89c0.02,0,0.04,0,0.06,0c5.86,0,10.65-4.73,10.72-10.58V482.7           c-0.07-5.82-4.87-10.56-10.72-10.56c-0.02,0-0.04,0-0.06,0h-18.89C1178.03,472.14,1178.02,472.14,1178,472.14z            M1187.54,501.82c-0.02,0-0.05,0-0.07,0l-0.03,0c-5.43-0.09-9.77-4.59-9.67-10.01c0.05-2.63,1.11-5.08,3-6.91           c1.89-1.83,4.37-2.81,7.01-2.76c5.33,0.09,9.67,4.51,9.68,9.84C1197.41,497.43,1192.97,501.82,1187.54,501.82z            M1187.52,496.97c0.01,0,0.02,0,0.02,0c2.77,0,5.04-2.25,5.07-5.02c0-2.68-2.2-4.92-4.91-4.97           c-1.32-0.02-2.6,0.47-3.56,1.4c-0.96,0.93-1.5,2.17-1.52,3.51C1182.58,494.64,1184.77,496.92,1187.52,496.97z            M1199.79,485.13c-0.01,0-0.02,0-0.04,0l-0.04,0c-2.87-0.05-5.17-2.43-5.12-5.3c0.05-2.87,2.43-5.18,5.3-5.12           c2.82,0.05,5.12,2.38,5.12,5.21c-0.01,1.41-0.56,2.72-1.55,3.7C1202.47,484.59,1201.17,485.13,1199.79,485.13z            M1199.81,479.56c-0.19,0-0.35,0.16-0.36,0.35c0,0.19,0.15,0.35,0.34,0.36c0.14,0,0.22-0.06,0.27-0.11           c0.05-0.05,0.11-0.14,0.11-0.26C1200.16,479.73,1200.01,479.57,1199.81,479.56           C1199.81,479.56,1199.81,479.56,1199.81,479.56z"></path>
								</g>
							</g>
						</g>
					</g>
				</g>
			</g>
		</g>
	</g>
</g>
<g>
	<g>
		<g>
			<g>
				<g>
					<g>
						<g>
							<g>
								<g>
									<path class="st4" d="M1532.5,642.17c-4.08,10.41-14.75,15.97-14.75,15.97s-4.06-11.33,0.02-21.74           c4.08-10.41,14.75-15.97,14.75-15.97S1536.58,631.76,1532.5,642.17z"></path>
								</g>
							</g>
						</g>
					</g>
				</g>
			</g>
		</g>
	</g>
</g>
<g>
	<g>
		<g>
			<g>
				<g>
					<g>
						<g>
							<g>
								<g>
									<path d="M1516.19,660.63l0.17-2.77c0.03-0.53,0.91-13.01,9.32-21.51c8.41-8.5,20.89-9.5,21.41-9.54l2.77-0.2l-0.17,2.77           c-0.03,0.53-0.91,13.01-9.32,21.51l0,0c-8.41,8.5-20.89,9.5-21.41,9.54L1516.19,660.63z M1544.41,632.12           c-3.82,0.78-10.47,2.78-15.28,7.64c-4.81,4.86-6.74,11.52-7.48,15.36c3.82-0.78,10.47-2.78,15.28-7.64l0,0           C1541.74,642.61,1543.67,635.95,1544.41,632.12z"></path>
								</g>
							</g>
						</g>
					</g>
				</g>
			</g>
		</g>
	</g>
</g>
<g>
	<g>
		<g>
			<g>
				<g>
					<g>
						<g>
							<g>
								<g>
									<path class="st4" d="M1523.32,249.66c-4.08,10.41-14.75,15.97-14.75,15.97s-4.06-11.33,0.02-21.74s14.75-15.97,14.75-15.97           S1527.4,239.24,1523.32,249.66z"></path>
								</g>
							</g>
						</g>
					</g>
				</g>
			</g>
		</g>
	</g>
</g>
<g>
	<g>
		<g>
			<g>
				<g>
					<g>
						<g>
							<g>
								<g>
									<polygon class="st4" points="1460.53,880.29 1459.24,875.61 1483.9,868.8 1483.9,802.87 1488.75,802.87 1488.75,872.5                     "></polygon>
								</g>
							</g>
						</g>
					</g>
				</g>
			</g>
		</g>
	</g>
</g>
<g>
	<g>
		<g>
			<g>
				<g>
					<g>
						<g>
							<g>
								<g>
									<path class="st4" d="M1040.47,216.95c-12.95-17.07-29.32-32.01-48.66-44.4c-25.38-16.27-56.62-28.71-92.87-36.99l1.08-4.73           c36.8,8.4,68.56,21.06,94.41,37.63c19.82,12.7,36.61,28.03,49.91,45.55L1040.47,216.95z"></path>
								</g>
							</g>
						</g>
					</g>
				</g>
			</g>
		</g>
	</g>
</g>
<g>
	<g>
		<g>
			<g>
				<g>
					<g>
						<g>
							<g>
								<g>
									<path class="st4" d="M1118.18,558.69c-3.41-6.98-6.6-14.12-9.49-21.23c-12.92-31.78-20.78-64.67-24.72-103.52           c-2.13-21.05-2.9-41.31-3.65-60.92c-0.87-22.8-1.69-44.33-4.54-65.18l4.8-0.66c2.88,21.08,3.71,42.73,4.58,65.65           c0.74,19.53,1.51,39.72,3.63,60.61c3.89,38.38,11.64,70.84,24.38,102.18c2.85,7.01,6,14.05,9.36,20.93L1118.18,558.69z"></path>
								</g>
							</g>
						</g>
					</g>
				</g>
			</g>
		</g>
	</g>
</g>
<g>
	<g>
		<g>
			<g>
				<g>
					<g>
						<g>
							<g>
								<g>
									<path class="st4" d="M1211.89,678.56c-13.79-11.91-26.69-24.58-38.32-37.66l3.62-3.22c11.49,12.92,24.23,25.44,37.87,37.21           L1211.89,678.56z"></path>
								</g>
							</g>
						</g>
					</g>
				</g>
			</g>
		</g>
	</g>
</g>
<g>
	<g>
		<g>
			<g>
				<g>
					<g>
						<g>
							<g>
								<g>
									<path d="M1514.71,174.71l-4.79-0.74c4.03-25.97,14.48-51.3,31.05-75.28c18.37-26.59,44.69-52.07,78.23-75.74l2.8,3.96           c-33.07,23.34-58.99,48.42-77.03,74.54C1528.8,124.81,1518.63,149.47,1514.71,174.71z"></path>
								</g>
							</g>
						</g>
					</g>
				</g>
			</g>
		</g>
	</g>
</g>
<g>
	<g>
		<g>
			<g>
				<g>
					<g>
						<g>
							<g>
								<g>
									<path d="M1568.19,493.55l-4.59-1.56c7.49-22.09,11.27-44.45,11.25-66.46c-0.04-38.28-10.8-69.39-26.94-104.34l4.4-2.03           c16.41,35.52,27.35,67.21,27.39,106.37C1579.72,448.06,1575.85,470.95,1568.19,493.55z"></path>
								</g>
							</g>
						</g>
					</g>
				</g>
			</g>
		</g>
	</g>
</g>
<g>
	<g>
		<g>
			<g>
				<g>
					<g>
						<g>
							<g>
								<g>
									<path d="M1457.65,648.19l-3.29-3.57c15.39-14.17,29.5-28.52,41.95-42.66l3.64,3.2           C1487.4,619.43,1473.16,633.91,1457.65,648.19z"></path>
								</g>
							</g>
						</g>
					</g>
				</g>
			</g>
		</g>
	</g>
</g>
<g>
	<g>
		<g>
			<g>
				<g>
					<g>
						<g>
							<g>
								<g>
									<path d="M1185.47,208.15c-16.71-25.36-28.18-54.6-34.1-86.91c-3.38-18.43-5-38.18-4.82-58.72           c0.18-20.82,2.22-43.08,6.08-66.16l4.78,0.8c-3.81,22.83-5.84,44.83-6.01,65.4c-0.17,20.22,1.42,39.67,4.75,57.8           c5.8,31.67,17.03,60.31,33.38,85.12L1185.47,208.15z"></path>
								</g>
							</g>
						</g>
					</g>
				</g>
			</g>
		</g>
	</g>
</g>
<g>
	<g>
		<g>
			<g>
				<g>
					<g>
						<g>
							<g>
								<g>
									<path class="st3" d="M1322.77,356.19c-6.99-16.15-15.97-30.92-26.71-43.88l3.74-3.09c11.03,13.32,20.26,28.48,27.42,45.05           L1322.77,356.19z"></path>
								</g>
							</g>
						</g>
					</g>
				</g>
			</g>
		</g>
	</g>
</g>
<g>
	<g>
		<g>
			<g>
				<g>
					<g>
						<g>
							<g>
								<g>
									<path class="st3" d="M1326.27,618.85l-4.7-1.18c11.74-46.86,18.69-90.07,20.64-128.42l4.84,0.25           C1345.08,528.16,1338.09,571.68,1326.27,618.85z"></path>
								</g>
							</g>
						</g>
					</g>
				</g>
			</g>
		</g>
	</g>
</g>
<g>
	<g>
		<g>
			<g>
				<g>
					<g>
						<g>
							<g>
								<g>
									<path d="M1233.2,386.18l-23.03-18.37l18.37-23.03l23.03,18.37L1233.2,386.18z M1216.99,367.04l15.45,12.32l12.32-15.44           l-15.45-12.32L1216.99,367.04z"></path>
								</g>
							</g>
						</g>
					</g>
				</g>
			</g>
		</g>
	</g>
</g>
<g>
	<g>
		<g>
			<g>
				<g>
					<g>
						<g>
							<g>
								<g>
									<circle class="st4" cx="1631.78" cy="524.45" r="33.22"></circle>
								</g>
							</g>
						</g>
					</g>
				</g>
			</g>
		</g>
	</g>
</g>
<g>
	<g>
		<g>
			<g>
				<g>
					<g>
						<g>
							<g>
								<g>
									<path d="M1625.91,571.41c-19.66,0-35.65-15.99-35.65-35.65c0-19.66,15.99-35.65,35.65-35.65s35.65,15.99,35.65,35.65           C1661.56,555.42,1645.57,571.41,1625.91,571.41z M1625.91,504.97c-16.98,0-30.8,13.82-30.8,30.8           c0,16.98,13.82,30.8,30.8,30.8s30.8-13.82,30.8-30.8C1656.71,518.79,1642.89,504.97,1625.91,504.97z"></path>
								</g>
							</g>
						</g>
					</g>
				</g>
			</g>
		</g>
	</g>
</g>
<g>
	<g>
		<g>
			<g>
				<g>
					<g>
						<g>
							<g>
								<g>
									<g>
										<path d="M1420.69,265.43c2.54,0,4.61-2.07,4.61-4.61c0-2.54-2.07-4.61-4.61-4.61s-4.61,2.07-4.61,4.61            c0,1.04,0.35,2,0.93,2.77l-7.58,10.59c-0.45-0.15-0.93-0.23-1.44-0.23c-1.21,0-2.32,0.47-3.14,1.24l-5.05-2.87            c0.07-0.31,0.1-0.64,0.1-0.97c0-2.54-2.07-4.61-4.61-4.61s-4.61,2.07-4.61,4.61c0,0.33,0.04,0.66,0.1,0.97l-5.05,2.87            c-0.82-0.77-1.93-1.24-3.14-1.24c-2.54,0-4.61,2.07-4.61,4.61c0,2.54,2.07,4.61,4.61,4.61s4.61-2.07,4.61-4.61            c0-0.33-0.04-0.66-0.1-0.97l5.05-2.87c0.82,0.77,1.93,1.24,3.14,1.24s2.32-0.47,3.14-1.24l5.05,2.87            c-0.07,0.31-0.1,0.64-0.1,0.97c0,2.54,2.07,4.61,4.61,4.61c2.54,0,4.61-2.07,4.61-4.61c0-1.04-0.35-2-0.93-2.77            l7.58-10.59C1419.71,265.35,1420.19,265.43,1420.69,265.43z M1420.69,258.97c1.02,0,1.85,0.83,1.85,1.85            c0,1.02-0.83,1.85-1.85,1.85s-1.85-0.83-1.85-1.85C1418.85,259.8,1419.68,258.97,1420.69,258.97z M1382.58,280.41            c-1.02,0-1.85-0.83-1.85-1.85s0.83-1.85,1.85-1.85c1.02,0,1.85,0.83,1.85,1.85S1383.6,280.41,1382.58,280.41z             M1395.29,273.19c-1.02,0-1.85-0.83-1.85-1.85c0-1.02,0.83-1.85,1.85-1.85s1.85,0.83,1.85,1.85            C1397.13,272.37,1396.3,273.19,1395.29,273.19z M1407.99,280.41c-1.02,0-1.85-0.83-1.85-1.85s0.83-1.85,1.85-1.85            c1.02,0,1.85,0.83,1.85,1.85S1409.01,280.41,1407.99,280.41z"></path>
									</g>
								</g>
							</g>
						</g>
					</g>
				</g>
			</g>
		</g>
	</g>
	<g>
		<g>
			<g>
				<g>
					<g>
						<g>
							<g>
								<g>
									<g>
										<path d="M1437.7,310.44h-9.69h-52.76h-10.93c-0.63,0-1.15-0.51-1.15-1.15v-57.1c0-0.63,0.51-1.15,1.15-1.15h6.52            c0.76,0,1.38-0.62,1.38-1.38c0-0.76-0.62-1.38-1.38-1.38h-6.52c-2.16,0-3.92,1.76-3.92,3.92v57.1            c0,2.16,1.76,3.92,3.92,3.92h9.54v3.05c0,1.74,1.41,3.15,3.15,3.15h13.85l-6.52,12.73c-0.35,0.68-0.08,1.51,0.6,1.86            c0.2,0.1,0.42,0.15,0.63,0.15c0.5,0,0.99-0.27,1.23-0.75l7.17-14h15.3l7.17,14c0.25,0.48,0.73,0.75,1.23,0.75            c0.21,0,0.43-0.05,0.63-0.15c0.68-0.35,0.95-1.18,0.6-1.86l-6.52-12.73h13.85c1.74,0,3.15-1.41,3.15-3.15v-3.05h8.3            c0.76,0,1.38-0.62,1.38-1.38S1438.47,310.44,1437.7,310.44z M1426.63,316.25c0,0.21-0.17,0.38-0.38,0.38h-49.23            c-0.21,0-0.38-0.17-0.38-0.38v-3.05h49.99V316.25z"></path>
									</g>
								</g>
							</g>
						</g>
					</g>
				</g>
			</g>
		</g>
	</g>
	<g>
		<g>
			<g>
				<g>
					<g>
						<g>
							<g>
								<g>
									<g>
										<path d="M1376.39,251.04h18.95h12.6h31.01c0.63,0,1.15,0.51,1.15,1.15v13.16c0,0.76,0.62,1.38,1.38,1.38            c0.76,0,1.38-0.62,1.38-1.38v-13.16c0-2.16-1.76-3.92-3.92-3.92h-29.62v-2.72c0-1.91-1.56-3.47-3.47-3.47h-8.42            c-1.91,0-3.47,1.56-3.47,3.47v2.72h-17.56c-0.76,0-1.38,0.62-1.38,1.38C1375.01,250.42,1375.63,251.04,1376.39,251.04z             M1396.72,245.56c0-0.39,0.32-0.7,0.7-0.7h8.42c0.39,0,0.7,0.32,0.7,0.7v2.72h-9.83L1396.72,245.56L1396.72,245.56z"></path>
									</g>
								</g>
							</g>
						</g>
					</g>
				</g>
			</g>
		</g>
	</g>
	<g>
		<g>
			<g>
				<g>
					<g>
						<g>
							<g>
								<g>
									<g>
										<path d="M1379.78,290.25c-0.76,0-1.38,0.62-1.38,1.38v12.23c0,0.76,0.62,1.38,1.38,1.38h5.62c0.76,0,1.38-0.62,1.38-1.38            v-12.23c0-0.76-0.62-1.38-1.38-1.38H1379.78z M1384.01,302.48h-2.85v-9.46h2.85V302.48z"></path>
									</g>
								</g>
							</g>
						</g>
					</g>
				</g>
			</g>
		</g>
	</g>
	<g>
		<g>
			<g>
				<g>
					<g>
						<g>
							<g>
								<g>
									<g>
										<path d="M1392.48,283.18c-0.76,0-1.38,0.62-1.38,1.38v19.3c0,0.76,0.62,1.38,1.38,1.38h5.62c0.76,0,1.38-0.62,1.38-1.38            v-19.3c0-0.76-0.62-1.38-1.38-1.38H1392.48z M1396.71,302.48h-2.85v-16.54h2.85V302.48z"></path>
									</g>
								</g>
							</g>
						</g>
					</g>
				</g>
			</g>
		</g>
	</g>
	<g>
		<g>
			<g>
				<g>
					<g>
						<g>
							<g>
								<g>
									<g>
										<path d="M1405.18,290.25c-0.76,0-1.38,0.62-1.38,1.38v12.23c0,0.76,0.62,1.38,1.38,1.38h5.62c0.76,0,1.38-0.62,1.38-1.38            v-12.23c0-0.76-0.62-1.38-1.38-1.38H1405.18z M1409.41,302.48h-2.85v-9.46h2.85V302.48z"></path>
									</g>
								</g>
							</g>
						</g>
					</g>
				</g>
			</g>
		</g>
	</g>
	<g>
		<g>
			<g>
				<g>
					<g>
						<g>
							<g>
								<g>
									<g>
										<path d="M1417.89,298.42c-0.76,0-1.38,0.62-1.38,1.38v4.06c0,0.76,0.62,1.38,1.38,1.38h5.62c0.76,0,1.38-0.62,1.38-1.38            c0-0.76-0.62-1.38-1.38-1.38h-4.23v-2.68C1419.27,299.04,1418.65,298.42,1417.89,298.42z"></path>
									</g>
								</g>
							</g>
						</g>
					</g>
				</g>
			</g>
		</g>
	</g>
	<g>
		<g>
			<g>
				<g>
					<g>
						<g>
							<g>
								<g>
									<g>
										<path d="M1454.2,311.74l-7.94-13.75c2.01-2.14,3.48-4.76,4.26-7.68c1.25-4.67,0.61-9.54-1.81-13.73            c-4.99-8.64-16.07-11.61-24.71-6.62c-8.64,4.99-11.61,16.07-6.62,24.71c2.42,4.18,6.32,7.18,10.98,8.43            c1.56,0.42,3.14,0.62,4.71,0.62c1.37,0,2.74-0.16,4.07-0.47l7.94,13.75c0.97,1.69,2.74,2.63,4.56,2.63            c0.89,0,1.8-0.23,2.62-0.7c1.62-0.94,2.63-2.68,2.63-4.56C1454.9,313.45,1454.66,312.54,1454.2,311.74z M1429.08,300.42            c-3.95-1.06-7.26-3.59-9.3-7.14c-4.22-7.32-1.71-16.71,5.61-20.93c2.41-1.39,5.04-2.05,7.64-2.05            c5.3,0,10.46,2.75,13.3,7.66c2.05,3.54,2.59,7.67,1.53,11.63s-3.59,7.26-7.14,9.3            C1437.16,300.94,1433.03,301.48,1429.08,300.42z M1450.89,316.53c-1.19,0.69-2.72,0.28-3.41-0.91l-7.64-13.23            c0.77-0.31,1.52-0.68,2.24-1.1c0.73-0.42,1.42-0.89,2.07-1.4l7.64,13.23c0.22,0.38,0.34,0.81,0.34,1.24            C1452.14,315.26,1451.66,316.09,1450.89,316.53z"></path>
									</g>
								</g>
							</g>
						</g>
					</g>
				</g>
			</g>
		</g>
	</g>
	<g>
		<g>
			<g>
				<g>
					<g>
						<g>
							<g>
								<g>
									<g>
										<path d="M1445.59,289.52c0.98-3.15,0.74-6.52-0.66-9.49c-0.33-0.69-1.15-0.99-1.84-0.66c-0.69,0.33-0.99,1.15-0.66,1.84            c1.1,2.34,1.29,5,0.52,7.49c-0.78,2.5-2.45,4.6-4.72,5.9c-2.4,1.39-5.2,1.75-7.87,1.04c-2.68-0.72-4.91-2.43-6.3-4.83            c-2.86-4.95-1.16-11.31,3.8-14.17c3.62-2.09,8.12-1.81,11.45,0.71c0.61,0.46,1.48,0.34,1.94-0.27            c0.46-0.61,0.34-1.48-0.27-1.94c-4.22-3.2-9.92-3.55-14.51-0.9c-3.04,1.76-5.21,4.59-6.12,7.98            c-0.91,3.39-0.44,6.93,1.31,9.97c1.76,3.04,4.59,5.21,7.98,6.12c1.13,0.3,2.28,0.45,3.42,0.45c2.28,0,4.52-0.6,6.55-1.77            C1442.49,295.34,1444.61,292.69,1445.59,289.52z"></path>
									</g>
								</g>
							</g>
						</g>
					</g>
				</g>
			</g>
		</g>
	</g>
</g>
<g>
	<g>
		<g>
			<g>
				<g>
					<g>
						<g>
							<g>
								<g>
									<g>
										<g>
											<path d="M1071.41,273.06v-27.85c0-0.86-0.71-1.46-1.57-1.46h-6.09c-0.86,0-1.62,0.6-1.62,1.46v25.13             c-1.01,0.03-2.01,0.16-2.99,0.39v-17.31c0-0.86-0.74-1.49-1.6-1.49h-6.09c-0.86,0-1.59,0.61-1.59,1.49v23.48             c-1.87,2.63-2.88,5.79-2.86,9.03c0,8.62,6.98,15.6,15.58,15.6c8.62,0,15.6-6.98,15.6-15.58             C1078.19,280.78,1075.66,275.97,1071.41,273.06z M1065.28,246.89h2.99v24.5c-0.96-0.38-1.97-0.66-2.99-0.82V246.89z              M1053.01,255.07h2.99v16.75c-1.05,0.49-2.06,1.09-2.99,1.79V255.07z M1073.31,292.27c-2.25,3.79-6.32,6.1-10.71,6.1             c-6.87,0-12.44-5.58-12.44-12.44c0-5.03,3.04-9.58,7.69-11.5c0.19-0.03,0.36-0.11,0.52-0.2c1.35-0.5,2.8-0.75,4.25-0.75             c0.33,0,0.64,0.02,0.98,0.05h0.02c1.89,0.14,3.73,0.72,5.35,1.7C1074.87,278.72,1076.82,286.35,1073.31,292.27z"></path>
										</g>
									</g>
								</g>
							</g>
						</g>
					</g>
				</g>
			</g>
		</g>
	</g>
</g>
<g>
	<g>
		<g>
			<g>
				<g>
					<g>
						<g>
							<g>
								<g>
									<g>
										<g>
											<path d="M1066.14,291.34c-1.93,0.72-4.1,0.39-5.72-0.88h5.72c0.86,0,1.57-0.71,1.57-1.57c0-0.86-0.71-1.57-1.57-1.57             h-7.74c-0.08-0.31-0.13-0.63-0.16-0.94h8.71c0.88,0,1.59-0.71,1.59-1.57c0-0.86-0.71-1.57-1.57-1.57h-8.05             c0.28-0.5,0.61-0.98,1.02-1.4c1.62-1.62,4.04-2.14,6.2-1.32c0.82,0.31,1.73-0.09,2.03-0.91c0.3-0.82-0.09-1.73-0.91-2.03             c-3.3-1.26-7.05-0.47-9.55,2.04c-0.99,1.02-1.75,2.26-2.19,3.62h-0.03c-0.86,0-1.57,0.69-1.57,1.56             c0,0.72,0.49,1.35,1.18,1.53c0.02,0.35,0.05,0.69,0.11,1.02c-0.85,0.16-1.42,0.98-1.26,1.84             c0.14,0.74,0.79,1.29,1.54,1.29h0.83c0.39,0.64,0.85,1.26,1.38,1.79c2.5,2.5,6.24,3.29,9.55,2.03             c0.82-0.31,1.21-1.21,0.91-2.03C1067.86,291.43,1066.96,291.04,1066.14,291.34z"></path>
										</g>
									</g>
								</g>
							</g>
						</g>
					</g>
				</g>
			</g>
		</g>
	</g>
</g>
<g>
	<g>
		<g>
			<g>
				<g>
					<g>
						<g>
							<g>
								<g>
									<g>
										<g>
											<path d="M1032.88,264.51h-6.13c-0.86,0-1.57,0.71-1.57,1.57v24.69c0,0.86,0.71,1.57,1.57,1.57h6.13             c0.86,0,1.57-0.71,1.57-1.57v-24.69C1034.45,265.22,1033.75,264.51,1032.88,264.51z M1031.31,289.36h-2.99v-21.7h2.99             V289.36z"></path>
										</g>
									</g>
								</g>
							</g>
						</g>
					</g>
				</g>
			</g>
		</g>
	</g>
</g>
<g>
	<g>
		<g>
			<g>
				<g>
					<g>
						<g>
							<g>
								<g>
									<g>
										<g>
											<path d="M1045.31,260.89h-6.13c-0.86,0-1.57,0.71-1.57,1.57v28.46c0,0.86,0.71,1.57,1.57,1.57h6.13             c0.86,0,1.57-0.71,1.57-1.57v-28.46C1046.88,261.6,1046.17,260.89,1045.31,260.89z M1043.73,289.36h-2.99v-25.32h2.99             V289.36z"></path>
										</g>
									</g>
								</g>
							</g>
						</g>
					</g>
				</g>
			</g>
		</g>
	</g>
</g>
<g>
	<g>
		<g>
			<g>
				<g>
					<g>
						<g>
							<g>
								<g>
									<g>
										<g>
											<path d="M1020.46,278.03h-6.13c-0.86,0-1.57,0.71-1.57,1.57v11.17c0,0.86,0.71,1.57,1.57,1.57h6.13             c0.86,0,1.57-0.71,1.57-1.57v-11.17C1022.03,278.74,1021.32,278.03,1020.46,278.03z M1018.88,289.36h-2.99v-8.18h2.99             V289.36z"></path>
										</g>
									</g>
								</g>
							</g>
						</g>
					</g>
				</g>
			</g>
		</g>
	</g>
</g>
<g>
	<g>
		<g>
			<g>
				<g>
					<g>
						<g>
							<g>
								<g>
									<g>
										<g>
											<path d="M1071.17,223.79l-10.76,0.02c-0.86-0.02-1.57,0.69-1.59,1.56c-0.02,0.86,0.69,1.57,1.56,1.59             c0.02,0,0.02,0,0.03,0l6.97-0.02l-17.06,17l-5.96-5.91c-0.3-0.28-0.71-0.42-1.12-0.41c-0.41-0.02-0.82,0.13-1.12,0.41             l-30.19,30.19c-0.61,0.61-0.61,1.6,0,2.2c0.3,0.3,0.69,0.46,1.12,0.46s0.82-0.16,1.12-0.46l29.09-29.09l5.96,6.01             c0.28,0.31,0.69,0.49,1.12,0.5c0.42-0.02,0.82-0.2,1.12-0.5l18.15-18.16l-0.02,7c0,0.88,0.69,1.59,1.57,1.62             c0.88-0.02,1.57-0.74,1.57-1.62l0.02-10.79C1072.75,224.52,1072.04,223.79,1071.17,223.79z"></path>
										</g>
									</g>
								</g>
							</g>
						</g>
					</g>
				</g>
			</g>
		</g>
	</g>
</g>
<g>
	<g>
		<g>
			<g>
				<g>
					<g>
						<g>
							<g>
								<g>
									
										<rect x="1003.96" y="248.85" transform="matrix(0.7071 -0.7071 0.7071 0.7071 121.2003 795.1472)" class="st4" width="32.93" height="4.85"></rect>
								</g>
							</g>
						</g>
					</g>
				</g>
			</g>
		</g>
	</g>
</g>
<g>
	<g>
		<g>
			<g>
				<g>
					<g>
						<g>
							<g>
								<g>
									
										<rect x="1033.75" y="233.62" transform="matrix(0.7071 -0.7071 0.7071 0.7071 136.5698 801.7995)" class="st4" width="4.78" height="4.85"></rect>
								</g>
							</g>
						</g>
					</g>
				</g>
			</g>
		</g>
	</g>
</g>
<g>
	<g>
		<g>
			<g>
				<g>
					<g>
						<g>
							<g>
								<g>
									<rect x="1351.2" y="267.53" class="st3" width="4.85" height="40.84"></rect>
								</g>
							</g>
						</g>
					</g>
				</g>
			</g>
		</g>
	</g>
</g>
<g>
	<g>
		<g>
			<g>
				<g>
					<g>
						<g>
							<g>
								<g>
									<rect x="1351.2" y="258.97" class="st3" width="4.85" height="5.38"></rect>
								</g>
							</g>
						</g>
					</g>
				</g>
			</g>
		</g>
	</g>
</g>
<g>
	<g>
		<g>
			<g>
				<g>
					<g>
						<g>
							<g>
								<g>
									<path d="M1261.99,266.28v27.97c0,3.65-2.97,6.62-6.62,6.62h-58.25c-3.65,0-6.62-2.97-6.62-6.62v-27.97           c0-0.73,0.59-1.32,1.32-1.32s1.32,0.59,1.32,1.32v27.97c0,2.19,1.78,3.97,3.97,3.97h14.4v-22.34           c0-3.65,2.97-6.62,6.62-6.62h16.22c3.65,0,6.62,2.97,6.62,6.62v17.04c0,0.73-0.59,1.32-1.32,1.32s-1.32-0.59-1.32-1.32           v-17.04c0-2.19-1.78-3.97-3.97-3.97h-16.22c-2.19,0-3.97,1.78-3.97,3.97v22.34h10.76v-20.85c0-0.73,0.59-1.32,1.32-1.32           s1.32,0.59,1.32,1.32v20.85h27.8c2.19,0,3.97-1.78,3.97-3.97v-27.97c0-0.73,0.59-1.32,1.32-1.32           S1261.99,265.55,1261.99,266.28z M1195.14,242.62c0,0.73,0.59,1.32,1.32,1.32c72.03,0,68.46,0.13,68.98-0.27           c0.28-0.21,0.45-0.52,0.5-0.87c0.07-0.53,0.55,0.78-8.7-20.57c-0.21-0.48-0.69-0.8-1.21-0.8h-59.57           c-0.53,0-1,0.31-1.21,0.8l-8.6,19.86c-0.15,0.35-0.11-0.21-0.11,8.74c0.01,6.02,4.91,10.92,10.92,10.92           c4.13,0,7.74-2.32,9.59-5.72c4.14,7.61,15.05,7.62,19.2,0.01c4.15,7.61,15.05,7.61,19.2,0c1.85,3.4,5.46,5.71,9.6,5.71           c6.02,0,10.92-4.9,10.92-10.92c0-0.73-0.59-1.32-1.32-1.32s-1.32,0.59-1.32,1.32c0,4.56-3.71,8.27-8.27,8.27           c-4.56,0-8.27-3.71-8.27-8.27c0-0.73-0.59-1.32-1.32-1.32s-1.32,0.59-1.32,1.32c0,4.56-3.71,8.27-8.27,8.27           s-8.27-3.71-8.27-8.27c0-0.73-0.59-1.32-1.32-1.32s-1.32,0.59-1.32,1.32c0,4.56-3.71,8.27-8.27,8.27           c-4.46,0-8.27-3.58-8.27-8.34c0-0.73-0.59-1.32-1.32-1.32s-1.32,0.59-1.32,1.32c0,4.71-3.79,8.34-8.27,8.34           c-4.55,0-8.27-3.71-8.27-8.27v-7.94l8.15-18.81h57.83l7.46,17.21h-66.16C1195.73,241.3,1195.14,241.89,1195.14,242.62           L1195.14,242.62z"></path>
								</g>
							</g>
						</g>
					</g>
				</g>
			</g>
		</g>
	</g>
</g>
<g>
	<g>
		<g>
			<g>
				<g>
					<g>
						<g>
							<g>
								<g>
									<path class="st0" d="M679.61,720.1c0,0,28.06-5.31,35.49,11.06s-2.79,39.27-2.79,39.27L679.61,720.1z"></path>
								</g>
							</g>
						</g>
					</g>
				</g>
			</g>
		</g>
	</g>
</g>
</svg>
