<?xml version="1.0" encoding="UTF-8"?>
<!-- Generator: Adobe Illustrator 24.0.3, SVG Export Plug-In . SVG Version: 6.00 Build 0)  -->
<svg width="1510px" height="849px" xmlns="http://www.w3.org/2000/svg" xmlns:xlink="http://www.w3.org/1999/xlink" version="1.1" id="Calque_1" x="0px" y="0px" viewBox="0 0 1920 1080" style="enable-background:new 0 0 1920 1080;" xml:space="preserve">
<style type="text/css">
	.st0{fill:#D6C94D;}
	.st1{fill:#070707;}
	.st2{fill:#FFF173;}
	.st3{fill:#FFFFFF;}
	.st4{fill:#E2DA74;}
	.st5{fill:none;stroke:#000000;stroke-width:10;stroke-miterlimit:10;}
</style>
<g>
	<g>
		<g>
			<g>
				<g>
					<g>
						<g>
							<g>
								<g>
									<g>
										<g>
											<g>
												<path class="st0" d="M1173.8,377.56c-90.3,66.71-140.17,175.4-129.45,287.16c4.17,43.45,17.56,87.7,48.29,123.02              C1216.5,930.1,1569.76,867.36,1644.67,664c38.82-105.4,2.5-247.53-92.8-316.46              C1454.93,277.42,1299.38,284.78,1173.8,377.56z"></path>
											</g>
										</g>
									</g>
								</g>
							</g>
						</g>
					</g>
				</g>
			</g>
		</g>
	</g>
</g>
<g>
	<g>
		<g>
			<g>
				<g>
					<g>
						<g>
							<g>
								<g>
									<g>
										<g>
											<g>
												<path class="st1" d="M1293.19,839.38c-1.12,0-2.04-0.91-2.05-2.03c-0.01-1.13,0.9-2.05,2.04-2.06              c2.02-0.01,4.08-0.04,6.11-0.08c1.13-0.02,2.06,0.87,2.09,2c0.02,1.13-0.87,2.06-2,2.09c-2.05,0.04-4.13,0.07-6.17,0.08              C1293.2,839.38,1293.2,839.38,1293.19,839.38z M1272.74,838.98c-0.03,0-0.06,0-0.09,0c-2.05-0.09-4.11-0.2-6.14-0.32              c-1.13-0.07-1.99-1.04-1.92-2.17c0.07-1.13,1.03-1.99,2.17-1.92c2.01,0.12,4.06,0.23,6.08,0.32              c1.13,0.05,2,1.01,1.95,2.14C1274.73,838.13,1273.82,838.98,1272.74,838.98z M1319.78,838.4              c-1.07,0-1.97-0.83-2.04-1.91c-0.08-1.13,0.78-2.1,1.9-2.18c2.01-0.14,4.06-0.29,6.07-0.45              c1.12-0.09,2.11,0.75,2.21,1.87c0.09,1.13-0.75,2.11-1.87,2.21c-2.03,0.17-4.09,0.32-6.13,0.46              C1319.87,838.4,1319.82,838.4,1319.78,838.4z M1246.24,836.88c-0.08,0-0.16,0-0.24-0.01c-2.04-0.23-4.1-0.49-6.13-0.76              c-1.12-0.15-1.91-1.18-1.76-2.3c0.15-1.12,1.18-1.91,2.3-1.76c2,0.26,4.04,0.52,6.06,0.75c1.12,0.13,1.93,1.14,1.8,2.27              C1248.15,836.11,1247.27,836.88,1246.24,836.88z M1346.21,835.81c-1.01,0-1.9-0.75-2.03-1.79              c-0.14-1.12,0.65-2.15,1.77-2.29c2-0.26,4.04-0.53,6.04-0.81c1.12-0.16,2.15,0.62,2.31,1.74              c0.16,1.12-0.62,2.15-1.74,2.31c-2.02,0.29-4.07,0.56-6.1,0.82C1346.38,835.81,1346.29,835.81,1346.21,835.81z               M1219.95,832.86c-0.13,0-0.26-0.01-0.39-0.04c-2.02-0.39-4.06-0.8-6.05-1.23c-1.11-0.23-1.81-1.32-1.58-2.43              c0.23-1.11,1.32-1.81,2.43-1.58c1.97,0.42,3.99,0.83,5.98,1.21c1.11,0.21,1.84,1.29,1.62,2.4              C1221.77,832.18,1220.91,832.86,1219.95,832.86z M1372.46,831.67c-0.97,0-1.82-0.69-2.01-1.67              c-0.21-1.11,0.52-2.18,1.63-2.39c1.99-0.37,4.01-0.77,5.99-1.17c1.11-0.22,2.19,0.49,2.41,1.6              c0.22,1.11-0.49,2.19-1.6,2.41c-2,0.4-4.04,0.8-6.05,1.18C1372.71,831.66,1372.58,831.67,1372.46,831.67z               M1194.07,826.75c-0.18,0-0.37-0.02-0.56-0.08c-1.98-0.56-3.98-1.14-5.93-1.74c-1.08-0.33-1.69-1.47-1.36-2.55              c0.33-1.08,1.47-1.69,2.55-1.36c1.93,0.59,3.89,1.16,5.85,1.71c1.09,0.31,1.72,1.44,1.41,2.52              C1195.78,826.16,1194.96,826.75,1194.07,826.75z M1398.44,826.01c-0.92,0-1.75-0.62-1.98-1.55              c-0.27-1.1,0.4-2.21,1.49-2.48c1.97-0.49,3.96-1,5.92-1.51c1.09-0.29,2.21,0.37,2.5,1.46c0.29,1.09-0.37,2.21-1.46,2.5              c-1.98,0.52-3.99,1.03-5.98,1.53C1398.77,825.99,1398.6,826.01,1398.44,826.01z M1424.07,818.85              c-0.87,0-1.68-0.56-1.95-1.44c-0.34-1.08,0.27-2.23,1.35-2.56c1.94-0.6,3.9-1.23,5.83-1.86              c1.07-0.35,2.23,0.24,2.58,1.31c0.35,1.07-0.24,2.23-1.31,2.58c-1.94,0.63-3.92,1.27-5.88,1.88              C1424.47,818.82,1424.27,818.85,1424.07,818.85z M1168.83,818.36c-0.25,0-0.5-0.04-0.74-0.14              c-1.92-0.75-3.86-1.52-5.74-2.3c-1.04-0.43-1.54-1.63-1.11-2.67c0.43-1.04,1.63-1.54,2.67-1.11              c1.86,0.77,3.76,1.53,5.65,2.27c1.05,0.41,1.58,1.59,1.17,2.65C1170.43,817.86,1169.65,818.36,1168.83,818.36z               M1449.24,810.18c-0.83,0-1.6-0.5-1.91-1.32c-0.4-1.06,0.13-2.24,1.19-2.64c1.9-0.72,3.82-1.46,5.71-2.21              c1.05-0.41,2.24,0.1,2.65,1.15c0.42,1.05-0.1,2.24-1.15,2.65c-1.91,0.75-3.85,1.5-5.77,2.23              C1449.72,810.13,1449.48,810.18,1449.24,810.18z M1144.58,807.47c-0.32,0-0.64-0.07-0.94-0.23              c-1.84-0.95-3.67-1.93-5.46-2.92c-0.99-0.55-1.35-1.79-0.8-2.78c0.55-0.99,1.79-1.35,2.78-0.8              c1.76,0.97,3.56,1.93,5.37,2.86c1,0.52,1.4,1.75,0.88,2.76C1146.04,807.07,1145.32,807.47,1144.58,807.47z               M1473.84,799.99c-0.78,0-1.52-0.45-1.87-1.2c-0.46-1.03-0.01-2.24,1.02-2.71c1.85-0.83,3.72-1.7,5.57-2.56              c1.02-0.48,2.24-0.04,2.72,0.98c0.48,1.02,0.04,2.24-0.98,2.72c-1.86,0.87-3.75,1.74-5.62,2.59              C1474.41,799.93,1474.12,799.99,1473.84,799.99z M1121.73,793.88c-0.4,0-0.8-0.12-1.15-0.36              c-1.71-1.16-3.41-2.37-5.07-3.57c-0.91-0.67-1.12-1.94-0.45-2.86s1.95-1.12,2.86-0.45c1.62,1.18,3.29,2.36,4.97,3.5              c0.93,0.64,1.17,1.91,0.54,2.84C1123.03,793.57,1122.39,793.88,1121.73,793.88z M1497.76,788.24              c-0.73,0-1.44-0.39-1.81-1.08c-0.53-1-0.15-2.24,0.84-2.77c1.79-0.95,3.6-1.94,5.37-2.91c0.99-0.55,2.23-0.19,2.78,0.8              c0.55,0.99,0.19,2.23-0.8,2.78c-1.79,0.99-3.61,1.98-5.42,2.94C1498.41,788.16,1498.08,788.24,1497.76,788.24z               M1100.86,777.46c-0.49,0-0.98-0.17-1.37-0.53c-1.53-1.38-3.05-2.81-4.52-4.24c-0.81-0.79-0.83-2.08-0.05-2.89              c0.79-0.81,2.08-0.83,2.89-0.05c1.44,1.4,2.93,2.79,4.42,4.14c0.84,0.76,0.9,2.05,0.14,2.89              C1101.97,777.24,1101.41,777.46,1100.86,777.46z M1520.79,774.93c-0.68,0-1.35-0.34-1.74-0.96              c-0.6-0.96-0.31-2.22,0.65-2.82c1.72-1.08,3.45-2.18,5.15-3.28c0.95-0.62,2.21-0.35,2.83,0.6              c0.62,0.95,0.35,2.21-0.6,2.83c-1.71,1.11-3.46,2.23-5.2,3.32C1521.53,774.83,1521.16,774.93,1520.79,774.93z               M1542.79,759.99c-0.63,0-1.25-0.29-1.65-0.83c-0.67-0.91-0.47-2.19,0.44-2.86c1.63-1.2,3.27-2.43,4.88-3.66              c0.9-0.69,2.18-0.51,2.87,0.38s0.51,2.18-0.38,2.87c-1.63,1.24-3.29,2.49-4.94,3.71              C1543.64,759.86,1543.21,759.99,1542.79,759.99z M1082.55,758.23c-0.59,0-1.18-0.26-1.59-0.75              c-1.3-1.59-2.59-3.23-3.84-4.88c-0.68-0.9-0.51-2.18,0.39-2.87c0.9-0.68,2.18-0.51,2.87,0.39              c1.22,1.61,2.48,3.21,3.75,4.76c0.72,0.87,0.59,2.16-0.29,2.88C1083.46,758.08,1083,758.23,1082.55,758.23z               M1563.56,743.38c-0.57,0-1.14-0.24-1.54-0.7c-0.74-0.85-0.65-2.15,0.2-2.89c1.53-1.33,3.07-2.69,4.56-4.05              c0.84-0.76,2.13-0.69,2.89,0.14c0.76,0.84,0.69,2.13-0.14,2.89c-1.52,1.37-3.07,2.75-4.62,4.1              C1564.51,743.22,1564.03,743.38,1563.56,743.38z M1067.33,736.45c-0.7,0-1.38-0.36-1.76-1              c-1.05-1.77-2.08-3.58-3.08-5.38c-0.54-0.99-0.18-2.23,0.81-2.78c0.99-0.55,2.23-0.18,2.78,0.81              c0.97,1.77,1.99,3.54,3.01,5.27c0.58,0.97,0.26,2.23-0.71,2.8C1068.04,736.35,1067.68,736.45,1067.33,736.45z               M1582.84,725.08c-0.51,0-1.02-0.19-1.42-0.57c-0.81-0.78-0.84-2.08-0.05-2.89c1.41-1.47,2.83-2.97,4.19-4.45              c0.77-0.83,2.06-0.88,2.89-0.12c0.83,0.77,0.88,2.06,0.12,2.89c-1.39,1.5-2.82,3.02-4.25,4.51              C1583.91,724.87,1583.38,725.08,1582.84,725.08z M1055.39,712.71c-0.8,0-1.56-0.47-1.89-1.25              c-0.8-1.89-1.58-3.82-2.32-5.75c-0.41-1.05,0.12-2.24,1.17-2.65c1.05-0.41,2.24,0.12,2.65,1.17              c0.73,1.89,1.5,3.78,2.28,5.63c0.44,1.04-0.05,2.24-1.09,2.68C1055.92,712.66,1055.65,712.71,1055.39,712.71z               M1600.37,705.05c-0.44,0-0.89-0.14-1.27-0.44c-0.89-0.7-1.04-1.99-0.33-2.87c1.26-1.59,2.52-3.22,3.73-4.83              c0.68-0.9,1.96-1.08,2.87-0.4c0.9,0.68,1.08,1.96,0.4,2.87c-1.23,1.63-2.51,3.28-3.79,4.9              C1601.57,704.78,1600.97,705.05,1600.37,705.05z M1046.61,687.63c-0.89,0-1.71-0.59-1.97-1.49              c-0.56-1.96-1.1-3.97-1.62-5.97c-0.28-1.09,0.38-2.21,1.47-2.49c1.09-0.28,2.21,0.38,2.49,1.47              c0.51,1.97,1.04,3.94,1.59,5.87c0.31,1.09-0.32,2.22-1.41,2.53C1046.98,687.6,1046.79,687.63,1046.61,687.63z               M1615.79,683.38c-0.38,0-0.75-0.1-1.1-0.32c-0.95-0.61-1.24-1.87-0.63-2.82c1.08-1.71,2.16-3.45,3.2-5.17              c0.58-0.97,1.84-1.28,2.81-0.7c0.97,0.58,1.28,1.84,0.7,2.81c-1.05,1.76-2.15,3.53-3.25,5.26              C1617.13,683.04,1616.47,683.38,1615.79,683.38z M1040.71,661.7c-0.98,0-1.84-0.7-2.01-1.7              c-0.35-2.01-0.69-4.06-0.99-6.1c-0.17-1.12,0.6-2.16,1.72-2.33c1.12-0.17,2.16,0.6,2.33,1.72              c0.3,2.01,0.63,4.03,0.98,6.01c0.19,1.11-0.55,2.17-1.66,2.37C1040.94,661.69,1040.83,661.7,1040.71,661.7z               M1628.78,660.21c-0.3,0-0.61-0.07-0.9-0.21c-1.02-0.5-1.44-1.72-0.94-2.74c0.89-1.81,1.76-3.66,2.59-5.48              c0.47-1.03,1.68-1.48,2.71-1.01c1.03,0.47,1.48,1.68,1.01,2.71c-0.85,1.86-1.74,3.73-2.64,5.58              C1630.26,659.79,1629.54,660.21,1628.78,660.21z M1639.06,635.72c-0.23,0-0.46-0.04-0.68-0.12              c-1.07-0.38-1.62-1.55-1.25-2.61c0.67-1.9,1.33-3.84,1.95-5.76c0.35-1.07,1.5-1.67,2.58-1.32              c1.08,0.35,1.67,1.5,1.32,2.58c-0.63,1.96-1.3,3.93-1.98,5.87C1640.7,635.2,1639.91,635.72,1639.06,635.72z               M1037.35,635.32c-1.05,0-1.95-0.81-2.04-1.88c-0.17-2.04-0.32-4.11-0.45-6.16c-0.07-1.13,0.78-2.1,1.91-2.17              c1.13-0.07,2.1,0.78,2.17,1.91c0.13,2.02,0.28,4.07,0.45,6.08c0.09,1.13-0.74,2.12-1.87,2.21              C1037.47,635.32,1037.41,635.32,1037.35,635.32z M1646.5,610.2c-0.15,0-0.31-0.02-0.47-0.05              c-1.1-0.26-1.79-1.36-1.53-2.46c0.46-1.97,0.9-3.97,1.31-5.95c0.23-1.11,1.31-1.82,2.42-1.59              c1.11,0.23,1.82,1.31,1.59,2.42c-0.42,2.01-0.86,4.04-1.33,6.04C1648.27,609.56,1647.43,610.2,1646.5,610.2z               M1036.27,608.75C1036.27,608.75,1036.27,608.75,1036.27,608.75c-1.13,0-2.05-0.92-2.05-2.05              c0-2.05,0.03-4.12,0.07-6.18c0.02-1.13,0.97-2.02,2.09-2c1.13,0.02,2.03,0.96,2,2.09c-0.04,2.03-0.07,4.08-0.07,6.1              C1038.32,607.84,1037.4,608.75,1036.27,608.75z M1651.17,584.02c-0.09,0-0.17-0.01-0.26-0.02              c-1.12-0.14-1.91-1.17-1.77-2.29c0.25-2,0.49-4.04,0.7-6.05c0.12-1.12,1.13-1.94,2.25-1.82              c1.12,0.12,1.94,1.12,1.82,2.25c-0.21,2.04-0.45,4.11-0.71,6.14C1653.06,583.27,1652.18,584.02,1651.17,584.02z               M1037.45,582.19c-0.06,0-0.12,0-0.18-0.01c-1.13-0.1-1.96-1.09-1.86-2.22c0.18-2.04,0.38-4.1,0.59-6.14              c0.12-1.12,1.12-1.94,2.25-1.82c1.12,0.12,1.94,1.13,1.82,2.25c-0.21,2.01-0.41,4.05-0.59,6.06              C1039.39,581.39,1038.5,582.19,1037.45,582.19z M1653.23,557.52c-0.02,0-0.04,0-0.06,0c-1.13-0.03-2.02-0.98-1.98-2.11              c0.06-2.02,0.1-4.07,0.12-6.09c0.01-1.12,0.92-2.03,2.05-2.03c0.01,0,0.01,0,0.02,0c1.13,0.01,2.04,0.93,2.03,2.06              c-0.02,2.05-0.06,4.13-0.12,6.18C1655.24,556.64,1654.33,557.52,1653.23,557.52z M1040.86,555.83              c-0.12,0-0.23-0.01-0.35-0.03c-1.11-0.19-1.86-1.25-1.67-2.36c0.35-2.03,0.72-4.07,1.11-6.07              c0.21-1.11,1.29-1.84,2.4-1.62c1.11,0.21,1.84,1.29,1.62,2.4c-0.38,1.98-0.75,3.99-1.1,5.99              C1042.71,555.13,1041.84,555.83,1040.86,555.83z M1652.81,530.93c-1.07,0-1.97-0.84-2.04-1.92              c-0.12-2.02-0.27-4.07-0.43-6.07c-0.09-1.13,0.75-2.11,1.87-2.21c1.13-0.09,2.11,0.75,2.21,1.87              c0.17,2.04,0.31,4.11,0.44,6.16c0.07,1.13-0.79,2.1-1.92,2.17C1652.9,530.93,1652.86,530.93,1652.81,530.93z               M1046.49,529.86c-0.17,0-0.34-0.02-0.52-0.07c-1.09-0.29-1.75-1.4-1.46-2.5c0.52-1.99,1.06-3.99,1.62-5.96              c0.31-1.09,1.44-1.72,2.52-1.41c1.09,0.31,1.72,1.44,1.41,2.52c-0.55,1.94-1.08,3.92-1.6,5.88              C1048.22,529.25,1047.39,529.86,1046.49,529.86z M1650.04,504.49c-1,0-1.87-0.73-2.02-1.74              c-0.3-1.99-0.62-4.01-0.96-6.02c-0.19-1.11,0.56-2.17,1.67-2.36c1.11-0.19,2.17,0.56,2.36,1.67              c0.35,2.03,0.67,4.08,0.97,6.1c0.17,1.12-0.6,2.16-1.72,2.33C1650.24,504.49,1650.14,504.49,1650.04,504.49z               M1054.27,504.44c-0.23,0-0.46-0.04-0.68-0.12c-1.07-0.38-1.63-1.54-1.25-2.61c0.68-1.93,1.39-3.89,2.11-5.8              c0.4-1.06,1.57-1.6,2.63-1.2c1.06,0.4,1.59,1.58,1.2,2.63c-0.71,1.89-1.41,3.82-2.08,5.73              C1055.9,503.91,1055.11,504.44,1054.27,504.44z M1064.14,479.75c-0.28,0-0.57-0.06-0.84-0.18              c-1.03-0.46-1.49-1.67-1.03-2.71c0.84-1.87,1.71-3.75,2.59-5.61c0.48-1.02,1.7-1.46,2.72-0.98              c1.02,0.48,1.46,1.7,0.98,2.72c-0.87,1.83-1.73,3.7-2.55,5.54C1065.67,479.3,1064.92,479.75,1064.14,479.75z               M1644.97,478.39c-0.92,0-1.76-0.63-1.99-1.57c-0.47-1.97-0.97-3.96-1.48-5.91c-0.29-1.09,0.37-2.21,1.46-2.5              c1.09-0.29,2.21,0.37,2.5,1.46c0.52,1.98,1.02,4,1.5,5.99c0.26,1.1-0.41,2.2-1.51,2.47              C1645.29,478.37,1645.13,478.39,1644.97,478.39z M1076.04,455.96c-0.33,0-0.67-0.08-0.99-0.26              c-0.99-0.55-1.35-1.79-0.8-2.78c1-1.8,2.02-3.61,3.04-5.38c0.57-0.98,1.82-1.31,2.8-0.75c0.98,0.57,1.31,1.82,0.75,2.8              c-1.01,1.75-2.02,3.53-3,5.31C1077.46,455.58,1076.76,455.96,1076.04,455.96z M1637.66,452.82              c-0.86,0-1.65-0.54-1.94-1.4c-0.64-1.93-1.31-3.87-1.99-5.77c-0.38-1.06,0.18-2.24,1.24-2.61              c1.07-0.38,2.24,0.18,2.61,1.24c0.69,1.92,1.36,3.89,2.02,5.84c0.36,1.07-0.22,2.23-1.29,2.59              C1638.09,452.79,1637.87,452.82,1637.66,452.82z M1089.86,433.24c-0.39,0-0.78-0.11-1.13-0.34              c-0.94-0.63-1.19-1.9-0.57-2.84c1.14-1.71,2.31-3.43,3.48-5.11c0.64-0.93,1.92-1.16,2.85-0.51              c0.93,0.64,1.16,1.92,0.51,2.85c-1.15,1.66-2.31,3.36-3.43,5.05C1091.17,432.92,1090.52,433.24,1089.86,433.24z               M1628.13,427.99c-0.79,0-1.54-0.46-1.88-1.23c-0.81-1.86-1.65-3.73-2.5-5.57c-0.47-1.03-0.02-2.24,1-2.71              c1.03-0.47,2.24-0.02,2.71,1c0.86,1.86,1.71,3.76,2.53,5.64c0.45,1.04-0.02,2.24-1.06,2.69              C1628.68,427.93,1628.41,427.99,1628.13,427.99z M1105.51,411.73c-0.45,0-0.89-0.14-1.27-0.44              c-0.89-0.7-1.03-1.99-0.33-2.87c1.28-1.61,2.58-3.23,3.89-4.81c0.72-0.87,2.01-1,2.88-0.28c0.87,0.72,1,2.01,0.28,2.88              c-1.29,1.56-2.58,3.16-3.84,4.75C1106.71,411.47,1106.11,411.73,1105.51,411.73z M1616.4,404.12              c-0.72,0-1.42-0.38-1.79-1.06c-0.98-1.77-1.99-3.56-3-5.31c-0.57-0.98-0.23-2.23,0.74-2.8c0.98-0.57,2.23-0.23,2.8,0.74              c1.03,1.78,2.05,3.59,3.05,5.39c0.55,0.99,0.18,2.23-0.8,2.78C1617.07,404.03,1616.73,404.12,1616.4,404.12z               M1122.87,391.58c-0.5,0-1-0.18-1.4-0.55c-0.83-0.77-0.87-2.07-0.1-2.89c1.4-1.5,2.84-3,4.27-4.48              c0.79-0.81,2.08-0.83,2.89-0.04c0.81,0.79,0.83,2.08,0.04,2.89c-1.41,1.46-2.83,2.94-4.22,4.42              C1123.96,391.36,1123.41,391.58,1122.87,391.58z M1602.46,381.46c-0.65,0-1.29-0.31-1.69-0.89              c-1.14-1.67-2.32-3.35-3.5-4.99c-0.66-0.92-0.45-2.2,0.46-2.86c0.92-0.66,2.2-0.45,2.86,0.46              c1.2,1.67,2.4,3.37,3.56,5.07c0.64,0.93,0.4,2.21-0.53,2.84C1603.26,381.35,1602.86,381.46,1602.46,381.46z               M1141.83,372.91c-0.56,0-1.11-0.23-1.52-0.67c-0.76-0.84-0.7-2.13,0.14-2.89c1.52-1.38,3.08-2.76,4.62-4.11              c0.85-0.74,2.14-0.66,2.89,0.2c0.74,0.85,0.66,2.14-0.2,2.89c-1.53,1.33-3.06,2.7-4.57,4.06              C1142.81,372.74,1142.32,372.91,1141.83,372.91z M1586.32,360.32c-0.58,0-1.16-0.25-1.56-0.72              c-1.31-1.54-2.66-3.09-4-4.59c-0.75-0.84-0.68-2.14,0.16-2.89c0.84-0.75,2.14-0.68,2.89,0.16              c1.36,1.53,2.73,3.1,4.07,4.67c0.73,0.86,0.63,2.15-0.23,2.88C1587.26,360.16,1586.79,360.32,1586.32,360.32z               M1162.25,355.86c-0.61,0-1.22-0.28-1.62-0.8c-0.69-0.9-0.52-2.18,0.38-2.87c1.63-1.25,3.29-2.5,4.95-3.73              c0.38-0.28,0.83-0.41,1.27-0.4c0.12-0.42,0.38-0.81,0.76-1.09c1.66-1.21,3.34-2.42,5-3.6c0.92-0.65,2.2-0.43,2.85,0.49              c0.65,0.92,0.43,2.2-0.49,2.85c-1.65,1.17-3.32,2.37-4.96,3.56c-0.38,0.28-0.82,0.4-1.26,0.39              c-0.12,0.42-0.37,0.81-0.75,1.09c-1.63,1.21-3.28,2.45-4.88,3.68C1163.12,355.72,1162.68,355.86,1162.25,355.86z               M1568.03,341.03c-0.5,0-1.01-0.18-1.4-0.56c-1.47-1.39-2.98-2.77-4.48-4.12c-0.84-0.75-0.91-2.05-0.16-2.89              c0.75-0.84,2.05-0.91,2.89-0.16c1.53,1.37,3.06,2.78,4.56,4.19c0.82,0.78,0.86,2.07,0.08,2.89              C1569.11,340.81,1568.57,341.03,1568.03,341.03z M1191.14,335.69c-0.68,0-1.34-0.34-1.73-0.95              c-0.61-0.95-0.33-2.22,0.63-2.82c1.73-1.1,3.48-2.2,5.23-3.27c0.96-0.59,2.22-0.29,2.82,0.67              c0.59,0.96,0.29,2.22-0.67,2.82c-1.73,1.06-3.47,2.15-5.18,3.24C1191.9,335.59,1191.52,335.69,1191.14,335.69z               M1547.68,323.93c-0.42,0-0.85-0.13-1.22-0.4c-0.8-0.6-1.61-1.19-2.43-1.78c-0.83-0.6-1.66-1.19-2.5-1.78              c-0.93-0.65-1.15-1.93-0.5-2.85c0.65-0.93,1.93-1.15,2.85-0.5c0.85,0.6,1.7,1.21,2.55,1.82c0.83,0.6,1.65,1.2,2.47,1.81              c0.91,0.67,1.09,1.96,0.42,2.86C1548.92,323.64,1548.3,323.93,1547.68,323.93z M1214.03,322.15              c-0.72,0-1.42-0.38-1.8-1.06c-0.54-0.99-0.18-2.23,0.81-2.78c1.8-0.99,3.63-1.97,5.43-2.93c1-0.53,2.24-0.15,2.77,0.85              c0.53,1,0.15,2.24-0.85,2.77c-1.78,0.94-3.59,1.92-5.38,2.9C1214.7,322.07,1214.36,322.15,1214.03,322.15z               M1237.76,310.13c-0.77,0-1.51-0.44-1.86-1.18c-0.48-1.02-0.03-2.24,0.99-2.72c1.85-0.86,3.74-1.72,5.61-2.56              c1.03-0.46,2.24,0,2.7,1.03c0.46,1.03,0,2.24-1.03,2.7c-1.85,0.83-3.72,1.68-5.56,2.53              C1238.34,310.07,1238.05,310.13,1237.76,310.13z M1525.45,309.35c-0.35,0-0.7-0.09-1.02-0.27c-1.74-1-3.53-2-5.31-2.96              c-0.99-0.54-1.36-1.78-0.83-2.77c0.54-0.99,1.78-1.36,2.77-0.83c1.81,0.98,3.63,1.99,5.4,3.01              c0.98,0.56,1.32,1.81,0.75,2.79C1526.84,308.99,1526.16,309.35,1525.45,309.35z M1262.23,299.74              c-0.82,0-1.6-0.5-1.91-1.31c-0.41-1.05,0.12-2.24,1.17-2.64c1.91-0.74,3.85-1.47,5.78-2.17              c1.06-0.39,2.24,0.16,2.63,1.22c0.39,1.06-0.16,2.24-1.22,2.63c-1.9,0.7-3.83,1.42-5.72,2.15              C1262.73,299.69,1262.48,299.74,1262.23,299.74z M1501.69,297.43c-0.27,0-0.55-0.05-0.81-0.17              c-1.85-0.8-3.73-1.59-5.61-2.35c-1.05-0.42-1.55-1.62-1.13-2.66c0.42-1.05,1.62-1.55,2.66-1.13              c1.91,0.77,3.82,1.58,5.7,2.39c1.04,0.45,1.51,1.66,1.06,2.69C1503.24,296.97,1502.48,297.43,1501.69,297.43z               M1287.37,291.05c-0.88,0-1.68-0.57-1.96-1.45c-0.33-1.08,0.28-2.23,1.36-2.56c1.96-0.6,3.95-1.19,5.91-1.76              c1.09-0.31,2.22,0.31,2.53,1.4c0.31,1.09-0.31,2.22-1.4,2.53c-1.95,0.56-3.91,1.15-5.85,1.74              C1287.77,291.02,1287.57,291.05,1287.37,291.05z M1476.79,288.15c-0.2,0-0.41-0.03-0.61-0.09              c-1.92-0.6-3.88-1.2-5.82-1.76c-1.09-0.31-1.71-1.45-1.4-2.53c0.31-1.09,1.45-1.71,2.53-1.4              c1.97,0.57,3.96,1.17,5.91,1.78c1.08,0.34,1.68,1.49,1.34,2.57C1478.46,287.59,1477.66,288.15,1476.79,288.15z               M1313.05,284.15c-0.93,0-1.77-0.64-1.99-1.59c-0.25-1.1,0.43-2.2,1.54-2.45c2-0.46,4.03-0.91,6.03-1.33              c1.11-0.23,2.19,0.47,2.43,1.58c0.23,1.11-0.47,2.19-1.58,2.43c-1.98,0.42-3.98,0.86-5.96,1.32              C1313.36,284.14,1313.2,284.15,1313.05,284.15z M1451.07,281.44c-0.14,0-0.28-0.01-0.42-0.04              c-1.97-0.41-3.98-0.81-5.97-1.18c-1.11-0.21-1.84-1.28-1.64-2.39c0.21-1.11,1.28-1.84,2.39-1.64              c2.02,0.38,4.06,0.78,6.06,1.2c1.11,0.23,1.82,1.32,1.58,2.42C1452.87,280.78,1452.02,281.44,1451.07,281.44z               M1339.17,279.16c-0.99,0-1.87-0.73-2.02-1.74c-0.17-1.12,0.6-2.16,1.71-2.33c2.03-0.31,4.08-0.61,6.11-0.88              c1.12-0.15,2.15,0.63,2.3,1.75c0.15,1.12-0.63,2.15-1.75,2.3c-2,0.27-4.04,0.56-6.04,0.87              C1339.38,279.15,1339.28,279.16,1339.17,279.16z M1424.83,277.22c-0.08,0-0.16,0-0.23-0.01c-2-0.23-4.04-0.44-6.05-0.63              c-1.13-0.11-1.95-1.1-1.85-2.23c0.11-1.13,1.11-1.95,2.23-1.85c2.04,0.19,4.11,0.41,6.14,0.64              c1.12,0.13,1.93,1.14,1.8,2.27C1426.74,276.45,1425.85,277.22,1424.83,277.22z M1365.6,276.16              c-1.06,0-1.96-0.82-2.04-1.9c-0.08-1.13,0.76-2.11,1.89-2.19c2.05-0.15,4.12-0.29,6.16-0.4              c1.13-0.06,2.09,0.8,2.16,1.93c0.06,1.13-0.8,2.09-1.93,2.16c-2.02,0.11-4.06,0.24-6.09,0.39              C1365.7,276.15,1365.65,276.16,1365.6,276.16z M1398.31,275.37c-0.02,0-0.04,0-0.06,0c-2.02-0.05-4.07-0.09-6.09-0.1              c-1.13-0.01-2.04-0.93-2.03-2.06c0.01-1.12,0.92-2.03,2.05-2.03c0.01,0,0.01,0,0.02,0c2.05,0.02,4.13,0.05,6.17,0.11              c1.13,0.03,2.02,0.97,1.99,2.1C1400.33,274.49,1399.42,275.37,1398.31,275.37z"></path>
											</g>
										</g>
									</g>
								</g>
							</g>
						</g>
					</g>
				</g>
			</g>
		</g>
	</g>
</g>
<g>
	<g>
		<g>
			<g>
				<g>
					<g>
						<g>
							<g>
								<g>
									<g>
										<g>
											<g>
												<path class="st0" d="M672.19,362.41c-153.82-31.37-339.64,55.97-371.31,198.61C268.09,708.72,419,832.93,439.04,849.42              c129.06,106.22,354.88,154.02,455.93,44.9c75.15-81.16,47.14-212.24,39.72-246.96              C911.18,537.32,826.57,393.89,672.19,362.41z"></path>
											</g>
										</g>
									</g>
								</g>
							</g>
						</g>
					</g>
				</g>
			</g>
		</g>
	</g>
</g>
<g>
	<g>
		<g>
			<g>
				<g>
					<g>
						<g>
							<g>
								<g>
									<g>
										<g>
											<g>
												<path class="st1" d="M708.78,977.41c-1.12,0-2.04-0.91-2.05-2.03c-0.01-1.13,0.9-2.05,2.03-2.06              c2.03-0.01,4.08-0.05,6.09-0.1c1.14-0.03,2.07,0.86,2.1,1.99c0.03,1.13-0.86,2.07-1.99,2.1              c-2.03,0.05-4.1,0.08-6.16,0.1C708.79,977.41,708.79,977.41,708.78,977.41z M688.38,976.96c-0.03,0-0.07,0-0.1,0              c-2.03-0.1-4.1-0.22-6.15-0.36c-1.13-0.07-1.98-1.05-1.91-2.18c0.07-1.13,1.05-1.98,2.18-1.91              c2.03,0.13,4.07,0.25,6.08,0.35c1.13,0.06,2,1.02,1.94,2.15C690.37,976.11,689.46,976.96,688.38,976.96z M735.28,976.15              c-1.05,0-1.94-0.8-2.04-1.86c-0.1-1.13,0.73-2.12,1.86-2.22c2.02-0.18,4.06-0.38,6.05-0.6              c1.12-0.12,2.13,0.69,2.26,1.81c0.12,1.12-0.69,2.13-1.81,2.26c-2.02,0.22-4.09,0.43-6.14,0.61              C735.41,976.15,735.34,976.15,735.28,976.15z M661.94,974.74c-0.08,0-0.16,0-0.24-0.01c-2.02-0.24-4.07-0.49-6.11-0.76              c-1.12-0.15-1.91-1.18-1.76-2.3c0.15-1.12,1.18-1.91,2.3-1.76c2.02,0.27,4.05,0.52,6.05,0.76              c1.12,0.13,1.93,1.15,1.79,2.27C663.84,973.97,662.96,974.74,661.94,974.74z M761.57,972.58              c-0.97,0-1.83-0.69-2.01-1.67c-0.21-1.11,0.53-2.18,1.64-2.38c2-0.37,4-0.76,5.96-1.17c1.11-0.23,2.19,0.48,2.42,1.58              c0.23,1.11-0.48,2.19-1.58,2.42c-1.99,0.42-4.03,0.82-6.06,1.19C761.82,972.57,761.69,972.58,761.57,972.58z               M635.69,970.81c-0.12,0-0.24-0.01-0.37-0.03c-2-0.36-4.03-0.74-6.05-1.14c-1.11-0.22-1.83-1.29-1.62-2.4              c0.22-1.11,1.29-1.83,2.4-1.62c1.99,0.39,4.01,0.77,5.99,1.12c1.11,0.2,1.85,1.27,1.65,2.38              C637.52,970.12,636.66,970.81,635.69,970.81z M787.37,966.41c-0.88,0-1.7-0.57-1.96-1.46              c-0.32-1.08,0.29-2.22,1.38-2.55c1.94-0.58,3.89-1.19,5.79-1.81c1.07-0.35,2.23,0.23,2.58,1.31              c0.35,1.07-0.23,2.23-1.31,2.58c-1.94,0.64-3.92,1.26-5.9,1.85C787.76,966.38,787.56,966.41,787.37,966.41z               M609.72,965.34c-0.16,0-0.32-0.02-0.48-0.06c-1.99-0.48-4-0.98-5.99-1.48c-1.1-0.28-1.76-1.39-1.48-2.49              c0.28-1.1,1.39-1.76,2.49-1.48c1.97,0.5,3.97,0.99,5.94,1.47c1.1,0.26,1.78,1.37,1.51,2.47              C611.48,964.71,610.65,965.34,609.72,965.34z M584.08,958.42c-0.19,0-0.39-0.03-0.59-0.09              c-1.96-0.58-3.94-1.19-5.89-1.8c-1.08-0.34-1.68-1.48-1.34-2.56c0.34-1.08,1.49-1.68,2.56-1.34              c1.94,0.61,3.9,1.21,5.84,1.79c1.08,0.32,1.7,1.46,1.37,2.55C585.77,957.85,584.96,958.42,584.08,958.42z               M812.29,957.31c-0.79,0-1.54-0.46-1.88-1.23c-0.45-1.04,0.02-2.24,1.05-2.7c1.85-0.81,3.71-1.66,5.52-2.52              c1.02-0.48,2.24-0.05,2.73,0.97c0.48,1.02,0.05,2.24-0.97,2.73c-1.85,0.88-3.74,1.74-5.64,2.57              C812.84,957.25,812.56,957.31,812.29,957.31z M558.85,950.15c-0.23,0-0.46-0.04-0.69-0.12              c-1.92-0.69-3.87-1.39-5.78-2.1c-1.06-0.39-1.6-1.57-1.21-2.63c0.39-1.06,1.57-1.6,2.63-1.21              c1.9,0.71,3.83,1.41,5.74,2.09c1.06,0.38,1.62,1.55,1.24,2.62C560.48,949.63,559.69,950.15,558.85,950.15z               M835.8,945.04c-0.69,0-1.36-0.35-1.74-0.97c-0.59-0.96-0.29-2.22,0.67-2.82c1.72-1.06,3.43-2.15,5.1-3.26              c0.94-0.62,2.21-0.37,2.84,0.57c0.62,0.94,0.37,2.21-0.57,2.84c-1.71,1.13-3.46,2.25-5.22,3.34              C836.54,944.94,836.17,945.04,835.8,945.04z M534.09,940.57c-0.26,0-0.53-0.05-0.79-0.16c-1.89-0.79-3.79-1.59-5.66-2.4              c-1.04-0.45-1.52-1.65-1.07-2.69c0.45-1.04,1.65-1.52,2.69-1.07c1.85,0.8,3.74,1.6,5.62,2.38              c1.04,0.43,1.54,1.63,1.1,2.68C535.65,940.1,534.89,940.57,534.09,940.57z M509.86,929.74c-0.3,0-0.6-0.06-0.88-0.2              c-1.84-0.88-3.7-1.78-5.52-2.68c-1.01-0.5-1.43-1.73-0.93-2.74c0.5-1.01,1.73-1.43,2.74-0.93              c1.81,0.9,3.66,1.79,5.48,2.66c1.02,0.49,1.45,1.71,0.96,2.73C511.36,929.31,510.63,929.74,509.86,929.74z               M857.27,929.49c-0.58,0-1.16-0.25-1.56-0.72c-0.73-0.86-0.62-2.15,0.24-2.88c1.53-1.3,3.06-2.64,4.54-3.99              c0.83-0.76,2.13-0.7,2.89,0.13c0.76,0.83,0.7,2.13-0.13,2.89c-1.51,1.38-3.08,2.76-4.65,4.09              C858.21,929.33,857.74,929.49,857.27,929.49z M486.24,917.66c-0.33,0-0.67-0.08-0.98-0.25              c-1.79-0.97-3.59-1.97-5.37-2.97c-0.99-0.55-1.34-1.8-0.78-2.79c0.55-0.99,1.8-1.34,2.79-0.78              c1.76,0.99,3.55,1.98,5.32,2.95c0.99,0.54,1.36,1.78,0.82,2.78C487.67,917.27,486.97,917.66,486.24,917.66z               M876.07,910.82c-0.47,0-0.95-0.16-1.33-0.49c-0.86-0.74-0.96-2.03-0.22-2.89c1.31-1.52,2.6-3.09,3.86-4.66              c0.7-0.88,1.99-1.03,2.88-0.32c0.88,0.7,1.03,1.99,0.32,2.88c-1.28,1.61-2.61,3.21-3.95,4.77              C877.22,910.58,876.65,910.82,876.07,910.82z M463.31,904.33c-0.37,0-0.74-0.1-1.07-0.31              c-1.74-1.08-3.49-2.18-5.21-3.27c-0.95-0.61-1.23-1.87-0.63-2.83c0.61-0.95,1.87-1.23,2.83-0.63              c1.7,1.09,3.44,2.18,5.16,3.24c0.96,0.59,1.26,1.86,0.66,2.82C464.67,903.99,464,904.33,463.31,904.33z M441.16,889.72              c-0.41,0-0.82-0.12-1.17-0.37c-1.67-1.18-3.36-2.38-5.01-3.57c-0.92-0.66-1.12-1.94-0.46-2.86              c0.66-0.92,1.94-1.12,2.86-0.46c1.63,1.18,3.3,2.37,4.96,3.54c0.92,0.65,1.15,1.93,0.5,2.85              C442.43,889.42,441.8,889.72,441.16,889.72z M891.71,889.42c-0.37,0-0.74-0.1-1.07-0.31c-0.96-0.59-1.26-1.86-0.66-2.82              c1.05-1.7,2.09-3.45,3.09-5.2c0.56-0.98,1.81-1.32,2.79-0.76c0.98,0.56,1.32,1.81,0.76,2.79              c-1.02,1.79-2.09,3.58-3.17,5.32C893.06,889.08,892.39,889.42,891.71,889.42z M419.93,873.79              c-0.45,0-0.9-0.15-1.28-0.45c-1.33-1.06-2.66-2.15-3.97-3.22l-0.8-0.66c-0.87-0.72-1-2.01-0.28-2.88              c0.72-0.87,2.01-1,2.88-0.28l0.8,0.66c1.29,1.07,2.62,2.14,3.93,3.19c0.88,0.71,1.02,1.99,0.32,2.88              C421.13,873.53,420.53,873.79,419.93,873.79z M903.96,865.91c-0.27,0-0.55-0.05-0.81-0.17              c-1.04-0.45-1.51-1.65-1.06-2.69c0.8-1.84,1.58-3.73,2.33-5.6c0.42-1.05,1.61-1.56,2.66-1.15              c1.05,0.42,1.56,1.61,1.15,2.66c-0.76,1.92-1.56,3.84-2.37,5.72C905.5,865.45,904.75,865.91,903.96,865.91z               M399.65,856.59c-0.49,0-0.97-0.17-1.37-0.52c-1.52-1.36-3.06-2.76-4.56-4.14c-0.83-0.76-0.89-2.06-0.12-2.89              c0.76-0.83,2.06-0.89,2.89-0.12c1.49,1.37,3.02,2.75,4.53,4.11c0.84,0.75,0.91,2.05,0.16,2.89              C400.77,856.36,400.22,856.59,399.65,856.59z M912.88,840.93c-0.19,0-0.38-0.03-0.57-0.08              c-1.09-0.31-1.71-1.45-1.4-2.53c0.56-1.93,1.09-3.9,1.6-5.86c0.28-1.09,1.4-1.75,2.49-1.47              c1.09,0.28,1.75,1.4,1.47,2.49c-0.52,2-1.07,4.01-1.63,5.97C914.59,840.34,913.77,840.93,912.88,840.93z M380.33,838.34              c-0.52,0-1.04-0.2-1.44-0.6c-1.45-1.44-2.91-2.91-4.34-4.37c-0.79-0.81-0.78-2.1,0.03-2.89              c0.81-0.79,2.1-0.78,2.89,0.03c1.42,1.44,2.87,2.9,4.31,4.33c0.8,0.8,0.8,2.09,0.01,2.89              C381.38,838.14,380.85,838.34,380.33,838.34z M361.98,819.12c-0.56,0-1.11-0.23-1.52-0.67              c-1.38-1.52-2.76-3.06-4.1-4.59c-0.75-0.85-0.67-2.14,0.18-2.89c0.85-0.75,2.14-0.67,2.89,0.18              c1.33,1.51,2.7,3.04,4.07,4.55c0.76,0.84,0.69,2.13-0.14,2.89C362.96,818.95,362.47,819.12,361.98,819.12z               M918.77,815.05c-0.11,0-0.23-0.01-0.35-0.03c-1.11-0.19-1.86-1.25-1.67-2.36c0.34-1.98,0.66-4,0.96-6.01              c0.17-1.12,1.2-1.89,2.32-1.73c1.12,0.17,1.89,1.21,1.73,2.32c-0.3,2.04-0.63,4.1-0.97,6.11              C920.62,814.35,919.75,815.05,918.77,815.05z M344.71,798.94c-0.6,0-1.19-0.26-1.59-0.76              c-1.29-1.59-2.58-3.21-3.84-4.81c-0.7-0.89-0.54-2.17,0.34-2.87c0.89-0.7,2.18-0.54,2.87,0.34              c1.25,1.59,2.52,3.19,3.8,4.77c0.71,0.88,0.57,2.17-0.31,2.88C345.61,798.79,345.16,798.94,344.71,798.94z               M921.99,788.71c-0.05,0-0.1,0-0.16-0.01c-1.13-0.09-1.97-1.07-1.89-2.19c0.15-2,0.29-4.04,0.4-6.07              c0.06-1.13,1.02-1.99,2.16-1.93c1.13,0.06,1.99,1.03,1.93,2.16c-0.11,2.06-0.25,4.13-0.4,6.15              C923.95,787.89,923.05,788.71,921.99,788.71z M328.65,777.79c-0.64,0-1.27-0.3-1.67-0.86              c-1.19-1.68-2.38-3.38-3.53-5.05c-0.64-0.93-0.4-2.21,0.53-2.85c0.93-0.64,2.21-0.4,2.85,0.53              c1.14,1.65,2.31,3.33,3.49,5c0.65,0.92,0.44,2.2-0.48,2.85C329.47,777.67,329.06,777.79,328.65,777.79z M922.89,762.18              c-1.13,0-2.04-0.91-2.05-2.04c-0.01-2.02-0.04-4.07-0.08-6.09c-0.03-1.13,0.87-2.07,2-2.09c1.12-0.02,2.07,0.87,2.09,2              c0.05,2.05,0.07,4.12,0.09,6.16c0.01,1.13-0.91,2.05-2.04,2.06C922.9,762.18,922.9,762.18,922.89,762.18z               M314.02,755.64c-0.69,0-1.36-0.35-1.75-0.98c-1.07-1.76-2.14-3.53-3.17-5.29c-0.57-0.97-0.25-2.23,0.73-2.8              c0.98-0.57,2.23-0.25,2.8,0.73c1.02,1.73,2.07,3.49,3.13,5.23c0.59,0.96,0.28,2.22-0.68,2.81              C314.75,755.54,314.38,755.64,314.02,755.64z M921.8,735.67c-1.06,0-1.96-0.82-2.04-1.89c-0.15-2.01-0.32-4.05-0.5-6.07              c-0.1-1.13,0.73-2.12,1.85-2.22c1.13-0.1,2.12,0.73,2.22,1.85c0.18,2.04,0.36,4.11,0.51,6.13              c0.08,1.13-0.76,2.11-1.89,2.19C921.9,735.67,921.85,735.67,921.8,735.67z M301.07,732.46c-0.75,0-1.47-0.41-1.83-1.12              c-0.93-1.83-1.85-3.69-2.73-5.53c-0.49-1.02-0.06-2.24,0.95-2.73c1.02-0.49,2.24-0.06,2.73,0.95              c0.87,1.81,1.78,3.65,2.7,5.45c0.51,1.01,0.11,2.24-0.9,2.75C301.69,732.39,301.38,732.46,301.07,732.46z               M918.98,709.28c-1.01,0-1.88-0.74-2.02-1.77c-0.27-2-0.57-4.03-0.87-6.04c-0.17-1.12,0.6-2.16,1.72-2.33              c1.12-0.17,2.16,0.6,2.33,1.72c0.31,2.03,0.6,4.08,0.88,6.09c0.15,1.12-0.63,2.15-1.75,2.31              C919.16,709.27,919.07,709.28,918.98,709.28z M290.12,708.29c-0.81,0-1.58-0.49-1.9-1.29              c-0.76-1.91-1.51-3.85-2.22-5.76c-0.39-1.06,0.15-2.24,1.2-2.63c1.06-0.39,2.24,0.15,2.63,1.2              c0.7,1.88,1.43,3.79,2.18,5.67c0.42,1.05-0.09,2.24-1.14,2.66C290.63,708.24,290.38,708.29,290.12,708.29z               M281.57,683.17c-0.89,0-1.71-0.59-1.97-1.49c-0.56-1.98-1.1-3.98-1.6-5.96c-0.28-1.1,0.38-2.21,1.48-2.49              c1.1-0.28,2.21,0.38,2.49,1.48c0.5,1.95,1.03,3.92,1.58,5.86c0.31,1.09-0.32,2.22-1.41,2.53              C281.94,683.15,281.76,683.17,281.57,683.17z M914.62,683.09c-0.96,0-1.82-0.68-2.01-1.66              c-0.38-1.97-0.77-3.92-1.19-5.99c-0.23-1.11,0.49-2.19,1.6-2.41c1.11-0.23,2.19,0.49,2.41,1.6              c0.42,2.08,0.82,4.05,1.2,6.03c0.21,1.11-0.51,2.18-1.62,2.4C914.88,683.08,914.75,683.09,914.62,683.09z               M275.83,657.29c-0.99,0-1.86-0.72-2.02-1.72c-0.33-2.03-0.63-4.09-0.89-6.12c-0.15-1.12,0.64-2.15,1.76-2.3              c1.12-0.15,2.15,0.64,2.3,1.76c0.26,1.99,0.56,4,0.88,6c0.18,1.12-0.58,2.17-1.7,2.34              C276.04,657.28,275.93,657.29,275.83,657.29z M909.01,657.14c-0.92,0-1.75-0.62-1.99-1.56              c-0.48-1.95-0.99-3.94-1.51-5.9c-0.29-1.09,0.36-2.21,1.46-2.5c1.09-0.29,2.21,0.36,2.5,1.46              c0.52,1.98,1.04,3.99,1.52,5.97c0.27,1.1-0.4,2.21-1.5,2.48C909.34,657.13,909.17,657.14,909.01,657.14z M901.78,631.6              c-0.87,0-1.67-0.55-1.95-1.42c-0.61-1.92-1.25-3.87-1.9-5.79c-0.36-1.07,0.22-2.23,1.29-2.59              c1.07-0.36,2.23,0.22,2.59,1.29c0.65,1.94,1.3,3.91,1.92,5.85c0.34,1.08-0.25,2.23-1.33,2.57              C902.19,631.57,901.98,631.6,901.78,631.6z M273.28,630.91c-1.1,0-2.01-0.87-2.04-1.98c-0.07-2.05-0.1-4.13-0.1-6.18              c0-1.13,0.91-2.05,2.04-2.05c0,0,0,0,0,0c1.13,0,2.05,0.91,2.05,2.04c0,2.01,0.04,4.05,0.1,6.06              c0.04,1.13-0.85,2.07-1.98,2.11C273.32,630.91,273.3,630.91,273.28,630.91z M892.9,606.59c-0.82,0-1.59-0.49-1.91-1.3              c-0.74-1.88-1.49-3.79-2.26-5.66c-0.43-1.05,0.08-2.24,1.12-2.67c1.05-0.43,2.24,0.08,2.67,1.12              c0.77,1.89,1.54,3.82,2.28,5.72c0.41,1.05-0.11,2.24-1.16,2.65C893.4,606.54,893.15,606.59,892.9,606.59z               M274.22,604.41c-0.07,0-0.14,0-0.21-0.01c-1.12-0.12-1.94-1.12-1.83-2.25c0.21-2.04,0.46-4.11,0.73-6.15              c0.15-1.12,1.18-1.9,2.3-1.75c1.12,0.15,1.9,1.18,1.75,2.3c-0.27,1.99-0.51,4.02-0.72,6.02              C276.14,603.62,275.25,604.41,274.22,604.41z M882.49,582.17c-0.77,0-1.51-0.44-1.86-1.19              c-0.85-1.83-1.72-3.68-2.6-5.51c-0.49-1.02-0.06-2.24,0.96-2.73c1.02-0.49,2.24-0.06,2.73,0.96              c0.89,1.85,1.77,3.72,2.63,5.57c0.48,1.03,0.03,2.24-1,2.72C883.07,582.11,882.77,582.17,882.49,582.17z M278.73,578.28              c-0.16,0-0.32-0.02-0.49-0.06c-1.1-0.27-1.77-1.37-1.5-2.47c0.48-1.99,1.01-4,1.55-5.98c0.3-1.09,1.43-1.73,2.52-1.43              c1.09,0.3,1.73,1.43,1.43,2.52c-0.54,1.94-1.05,3.91-1.52,5.86C280.49,577.65,279.65,578.28,278.73,578.28z               M870.58,558.45c-0.73,0-1.43-0.39-1.8-1.07c-0.96-1.78-1.95-3.57-2.94-5.34c-0.55-0.99-0.2-2.23,0.79-2.79              c0.99-0.55,2.23-0.2,2.79,0.79c1,1.78,2,3.6,2.97,5.39c0.54,0.99,0.17,2.24-0.83,2.77              C871.25,558.37,870.91,558.45,870.58,558.45z M286.69,553.02c-0.25,0-0.5-0.04-0.74-0.14c-1.05-0.41-1.57-1.6-1.16-2.65              c0.74-1.91,1.52-3.83,2.32-5.72c0.44-1.04,1.64-1.53,2.68-1.09c1.04,0.44,1.53,1.64,1.09,2.68              c-0.78,1.85-1.55,3.74-2.28,5.6C288.28,552.52,287.51,553.02,286.69,553.02z M857.22,535.51              c-0.68,0-1.35-0.34-1.74-0.96c-1.07-1.72-2.18-3.45-3.27-5.14c-0.61-0.95-0.34-2.22,0.61-2.83              c0.95-0.61,2.22-0.34,2.83,0.61c1.11,1.71,2.22,3.46,3.31,5.19c0.6,0.96,0.31,2.22-0.65,2.82              C857.96,535.41,857.59,535.51,857.22,535.51z M297.85,528.99c-0.33,0-0.66-0.08-0.97-0.25              c-0.99-0.54-1.36-1.78-0.82-2.77c0.98-1.8,2-3.62,3.03-5.39c0.57-0.98,1.82-1.31,2.8-0.74c0.98,0.57,1.31,1.82,0.74,2.8              c-1.01,1.75-2.01,3.53-2.97,5.29C299.28,528.6,298.58,528.99,297.85,528.99z M842.4,513.5c-0.63,0-1.26-0.29-1.66-0.85              c-1.19-1.64-2.4-3.29-3.61-4.91c-0.68-0.91-0.49-2.19,0.42-2.86c0.91-0.68,2.19-0.49,2.86,0.42              c1.22,1.63,2.45,3.3,3.64,4.96c0.66,0.92,0.46,2.2-0.46,2.86C843.23,513.37,842.81,513.5,842.4,513.5z M311.87,506.47              c-0.41,0-0.82-0.12-1.18-0.38c-0.92-0.65-1.14-1.93-0.49-2.85c1.18-1.67,2.41-3.36,3.64-5.01              c0.68-0.91,1.96-1.09,2.86-0.42c0.91,0.68,1.09,1.96,0.42,2.86c-1.21,1.63-2.42,3.28-3.58,4.93              C313.15,506.17,312.51,506.47,311.87,506.47z M826.14,492.55c-0.59,0-1.17-0.25-1.57-0.74              c-1.29-1.55-2.61-3.11-3.92-4.63c-0.74-0.86-0.64-2.15,0.21-2.89c0.86-0.74,2.15-0.64,2.89,0.21              c1.33,1.54,2.66,3.11,3.97,4.68c0.72,0.87,0.61,2.16-0.26,2.88C827.07,492.4,826.6,492.55,826.14,492.55z               M328.35,485.66c-0.48,0-0.96-0.17-1.35-0.51c-0.85-0.75-0.93-2.04-0.18-2.89c1.35-1.53,2.74-3.07,4.14-4.58              c0.77-0.83,2.06-0.88,2.89-0.11c0.83,0.77,0.88,2.06,0.11,2.89c-1.37,1.48-2.75,3-4.07,4.51              C329.48,485.43,328.92,485.66,328.35,485.66z M808.45,472.83c-0.54,0-1.07-0.21-1.47-0.62              c-1.4-1.45-2.83-2.91-4.25-4.33c-0.8-0.8-0.8-2.09,0-2.89c0.8-0.8,2.1-0.8,2.89,0c1.44,1.44,2.88,2.91,4.3,4.38              c0.79,0.81,0.76,2.11-0.05,2.89C809.47,472.64,808.96,472.83,808.45,472.83z M346.89,466.69c-0.55,0-1.1-0.22-1.5-0.65              c-0.77-0.83-0.72-2.12,0.11-2.89c1.49-1.39,3.03-2.78,4.57-4.15c0.84-0.75,2.14-0.67,2.89,0.17              c0.75,0.84,0.67,2.14-0.17,2.89c-1.51,1.35-3.03,2.72-4.5,4.09C347.88,466.51,347.38,466.69,346.89,466.69z               M789.33,454.49c-0.48,0-0.97-0.17-1.36-0.52c-1.51-1.34-3.06-2.69-4.59-4c-0.86-0.73-0.96-2.03-0.23-2.89              c0.73-0.86,2.03-0.96,2.89-0.23c1.55,1.33,3.11,2.69,4.65,4.05c0.85,0.75,0.92,2.04,0.17,2.89              C790.46,454.26,789.9,454.49,789.33,454.49z M367.14,449.55c-0.61,0-1.22-0.27-1.62-0.8c-0.69-0.89-0.52-2.18,0.37-2.87              c1.62-1.25,3.27-2.5,4.92-3.72c0.91-0.67,2.19-0.48,2.86,0.43c0.67,0.91,0.48,2.19-0.43,2.86              c-1.62,1.2-3.26,2.44-4.85,3.67C368.02,449.41,367.58,449.55,367.14,449.55z M768.8,437.7c-0.43,0-0.86-0.13-1.23-0.41              c-1.62-1.21-3.27-2.43-4.9-3.61c-0.92-0.66-1.12-1.94-0.46-2.86c0.66-0.92,1.94-1.12,2.86-0.46              c1.66,1.19,3.33,2.42,4.96,3.65c0.9,0.68,1.09,1.96,0.41,2.86C770.03,437.42,769.42,437.7,768.8,437.7z M388.82,434.25              c-0.67,0-1.33-0.33-1.72-0.94c-0.61-0.95-0.34-2.22,0.61-2.83c1.71-1.1,3.46-2.21,5.21-3.29              c0.96-0.59,2.22-0.3,2.82,0.66c0.59,0.96,0.3,2.22-0.66,2.82c-1.72,1.07-3.46,2.16-5.15,3.25              C389.58,434.15,389.2,434.25,388.82,434.25z M746.93,422.69c-0.37,0-0.75-0.1-1.08-0.31c-1.71-1.07-3.46-2.14-5.19-3.17              c-0.97-0.58-1.29-1.84-0.71-2.81c0.58-0.97,1.84-1.29,2.81-0.71c1.75,1.05,3.52,2.13,5.26,3.22              c0.96,0.6,1.25,1.86,0.65,2.82C748.28,422.35,747.62,422.69,746.93,422.69z M411.67,420.77c-0.73,0-1.43-0.39-1.8-1.08              c-0.54-1-0.16-2.24,0.83-2.77c1.79-0.97,3.63-1.93,5.45-2.87c1-0.52,2.24-0.12,2.76,0.88c0.52,1,0.12,2.24-0.88,2.76              c-1.8,0.93-3.61,1.88-5.39,2.84C412.33,420.69,412,420.77,411.67,420.77z M723.86,409.63c-0.31,0-0.63-0.07-0.93-0.22              c-1.8-0.92-3.63-1.82-5.45-2.7c-1.02-0.49-1.44-1.71-0.95-2.73c0.49-1.02,1.72-1.44,2.73-0.95              c1.84,0.89,3.7,1.81,5.52,2.74c1.01,0.51,1.41,1.74,0.9,2.75C725.32,409.22,724.6,409.63,723.86,409.63z M435.52,409.08              c-0.78,0-1.53-0.45-1.87-1.22c-0.46-1.03,0.01-2.24,1.04-2.7c1.87-0.83,3.78-1.66,5.67-2.46              c1.04-0.44,2.24,0.04,2.68,1.08c0.44,1.04-0.04,2.24-1.08,2.68c-1.87,0.79-3.76,1.61-5.6,2.44              C436.08,409.03,435.79,409.08,435.52,409.08z M460.17,399.18c-0.84,0-1.62-0.52-1.93-1.35              c-0.38-1.06,0.17-2.24,1.23-2.62c1.93-0.69,3.89-1.38,5.83-2.04c1.07-0.37,2.23,0.21,2.6,1.27              c0.37,1.07-0.21,2.23-1.27,2.6c-1.92,0.66-3.86,1.34-5.76,2.02C460.64,399.14,460.4,399.18,460.17,399.18z               M699.71,398.68c-0.25,0-0.51-0.05-0.76-0.15c-1.87-0.75-3.78-1.49-5.67-2.2c-1.06-0.4-1.59-1.58-1.2-2.64              c0.4-1.06,1.58-1.59,2.64-1.2c1.92,0.72,3.85,1.47,5.75,2.23c1.05,0.42,1.56,1.61,1.14,2.66              C701.29,398.19,700.52,398.68,699.71,398.68z M485.47,391.07c-0.89,0-1.71-0.59-1.97-1.49              c-0.31-1.09,0.33-2.22,1.41-2.52c1.97-0.55,3.97-1.1,5.95-1.62c1.09-0.29,2.21,0.36,2.5,1.46              c0.29,1.09-0.36,2.21-1.46,2.5c-1.96,0.52-3.94,1.06-5.89,1.61C485.84,391.05,485.65,391.07,485.47,391.07z               M674.67,389.96c-0.19,0-0.39-0.03-0.59-0.09c-1.93-0.58-3.9-1.14-5.84-1.68c-1.09-0.3-1.73-1.43-1.43-2.52              c0.3-1.09,1.43-1.73,2.52-1.43c1.97,0.54,3.97,1.12,5.93,1.7c1.08,0.32,1.7,1.46,1.38,2.55              C676.36,389.39,675.55,389.96,674.67,389.96z M511.26,384.78c-0.95,0-1.8-0.67-2-1.63c-0.23-1.11,0.48-2.19,1.59-2.42              c2-0.41,4.04-0.82,6.04-1.2c1.11-0.21,2.18,0.52,2.39,1.63c0.21,1.11-0.52,2.18-1.63,2.39c-1.99,0.38-4,0.77-5.98,1.18              C511.54,384.77,511.4,384.78,511.26,384.78z M649.13,383.57c-0.14,0-0.27-0.01-0.41-0.04c-1.97-0.4-3.98-0.79-5.97-1.16              c-1.11-0.2-1.85-1.27-1.64-2.38c0.2-1.11,1.27-1.85,2.38-1.64c2.02,0.37,4.05,0.76,6.05,1.17              c1.11,0.23,1.82,1.31,1.6,2.41C650.94,382.9,650.08,383.57,649.13,383.57z M537.43,380.34c-1.01,0-1.89-0.75-2.03-1.78              c-0.15-1.12,0.64-2.15,1.76-2.3c2.03-0.27,4.08-0.53,6.11-0.76c1.12-0.13,2.14,0.67,2.27,1.8              c0.13,1.12-0.67,2.14-1.8,2.27c-2.01,0.23-4.04,0.49-6.04,0.75C537.61,380.34,537.52,380.34,537.43,380.34z               M622.93,379.39c-0.08,0-0.16,0-0.24-0.01c-2-0.23-4.04-0.45-6.05-0.64c-1.12-0.11-1.95-1.11-1.84-2.23              c0.11-1.12,1.11-1.95,2.23-1.84c2.04,0.2,4.1,0.42,6.13,0.65c1.12,0.13,1.93,1.15,1.8,2.27              C624.84,378.63,623.96,379.39,622.93,379.39z M563.84,377.81c-1.07,0-1.98-0.84-2.04-1.93              c-0.07-1.13,0.79-2.1,1.92-2.16c2.04-0.12,4.11-0.22,6.15-0.31c1.13-0.05,2.08,0.83,2.13,1.96              c0.05,1.13-0.83,2.08-1.96,2.13c-2.01,0.08-4.06,0.19-6.08,0.31C563.92,377.81,563.88,377.81,563.84,377.81z               M596.48,377.4c-0.02,0-0.05,0-0.07,0c-2.01-0.07-4.06-0.12-6.08-0.16c-1.13-0.02-2.03-0.95-2.01-2.08              c0.02-1.13,0.97-2.03,2.08-2.01c2.05,0.03,4.12,0.09,6.16,0.16c1.13,0.04,2.01,0.99,1.97,2.12              C598.48,376.53,597.57,377.4,596.48,377.4z"></path>
											</g>
										</g>
									</g>
								</g>
							</g>
						</g>
					</g>
				</g>
			</g>
		</g>
	</g>
</g>
<g>
	<g>
		<g>
			<g>
				<g>
					<g>
						<g>
							<g>
								<g>
									<g>
										<g>
											<g>
												<ellipse cx="1324.86" cy="702.36" rx="180.69" ry="46.9"></ellipse>
											</g>
										</g>
									</g>
								</g>
							</g>
						</g>
					</g>
				</g>
			</g>
		</g>
	</g>
</g>
<g>
	<g>
		<g>
			<g>
				<g>
					<g>
						<g>
							<g>
								<g>
									<g>
										<g>
											<g>
												<ellipse cx="641.5" cy="749.26" rx="180.69" ry="46.9"></ellipse>
											</g>
										</g>
									</g>
								</g>
							</g>
						</g>
					</g>
				</g>
			</g>
		</g>
	</g>
</g>
<g>
	<g>
		<g>
			<g>
				<g>
					<g>
						<g>
							<g>
								<g>
									<g>
										<g>
											<g>
												<path d="M1422.65,666.63v71.11v4.06c0,0-99.16,17.56-193.92,0.27l-15.28-45.45L1422.65,666.63z"></path>
											</g>
										</g>
									</g>
								</g>
							</g>
						</g>
					</g>
				</g>
			</g>
		</g>
	</g>
</g>
<g>
	<g>
		<g>
			<g>
				<g>
					<g>
						<g>
							<g>
								<g>
									<g>
										<g>
											<g>
												<path class="st3" d="M1190.43,663.8c-11.5-17.17-27.76-54.63-2.08-166.52c17.05-74.3,29.81-79.12,35.29-81.93              c30.08-15.4,46.39-3.5,54.29,23.53c9.98,34.13-20.05,67.98-43.97,141.48c-16.44,50.51-15.5,93.62-29.4,94.88              C1200.48,675.6,1196.11,672.27,1190.43,663.8z"></path>
											</g>
										</g>
									</g>
								</g>
							</g>
						</g>
					</g>
				</g>
			</g>
		</g>
	</g>
</g>
<g>
	<g>
		<g>
			<g>
				<g>
					<g>
						<g>
							<g>
								<g>
									<g>
										<g>
											<g>
												<path class="st3" d="M1200.52,443.64c14.96-35.79,63.59-62.15,104.37-52.99c40.53,9.1,58.67,50.01,79.81,97.7              c32.45,73.19,66.9,150.86,23.25,203.85c-45.04,54.67-151.18,56.34-187.76,14.31c-30.43-34.96,9.35-74.78-15.52-191.87              C1198.25,484.42,1191.14,466.08,1200.52,443.64z"></path>
											</g>
										</g>
									</g>
								</g>
							</g>
						</g>
					</g>
				</g>
			</g>
		</g>
	</g>
</g>
<g>
	<g>
		<g>
			<g>
				<g>
					<g>
						<g>
							<g>
								<g>
									<g>
										<g>
											<g>
												<path d="M1301.75,737.92c-35.71,0-66.65-11.16-83.1-30.06c-15.47-17.78-13.5-36.5-10.53-64.83              c3.03-28.89,7.19-68.46-5.45-127.96c-1.05-4.95-2.11-9.55-3.14-13.99c-5.22-22.57-8.98-38.87-0.89-58.22v0              c7.41-17.72,23.25-33.9,43.45-44.38c20.85-10.81,43.31-14.3,63.26-9.82c41.53,9.33,59.93,50.82,81.23,98.86              c16.24,36.63,33.04,74.51,40.3,109.92c3.94,19.25,4.74,35.98,2.45,51.15c-2.57,16.98-9.23,32.09-19.79,44.91              c-11.49,13.95-27.81,25.41-47.18,33.12c-17.85,7.1-37.99,11-58.26,11.28C1303.3,737.91,1302.52,737.92,1301.75,737.92z               M1200.52,443.64l1.89,0.79c-7.58,18.13-3.94,33.9,1.11,55.72c1.03,4.46,2.1,9.07,3.16,14.06              c12.77,60.13,8.58,100.07,5.52,129.23c-2.86,27.27-4.75,45.29,9.55,61.72c16.03,18.42,46.8,29.12,82.3,28.64              c19.78-0.27,39.42-4.07,56.8-10.99c18.73-7.46,34.48-18.49,45.54-31.92c10.23-12.42,16.41-26.46,18.9-42.92              c2.22-14.69,1.43-30.95-2.41-49.72c-7.17-34.97-23.87-72.65-40.03-109.08c-20.86-47.03-38.87-87.65-78.39-96.53              c-18.73-4.21-40.77-0.76-60.48,9.46c-19.37,10.04-34.51,25.47-41.56,42.32L1200.52,443.64z"></path>
											</g>
										</g>
									</g>
								</g>
							</g>
						</g>
					</g>
				</g>
			</g>
		</g>
	</g>
</g>
<g>
	<g>
		<g>
			<g>
				<g>
					<g>
						<g>
							<g>
								<g>
									<g>
										<g>
											<g>
												<path class="st3" d="M629.59,543.71c-11.92-43.91,81-61.2,106.78-73.59c26.02-12.51,42.92-35.75,56.06-60.64              c7.28-13.79,11.63-32.21,24.28-42.38c19.96-16.04,38.75,11.05,42.66,28.62c2.64,11.86,1.77,24.24-0.31,36.21              c-12.24,70.37-71.3,139.24-145.5,145.17c-22.71,1.82-63.91-1.88-78.72-22.73C632.23,550.69,630.52,547.14,629.59,543.71              z"></path>
											</g>
										</g>
									</g>
								</g>
							</g>
						</g>
					</g>
				</g>
			</g>
		</g>
	</g>
</g>
<g>
	<g>
		<g>
			<g>
				<g>
					<g>
						<g>
							<g>
								<g>
									<g>
										<g>
											<g>
												<path d="M703.01,579.54c-22.6,0-56.26-4.87-69.84-23.99c-2.68-3.77-4.55-7.57-5.56-11.3              c-2.25-8.31-1.09-16.26,3.45-23.65c3.91-6.36,10.19-12.23,19.18-17.93c15.89-10.09,37.36-17.65,56.24-23.94              c1.43-0.48,2.84-0.94,4.22-1.4c10.31-3.42,19.21-6.37,24.78-9.05c10.81-5.2,20.45-12.43,29.45-22.11              c9.05-9.74,17.46-22.05,25.69-37.64c2.09-3.96,3.92-8.27,5.85-12.84c4.73-11.15,9.61-22.67,18.96-30.18              c6.42-5.16,13.47-6.61,20.38-4.19c7.52,2.64,13.21,9.13,16.66,14.12c4.2,6.07,7.45,13.3,8.9,19.83              c2.35,10.57,2.26,22.33-0.29,37.01c-3.98,22.9-12.98,46.01-26.02,66.84l-3.47-2.17c12.76-20.38,21.56-42.99,25.45-65.37              c2.46-14.13,2.56-25.38,0.33-35.42c-1.34-6.04-4.36-12.74-8.27-18.39c-3.1-4.49-8.16-10.31-14.65-12.58              c-5.58-1.96-11.12-0.78-16.46,3.51c-8.54,6.86-13.22,17.91-17.75,28.59c-1.88,4.44-3.83,9.03-6,13.15              c-8.4,15.91-17.01,28.51-26.31,38.51c-9.36,10.06-19.39,17.59-30.67,23.02c-5.81,2.79-14.82,5.78-25.26,9.25              c-1.38,0.46-2.79,0.92-4.21,1.4c-18.65,6.21-39.84,13.67-55.34,23.51c-17.75,11.27-24.58,23.39-20.87,37.05              c0.89,3.27,2.55,6.63,4.95,10c6.23,8.77,18.39,15.36,35.17,19.06c12.84,2.83,28.43,3.88,41.72,2.82l0.33,4.08              C710.6,579.39,706.98,579.54,703.01,579.54z"></path>
											</g>
										</g>
									</g>
								</g>
							</g>
						</g>
					</g>
				</g>
			</g>
		</g>
	</g>
</g>
<g>
	<g>
		<g>
			<g>
				<g>
					<g>
						<g>
							<g>
								<g>
									<g>
										<g>
											<g>
												<path d="M749.35,571.32l-1.4-3.85c16.7-6.08,32.54-15.46,47.09-27.87l2.66,3.11              C782.77,555.45,766.5,565.07,749.35,571.32z"></path>
											</g>
										</g>
									</g>
								</g>
							</g>
						</g>
					</g>
				</g>
			</g>
		</g>
	</g>
</g>
<g>
	<g>
		<g>
			<g>
				<g>
					<g>
						<g>
							<g>
								<g>
									<g>
										<g>
											<g>
												<path d="M862.35,335.87c-0.04,10.62-6.29,28.45-9.66,33.91c-0.99,1.61-9.52,15.17-18.4,15.36              c-12.97,0.28-17.66-28.17-15.98-49.26c1.21-15.15,6.79-39.95,15.57-43.65c12.38-5.22,17.76,18.1,14.36,31.62              c-1.39,5.51-3.51,10.95-3.55,16.43c0.01-1.69,8.09-10.18,9.42-10.96C859.21,326.34,862.38,328.78,862.35,335.87z"></path>
											</g>
										</g>
									</g>
								</g>
							</g>
						</g>
					</g>
				</g>
			</g>
		</g>
	</g>
</g>
<g>
	<g>
		<g>
			<g>
				<g>
					<g>
						<g>
							<g>
								<g>
									<g>
										<g>
											<g>
												<path class="st3" d="M575.57,520.11c28.98-19.86,78.36-34.41,108.8-12.8c12.78,9.07,17.03,20.83,30.4,72              c32.45,124.2,28.7,136.42,24,145.6c-18.07,35.34-63.63,52.29-100.8,51.2c-73.56-2.15-108.71-74.75-110.4-78.4              C498.22,634.41,523.91,555.52,575.57,520.11z"></path>
											</g>
										</g>
									</g>
								</g>
							</g>
						</g>
					</g>
				</g>
			</g>
		</g>
	</g>
</g>
<g>
	<g>
		<g>
			<g>
				<g>
					<g>
						<g>
							<g>
								<g>
									<g>
										<g>
											<g>
												<path d="M690.78,768.49l-1.54-3.79c15.5-6.3,36.35-18.47,47.72-40.71l0.23-0.44c4.27-8.3,7.35-14.29-24.39-135.74              c-13.75-52.61-17.9-62.54-29.61-70.85c-30.16-21.41-78.74-14.15-106.46,4.84l-2.31-3.38              c14.89-10.2,34.88-16.88,54.86-18.32c21.8-1.57,41.79,3.23,56.28,13.51c13.47,9.56,17.93,22.4,31.2,73.15              c32.13,122.96,28.92,129.2,24.07,138.64l-0.22,0.44C728.66,749.2,706.91,761.93,690.78,768.49z"></path>
											</g>
										</g>
									</g>
								</g>
							</g>
						</g>
					</g>
				</g>
			</g>
		</g>
	</g>
</g>
<g>
	<g>
		<g>
			<g>
				<g>
					<g>
						<g>
							<g>
								<g>
									<g>
										<g>
											<g>
												<path d="M1228.91,339.18c-11.76,10.82-11.05,43.99,4.73,60.52c11.97,12.53,28.48,11.19,35.26,10.64              c17.28-1.4,41.55-11.92,43.27-25.96C1315.18,359.72,1249.13,320.57,1228.91,339.18z"></path>
											</g>
										</g>
									</g>
								</g>
							</g>
						</g>
					</g>
				</g>
			</g>
		</g>
	</g>
</g>
<g>
	<g>
		<g>
			<g>
				<g>
					<g>
						<g>
							<g>
								<g>
									<g>
										<g>
											<g>
												<path class="st4" d="M1210.03,340.36c8.11,16.39,22.94,33.1,40.21,33.28c20.76,0.22,35.39-24.77,40.19-21.18              c4.3,3.21-7.39,23.24-3.02,26.38c3.14,2.26,13.55-10.15,15.71-8.51c2.71,2.05-12.87,21.84-8.83,26.34              c3.7,4.13,25.47-2.87,34.11-18.33c11.12-19.91-1.33-50.63-19.86-66.76c-23.23-20.22-71.1-26.67-96.09-5.65              C1201.32,315.28,1204.32,328.81,1210.03,340.36z"></path>
											</g>
										</g>
									</g>
								</g>
							</g>
						</g>
					</g>
				</g>
			</g>
		</g>
	</g>
</g>
<g>
	<g>
		<g>
			<g>
				<g>
					<g>
						<g>
							<g>
								<g>
									<g>
										<g>
											<g>
												<path class="st3" d="M1255.6,404.11c-0.71,0-1.43-0.03-2.17-0.09c-5.22-0.41-9.37-2.11-9.54-2.18l1.57-3.78              c0.14,0.06,14.52,5.86,21.39-2.88l3.22,2.53C1266.76,401.92,1261.79,404.11,1255.6,404.11z"></path>
											</g>
										</g>
									</g>
								</g>
							</g>
						</g>
					</g>
				</g>
			</g>
		</g>
	</g>
</g>
<g>
	<g>
		<g>
			<g>
				<g>
					<g>
						<g>
							<g>
								<g>
									<g>
										<g>
											<g>
												<path d="M674.26,432.15c14.91,17.66,14.54,44.7,3.04,62.85c-18.49,29.19-85.93,23.28-109.18-1.84              c-17.85-19.28,2.45-39.49,20.98-60C611.22,408.69,653.9,408.04,674.26,432.15z"></path>
											</g>
										</g>
									</g>
								</g>
							</g>
						</g>
					</g>
				</g>
			</g>
		</g>
	</g>
</g>
<g>
	<g>
		<g>
			<g>
				<g>
					<g>
						<g>
							<g>
								<g>
									<g>
										<g>
											<g>
												<path class="st4" d="M655.62,396.18c9.01,1.53,17.76,2.61,25.56,9.83c26.5,24.51-5.15,53.93-32.79,50.45              c-6.45-0.81-10.57-3.4-14.75-0.82c-8.14,5.03-3.34,21.59-9.01,23.76c-5.93,2.28-8.23-16.39-18.85-12.29              c-18.53,7.15,12.83,24.88,6.56,33.04c-6.63,8.62-39.88,2.93-54.08-16.65c-17.38-23.96-13.18-57.74,4.83-80.11              C589.33,370.82,623.21,390.68,655.62,396.18z"></path>
											</g>
										</g>
									</g>
								</g>
							</g>
						</g>
					</g>
				</g>
			</g>
		</g>
	</g>
</g>
<g>
	<g>
		<g>
			<g>
				<g>
					<g>
						<g>
							<g>
								<g>
									<g>
										<g>
											<g>
												<path class="st3" d="M658.24,503.54c-3.65,0-7.68-0.62-11.57-2.48l1.41-2.95c10.04,4.8,21.74,0.02,21.85-0.03l1.27,3.02              C670.86,501.24,665.27,503.54,658.24,503.54z"></path>
											</g>
										</g>
									</g>
								</g>
							</g>
						</g>
					</g>
				</g>
			</g>
		</g>
	</g>
</g>
<g>
	<g>
		<g>
			<g>
				<g>
					<g>
						<g>
							<g>
								<g>
									<g>
										<g>
											<g>
												<path class="st3" d="M624.61,533.06c23.54,13.59,33.39,46.21,29.14,71.88c-7.4,44.71-54.33,48.74-58.28,83.53              c-5.62,49.5,84.62,83.12,75.76,108.79c-6.84,19.8-70.08,8.95-115.97-26.44c-72.05-55.56-70.72-184.98-4.47-229.99              C569.26,528.28,600.97,519.42,624.61,533.06z"></path>
											</g>
										</g>
									</g>
								</g>
							</g>
						</g>
					</g>
				</g>
			</g>
		</g>
	</g>
</g>
<g>
	<g>
		<g>
			<g>
				<g>
					<g>
						<g>
							<g>
								<g>
									<g>
										<g>
											<g>
												<path d="M531.04,749.39c-19.4-25.13-30.71-58.28-31.84-93.33c-0.54-16.81,1.26-33.2,5.37-48.71              c4.22-15.94,10.68-30.2,19.2-42.38l3.35,2.35c-8.25,11.79-14.5,25.61-18.6,41.09c-4.01,15.13-5.77,31.12-5.24,47.53              c1.1,34.2,12.11,66.5,30.99,90.96L531.04,749.39z"></path>
											</g>
										</g>
									</g>
								</g>
							</g>
						</g>
					</g>
				</g>
			</g>
		</g>
	</g>
</g>
<g>
	<g>
		<g>
			<g>
				<g>
					<g>
						<g>
							<g>
								<g>
									<g>
										<g>
											<g>
												<path d="M648.17,809.15c-8.67,0-19.14-1.61-30.81-4.89c-8.13-2.29-16.41-5.28-24.6-8.91l1.66-3.74              c8.01,3.55,16.1,6.48,24.05,8.71c26.59,7.47,47.49,5.94,50.83-3.73l3.87,1.34              C670.61,805.32,661.54,809.15,648.17,809.15z"></path>
											</g>
										</g>
									</g>
								</g>
							</g>
						</g>
					</g>
				</g>
			</g>
		</g>
	</g>
</g>
<g>
	<g>
		<g>
			<g>
				<g>
					<g>
						<g>
							<g>
								<g>
									<g>
										<g>
											<g>
												<path d="M617.73,739.2c-8.41-8.39-14.44-16.11-18.44-23.61c-4.97-9.31-6.88-18.25-5.85-27.34              c1.97-17.33,13.93-27.25,26.58-37.74c4.38-3.63,8.91-7.38,13.09-11.52c10.69-10.57,16.43-21.17,18.62-34.38l4.04,0.67              c-2.34,14.11-8.43,25.4-19.78,36.62c-4.31,4.27-8.91,8.08-13.36,11.76C610.1,664.04,599.28,673,597.5,688.7              c-1.71,15.03,5.64,30.15,23.12,47.6L617.73,739.2z"></path>
											</g>
										</g>
									</g>
								</g>
							</g>
						</g>
					</g>
				</g>
			</g>
		</g>
	</g>
</g>
<g>
	<g>
		<g>
			<g>
				<g>
					<g>
						<g>
							<g>
								<g>
									<g>
										<g>
											<g>
												<path d="M643.5,555.98c-5.04-9.23-11.92-16.54-19.91-21.15c-10.33-5.96-23.3-7.93-37.51-5.69              c-11.96,1.88-24.4,6.76-34.14,13.38l-2.3-3.39c19.82-13.47,52.05-21.67,75.99-7.85c8.64,4.99,16.06,12.85,21.46,22.74              L643.5,555.98z"></path>
											</g>
										</g>
									</g>
								</g>
							</g>
						</g>
					</g>
				</g>
			</g>
		</g>
	</g>
</g>
<g>
	<g>
		<g>
			<g>
				<g>
					<g>
						<g>
							<g>
								<g>
									<g>
										<g>
											<g>
												<path class="st4" d="M501.16,649.61c0,0,19.16-0.52,22.79,23.79s-13.64,32.63-13.64,32.63S501.19,680.59,501.16,649.61z              "></path>
											</g>
										</g>
									</g>
								</g>
							</g>
						</g>
					</g>
				</g>
			</g>
		</g>
	</g>
</g>
<g>
	<g>
		<g>
			<g>
				<g>
					<g>
						<g>
							<g>
								<g>
									<g>
										<g>
											<g>
												<path d="M696.6,775.51c-1.57-6.17-12.48-7-17.45-7.26c-8-0.41-18.07,0.15-23.75,6.46c-5.35,5.93-6.67,15.19-5.07,22.8              c4.16,19.73,27.51,29.71,45.99,28.64c7.92-0.46,15.76-2.02,23.37-4.21c3.66-1.05,7.28-2.26,10.84-3.62              c6.63-2.52,0.92-6.62-2.81-8.46c-7.13-3.51-14.87-4.85-22.33-7.37c-4.73-1.6-17.73-4.83-18.08-11.4              C686.96,784.76,698.04,781.17,696.6,775.51z"></path>
											</g>
										</g>
									</g>
								</g>
							</g>
						</g>
					</g>
				</g>
			</g>
		</g>
	</g>
</g>
<g>
	<g>
		<g>
			<g>
				<g>
					<g>
						<g>
							<g>
								<g>
									<g>
										<g>
											<g>
												<path class="st3" d="M797.08,563.32l-1.45-3.83l0.72,1.91l-0.72-1.91c0.09-0.04,9.41-3.64,21.04-13.25              c10.72-8.86,25.66-24.8,35.96-50.41l3.8,1.53c-10.66,26.5-26.17,42.99-37.3,52.17              C807,559.51,797.48,563.17,797.08,563.32z"></path>
											</g>
										</g>
									</g>
								</g>
							</g>
						</g>
					</g>
				</g>
			</g>
		</g>
	</g>
</g>
<g>
	<g>
		<g>
			<g>
				<g>
					<g>
						<g>
							<g>
								<g>
									<g>
										<g>
											<g>
												<path class="st3" d="M1122.44,329.48c-16.8,2-28.75,17.99-33.42,29.24c-18.35,44.29,33.98,117.52,98.16,144.11              c51.63,21.39,121.36,16.92,158.73-22.97c13.37-14.27,12.91-36.57,4.71-48.78c-13.14-19.56-51.68,21.64-109.14,2.83              C1174.91,412.11,1163.95,324.52,1122.44,329.48z"></path>
											</g>
										</g>
									</g>
								</g>
							</g>
						</g>
					</g>
				</g>
			</g>
		</g>
	</g>
</g>
<g>
	<g>
		<g>
			<g>
				<g>
					<g>
						<g>
							<g>
								<g>
									<g>
										<g>
											<g>
												<path d="M1252.01,517.55c-22.52,0-45.25-4.39-65.61-12.83l1.57-3.78c25.83,10.7,55.55,14.74,83.68,11.36              c14.51-1.74,28.01-5.4,40.11-10.87c12.83-5.8,23.81-13.53,32.66-22.96c5.83-6.23,9.35-14.71,9.89-23.89              c0.5-8.36-1.47-16.51-5.39-22.35c-4.79-7.13-13.52-4.84-29.84,0.18c-19.32,5.94-45.77,14.08-78.24,3.45              c-15.7-5.14-29.72-14.28-42.88-27.96c-11.4-11.85-20.67-25.57-28.86-37.68c-15.46-22.88-27.66-40.94-46.43-38.7              l-0.49-4.06c21.25-2.54,34.71,17.4,50.31,40.48c16.78,24.83,35.79,52.96,69.62,64.04c31.23,10.22,56.96,2.31,75.76-3.48              c15.5-4.77,27.73-8.53,34.44,1.45c8.67,12.9,9.25,36.19-4.91,51.32c-9.21,9.83-20.64,17.87-33.96,23.9              c-12.49,5.64-26.38,9.42-41.31,11.21C1265.5,517.15,1258.76,517.55,1252.01,517.55z"></path>
											</g>
										</g>
									</g>
								</g>
							</g>
						</g>
					</g>
				</g>
			</g>
		</g>
	</g>
</g>
<g>
	<g>
		<g>
			<g>
				<g>
					<g>
						<g>
							<g>
								<g>
									<g>
										<g>
											<g>
												<path class="st1" d="M1354.92,705.07c-0.09,0-0.18-0.01-0.28-0.02c-1.12-0.15-1.9-1.18-1.75-2.3              c0.26-1.93,0.5-3.95,0.69-6.02c0.11-1.12,1.11-1.95,2.23-1.84c1.12,0.11,1.95,1.11,1.84,2.23              c-0.2,2.12-0.44,4.2-0.71,6.18C1356.8,704.33,1355.93,705.07,1354.92,705.07z M1356.58,678.54c0,0-0.01,0-0.01,0              c-1.13-0.01-2.04-0.93-2.04-2.06c0-0.47,0-0.94,0-1.41c0-1.54-0.01-3.11-0.04-4.69c-0.02-1.13,0.88-2.06,2.01-2.08              c1.11-0.02,2.06,0.88,2.08,2.01c0.02,1.6,0.04,3.2,0.04,4.75c0,0.48,0,0.95,0,1.43              C1358.62,677.63,1357.7,678.54,1356.58,678.54z M1355.65,651.94c-1.07,0-1.97-0.83-2.04-1.91              c-0.14-2-0.29-4.05-0.46-6.1c-0.09-1.13,0.75-2.11,1.87-2.21c1.13-0.09,2.11,0.75,2.21,1.87              c0.17,2.06,0.32,4.13,0.46,6.15c0.08,1.13-0.77,2.1-1.9,2.18C1355.75,651.94,1355.7,651.94,1355.65,651.94z               M1353.15,625.43c-1.02,0-1.91-0.77-2.03-1.81c-0.24-2-0.49-4.05-0.74-6.08c-0.14-1.12,0.65-2.15,1.77-2.29              c1.12-0.14,2.15,0.65,2.29,1.77c0.26,2.04,0.51,4.1,0.75,6.11c0.13,1.12-0.67,2.14-1.79,2.27              C1353.31,625.43,1353.23,625.43,1353.15,625.43z M1349.54,599.07c-0.99,0-1.86-0.72-2.02-1.73              c-0.31-2.03-0.63-4.05-0.96-6.06c-0.18-1.12,0.58-2.17,1.69-2.35c1.11-0.18,2.17,0.58,2.35,1.69              c0.33,2.01,0.65,4.04,0.96,6.08c0.17,1.12-0.59,2.16-1.71,2.33C1349.75,599.06,1349.64,599.07,1349.54,599.07z               M1345.08,572.81c-0.97,0-1.83-0.69-2.01-1.68c-0.38-2.04-0.75-4.05-1.13-6.03c-0.21-1.11,0.52-2.18,1.63-2.39              c1.11-0.21,2.18,0.52,2.39,1.63c0.38,1.98,0.76,4,1.14,6.05c0.2,1.11-0.53,2.18-1.64,2.38              C1345.33,572.8,1345.2,572.81,1345.08,572.81z M1339.91,546.68c-0.95,0-1.8-0.66-2-1.62c-0.44-2.08-0.87-4.08-1.28-6              c-0.24-1.1,0.46-2.19,1.57-2.43c1.11-0.24,2.19,0.46,2.43,1.57c0.42,1.92,0.85,3.94,1.29,6.02              c0.23,1.11-0.47,2.19-1.58,2.42C1340.19,546.67,1340.05,546.68,1339.91,546.68z M1334.07,520.67              c-0.92,0-1.76-0.63-1.99-1.57c-0.91-3.8-1.46-5.95-1.47-5.97c-0.28-1.09,0.38-2.21,1.48-2.49              c1.09-0.28,2.21,0.38,2.49,1.48c0.01,0.02,0.56,2.19,1.48,6.03c0.26,1.1-0.41,2.2-1.51,2.47              C1334.39,520.66,1334.23,520.67,1334.07,520.67z"></path>
											</g>
										</g>
									</g>
								</g>
							</g>
						</g>
					</g>
				</g>
			</g>
		</g>
	</g>
</g>
<g>
	<g>
		<g>
			<g>
				<g>
					<g>
						<g>
							<g>
								<g>
									<g>
										<g>
											<g>
												
													<rect x="1093.29" y="407.67" transform="matrix(0.9036 -0.4283 0.4283 0.9036 -72.8604 509.3269)" width="4.09" height="17.78"></rect>
											</g>
										</g>
									</g>
								</g>
							</g>
						</g>
					</g>
				</g>
			</g>
		</g>
	</g>
</g>
<g>
	<g>
		<g>
			<g>
				<g>
					<g>
						<g>
							<g>
								<g>
									<g>
										<g>
											<g>
												<path d="M1195.46,528.17c-14.73-3.98-31.84-13.93-50.86-29.56c-14.1-11.59-24.06-22.18-24.16-22.28l2.99-2.8              c0.39,0.41,39.23,41.54,73.1,50.69L1195.46,528.17z"></path>
											</g>
										</g>
									</g>
								</g>
							</g>
						</g>
					</g>
				</g>
			</g>
		</g>
	</g>
</g>
<g>
	<g>
		<g>
			<g>
				<g>
					<g>
						<g>
							<g>
								<g>
									<g>
										<g>
											<g>
												<path d="M1081.53,312.24c0.04,10.62,6.29,28.45,9.66,33.91c0.99,1.61,9.52,15.17,18.4,15.36              c12.97,0.28,17.66-28.17,15.98-49.26c-1.21-15.15-6.79-39.95-15.57-43.65c-12.38-5.22-17.76,18.1-14.36,31.62              c1.39,5.51,3.51,10.95,3.55,16.43c-0.01-1.69-8.09-10.18-9.42-10.96C1084.66,302.71,1081.5,305.15,1081.53,312.24z"></path>
											</g>
										</g>
									</g>
								</g>
							</g>
						</g>
					</g>
				</g>
			</g>
		</g>
	</g>
</g>
<g>
	<g>
		<g>
			<g>
				<g>
					<g>
						<g>
							<g>
								<g>
									<g>
										<g>
											<g>
												
													<rect x="1216.07" y="683.39" transform="matrix(0.945 -0.327 0.327 0.945 -165.6703 437.4319)" class="st3" width="4.09" height="56.07"></rect>
											</g>
										</g>
									</g>
								</g>
							</g>
						</g>
					</g>
				</g>
			</g>
		</g>
	</g>
</g>
<g>
	<g>
		<g>
			<g>
				<g>
					<g>
						<g>
							<g>
								<g>
									<g>
										<g>
											<g>
												<rect x="1420.6" y="666.63" class="st3" width="4.09" height="75.18"></rect>
											</g>
										</g>
									</g>
								</g>
							</g>
						</g>
					</g>
				</g>
			</g>
		</g>
	</g>
</g>
<g>
	<g>
		<g>
			<g>
				<g>
					<g>
						<g>
							<g>
								<g>
									<g>
										<g>
											<g>
												<path d="M1222.88,512.88l-4.06-0.5c0.06-0.5,1.22-12.73-14.97-22.63c-7.84-4.79-16.38-5.65-25.39-2.55              c-6.86,2.36-11.44,6.25-11.49,6.29l-2.67-3.1c0.21-0.18,5.12-4.37,12.68-7.01c10.12-3.53,20.15-2.53,29,2.88              C1224.54,497.6,1222.96,512.26,1222.88,512.88z"></path>
											</g>
										</g>
									</g>
								</g>
							</g>
						</g>
					</g>
				</g>
			</g>
		</g>
	</g>
</g>
<g>
	<g>
		<g>
			<g>
				<g>
					<g>
						<g>
							<g>
								<g>
									<g>
										<g>
											<g>
												<rect x="736.73" y="724.92" class="st3" width="4.09" height="63.87"></rect>
											</g>
										</g>
									</g>
								</g>
							</g>
						</g>
					</g>
				</g>
			</g>
		</g>
	</g>
</g>
<g>
	<g>
		<g>
			<g>
				<g>
					<g>
						<g>
							<g>
								<g>
									<g>
										<g>
											<g>
												<path class="st3" d="M708.84,805.71c-2.28-0.46-22.31-4.73-23.57-14.34c-0.73-5.59,3.04-8.47,5.8-10.57              c2.72-2.07,3.8-3.1,3.5-4.97c-0.5-3.14-5.51-5.22-14.13-5.84c-7.22-0.53-14.34,0.2-14.41,0.2l-0.42-4.07              c0.3-0.03,7.55-0.76,15.13-0.21c11.01,0.8,17.02,3.92,17.87,9.29c0.71,4.47-2.49,6.9-5.07,8.86              c-2.88,2.19-4.62,3.69-4.22,6.78c0.34,2.62,3.91,5.39,10.06,7.81c5.12,2.01,10.21,3.05,10.26,3.06L708.84,805.71z"></path>
											</g>
										</g>
									</g>
								</g>
							</g>
						</g>
					</g>
				</g>
			</g>
		</g>
	</g>
</g>
<g>
	<g>
		<g>
			<g>
				<g>
					<g>
						<g>
							<g>
								<g>
									<g>
										<g>
											<g>
												
													<rect x="850.4" y="477.12" transform="matrix(0.2459 -0.9693 0.9693 0.2459 184.0865 1194.9404)" class="st3" width="19.19" height="4.09"></rect>
											</g>
										</g>
									</g>
								</g>
							</g>
						</g>
					</g>
				</g>
			</g>
		</g>
	</g>
</g>
<g>
	<g>
		<g>
			<g>
				<g>
					<g>
						<g>
							<g>
								<g>
									<g>
										<g>
											<g>
												<polygon class="st0" points="584.48,589.58 577.62,589.58 577.62,582.72 573.53,582.72 573.53,589.58 566.67,589.58               566.67,593.68 573.53,593.68 573.53,600.54 577.62,600.54 577.62,593.68 584.48,593.68             "></polygon>
											</g>
										</g>
									</g>
								</g>
							</g>
						</g>
					</g>
				</g>
			</g>
		</g>
	</g>
</g>
<g>
	<g>
		<g>
			<g>
				<g>
					<g>
						<g>
							<g>
								<g>
									<g>
										<g>
											<g>
												<polygon class="st0" points="633.39,576.18 626.53,576.18 626.53,569.32 622.43,569.32 622.43,576.18 615.57,576.18               615.57,580.27 622.43,580.27 622.43,587.14 626.53,587.14 626.53,580.27 633.39,580.27             "></polygon>
											</g>
										</g>
									</g>
								</g>
							</g>
						</g>
					</g>
				</g>
			</g>
		</g>
	</g>
</g>
<g>
	<g>
		<g>
			<g>
				<g>
					<g>
						<g>
							<g>
								<g>
									<g>
										<g>
											<g>
												<polygon class="st0" points="602.5,553.55 595.64,553.55 595.64,546.68 591.54,546.68 591.54,553.55 584.68,553.55               584.68,557.64 591.54,557.64 591.54,564.5 595.64,564.5 595.64,557.64 602.5,557.64             "></polygon>
											</g>
										</g>
									</g>
								</g>
							</g>
						</g>
					</g>
				</g>
			</g>
		</g>
	</g>
</g>
<g>
	<g>
		<g>
			<g>
				<g>
					<g>
						<g>
							<g>
								<g>
									<g>
										<g>
											<g>
												<polygon class="st0" points="550.48,580.68 543.62,580.68 543.62,573.81 539.53,573.81 539.53,580.68 532.66,580.68               532.66,584.77 539.53,584.77 539.53,591.63 543.62,591.63 543.62,584.77 550.48,584.77             "></polygon>
											</g>
										</g>
									</g>
								</g>
							</g>
						</g>
					</g>
				</g>
			</g>
		</g>
	</g>
</g>
<g>
	<g>
		<g>
			<g>
				<g>
					<g>
						<g>
							<g>
								<g>
									<g>
										<g>
											<g>
												<polygon class="st0" points="571.1,627.31 564.24,627.31 564.24,620.45 560.15,620.45 560.15,627.31 553.28,627.31               553.28,631.4 560.15,631.4 560.15,638.26 564.24,638.26 564.24,631.4 571.1,631.4             "></polygon>
											</g>
										</g>
									</g>
								</g>
							</g>
						</g>
					</g>
				</g>
			</g>
		</g>
	</g>
</g>
<g>
	<g>
		<g>
			<g>
				<g>
					<g>
						<g>
							<g>
								<g>
									<g>
										<g>
											<g>
												<polygon class="st0" points="624.48,618.4 617.62,618.4 617.62,611.54 613.52,611.54 613.52,618.4 606.66,618.4               606.66,622.49 613.52,622.49 613.52,629.36 617.62,629.36 617.62,622.49 624.48,622.49             "></polygon>
											</g>
										</g>
									</g>
								</g>
							</g>
						</g>
					</g>
				</g>
			</g>
		</g>
	</g>
</g>
<g>
	<g>
		<g>
			<g>
				<g>
					<g>
						<g>
							<g>
								<g>
									<g>
										<g>
											<g>
												<polygon class="st0" points="572.85,683.88 565.98,683.88 565.98,677.02 561.89,677.02 561.89,683.88 555.03,683.88               555.03,687.97 561.89,687.97 561.89,694.83 565.98,694.83 565.98,687.97 572.85,687.97             "></polygon>
											</g>
										</g>
									</g>
								</g>
							</g>
						</g>
					</g>
				</g>
			</g>
		</g>
	</g>
</g>
<g>
	<g>
		<g>
			<g>
				<g>
					<g>
						<g>
							<g>
								<g>
									<g>
										<g>
											<g>
												<polygon class="st0" points="559.39,733.82 552.53,733.82 552.53,726.96 548.43,726.96 548.43,733.82 541.57,733.82               541.57,737.92 548.43,737.92 548.43,744.78 552.53,744.78 552.53,737.92 559.39,737.92             "></polygon>
											</g>
										</g>
									</g>
								</g>
							</g>
						</g>
					</g>
				</g>
			</g>
		</g>
	</g>
</g>
<g>
	<g>
		<g>
			<g>
				<g>
					<g>
						<g>
							<g>
								<g>
									<g>
										<g>
											<g>
												<polygon class="st0" points="606.95,756.56 600.08,756.56 600.08,749.69 595.99,749.69 595.99,756.56 589.13,756.56               589.13,760.65 595.99,760.65 595.99,767.51 600.08,767.51 600.08,760.65 606.95,760.65             "></polygon>
											</g>
										</g>
									</g>
								</g>
							</g>
						</g>
					</g>
				</g>
			</g>
		</g>
	</g>
</g>
<g>
	<g>
		<g>
			<g>
				<g>
					<g>
						<g>
							<g>
								<g>
									<g>
										<g>
											<g>
												<polygon class="st0" points="525.82,627.31 518.95,627.31 518.95,620.45 514.86,620.45 514.86,627.31 508,627.31               508,631.4 514.86,631.4 514.86,638.26 518.95,638.26 518.95,631.4 525.82,631.4             "></polygon>
											</g>
										</g>
									</g>
								</g>
							</g>
						</g>
					</g>
				</g>
			</g>
		</g>
	</g>
</g>
<g>
	<g>
		<g>
			<g>
				<g>
					<g>
						<g>
							<g>
								<g>
									<g>
										<g>
											<g>
												<polygon class="st0" points="727.06,510.59 720.2,510.59 720.2,503.72 716.1,503.72 716.1,510.59 709.24,510.59               709.24,514.68 716.1,514.68 716.1,521.54 720.2,521.54 720.2,514.68 727.06,514.68             "></polygon>
											</g>
										</g>
									</g>
								</g>
							</g>
						</g>
					</g>
				</g>
			</g>
		</g>
	</g>
</g>
<g>
	<g>
		<g>
			<g>
				<g>
					<g>
						<g>
							<g>
								<g>
									<g>
										<g>
											<g>
												<polygon class="st0" points="757.55,538.55 750.69,538.55 750.69,531.69 746.6,531.69 746.6,538.55 739.74,538.55               739.74,542.65 746.6,542.65 746.6,549.51 750.69,549.51 750.69,542.65 757.55,542.65             "></polygon>
											</g>
										</g>
									</g>
								</g>
							</g>
						</g>
					</g>
				</g>
			</g>
		</g>
	</g>
</g>
<g>
	<g>
		<g>
			<g>
				<g>
					<g>
						<g>
							<g>
								<g>
									<g>
										<g>
											<g>
												<polygon class="st0" points="775.37,499.81 768.51,499.81 768.51,492.95 764.42,492.95 764.42,499.81 757.55,499.81               757.55,503.91 764.42,503.91 764.42,510.77 768.51,510.77 768.51,503.91 775.37,503.91             "></polygon>
											</g>
										</g>
									</g>
								</g>
							</g>
						</g>
					</g>
				</g>
			</g>
		</g>
	</g>
</g>
<g>
	<g>
		<g>
			<g>
				<g>
					<g>
						<g>
							<g>
								<g>
									<g>
										<g>
											<g>
												<polygon class="st0" points="814.18,491.26 807.31,491.26 807.31,484.4 803.22,484.4 803.22,491.26 796.36,491.26               796.36,495.35 803.22,495.35 803.22,502.21 807.31,502.21 807.31,495.35 814.18,495.35             "></polygon>
											</g>
										</g>
									</g>
								</g>
							</g>
						</g>
					</g>
				</g>
			</g>
		</g>
	</g>
</g>
<g>
	<g>
		<g>
			<g>
				<g>
					<g>
						<g>
							<g>
								<g>
									<g>
										<g>
											<g>
												<polygon class="st0" points="808.97,455.02 802.11,455.02 802.11,448.16 798.02,448.16 798.02,455.02 791.15,455.02               791.15,459.11 798.02,459.11 798.02,465.97 802.11,465.97 802.11,459.11 808.97,459.11             "></polygon>
											</g>
										</g>
									</g>
								</g>
							</g>
						</g>
					</g>
				</g>
			</g>
		</g>
	</g>
</g>
<g>
	<g>
		<g>
			<g>
				<g>
					<g>
						<g>
							<g>
								<g>
									<g>
										<g>
											<g>
												<polygon class="st0" points="843.26,422.55 836.4,422.55 836.4,415.69 832.31,415.69 832.31,422.55 825.45,422.55               825.45,426.65 832.31,426.65 832.31,433.51 836.4,433.51 836.4,426.65 843.26,426.65             "></polygon>
											</g>
										</g>
									</g>
								</g>
							</g>
						</g>
					</g>
				</g>
			</g>
		</g>
	</g>
</g>
<g>
	<g>
		<g>
			<g>
				<g>
					<g>
						<g>
							<g>
								<g>
									<g>
										<g>
											<g>
												<g>
													<g>
														<path d="M313.69,530.5l34.23,113.05c0,0,34.09,17.61,72.28,0L464.5,530.5"></path>
													</g>
												</g>
											</g>
										</g>
									</g>
								</g>
							</g>
						</g>
					</g>
				</g>
			</g>
		</g>
		<g>
			<g>
				<g>
					<g>
						<g>
							<g>
								<g>
									<g>
										<g>
											<g>
												<g>
													<g>
														<ellipse class="st0" cx="389.1" cy="530.5" rx="75.41" ry="16.43"></ellipse>
													</g>
												</g>
											</g>
										</g>
									</g>
								</g>
							</g>
						</g>
					</g>
				</g>
			</g>
		</g>
	</g>
	<g>
		<g>
			<g>
				<g>
					<g>
						<g>
							<g>
								<g>
									<g>
										<g>
											<g>
												<g>
													<path d="M422.43,226.53c0,0-7.48,5.13-16.03,16.35c-4.65,6.11-9.63,14.02-13.88,23.88               c-2.56,5.92-4.85,12.55-6.67,19.91c-1.58,6.42-2.8,13.39-3.51,20.95c-0.78,8.35-0.94,17.42-0.27,27.23               c0.32,4.73,0.79,9.41,1.38,14.02c1.78,13.98,4.62,27.41,7.56,40.09c1.13,4.85,2.27,9.59,3.37,14.22               c1.28,5.38,2.51,10.6,3.61,15.64c3.37,15.55,5.43,29.4,3.69,41.07c0,0,59.45-49.9,63.66-102.33               c1.03-12.87,0.86-24.67-0.19-35.47c-0.63-6.43-1.56-12.5-2.74-18.22C452.85,257.67,427.48,234.03,422.43,226.53z"></path>
												</g>
											</g>
										</g>
									</g>
								</g>
							</g>
						</g>
					</g>
				</g>
			</g>
		</g>
	</g>
	<g>
		<g>
			<g>
				<g>
					<g>
						<g>
							<g>
								<g>
									<g>
										<g>
											<g>
												<g>
													<path d="M332.72,319.18c0,0-58.58,63.78-20.92,135.75s37.66,71.97,37.66,71.97s15.06-28.45,25.11-71.97               C384.6,411.41,359.5,370.05,332.72,319.18z"></path>
												</g>
											</g>
										</g>
									</g>
								</g>
							</g>
						</g>
					</g>
				</g>
			</g>
		</g>
	</g>
	<g>
		<g>
			<g>
				<g>
					<g>
						<g>
							<g>
								<g>
									<g>
										<g>
											<g>
												<g>
													<path class="st3" d="M320.8,476.55l-10.81-20.67c-5.14-9.83-8.79-20.06-10.83-30.43l4.01-0.79               c1.97,9.98,5.49,19.85,10.45,29.33l10.81,20.67L320.8,476.55z"></path>
												</g>
											</g>
										</g>
									</g>
								</g>
							</g>
						</g>
					</g>
				</g>
			</g>
		</g>
	</g>
	<g>
		<g>
			<g>
				<g>
					<g>
						<g>
							<g>
								<g>
									<g>
										<g>
											<g>
												<g>
													<path class="st3" d="M360.98,379.39c-6.45-14.8-14.62-30.17-23.28-46.44c-1.76-3.31-3.57-6.72-5.39-10.15               c-3.01,3.67-9.13,11.66-15.11,22.72l-3.6-1.95c8.58-15.89,17.24-25.39,17.61-25.78c0.45-0.49,1.11-0.73,1.77-0.65               c0.66,0.09,1.24,0.49,1.55,1.08c2.28,4.33,4.57,8.64,6.79,12.81c8.7,16.34,16.91,31.77,23.42,46.72L360.98,379.39z"></path>
												</g>
											</g>
										</g>
									</g>
								</g>
							</g>
						</g>
					</g>
				</g>
			</g>
		</g>
	</g>
	<g>
		<g>
			<g>
				<g>
					<g>
						<g>
							<g>
								<g>
									<g>
										<g>
											<g>
												<g>
													<path class="st3" d="M351.26,527.86l-3.62-1.91c0.04-0.07,3.8-7.21,8.72-19.54c4.55-11.37,11.05-29.61,16.2-51.93               c3.14-13.6,2.93-27.73-0.64-43.21c-0.89-3.88-2.03-7.95-3.36-12.09l3.89-1.26c1.37,4.25,2.53,8.43,3.45,12.42               c3.71,16.1,3.92,30.83,0.64,45.05c-5.22,22.61-11.8,41.08-16.41,52.6C355.14,520.5,351.42,527.56,351.26,527.86z"></path>
												</g>
											</g>
										</g>
									</g>
								</g>
							</g>
						</g>
					</g>
				</g>
			</g>
		</g>
	</g>
	<g>
		<g>
			<g>
				<g>
					<g>
						<g>
							<g>
								<g>
									<g>
										<g>
											<g>
												<g>
													<path class="st3" d="M351.5,526.99l-4.09-0.19c0.04-0.77,3.39-77.44-9.63-113.43c-1.66-4.58-2.95-9.11-3.83-13.48               c-2.21-10.92-4.63-27.16-3.56-42.47l4.08,0.28c-1.04,14.86,1.32,30.7,3.49,41.38c0.85,4.17,2.08,8.52,3.67,12.9               c5.6,15.46,8.96,39.53,9.99,71.54C352.38,507.28,351.51,526.8,351.5,526.99z"></path>
												</g>
											</g>
										</g>
									</g>
								</g>
							</g>
						</g>
					</g>
				</g>
			</g>
		</g>
	</g>
	<g>
		<g>
			<g>
				<g>
					<g>
						<g>
							<g>
								<g>
									<g>
										<g>
											<g>
												<g>
													
														<rect x="330.49" y="416.54" transform="matrix(0.1332 -0.9911 0.9911 0.1332 -113.535 707.3617)" class="st3" width="34.23" height="4.09"></rect>
												</g>
											</g>
										</g>
									</g>
								</g>
							</g>
						</g>
					</g>
				</g>
			</g>
		</g>
	</g>
	<g>
		<g>
			<g>
				<g>
					<g>
						<g>
							<g>
								<g>
									<g>
										<g>
											<g>
												<g>
													
														<rect x="334.28" y="419.28" transform="matrix(0.7859 -0.6183 0.6183 0.7859 -198.3872 301.5659)" class="st3" width="4.09" height="36.03"></rect>
												</g>
											</g>
										</g>
									</g>
								</g>
							</g>
						</g>
					</g>
				</g>
			</g>
		</g>
	</g>
	<g>
		<g>
			<g>
				<g>
					<g>
						<g>
							<g>
								<g>
									<g>
										<g>
											<g>
												<g>
													
														<rect x="340.29" y="457.85" transform="matrix(0.3787 -0.9255 0.9255 0.3787 -204.6262 614.9553)" class="st3" width="30.9" height="4.09"></rect>
												</g>
											</g>
										</g>
									</g>
								</g>
							</g>
						</g>
					</g>
				</g>
			</g>
		</g>
	</g>
	<g>
		<g>
			<g>
				<g>
					<g>
						<g>
							<g>
								<g>
									<g>
										<g>
											<g>
												<g>
													
														<rect x="324.05" y="370.44" transform="matrix(0.7116 -0.7026 0.7026 0.7116 -174.4638 339.3491)" class="st3" width="4.09" height="23.47"></rect>
												</g>
											</g>
										</g>
									</g>
								</g>
							</g>
						</g>
					</g>
				</g>
			</g>
		</g>
	</g>
	<g>
		<g>
			<g>
				<g>
					<g>
						<g>
							<g>
								<g>
									<g>
										<g>
											<g>
												<g>
													<path d="M509.88,401.68c0,0,12.3,61.88-38.4,92.4s-50.69,30.52-50.69,30.52s1.4-23.41,11.64-54.3               C442.66,439.43,473.95,423.19,509.88,401.68z"></path>
												</g>
											</g>
										</g>
									</g>
								</g>
							</g>
						</g>
					</g>
				</g>
			</g>
		</g>
	</g>
	<g>
		<g>
			<g>
				<g>
					<g>
						<g>
							<g>
								<g>
									<g>
										<g>
											<g>
												<g>
													<path class="st3" d="M457.98,504.6l-2.11-3.51l14.56-8.77c6.63-3.99,12.51-8.77,17.49-14.19l3.02,2.76               c-5.24,5.72-11.43,10.74-18.39,14.93L457.98,504.6z"></path>
												</g>
											</g>
										</g>
									</g>
								</g>
							</g>
						</g>
					</g>
				</g>
			</g>
		</g>
	</g>
	<g>
		<g>
			<g>
				<g>
					<g>
						<g>
							<g>
								<g>
									<g>
										<g>
											<g>
												<g>
													<path class="st3" d="M469.8,428.9l-2.36-3.35c9.73-6.85,20.7-13.35,32.31-20.23c2.98-1.77,6.01-3.56,9.07-5.4               c0.57-0.34,1.27-0.38,1.88-0.11c0.61,0.27,1.05,0.82,1.18,1.47c0.08,0.39,1.88,9.64,1.2,22.85l-4.09-0.21               c0.43-8.42-0.2-15.26-0.68-18.93c-2.18,1.3-4.34,2.58-6.48,3.85C490.31,415.68,479.41,422.14,469.8,428.9z"></path>
												</g>
											</g>
										</g>
									</g>
								</g>
							</g>
						</g>
					</g>
				</g>
			</g>
		</g>
	</g>
	<g>
		<g>
			<g>
				<g>
					<g>
						<g>
							<g>
								<g>
									<g>
										<g>
											<g>
												<g>
													<path class="st3" d="M422.83,524.73l-4.09-0.25c0.01-0.24,0.38-6.07,2.01-15.78c1.5-8.93,4.4-22.96,9.73-39.03               c3.37-10.17,9.12-19.33,17.59-28.01c2.1-2.15,4.42-4.32,6.89-6.46l2.67,3.1c-2.39,2.06-4.62,4.15-6.63,6.21               c-8.02,8.22-13.46,16.87-16.63,26.43c-5.23,15.8-8.09,29.57-9.57,38.35C423.2,518.82,422.84,524.67,422.83,524.73z"></path>
												</g>
											</g>
										</g>
									</g>
								</g>
							</g>
						</g>
					</g>
				</g>
			</g>
		</g>
	</g>
	<g>
		<g>
			<g>
				<g>
					<g>
						<g>
							<g>
								<g>
									<g>
										<g>
											<g>
												<g>
													<path class="st3" d="M422.59,525.59l-3.59-1.96c1.11-2.04,27.56-50.1,49.84-68c2.63-2.11,5.02-4.33,7.11-6.58               c5.37-5.8,12.8-14.72,17.76-24.31l3.64,1.88c-5.17,9.99-12.85,19.22-18.39,25.21c-2.22,2.4-4.77,4.76-7.55,7               c-8.92,7.16-20.17,20.96-32.55,39.89C429.45,513.09,422.65,525.47,422.59,525.59z"></path>
												</g>
											</g>
										</g>
									</g>
								</g>
							</g>
						</g>
					</g>
				</g>
			</g>
		</g>
	</g>
	<g>
		<g>
			<g>
				<g>
					<g>
						<g>
							<g>
								<g>
									<g>
										<g>
											<g>
												<g>
													
														<rect x="450.49" y="455.85" transform="matrix(0.4016 -0.9158 0.9158 0.4016 -142.3016 698.0297)" class="st3" width="24.94" height="4.09"></rect>
												</g>
											</g>
										</g>
									</g>
								</g>
							</g>
						</g>
					</g>
				</g>
			</g>
		</g>
	</g>
	<g>
		<g>
			<g>
				<g>
					<g>
						<g>
							<g>
								<g>
									<g>
										<g>
											<g>
												<g>
													
														<rect x="449.78" y="471.77" transform="matrix(0.9368 -0.3499 0.3499 0.9368 -136.5267 191.9208)" class="st3" width="26.25" height="4.09"></rect>
												</g>
											</g>
										</g>
									</g>
								</g>
							</g>
						</g>
					</g>
				</g>
			</g>
		</g>
	</g>
	<g>
		<g>
			<g>
				<g>
					<g>
						<g>
							<g>
								<g>
									<g>
										<g>
											<g>
												<g>
													
														<rect x="431" y="478.48" transform="matrix(0.1577 -0.9875 0.9875 0.1577 -101.9916 841.4863)" class="st3" width="22.51" height="4.09"></rect>
												</g>
											</g>
										</g>
									</g>
								</g>
							</g>
						</g>
					</g>
				</g>
			</g>
		</g>
	</g>
	<g>
		<g>
			<g>
				<g>
					<g>
						<g>
							<g>
								<g>
									<g>
										<g>
											<g>
												<g>
													
														<rect x="481.6" y="441.34" transform="matrix(0.9701 -0.2426 0.2426 0.9701 -92.9159 132.1398)" class="st3" width="17.09" height="4.09"></rect>
												</g>
											</g>
										</g>
									</g>
								</g>
							</g>
						</g>
					</g>
				</g>
			</g>
		</g>
	</g>
	<g>
		<g>
			<g>
				<g>
					<g>
						<g>
							<g>
								<g>
									<g>
										<g>
											<g>
												<g>
													<path class="st3" d="M452.31,277.42c-8.92-22.16-20.93-36.65-27.38-44.43c-1.13-1.36-2.11-2.55-2.91-3.57               c-3.74,3.02-13.54,11.81-22.22,27.24l-3.57-2.01c11.45-20.34,24.49-29.43,25.04-29.81c0.45-0.31,1.01-0.42,1.54-0.32               c0.54,0.1,1.01,0.41,1.31,0.87c0.79,1.17,2.19,2.86,3.96,4.99c6.59,7.96,18.87,22.77,28.03,45.52L452.31,277.42z"></path>
												</g>
											</g>
										</g>
									</g>
								</g>
							</g>
						</g>
					</g>
				</g>
			</g>
		</g>
	</g>
	<g>
		<g>
			<g>
				<g>
					<g>
						<g>
							<g>
								<g>
									<g>
										<g>
											<g>
												<g>
													<path class="st3" d="M401.67,461.94c-0.34,0-0.69-0.09-1-0.26c-0.74-0.42-1.15-1.25-1.02-2.09               c1.14-7.66,0.68-16.91-1.44-29.08l4.03-0.7c1.74,9.98,2.4,18.1,2,25.07c5.4-4.95,15.7-14.91,26.15-27.84               c25.07-31.02,31.73-55,32.91-69.64c1.82-22.67-0.01-44.08-5.44-63.63l3.94-1.09c5.56,20.02,7.43,41.91,5.57,65.06               c-0.98,12.23-5,25.31-11.94,38.88c-5.52,10.79-12.89,21.92-21.92,33.07c-15.34,18.96-30.38,31.66-30.53,31.79               C402.6,461.78,402.14,461.94,401.67,461.94z"></path>
												</g>
											</g>
										</g>
									</g>
								</g>
							</g>
						</g>
					</g>
				</g>
			</g>
		</g>
	</g>
	<g>
		<g>
			<g>
				<g>
					<g>
						<g>
							<g>
								<g>
									<g>
										<g>
											<g>
												<g>
													<path class="st3" d="M395.97,419.25c-1.14-5.24-2.45-10.8-3.6-15.6l3.98-0.95c1.15,4.82,2.47,10.4,3.61,15.68               L395.97,419.25z"></path>
												</g>
											</g>
										</g>
									</g>
								</g>
							</g>
						</g>
					</g>
				</g>
			</g>
		</g>
	</g>
	<g>
		<g>
			<g>
				<g>
					<g>
						<g>
							<g>
								<g>
									<g>
										<g>
											<g>
												<g>
													<path class="st3" d="M380.01,334.99c-1.48-21.74,0.93-41.95,7.15-60.07l3.87,1.33c-6.04,17.6-8.38,37.27-6.94,58.46               L380.01,334.99z"></path>
												</g>
											</g>
										</g>
									</g>
								</g>
							</g>
						</g>
					</g>
				</g>
			</g>
		</g>
	</g>
	<g>
		<g>
			<g>
				<g>
					<g>
						<g>
							<g>
								<g>
									<g>
										<g>
											<g>
												<g>
													<path class="st3" d="M403.48,460.85l-3.62-1.9c0.26-0.5,26.4-50.7,25.85-85.09c-0.26-16.36-2.29-35.86-4.26-54.71               c-2.27-21.79-4.24-40.61-3.01-50.43l4.06,0.51c-1.17,9.35,0.87,28.85,3.02,49.5c1.98,18.94,4.02,38.53,4.28,55.07               c0.24,14.91-4.13,34.11-12.97,57.05C410.27,447.86,403.54,460.72,403.48,460.85z"></path>
												</g>
											</g>
										</g>
									</g>
								</g>
							</g>
						</g>
					</g>
				</g>
			</g>
		</g>
	</g>
	<g>
		<g>
			<g>
				<g>
					<g>
						<g>
							<g>
								<g>
									<g>
										<g>
											<g>
												<g>
													<path class="st3" d="M417.12,419.16c-0.35-1.19-8.51-29.28-8.51-36.99h4.09c0,5.92,6.03,27.88,8.35,35.84               L417.12,419.16z"></path>
												</g>
											</g>
										</g>
									</g>
								</g>
							</g>
						</g>
					</g>
				</g>
			</g>
		</g>
	</g>
	<g>
		<g>
			<g>
				<g>
					<g>
						<g>
							<g>
								<g>
									<g>
										<g>
											<g>
												<g>
													<path class="st3" d="M428.62,387.28l-3.22-2.53c0.16-0.2,16.07-20.57,17.27-36.03l4.08,0.32               c-0.55,7.06-3.78,15.66-9.6,25.55C432.87,381.87,428.79,387.06,428.62,387.28z"></path>
												</g>
											</g>
										</g>
									</g>
								</g>
							</g>
						</g>
					</g>
				</g>
			</g>
		</g>
	</g>
	<g>
		<g>
			<g>
				<g>
					<g>
						<g>
							<g>
								<g>
									<g>
										<g>
											<g>
												<g>
													<path class="st3" d="M424.03,344.06c-0.57-1.2-11.39-20.23-18.52-32.72l3.55-2.03c3.02,5.3,18.13,31.79,18.7,33.08               l-1.87,0.83L424.03,344.06z"></path>
												</g>
											</g>
										</g>
									</g>
								</g>
							</g>
						</g>
					</g>
				</g>
			</g>
		</g>
	</g>
</g>
</svg>
