<?xml version="1.0" encoding="UTF-8"?>
<!-- Generator: Adobe Illustrator 24.0.3, SVG Export Plug-In . SVG Version: 6.00 Build 0)  -->
<svg width="1510px" height="849px" xmlns="http://www.w3.org/2000/svg" xmlns:xlink="http://www.w3.org/1999/xlink" version="1.1" id="Calque_1" x="0px" y="0px" viewBox="0 0 1920 1080" style="enable-background:new 0 0 1920 1080;" xml:space="preserve">
<style type="text/css">
	.st0{fill:#D6C94D;}
	.st1{fill:#070707;}
	.st2{fill:#FFF173;}
	.st3{fill:#FFFFFF;}
	.st4{fill:#E2DA74;}
	.st5{fill:none;stroke:#000000;stroke-width:10;stroke-miterlimit:10;}
</style>
<g>
	<g>
		<g>
			<g>
				<g>
					<g>
						<g>
							<g>
								<g>
									<path class="st0" d="M920.17,362.94C764.84,331.26,577.2,419.46,545.22,563.5C512.11,712.66,664.5,838.08,684.74,854.74           c130.33,107.27,358.37,155.54,460.41,45.34c75.89-81.95,47.6-214.32,40.11-249.39           C1161.51,539.58,1076.07,394.74,920.17,362.94z"></path>
								</g>
							</g>
						</g>
					</g>
				</g>
			</g>
		</g>
	</g>
</g>
<g>
	<g>
		<g>
			<g>
				<g>
					<g>
						<g>
							<g>
								<g>
									<path class="st1" d="M957.13,983.98c-1.13,0-2.06-0.92-2.07-2.05c-0.01-1.14,0.91-2.07,2.05-2.08           c2.05-0.01,4.11-0.05,6.15-0.1c1.14-0.02,2.09,0.87,2.12,2.01s-0.87,2.09-2.01,2.12c-2.06,0.05-4.15,0.09-6.22,0.1           C957.14,983.98,957.14,983.98,957.13,983.98z M936.52,983.53c-0.03,0-0.07,0-0.1,0c-2.06-0.1-4.15-0.22-6.21-0.36           c-1.14-0.08-2-1.06-1.93-2.2c0.08-1.14,1.06-2,2.2-1.93c2.03,0.13,4.1,0.25,6.14,0.36c1.14,0.06,2.02,1.03,1.96,2.17           C938.53,982.68,937.62,983.53,936.52,983.53z M983.89,982.72c-1.06,0-1.96-0.81-2.06-1.88c-0.1-1.14,0.74-2.14,1.87-2.24           c2.04-0.18,4.09-0.39,6.11-0.61c1.14-0.12,2.16,0.69,2.28,1.83c0.13,1.13-0.69,2.16-1.83,2.28           c-2.05,0.23-4.13,0.43-6.2,0.62C984.01,982.71,983.95,982.72,983.89,982.72z M909.82,981.29c-0.08,0-0.16,0-0.24-0.01           c-2.05-0.24-4.13-0.5-6.17-0.77c-1.13-0.15-1.93-1.19-1.78-2.32s1.19-1.93,2.32-1.78c2.02,0.27,4.07,0.52,6.11,0.76           c1.13,0.13,1.94,1.16,1.81,2.29C911.75,980.51,910.86,981.29,909.82,981.29z M1010.44,979.11c-0.98,0-1.85-0.7-2.03-1.69           c-0.21-1.12,0.53-2.2,1.66-2.41c2.02-0.37,4.05-0.77,6.02-1.18c1.12-0.23,2.21,0.48,2.45,1.6c0.23,1.12-0.48,2.21-1.6,2.45           c-2.01,0.42-4.06,0.82-6.12,1.2C1010.69,979.1,1010.56,979.11,1010.44,979.11z M883.32,977.33c-0.12,0-0.25-0.01-0.37-0.03           c-2.02-0.36-4.07-0.75-6.11-1.15c-1.12-0.22-1.85-1.3-1.63-2.42c0.22-1.12,1.3-1.85,2.42-1.63           c2.02,0.39,4.05,0.77,6.05,1.14c1.12,0.2,1.87,1.28,1.67,2.4C885.17,976.63,884.3,977.33,883.32,977.33z M1036.49,972.87           c-0.89,0-1.71-0.58-1.98-1.48c-0.33-1.09,0.3-2.24,1.39-2.57c1.97-0.59,3.94-1.2,5.85-1.83c1.08-0.36,2.25,0.23,2.61,1.32           c0.36,1.08-0.23,2.25-1.32,2.61c-1.95,0.64-3.95,1.27-5.95,1.86C1036.88,972.85,1036.68,972.87,1036.49,972.87z            M857.09,971.8c-0.16,0-0.32-0.02-0.48-0.06c-2-0.48-4.04-0.99-6.05-1.5c-1.11-0.28-1.77-1.41-1.49-2.51           c0.28-1.11,1.41-1.78,2.51-1.49c1.99,0.51,4.01,1.01,6,1.48c1.11,0.27,1.79,1.38,1.53,2.49           C858.87,971.16,858.03,971.8,857.09,971.8z M831.2,964.81c-0.2,0-0.4-0.03-0.59-0.09c-1.99-0.6-3.99-1.21-5.95-1.82           c-1.09-0.34-1.7-1.5-1.36-2.59c0.34-1.09,1.5-1.7,2.59-1.36c1.94,0.61,3.93,1.21,5.9,1.8c1.09,0.33,1.71,1.48,1.39,2.57           C832.91,964.23,832.09,964.81,831.2,964.81z M1061.65,963.69c-0.8,0-1.55-0.46-1.89-1.24c-0.46-1.05,0.02-2.26,1.06-2.72           c1.88-0.82,3.76-1.68,5.58-2.54c1.03-0.49,2.26-0.05,2.75,0.98c0.49,1.03,0.05,2.26-0.98,2.75           c-1.86,0.88-3.77,1.76-5.69,2.6C1062.21,963.63,1061.93,963.69,1061.65,963.69z M805.72,956.46           c-0.23,0-0.47-0.04-0.69-0.12c-1.94-0.69-3.9-1.41-5.84-2.13c-1.07-0.4-1.62-1.59-1.22-2.66c0.4-1.07,1.59-1.62,2.66-1.22           c1.92,0.71,3.87,1.42,5.79,2.11c1.07,0.38,1.63,1.57,1.25,2.64C807.37,955.93,806.57,956.46,805.72,956.46z M1085.4,951.3           c-0.69,0-1.37-0.35-1.76-0.98c-0.6-0.97-0.29-2.24,0.68-2.84c1.74-1.07,3.47-2.18,5.15-3.29c0.95-0.63,2.23-0.37,2.86,0.58           c0.63,0.95,0.37,2.23-0.58,2.86c-1.72,1.14-3.49,2.27-5.27,3.37C1086.14,951.2,1085.76,951.3,1085.4,951.3z M780.72,946.79           c-0.26,0-0.53-0.05-0.79-0.16c-1.91-0.8-3.83-1.61-5.72-2.42c-1.05-0.45-1.53-1.67-1.08-2.72           c0.45-1.05,1.67-1.53,2.71-1.08c1.87,0.81,3.78,1.61,5.67,2.4c1.05,0.44,1.55,1.65,1.11,2.7           C782.3,946.31,781.53,946.79,780.72,946.79z M756.25,935.85c-0.3,0-0.6-0.06-0.89-0.2c-1.84-0.88-3.72-1.79-5.58-2.71           c-1.02-0.5-1.44-1.74-0.94-2.77s1.74-1.44,2.77-0.94c1.84,0.91,3.71,1.82,5.53,2.69c1.03,0.49,1.46,1.73,0.97,2.76           C757.76,935.41,757.03,935.85,756.25,935.85z M1107.08,935.6c-0.59,0-1.17-0.25-1.58-0.73c-0.74-0.87-0.63-2.17,0.24-2.91           c1.55-1.31,3.09-2.67,4.58-4.03c0.84-0.77,2.15-0.71,2.92,0.13c0.77,0.84,0.71,2.15-0.13,2.92           c-1.53,1.4-3.11,2.78-4.69,4.13C1108.02,935.44,1107.55,935.6,1107.08,935.6z M732.4,923.65c-0.33,0-0.67-0.08-0.99-0.25           c-1.8-0.98-3.62-1.99-5.42-3c-1-0.56-1.35-1.82-0.79-2.81c0.56-0.99,1.82-1.35,2.81-0.79c1.78,1,3.59,2,5.38,2.98           c1,0.55,1.37,1.8,0.82,2.8C733.84,923.26,733.13,923.65,732.4,923.65z M1126.06,916.74c-0.48,0-0.96-0.16-1.35-0.5           c-0.87-0.74-0.96-2.05-0.22-2.91c1.32-1.54,2.63-3.12,3.89-4.7c0.71-0.89,2.01-1.04,2.9-0.33c0.89,0.71,1.04,2.01,0.33,2.9           c-1.29,1.62-2.64,3.24-3.99,4.82C1127.22,916.5,1126.64,916.74,1126.06,916.74z M709.25,910.19c-0.37,0-0.75-0.1-1.09-0.31           c-1.76-1.09-3.53-2.2-5.26-3.3c-0.96-0.61-1.25-1.89-0.63-2.85c0.61-0.96,1.89-1.25,2.85-0.63           c1.72,1.09,3.47,2.2,5.22,3.28c0.97,0.6,1.27,1.87,0.67,2.84C710.61,909.84,709.94,910.19,709.25,910.19z M686.87,895.43           c-0.41,0-0.82-0.12-1.19-0.38c-1.69-1.19-3.39-2.4-5.06-3.61c-0.92-0.67-1.13-1.96-0.46-2.89           c0.67-0.92,1.96-1.13,2.89-0.46c1.65,1.2,3.34,2.4,5.01,3.57c0.93,0.66,1.16,1.94,0.5,2.88           C688.16,895.13,687.52,895.43,686.87,895.43z M1141.85,895.14c-0.37,0-0.75-0.1-1.08-0.31c-0.97-0.6-1.27-1.87-0.67-2.84           c1.06-1.72,2.11-3.49,3.12-5.25c0.57-0.99,1.83-1.34,2.82-0.77c0.99,0.57,1.34,1.83,0.77,2.82           c-1.03,1.81-2.11,3.61-3.2,5.38C1143.22,894.79,1142.54,895.14,1141.85,895.14z M665.44,879.35           c-0.45,0-0.91-0.15-1.29-0.45c-1.34-1.07-2.69-2.17-4.01-3.26l-0.81-0.67c-0.88-0.73-1.01-2.03-0.28-2.91           c0.73-0.88,2.03-1.01,2.91-0.28l0.81,0.66c1.31,1.08,2.64,2.16,3.97,3.22c0.89,0.71,1.03,2.01,0.32,2.9           C666.65,879.08,666.05,879.35,665.44,879.35z M1154.22,871.39c-0.27,0-0.55-0.05-0.82-0.17c-1.05-0.45-1.53-1.67-1.07-2.72           c0.81-1.86,1.59-3.76,2.35-5.66c0.42-1.06,1.62-1.58,2.68-1.16c1.06,0.42,1.58,1.62,1.16,2.68           c-0.77,1.94-1.58,3.88-2.4,5.78C1155.78,870.92,1155.02,871.39,1154.22,871.39z M644.96,861.98           c-0.49,0-0.98-0.17-1.38-0.53c-1.53-1.37-3.08-2.77-4.61-4.18c-0.84-0.77-0.9-2.08-0.12-2.92c0.77-0.84,2.08-0.9,2.92-0.12           c1.52,1.39,3.06,2.79,4.57,4.15c0.85,0.76,0.92,2.07,0.16,2.92C646.09,861.74,645.53,861.98,644.96,861.98z            M1163.24,846.16c-0.19,0-0.38-0.03-0.57-0.08c-1.1-0.32-1.73-1.46-1.41-2.56c0.56-1.94,1.1-3.93,1.62-5.92           c0.29-1.1,1.41-1.77,2.52-1.48c1.1,0.29,1.77,1.41,1.48,2.52c-0.52,2.02-1.08,4.05-1.65,6.03           C1164.96,845.57,1164.13,846.16,1163.24,846.16z M625.45,843.55c-0.53,0-1.05-0.2-1.46-0.6c-1.47-1.46-2.94-2.94-4.38-4.41           c-0.8-0.81-0.79-2.12,0.03-2.92c0.81-0.8,2.12-0.79,2.92,0.03c1.43,1.46,2.89,2.93,4.35,4.37c0.81,0.8,0.81,2.11,0.01,2.92           C626.51,843.34,625.98,843.55,625.45,843.55z M606.92,824.14c-0.56,0-1.12-0.23-1.53-0.68c-1.39-1.54-2.79-3.1-4.14-4.63           c-0.76-0.86-0.67-2.16,0.18-2.92c0.86-0.76,2.16-0.67,2.92,0.18c1.35,1.52,2.73,3.07,4.11,4.6           c0.77,0.85,0.7,2.15-0.15,2.92C607.91,823.96,607.42,824.14,606.92,824.14z M1169.18,820.04c-0.12,0-0.23-0.01-0.35-0.03           c-1.12-0.19-1.88-1.26-1.69-2.39c0.34-1.99,0.67-4.03,0.97-6.07c0.17-1.13,1.22-1.91,2.35-1.74           c1.13,0.17,1.91,1.22,1.74,2.35c-0.31,2.08-0.64,4.15-0.98,6.17C1171.04,819.32,1170.17,820.04,1169.18,820.04z            M589.48,803.77c-0.6,0-1.2-0.26-1.61-0.77c-1.3-1.61-2.61-3.25-3.87-4.86c-0.71-0.9-0.55-2.2,0.35-2.9           c0.9-0.71,2.2-0.55,2.9,0.35c1.26,1.6,2.55,3.22,3.84,4.82c0.72,0.89,0.58,2.19-0.31,2.91           C590.39,803.62,589.93,803.77,589.48,803.77z M1172.43,793.43c-0.05,0-0.1,0-0.16-0.01c-1.14-0.09-1.99-1.08-1.9-2.22           c0.15-2.03,0.29-4.09,0.4-6.13c0.06-1.14,1.03-2.02,2.18-1.95c1.14,0.06,2.01,1.04,1.95,2.18           c-0.12,2.07-0.25,4.16-0.41,6.21C1174.41,792.6,1173.5,793.43,1172.43,793.43z M573.26,782.4c-0.65,0-1.28-0.3-1.69-0.87           c-1.2-1.69-2.4-3.41-3.56-5.1c-0.65-0.94-0.41-2.23,0.53-2.87c0.94-0.65,2.23-0.41,2.87,0.53           c1.15,1.67,2.34,3.37,3.53,5.05c0.66,0.93,0.44,2.22-0.49,2.88C574.09,782.28,573.68,782.4,573.26,782.4z M1173.34,766.65           c-1.14,0-2.06-0.92-2.07-2.06c-0.01-2.03-0.04-4.09-0.09-6.15c-0.03-1.14,0.88-2.09,2.02-2.11c0.02,0,0.03,0,0.05,0           c1.12,0,2.04,0.9,2.07,2.02c0.05,2.08,0.07,4.17,0.09,6.22c0.01,1.14-0.91,2.07-2.06,2.08           C1173.35,766.65,1173.35,766.65,1173.34,766.65z M558.48,760.03c-0.7,0-1.38-0.35-1.77-0.99c-1.08-1.77-2.16-3.57-3.2-5.34           c-0.58-0.98-0.25-2.25,0.74-2.83c0.98-0.58,2.25-0.25,2.83,0.74c1.03,1.75,2.09,3.52,3.16,5.28           c0.59,0.97,0.29,2.25-0.69,2.84C559.22,759.94,558.85,760.03,558.48,760.03z M1172.24,739.87c-1.07,0-1.98-0.83-2.06-1.91           c-0.15-2.01-0.32-4.08-0.51-6.13c-0.1-1.14,0.74-2.14,1.87-2.24c1.13-0.1,2.14,0.74,2.24,1.87           c0.19,2.08,0.36,4.16,0.51,6.2c0.09,1.14-0.77,2.13-1.91,2.22C1172.34,739.87,1172.29,739.87,1172.24,739.87z            M545.41,736.63c-0.75,0-1.48-0.41-1.84-1.13c-0.94-1.85-1.87-3.73-2.76-5.58c-0.5-1.03-0.06-2.26,0.96-2.76           c1.03-0.5,2.26-0.06,2.76,0.96c0.88,1.83,1.8,3.68,2.72,5.51c0.52,1.02,0.11,2.26-0.91,2.78           C546.04,736.56,545.72,736.63,545.41,736.63z M1169.39,713.22c-1.02,0-1.9-0.75-2.04-1.78c-0.28-2.02-0.57-4.07-0.88-6.1           c-0.17-1.13,0.61-2.18,1.73-2.35c1.13-0.18,2.18,0.61,2.35,1.73c0.31,2.05,0.61,4.11,0.89,6.15           c0.16,1.13-0.63,2.17-1.77,2.33C1169.58,713.21,1169.48,713.22,1169.39,713.22z M534.36,712.22c-0.82,0-1.6-0.49-1.92-1.3           c-0.77-1.93-1.52-3.89-2.24-5.82c-0.4-1.07,0.15-2.26,1.22-2.66s2.26,0.15,2.66,1.22c0.71,1.9,1.45,3.83,2.2,5.73           c0.42,1.06-0.1,2.26-1.16,2.68C534.87,712.17,534.61,712.22,534.36,712.22z M525.72,686.86c-0.9,0-1.73-0.59-1.99-1.5           c-0.56-1.99-1.11-4.02-1.62-6.02c-0.28-1.11,0.39-2.23,1.49-2.51c1.11-0.28,2.23,0.39,2.51,1.49           c0.5,1.97,1.04,3.96,1.59,5.92c0.31,1.1-0.33,2.24-1.43,2.55C526.1,686.83,525.91,686.86,525.72,686.86z M1164.99,686.78           c-0.97,0-1.84-0.69-2.03-1.67c-0.38-1.97-0.78-3.95-1.2-6.05c-0.23-1.12,0.49-2.21,1.61-2.44           c1.12-0.23,2.21,0.49,2.44,1.61c0.43,2.11,0.83,4.1,1.21,6.09c0.22,1.12-0.52,2.2-1.64,2.42           C1165.26,686.76,1165.12,686.78,1164.99,686.78z M519.92,660.72c-1,0-1.87-0.72-2.04-1.74c-0.33-2.05-0.63-4.13-0.9-6.18           c-0.15-1.13,0.65-2.17,1.78-2.32c1.13-0.15,2.17,0.65,2.32,1.78c0.26,2.01,0.56,4.04,0.89,6.06           c0.18,1.13-0.59,2.19-1.71,2.37C520.14,660.71,520.03,660.72,519.92,660.72z M1159.32,660.57c-0.93,0-1.77-0.63-2-1.57           c-0.48-1.96-1-3.97-1.52-5.96c-0.29-1.1,0.37-2.23,1.47-2.53c1.1-0.29,2.23,0.37,2.53,1.47c0.53,2.01,1.05,4.04,1.54,6.03           c0.27,1.11-0.4,2.23-1.51,2.5C1159.65,660.55,1159.49,660.57,1159.32,660.57z M1152.02,634.78c-0.88,0-1.69-0.56-1.97-1.44           c-0.62-1.95-1.27-3.92-1.92-5.85c-0.36-1.08,0.22-2.25,1.3-2.62c1.08-0.36,2.25,0.22,2.62,1.3           c0.65,1.95,1.31,3.93,1.94,5.91c0.35,1.09-0.25,2.25-1.34,2.6C1152.44,634.75,1152.23,634.78,1152.02,634.78z            M517.35,634.08c-1.11,0-2.03-0.88-2.06-2c-0.07-2.07-0.1-4.17-0.1-6.24c0-1.14,0.92-2.07,2.06-2.07c0,0,0,0,0,0           c1.14,0,2.06,0.92,2.07,2.06c0,2.03,0.04,4.09,0.1,6.12c0.04,1.14-0.86,2.09-2,2.13           C517.39,634.08,517.37,634.08,517.35,634.08z M1143.06,609.52c-0.83,0-1.61-0.5-1.93-1.31c-0.74-1.9-1.51-3.82-2.28-5.72           c-0.43-1.06,0.08-2.26,1.13-2.69c1.06-0.43,2.26,0.08,2.69,1.13c0.78,1.91,1.55,3.86,2.3,5.77           c0.42,1.06-0.11,2.26-1.17,2.68C1143.56,609.47,1143.31,609.52,1143.06,609.52z M518.29,607.32c-0.07,0-0.14,0-0.21-0.01           c-1.14-0.12-1.96-1.13-1.84-2.27c0.21-2.06,0.46-4.15,0.74-6.21c0.15-1.13,1.19-1.92,2.32-1.77           c1.13,0.15,1.92,1.19,1.77,2.32c-0.27,2.01-0.52,4.06-0.73,6.08C520.24,606.53,519.34,607.32,518.29,607.32z            M1132.54,584.86c-0.78,0-1.53-0.44-1.88-1.2c-0.85-1.84-1.74-3.72-2.63-5.57c-0.49-1.03-0.06-2.26,0.97-2.76           c1.03-0.49,2.26-0.06,2.76,0.97c0.9,1.87,1.79,3.76,2.65,5.62c0.48,1.04,0.03,2.26-1.01,2.74           C1133.13,584.8,1132.83,584.86,1132.54,584.86z M522.85,580.93c-0.16,0-0.33-0.02-0.49-0.06c-1.11-0.27-1.79-1.39-1.52-2.5           c0.49-2,1.02-4.04,1.57-6.04c0.3-1.1,1.44-1.74,2.54-1.44c1.1,0.3,1.75,1.44,1.44,2.54c-0.54,1.96-1.06,3.95-1.54,5.92           C524.63,580.3,523.78,580.93,522.85,580.93z M1120.52,560.91c-0.73,0-1.44-0.39-1.82-1.08c-0.97-1.8-1.97-3.61-2.97-5.39           c-0.56-1-0.2-2.25,0.79-2.81c1-0.56,2.26-0.2,2.81,0.79c1.01,1.8,2.02,3.63,3,5.44c0.54,1,0.17,2.26-0.83,2.8           C1121.19,560.83,1120.85,560.91,1120.52,560.91z M530.89,555.42c-0.25,0-0.5-0.05-0.75-0.14           c-1.06-0.41-1.59-1.61-1.18-2.67c0.75-1.93,1.54-3.87,2.35-5.77c0.45-1.05,1.66-1.54,2.71-1.1           c1.05,0.45,1.54,1.66,1.1,2.71c-0.79,1.87-1.56,3.77-2.3,5.66C532.5,554.92,531.72,555.42,530.89,555.42z M1107.02,537.75           c-0.69,0-1.36-0.34-1.75-0.97c-1.08-1.73-2.19-3.47-3.31-5.19c-0.62-0.96-0.35-2.24,0.61-2.86           c0.96-0.62,2.24-0.35,2.86,0.61c1.12,1.73,2.25,3.5,3.34,5.24c0.61,0.97,0.31,2.24-0.65,2.85           C1107.78,537.65,1107.4,537.75,1107.02,537.75z M542.16,531.16c-0.33,0-0.67-0.08-0.98-0.25c-1-0.54-1.37-1.8-0.83-2.8           c0.99-1.82,2.01-3.65,3.06-5.45c0.57-0.99,1.84-1.32,2.82-0.75c0.99,0.57,1.32,1.84,0.75,2.82c-1.02,1.76-2.03,3.56-3,5.35           C543.6,530.77,542.89,531.16,542.16,531.16z M1092.06,515.52c-0.64,0-1.27-0.3-1.68-0.86c-1.2-1.66-2.43-3.33-3.64-4.96           c-0.68-0.91-0.49-2.21,0.42-2.89c0.91-0.68,2.21-0.49,2.89,0.42c1.23,1.65,2.47,3.33,3.68,5.01           c0.67,0.92,0.46,2.22-0.46,2.89C1092.9,515.39,1092.48,515.52,1092.06,515.52z M556.32,508.42c-0.41,0-0.83-0.12-1.19-0.38           c-0.93-0.66-1.15-1.95-0.5-2.88c1.19-1.69,2.43-3.39,3.68-5.06c0.68-0.92,1.98-1.1,2.89-0.42c0.91,0.68,1.1,1.98,0.42,2.89           c-1.23,1.64-2.44,3.32-3.61,4.98C557.61,508.11,556.97,508.42,556.32,508.42z M1075.64,494.36c-0.59,0-1.18-0.25-1.59-0.74           c-1.31-1.57-2.64-3.14-3.96-4.68c-0.75-0.86-0.65-2.17,0.22-2.91c0.86-0.75,2.17-0.65,2.91,0.22           c1.34,1.55,2.69,3.14,4.01,4.73c0.73,0.88,0.61,2.18-0.26,2.91C1076.58,494.21,1076.11,494.36,1075.64,494.36z            M572.96,487.41c-0.49,0-0.97-0.17-1.37-0.52c-0.86-0.76-0.94-2.06-0.18-2.92c1.36-1.54,2.77-3.1,4.18-4.62           c0.78-0.84,2.08-0.89,2.92-0.11c0.84,0.78,0.89,2.08,0.11,2.92c-1.39,1.5-2.78,3.03-4.11,4.55           C574.1,487.17,573.53,487.41,572.96,487.41z M1057.78,474.45c-0.54,0-1.08-0.21-1.49-0.63c-1.41-1.46-2.85-2.93-4.29-4.37           c-0.81-0.81-0.81-2.12,0-2.92c0.81-0.81,2.12-0.81,2.92,0c1.46,1.46,2.92,2.95,4.34,4.42c0.79,0.82,0.77,2.13-0.05,2.92           C1058.81,474.26,1058.29,474.45,1057.78,474.45z M591.68,468.25c-0.55,0-1.11-0.22-1.51-0.66           c-0.78-0.84-0.73-2.14,0.11-2.92c1.51-1.4,3.06-2.81,4.61-4.19c0.85-0.76,2.16-0.68,2.92,0.17           c0.76,0.85,0.68,2.16-0.17,2.92c-1.53,1.36-3.06,2.75-4.54,4.13C592.68,468.06,592.18,468.25,591.68,468.25z            M1038.47,455.93c-0.49,0-0.98-0.17-1.37-0.52c-1.53-1.36-3.09-2.72-4.63-4.04c-0.87-0.74-0.97-2.05-0.23-2.91           c0.74-0.87,2.05-0.97,2.91-0.23c1.56,1.34,3.14,2.71,4.69,4.09c0.85,0.76,0.93,2.06,0.17,2.92           C1039.61,455.7,1039.04,455.93,1038.47,455.93z M612.13,450.94c-0.62,0-1.23-0.28-1.64-0.8c-0.7-0.9-0.53-2.2,0.37-2.9           c1.63-1.26,3.3-2.52,4.97-3.75c0.92-0.68,2.21-0.49,2.89,0.43c0.68,0.92,0.49,2.21-0.43,2.89c-1.64,1.22-3.29,2.46-4.9,3.7           C613.01,450.8,612.57,450.94,612.13,450.94z M1017.73,438.98c-0.43,0-0.87-0.13-1.24-0.41c-1.63-1.22-3.3-2.45-4.95-3.64           c-0.93-0.67-1.13-1.96-0.47-2.88c0.67-0.93,1.96-1.14,2.88-0.47c1.67,1.21,3.36,2.45,5.01,3.69           c0.91,0.69,1.1,1.98,0.41,2.89C1018.98,438.69,1018.36,438.98,1017.73,438.98z M634.02,435.49c-0.68,0-1.34-0.33-1.74-0.95           c-0.62-0.96-0.34-2.24,0.62-2.86c1.73-1.12,3.5-2.24,5.26-3.32c0.97-0.6,2.24-0.3,2.84,0.67c0.6,0.97,0.3,2.24-0.67,2.84           c-1.74,1.08-3.49,2.18-5.2,3.28C634.79,435.39,634.4,435.49,634.02,435.49z M995.66,423.81c-0.37,0-0.75-0.1-1.09-0.31           c-1.72-1.08-3.49-2.16-5.24-3.2c-0.98-0.59-1.3-1.85-0.71-2.83c0.59-0.98,1.85-1.3,2.83-0.71           c1.78,1.06,3.56,2.15,5.31,3.25c0.97,0.6,1.26,1.88,0.66,2.85C997.02,423.47,996.34,423.81,995.66,423.81z M657.1,421.88           c-0.74,0-1.45-0.39-1.82-1.09c-0.54-1-0.16-2.26,0.84-2.8c1.81-0.98,3.66-1.95,5.5-2.9c1.01-0.52,2.26-0.12,2.78,0.89           c0.52,1.01,0.12,2.26-0.89,2.78c-1.82,0.94-3.65,1.9-5.44,2.87C657.77,421.8,657.43,421.88,657.1,421.88z M972.35,410.63           c-0.32,0-0.64-0.07-0.94-0.22c-1.81-0.92-3.66-1.84-5.5-2.73c-1.03-0.5-1.46-1.73-0.96-2.76c0.5-1.03,1.73-1.46,2.76-0.96           c1.86,0.9,3.74,1.83,5.58,2.76c1.02,0.52,1.42,1.76,0.91,2.78C973.83,410.21,973.1,410.63,972.35,410.63z M681.18,410.08           c-0.79,0-1.55-0.46-1.89-1.23c-0.46-1.04,0.01-2.26,1.05-2.73c1.89-0.84,3.81-1.68,5.72-2.49           c1.05-0.45,2.26,0.04,2.71,1.09c0.45,1.05-0.04,2.26-1.09,2.71c-1.89,0.8-3.79,1.63-5.66,2.46           C681.74,410.02,681.46,410.08,681.18,410.08z M706.08,400.07c-0.85,0-1.64-0.52-1.94-1.37c-0.39-1.07,0.17-2.26,1.24-2.64           c1.95-0.7,3.93-1.4,5.88-2.06c1.08-0.37,2.25,0.21,2.62,1.29c0.37,1.08-0.21,2.25-1.29,2.62           c-1.93,0.66-3.89,1.35-5.82,2.04C706.55,400.03,706.31,400.07,706.08,400.07z M947.96,399.57c-0.26,0-0.51-0.05-0.77-0.15           c-1.88-0.75-3.81-1.5-5.72-2.22c-1.07-0.4-1.61-1.59-1.21-2.66c0.4-1.07,1.59-1.61,2.66-1.21c1.94,0.73,3.89,1.49,5.8,2.25           c1.06,0.42,1.58,1.63,1.15,2.69C949.56,399.08,948.78,399.57,947.96,399.57z M731.62,391.89c-0.9,0-1.73-0.6-1.99-1.51           c-0.31-1.1,0.33-2.24,1.43-2.55c1.99-0.56,4.01-1.11,6.01-1.64c1.1-0.29,2.23,0.37,2.53,1.47c0.29,1.1-0.37,2.23-1.47,2.53           c-1.98,0.52-3.98,1.07-5.94,1.62C731.99,391.87,731.81,391.89,731.62,391.89z M922.68,390.77c-0.2,0-0.39-0.03-0.59-0.09           c-1.96-0.59-3.95-1.16-5.9-1.69c-1.1-0.3-1.75-1.44-1.44-2.54c0.3-1.1,1.44-1.75,2.54-1.44c1.98,0.55,3.99,1.12,5.98,1.72           c1.09,0.33,1.72,1.48,1.39,2.57C924.39,390.19,923.57,390.77,922.68,390.77z M757.67,385.54c-0.96,0-1.82-0.67-2.02-1.65           c-0.23-1.12,0.49-2.21,1.61-2.44c2.01-0.42,4.07-0.82,6.1-1.21c1.12-0.21,2.2,0.52,2.42,1.64c0.21,1.12-0.52,2.2-1.65,2.42           c-2.01,0.38-4.05,0.78-6.04,1.2C757.95,385.52,757.81,385.54,757.67,385.54z M896.89,384.31c-0.14,0-0.28-0.01-0.42-0.04           c-1.99-0.41-4.02-0.8-6.03-1.17c-1.12-0.21-1.87-1.28-1.66-2.4c0.21-1.12,1.28-1.86,2.4-1.66           c2.03,0.37,4.09,0.77,6.11,1.18c1.12,0.23,1.84,1.32,1.61,2.44C898.71,383.64,897.85,384.31,896.89,384.31z M784.09,381.06           c-1.02,0-1.91-0.76-2.05-1.79c-0.15-1.13,0.64-2.17,1.78-2.32c2.04-0.27,4.12-0.53,6.17-0.77           c1.13-0.13,2.16,0.68,2.29,1.81c0.13,1.13-0.68,2.16-1.81,2.29c-2.03,0.23-4.08,0.49-6.1,0.76           C784.28,381.05,784.18,381.06,784.09,381.06z M870.43,380.09c-0.08,0-0.16,0-0.24-0.01c-2.02-0.23-4.07-0.45-6.11-0.65           c-1.14-0.11-1.97-1.12-1.86-2.26c0.11-1.14,1.12-1.96,2.26-1.86c2.06,0.2,4.15,0.42,6.19,0.66           c1.13,0.13,1.95,1.16,1.81,2.29C872.36,379.32,871.47,380.09,870.43,380.09z M810.76,378.49c-1.09,0-2-0.85-2.06-1.94           c-0.07-1.14,0.8-2.12,1.94-2.18c2.06-0.12,4.15-0.23,6.21-0.31c1.14-0.05,2.1,0.84,2.15,1.98c0.05,1.14-0.84,2.1-1.98,2.15           c-2.04,0.09-4.1,0.19-6.14,0.31C810.84,378.49,810.8,378.49,810.76,378.49z M843.72,378.09c-0.02,0-0.05,0-0.07,0           c-2.04-0.07-4.1-0.13-6.14-0.16c-1.14-0.02-2.05-0.96-2.03-2.1c0.02-1.13,0.94-2.03,2.07-2.03c0.01,0,0.02,0,0.04,0           c2.07,0.04,4.16,0.09,6.22,0.16c1.14,0.04,2.03,1,1.99,2.14C845.74,377.21,844.83,378.09,843.72,378.09z"></path>
								</g>
							</g>
						</g>
					</g>
				</g>
			</g>
		</g>
	</g>
</g>
<g>
	<g>
		<g>
			<g>
				<g>
					<g>
						<g>
							<g>
								<g>
									<circle class="st0" cx="738" cy="981.93" r="16.07"></circle>
								</g>
							</g>
						</g>
					</g>
				</g>
			</g>
		</g>
	</g>
</g>
<g>
	<g>
		<g>
			<g>
				<g>
					<g>
						<g>
							<g>
								<g>
									<ellipse class="st1" cx="945.62" cy="832.82" rx="197.16" ry="45.88"></ellipse>
								</g>
							</g>
						</g>
					</g>
				</g>
			</g>
		</g>
	</g>
</g>
<g>
	<g>
		<g>
			<g>
				<g>
					<g>
						<g>
							<g>
								<g>
									<polygon class="st2" points="1195.86,609.53 1589.64,609.53 1478.23,765.63 1048.57,765.63          "></polygon>
								</g>
							</g>
						</g>
					</g>
				</g>
			</g>
		</g>
	</g>
</g>
<g>
	<g>
		<g>
			<g>
				<g>
					<g>
						<g>
							<g>
								<g>
									<path class="st3" d="M874.81,481.2c1.87-29.22,50.46-24.91,76.07-69.73c28.28-49.49-7.48-95.8,26.94-133.13           c9.78-10.61,28.89-24.46,42.79-19.02c28.07,10.98,22.1,95.61,7.92,152.15c-10.07,40.16-30.72,122.5-79.24,128.38           C914.9,544,873.03,508.96,874.81,481.2z"></path>
								</g>
							</g>
						</g>
					</g>
				</g>
			</g>
		</g>
	</g>
</g>
<g>
	<g>
		<g>
			<g>
				<g>
					<g>
						<g>
							<g>
								<g>
									<path d="M1005.45,488.88l-3.74-1.76c12.26-26.04,19.82-56.2,24.83-76.16c7.63-30.42,12.05-65.05,11.82-92.64           c-0.27-32.25-6.83-52.52-18.49-57.08c-12.65-4.95-31.16,8.35-40.52,18.5l-3.04-2.8c5.88-6.37,13.31-12.19,20.4-15.95           c9.39-4.99,17.92-6.23,24.66-3.59c7.27,2.84,12.75,10.17,16.3,21.78c3.07,10.04,4.69,23.2,4.82,39.12           c0.23,27.92-4.23,62.93-11.94,93.68C1025.5,432.08,1017.88,462.47,1005.45,488.88z"></path>
								</g>
							</g>
						</g>
					</g>
				</g>
			</g>
		</g>
	</g>
</g>
<g>
	<g>
		<g>
			<g>
				<g>
					<g>
						<g>
							<g>
								<g>
									<path d="M876.87,481.33l-4.12-0.26c0.99-15.38,13.97-22.18,29-30.06c15.37-8.05,34.49-18.08,47.34-40.56           c11.82-20.68,12.11-40.93,11.45-58.29l4.13-0.16c0.68,17.93,0.37,38.87-11.99,60.5c-13.45,23.54-33.17,33.87-49.01,42.18           C889.16,462.26,877.7,468.27,876.87,481.33z"></path>
								</g>
							</g>
						</g>
					</g>
				</g>
			</g>
		</g>
	</g>
</g>
<g>
	<g>
		<g>
			<g>
				<g>
					<g>
						<g>
							<g>
								<g>
									<path class="st3" d="M704.52,438.13c64.24-48.99,198.29,35.61,273.53,83.1c58.23,36.75,49.62,119.14,62.38,156.7           c30.82,90.77-15.55,173.15-126.43,182.62c-119.04,10.16-191.71-143.13-204.28-169.66           C673.5,614.49,646.44,482.42,704.52,438.13z"></path>
								</g>
							</g>
						</g>
					</g>
				</g>
			</g>
		</g>
	</g>
</g>
<g>
	<g>
		<g>
			<g>
				<g>
					<g>
						<g>
							<g>
								<g>
									<path d="M914.17,862.61l-0.35-4.12c26.16-2.23,51.66-12.08,75.79-29.26l2.4,3.37           C967.27,850.21,941.08,860.31,914.17,862.61z"></path>
								</g>
							</g>
						</g>
					</g>
				</g>
			</g>
		</g>
	</g>
</g>
<g>
	<g>
		<g>
			<g>
				<g>
					<g>
						<g>
							<g>
								<g>
									<path d="M1076.5,615.38c-12.26-36.11-39.38-54.43-99.56-92.4c-37.89-23.92-89.79-56.67-140.57-77.56           c-27.66-11.38-52.13-17.97-72.76-19.58c-23.8-1.86-43.27,2.83-57.85,13.94c-15.2,11.59-25.28,30.11-29.96,55.03l-4.06-0.76           c4.87-25.96,15.48-45.32,31.51-57.55c15.41-11.75,35.82-16.72,60.67-14.78c21.05,1.65,45.95,8.34,74.01,19.88           c51.11,21.03,103.19,53.89,141.21,77.89c31.44,19.84,51.67,32.88,67.51,46.62c17.13,14.87,27.54,29.65,33.75,47.94           L1076.5,615.38z"></path>
								</g>
							</g>
						</g>
					</g>
				</g>
			</g>
		</g>
	</g>
</g>
<g>
	<g>
		<g>
			<g>
				<g>
					<g>
						<g>
							<g>
								<g>
									<path d="M781.54,803.17c-27.48-28.73-52.27-66.21-73.69-111.4c-14.38-30.34-26.42-67.65-33.04-102.37l4.06-0.77           c6.55,34.39,18.47,71.34,32.71,101.37c21.23,44.79,45.77,81.9,72.94,110.31L781.54,803.17z"></path>
								</g>
							</g>
						</g>
					</g>
				</g>
			</g>
		</g>
	</g>
</g>
<g>
	<g>
		<g>
			<g>
				<g>
					<g>
						<g>
							<g>
								<g>
									<path class="st3" d="M866.74,500.15c48.6-44.27,182.51,71.2,237.18,22.51c28.6-25.48,31.25-92.11,32.89-133.3           c1.61-40.35-4.14-64.68,10.39-74.44c17.19-11.55,53.37,3.59,72.71,24.24c52.86,56.44,32.38,210.21-62.32,285.65           c-80.95,64.48-220.23,75.01-276.99,5.19C849.72,592.02,839.18,525.25,866.74,500.15z"></path>
								</g>
							</g>
						</g>
					</g>
				</g>
			</g>
		</g>
	</g>
</g>
<g>
	<g>
		<g>
			<g>
				<g>
					<g>
						<g>
							<g>
								<g>
									<path d="M1249.18,454.38l-4.11-0.43c2.46-23.31,1.4-45.88-3.05-65.27c-4.62-20.13-12.57-36.32-23.63-48.12           c-18.49-19.74-53.85-34.81-70.05-23.93c-8.02,5.38-9.39,15.72-9.31,35.44l-4.13,0.02c-0.07-18.34,0.68-31.86,11.14-38.88           c8.55-5.75,21.84-5.81,37.4-0.18c14.02,5.07,28.22,14.31,37.97,24.72c11.56,12.35,19.85,29.18,24.64,50.02           C1250.6,407.58,1251.69,430.62,1249.18,454.38z"></path>
								</g>
							</g>
						</g>
					</g>
				</g>
			</g>
		</g>
	</g>
</g>
<g>
	<g>
		<g>
			<g>
				<g>
					<g>
						<g>
							<g>
								<g>
									<path d="M878.99,631.29c-15.15-18.64-26.1-45.1-29.28-70.8c-3.37-27.19,2.33-49.75,15.65-61.88           c11.14-10.15,27.53-13.13,50.09-9.1c19.77,3.53,41.64,11.67,64.8,20.29c46.81,17.42,95.21,35.44,122.31,11.3           c13.7-12.21,22.74-35.31,27.64-70.63l4.09,0.57c-5.04,36.33-14.52,60.26-28.98,73.14c-10.29,9.17-23.2,12.75-37.7,12.75           c-26.3,0-57.89-11.76-88.79-23.26c-22.97-8.55-44.68-16.63-64.08-20.09c-21.51-3.84-36.31-1.27-46.58,8.09           c-12.31,11.21-17.53,32.47-14.33,58.31c3.1,24.96,13.71,50.64,28.39,68.7L878.99,631.29z"></path>
								</g>
							</g>
						</g>
					</g>
				</g>
			</g>
		</g>
	</g>
</g>
<g>
	<g>
		<g>
			<g>
				<g>
					<g>
						<g>
							<g>
								<g>
									<path d="M1019.17,679.31l-0.31-4.12c27.3-2.03,55.27-8.67,80.9-19.22c21.1-8.68,40.12-19.71,56.54-32.79           c20.28-16.15,37.86-36.47,52.26-60.39l3.54,2.13c-14.65,24.34-32.56,45.03-53.22,61.49           c-16.72,13.32-36.08,24.55-57.54,33.38C1075.31,670.51,1046.89,677.26,1019.17,679.31z"></path>
								</g>
							</g>
						</g>
					</g>
				</g>
			</g>
		</g>
	</g>
</g>
<g>
	<g>
		<g>
			<g>
				<g>
					<g>
						<g>
							<g>
								<g>
									<polygon class="st0" points="888.76,174.52 905.78,317.32 1053.73,346.9 1041.57,193.68          "></polygon>
								</g>
							</g>
						</g>
					</g>
				</g>
			</g>
		</g>
	</g>
</g>
<g>
	<g>
		<g>
			<g>
				<g>
					<g>
						<g>
							<g>
								<g>
									<polygon class="st1" points="1041.57,193.68 1206.61,120.72 1216.69,261.68 1053.73,346.9          "></polygon>
								</g>
							</g>
						</g>
					</g>
				</g>
			</g>
		</g>
	</g>
</g>
<g>
	<g>
		<g>
			<g>
				<g>
					<g>
						<g>
							<g>
								<g>
									<path d="M841.61,331.06c24.89,6.92,50.01,79.42,11.29,112.86c-27.86,24.05-77.04,17.76-89.16-3.39           C744.55,407.04,810.41,322.39,841.61,331.06z"></path>
								</g>
							</g>
						</g>
					</g>
				</g>
			</g>
		</g>
	</g>
</g>
<g>
	<g>
		<g>
			<g>
				<g>
					<g>
						<g>
							<g>
								<g>
									<path class="st4" d="M866.85,303.62c-4.51-47.85-43.85-78.55-89-66.59c-21.12,5.59-32.58,20.53-38.8,34.84           c-43.66,26.34-81.05,73.31-61.17,125.14c8.88,23.16,33.59,37.98,55.64,46.67c12.76,5.03,61.53,21.18,70.3,1.36           c5.05-11.41-21.11-37.63-16.12-44.01c4.84-6.18,32.21,14.86,35.16,10.16c2.71-4.33-19.91-23-16.12-33.86           c3.32-9.52,22.76-1.02,38.09-13.54c6.14-5.02,10.67-12.63,13.54-21.14C865.13,333.96,868.54,321.55,866.85,303.62z"></path>
								</g>
							</g>
						</g>
					</g>
				</g>
			</g>
		</g>
	</g>
</g>
<g>
	<g>
		<g>
			<g>
				<g>
					<g>
						<g>
							<g>
								<g>
									<polygon points="975.7,333.41 903.98,319.07 897.94,283.51 902.01,282.82 907.58,315.58 976.51,329.36          "></polygon>
								</g>
							</g>
						</g>
					</g>
				</g>
			</g>
		</g>
	</g>
</g>
<g>
	<g>
		<g>
			<g>
				<g>
					<g>
						<g>
							<g>
								<g>
									<g>
										<polygon class="st3" points="1213.21,279.07 1084.72,228.94 1191.75,183.52 1200.75,193.98 1197.62,196.67 1190.58,188.5             1095.67,228.78 1213.13,274.61 1241.84,262.14 1205.3,205.76 1208.76,203.51 1247.96,263.99           "></polygon>
									</g>
								</g>
							</g>
						</g>
					</g>
				</g>
			</g>
		</g>
	</g>
	<g>
		<g>
			<g>
				<g>
					<g>
						<g>
							<g>
								<g>
									<g>
										<polyline class="st0" points="1213.17,276.84 1212.62,291.49 1090.22,251.66 1086.24,228.86           "></polyline>
									</g>
								</g>
							</g>
						</g>
					</g>
				</g>
			</g>
		</g>
	</g>
	<g>
		<g>
			<g>
				<g>
					<g>
						<g>
							<g>
								<g>
									<g>
										<polygon points="1212.62,291.49 1248.89,275.67 1248.89,263.88 1213.07,279.43           "></polygon>
									</g>
								</g>
							</g>
						</g>
					</g>
				</g>
			</g>
		</g>
	</g>
	<g>
		<g>
			<g>
				<g>
					<g>
						<g>
							<g>
								<g>
									<g>
										<polygon class="st2" points="1093.59,228.86 1191,187.27 1205.77,205.66 1242.73,262.37 1213.17,275.66           "></polygon>
									</g>
								</g>
							</g>
						</g>
					</g>
				</g>
			</g>
		</g>
	</g>
</g>
<g>
	<g>
		<g>
			<g>
				<g>
					<g>
						<g>
							<g>
								<g>
									<path class="st1" d="M1154.56,262.23c-10.79,14.22-5.06,36.77,6.91,46.98c2.65,2.26,6.37,3.81,13.82,6.91           c18.16,7.56,27.25,11.34,33.16,8.29c10.07-5.19,10.87-26.57,5.53-41.46c-5.64-15.72-21.59-33.83-40.07-31.78           C1162.18,252.48,1155.32,261.24,1154.56,262.23z"></path>
								</g>
							</g>
						</g>
					</g>
				</g>
			</g>
		</g>
	</g>
</g>
<g>
	<g>
		<g>
			<g>
				<g>
					<g>
						<g>
							<g>
								<g>
									<path class="st3" d="M1206.06,271.99c-9.77-13.14-19.63-19.79-29.31-19.79c-0.07,0-0.14,0-0.21,0           c-12.23,0.12-20.22,11.13-20.29,11.24l-3.37-2.39c0.37-0.52,9.23-12.81,23.58-12.98c0.1,0,0.2,0,0.3,0           c11.06,0,22.03,7.22,32.63,21.46L1206.06,271.99z"></path>
								</g>
							</g>
						</g>
					</g>
				</g>
			</g>
		</g>
	</g>
</g>
<g>
	<g>
		<g>
			<g>
				<g>
					<g>
						<g>
							<g>
								<g>
									<path class="st3" d="M1147.72,288.91c-3.35-9.99,0.47-18.64,0.63-19l3.77,1.7c-0.03,0.08-3.3,7.59-0.48,15.99           L1147.72,288.91z"></path>
								</g>
							</g>
						</g>
					</g>
				</g>
			</g>
		</g>
	</g>
</g>
<g>
	<g>
		<g>
			<g>
				<g>
					<g>
						<g>
							<g>
								<g>
									<polygon class="st2" points="888.76,174.52 1046.37,101.3 1206.61,120.72 1041.57,193.68          "></polygon>
								</g>
							</g>
						</g>
					</g>
				</g>
			</g>
		</g>
	</g>
</g>
<g>
	<g>
		<g>
			<g>
				<g>
					<g>
						<g>
							<g>
								<g>
									<path class="st4" d="M1145.97,633.41c0,0-7.56-28.91,12.18-44.39c19.74-15.48,38.87-5.29,38.87-5.29           S1162.34,623.11,1145.97,633.41z"></path>
								</g>
							</g>
						</g>
					</g>
				</g>
			</g>
		</g>
	</g>
</g>
<g>
	<g>
		<g>
			<g>
				<g>
					<g>
						<g>
							<g>
								<g>
									
										<rect x="993.81" y="328.15" transform="matrix(0.196 -0.9806 0.9806 0.196 471.8091 1246.1455)" width="4.13" height="14.38"></rect>
								</g>
							</g>
						</g>
					</g>
				</g>
			</g>
		</g>
	</g>
</g>
<g>
	<g>
		<g>
			<g>
				<g>
					<g>
						<g>
							<g>
								<g>
									<polygon class="st3" points="891.08,211.41 886.39,172.14 934.32,178.15 933.81,182.25 891.12,176.9 895.18,210.93                     "></polygon>
								</g>
							</g>
						</g>
					</g>
				</g>
			</g>
		</g>
	</g>
</g>
<g>
	<g>
		<g>
			<g>
				<g>
					<g>
						<g>
							<g>
								<g>
									
										<rect x="892.63" y="219.83" transform="matrix(0.993 -0.1184 0.1184 0.993 -20.2694 107.4982)" class="st3" width="4.13" height="9.06"></rect>
								</g>
							</g>
						</g>
					</g>
				</g>
			</g>
		</g>
	</g>
</g>
<g>
	<g>
		<g>
			<g>
				<g>
					<g>
						<g>
							<g>
								<g>
									
										<rect x="886.23" y="161.01" transform="matrix(0.9069 -0.4213 0.4213 0.9069 16.3208 400.0168)" class="st3" width="54.34" height="4.13"></rect>
								</g>
							</g>
						</g>
					</g>
				</g>
			</g>
		</g>
	</g>
</g>
<g>
	<g>
		<g>
			<g>
				<g>
					<g>
						<g>
							<g>
								<g>
									<g>
										<path class="st4" d="M1402.89,595.28h-20.99c-8.03-0.04-14.6,6.51-14.69,14.68v20.97c0.1,8.16,6.66,14.72,14.69,14.67            h20.99c8.03,0.05,14.59-6.51,14.69-14.67v-20.97C1417.48,601.8,1410.92,595.24,1402.89,595.28z M1392.39,628.84            c-4.56-0.08-8.19-3.9-8.11-8.53c0.08-4.63,3.84-8.32,8.39-8.24c4.5,0.08,8.11,3.81,8.11,8.38            C1400.74,625.11,1396.99,628.87,1392.39,628.84L1392.39,628.84z M1406.04,609.96c-1.71-0.03-3.07-1.46-3.04-3.2            c0.03-1.74,1.44-3.12,3.15-3.09c1.69,0.03,3.04,1.43,3.04,3.14c-0.01,1.75-1.41,3.16-3.13,3.14            C1406.04,609.96,1406.04,609.96,1406.04,609.96L1406.04,609.96z"></path>
									</g>
								</g>
							</g>
						</g>
					</g>
				</g>
			</g>
		</g>
	</g>
	<g>
		<g>
			<g>
				<g>
					<g>
						<g>
							<g>
								<g>
									<g>
										<path d="M1380.97,642.44c-9.08,0-16.55-7.48-16.66-16.71v-20.99c0.11-9.26,7.58-16.75,16.68-16.75c0.03,0,0.06,0,0.09,0            h20.98c0.03,0,0.06,0,0.08,0c9.1,0,16.57,7.48,16.68,16.72v20.99c-0.11,9.26-7.58,16.74-16.67,16.74c-0.03,0-0.06,0-0.1,0            h-20.98C1381.04,642.44,1381,642.44,1380.97,642.44z M1381,592.12c-6.86,0-12.48,5.65-12.56,12.64v20.94            c0.08,6.95,5.7,12.61,12.54,12.61c0.02,0,0.05,0,0.07,0h21c0.02,0,0.05,0,0.07,0c6.85,0,12.47-5.65,12.55-12.63v-20.94            c-0.08-6.96-5.7-12.61-12.55-12.61c-0.02,0-0.04,0-0.07,0h-21C1381.05,592.12,1381.02,592.12,1381,592.12z             M1391.62,625.67c-0.02,0-0.05,0-0.07,0l-0.02,0c-5.69-0.1-10.24-4.87-10.14-10.63c0.05-2.79,1.16-5.39,3.14-7.33            c1.98-1.95,4.6-3.01,7.36-2.95c5.59,0.1,10.14,4.78,10.14,10.45C1401.97,621,1397.31,625.67,1391.62,625.67z             M1391.59,621.54c0.01,0,0.02,0,0.03,0c3.43,0,6.24-2.84,6.27-6.35c0-3.4-2.73-6.24-6.08-6.3            c-1.64-0.03-3.21,0.6-4.39,1.76c-1.2,1.17-1.87,2.75-1.9,4.45C1385.46,618.59,1388.18,621.47,1391.59,621.54z             M1405.24,606.8c-0.01,0-0.02,0-0.03,0l-0.04,0c-2.84-0.05-5.12-2.43-5.07-5.3c0.02-1.39,0.58-2.68,1.56-3.65            c0.99-0.97,2.31-1.51,3.69-1.47c2.8,0.05,5.07,2.39,5.07,5.21c-0.01,1.4-0.55,2.71-1.53,3.69            C1407.91,606.26,1406.62,606.8,1405.24,606.8z M1405.26,600.51c-0.35,0-0.59,0.18-0.7,0.29c-0.2,0.2-0.32,0.47-0.33,0.77            c-0.01,0.59,0.44,1.08,1,1.1c0.38,0,0.62-0.19,0.73-0.3c0.21-0.21,0.32-0.49,0.32-0.79c0-0.57-0.45-1.05-1.01-1.06            C1405.27,600.51,1405.27,600.51,1405.26,600.51z"></path>
									</g>
								</g>
							</g>
						</g>
					</g>
				</g>
			</g>
		</g>
	</g>
	<g>
		<g>
			<g>
				<g>
					<g>
						<g>
							<g>
								<g>
									<g>
										<ellipse class="st1" cx="1391.71" cy="656.78" rx="44.67" ry="8.92"></ellipse>
									</g>
								</g>
							</g>
						</g>
					</g>
				</g>
			</g>
		</g>
	</g>
</g>
<g>
	<g>
		<g>
			<g>
				<g>
					<g>
						<g>
							<g>
								<g>
									<ellipse class="st1" cx="1299.12" cy="722.1" rx="44.67" ry="8.92"></ellipse>
								</g>
							</g>
						</g>
					</g>
				</g>
			</g>
		</g>
	</g>
</g>
<g>
	<g>
		<g>
			<g>
				<g>
					<g>
						<g>
							<g>
								<g>
									<ellipse class="st1" cx="1490.49" cy="633.53" rx="40.72" ry="8.13"></ellipse>
								</g>
							</g>
						</g>
					</g>
				</g>
			</g>
		</g>
	</g>
</g>
<g>
	<g>
		<g>
			<g>
				<g>
					<g>
						<g>
							<g>
								<g>
									<ellipse class="st1" cx="1190.91" cy="743.14" rx="44.67" ry="8.92"></ellipse>
								</g>
							</g>
						</g>
					</g>
				</g>
			</g>
		</g>
	</g>
</g>
<g>
	<g>
		<g>
			<g>
				<g>
					<g>
						<g>
							<g>
								<g>
									<ellipse class="st1" cx="1445.82" cy="742.09" rx="44.67" ry="8.92"></ellipse>
								</g>
							</g>
						</g>
					</g>
				</g>
			</g>
		</g>
	</g>
</g>
<g>
	<g>
		<g>
			<g>
				<g>
					<g>
						<g>
							<g>
								<g>
									<g>
										<path class="st4" d="M1464.28,744.21h-36.85c-6.6,0-12-5.4-12-12v-7.1c0-6.6,5.4-12,12-12h36.85c6.6,0,12,5.4,12,12v7.1            C1476.28,738.81,1470.88,744.21,1464.28,744.21z"></path>
									</g>
								</g>
							</g>
						</g>
					</g>
				</g>
			</g>
		</g>
	</g>
	<g>
		<g>
			<g>
				<g>
					<g>
						<g>
							<g>
								<g>
									<g>
										<path d="M1476.28,715.05v23.83c0,3.11-2.53,5.64-5.64,5.64H1421c-3.11,0-5.64-2.53-5.64-5.64v-23.83            c0-0.62,0.51-1.13,1.13-1.13c0.62,0,1.13,0.51,1.13,1.13v23.83c0,1.87,1.52,3.38,3.38,3.38h12.27v-19.04            c0-3.11,2.53-5.64,5.64-5.64h13.82c3.11,0,5.64,2.53,5.64,5.64v14.52c0,0.62-0.51,1.13-1.13,1.13s-1.13-0.51-1.13-1.13            v-14.52c0-1.87-1.52-3.38-3.38-3.38h-13.82c-1.87,0-3.38,1.52-3.38,3.38v19.04h9.17V724.5c0-0.62,0.51-1.13,1.13-1.13            c0.62,0,1.13,0.51,1.13,1.13v17.77h23.69c1.87,0,3.38-1.52,3.38-3.38v-23.83c0-0.62,0.51-1.13,1.13-1.13            S1476.28,714.43,1476.28,715.05z M1419.31,694.89c0,0.62,0.51,1.13,1.13,1.13c61.38,0,58.33,0.11,58.78-0.23            c0.23-0.18,0.39-0.44,0.43-0.74c0.06-0.45,0.47,0.66-7.41-17.53c-0.18-0.41-0.59-0.68-1.04-0.68h-50.76            c-0.45,0-0.86,0.27-1.04,0.68l-7.33,16.92c-0.13,0.3-0.09-0.18-0.09,7.45c0.01,5.13,4.18,9.3,9.31,9.3            c3.52,0,6.6-1.97,8.18-4.87c3.53,6.48,12.82,6.49,16.36,0c3.53,6.48,12.82,6.48,16.36,0c1.58,2.9,4.65,4.87,8.18,4.87            c5.13,0,9.31-4.17,9.31-9.31c0-0.62-0.51-1.13-1.13-1.13s-1.13,0.51-1.13,1.13c0,3.89-3.16,7.05-7.05,7.05            s-7.05-3.16-7.05-7.05c0-0.62-0.51-1.13-1.13-1.13c-0.62,0-1.13,0.51-1.13,1.13c0,3.89-3.16,7.05-7.05,7.05            s-7.05-3.16-7.05-7.05c0-0.62-0.51-1.13-1.13-1.13s-1.13,0.51-1.13,1.13c0,3.89-3.16,7.05-7.05,7.05            c-3.8,0-7.05-3.05-7.05-7.11c0-0.62-0.51-1.13-1.13-1.13c-0.62,0-1.13,0.51-1.13,1.13c0,4.02-3.23,7.11-7.05,7.11            c-3.88,0-7.04-3.16-7.05-7.05v-6.76l6.95-16.03h49.28l6.35,14.66h-56.38C1419.82,693.76,1419.31,694.27,1419.31,694.89            L1419.31,694.89z"></path>
									</g>
								</g>
							</g>
						</g>
					</g>
				</g>
			</g>
		</g>
	</g>
</g>
<g>
	<g>
		<g>
			<g>
				<g>
					<g>
						<g>
							<g>
								<g>
									<g>
										<circle class="st4" cx="1205.82" cy="726.96" r="13.02"></circle>
									</g>
								</g>
							</g>
						</g>
					</g>
				</g>
			</g>
		</g>
	</g>
	<g>
		<g>
			<g>
				<g>
					<g>
						<g>
							<g>
								<g>
									<g>
										<g>
											<g>
												<path d="M1214.49,712.31v-23.73c0-0.74-0.6-1.25-1.34-1.25h-5.19c-0.74,0-1.38,0.51-1.38,1.25V710              c-0.86,0.03-1.72,0.13-2.55,0.34v-14.75c0-0.74-0.63-1.27-1.37-1.27h-5.19c-0.74,0-1.35,0.52-1.35,1.27v20.01              c-1.59,2.24-2.45,4.93-2.44,7.69c0,7.34,5.95,13.29,13.28,13.29c7.34,0,13.29-5.95,13.29-13.28              C1220.27,718.89,1218.11,714.79,1214.49,712.31z M1209.27,690.02h2.55v20.88c-0.82-0.32-1.68-0.56-2.55-0.7V690.02z               M1198.81,696.98h2.55v14.27c-0.9,0.42-1.76,0.92-2.55,1.53V696.98z M1216.11,728.68c-1.92,3.23-5.39,5.2-9.13,5.2              c-5.86,0-10.6-4.76-10.6-10.6c0-4.29,2.59-8.16,6.55-9.8c0.16-0.03,0.31-0.09,0.44-0.17c1.15-0.43,2.39-0.64,3.62-0.64              c0.28,0,0.55,0.01,0.83,0.04h0.01c1.61,0.12,3.18,0.62,4.56,1.45C1217.44,717.14,1219.1,723.64,1216.11,728.68z"></path>
											</g>
										</g>
									</g>
								</g>
							</g>
						</g>
					</g>
				</g>
			</g>
		</g>
	</g>
	<g>
		<g>
			<g>
				<g>
					<g>
						<g>
							<g>
								<g>
									<g>
										<g>
											<g>
												<path d="M1210,727.89c-1.65,0.62-3.5,0.34-4.88-0.75h4.88c0.74,0,1.34-0.6,1.34-1.34s-0.6-1.34-1.34-1.34h-6.59              c-0.07-0.27-0.11-0.54-0.13-0.8h7.42c0.75,0,1.35-0.6,1.35-1.34s-0.6-1.34-1.34-1.34h-6.86              c0.24-0.43,0.52-0.83,0.87-1.19c1.38-1.38,3.44-1.82,5.28-1.13c0.7,0.27,1.47-0.08,1.73-0.78              c0.25-0.7-0.08-1.47-0.78-1.73c-2.81-1.07-6-0.4-8.13,1.74c-0.84,0.87-1.49,1.93-1.86,3.08h-0.03              c-0.74,0-1.34,0.59-1.34,1.33c0,0.62,0.42,1.15,1.01,1.3c0.01,0.29,0.04,0.59,0.09,0.87c-0.72,0.13-1.21,0.83-1.07,1.57              c0.12,0.63,0.67,1.1,1.31,1.1h0.71c0.33,0.55,0.72,1.07,1.18,1.53c2.13,2.13,5.32,2.8,8.13,1.73              c0.7-0.27,1.03-1.03,0.78-1.73C1211.46,727.97,1210.7,727.63,1210,727.89z"></path>
											</g>
										</g>
									</g>
								</g>
							</g>
						</g>
					</g>
				</g>
			</g>
		</g>
	</g>
	<g>
		<g>
			<g>
				<g>
					<g>
						<g>
							<g>
								<g>
									<g>
										<g>
											<g>
												<path d="M1181.66,705.02h-5.23c-0.74,0-1.34,0.6-1.34,1.34v21.04c0,0.74,0.6,1.34,1.34,1.34h5.23              c0.74,0,1.34-0.6,1.34-1.34v-21.04C1183,705.63,1182.4,705.02,1181.66,705.02z M1180.32,726.2h-2.55V707.7h2.55V726.2z"></path>
											</g>
										</g>
									</g>
								</g>
							</g>
						</g>
					</g>
				</g>
			</g>
		</g>
	</g>
	<g>
		<g>
			<g>
				<g>
					<g>
						<g>
							<g>
								<g>
									<g>
										<g>
											<g>
												<path d="M1192.25,701.94h-5.23c-0.74,0-1.34,0.6-1.34,1.34v24.26c0,0.74,0.6,1.34,1.34,1.34h5.23              c0.74,0,1.34-0.6,1.34-1.34v-24.26C1193.59,702.54,1192.98,701.94,1192.25,701.94z M1190.91,726.2h-2.55v-21.58h2.55              V726.2z"></path>
											</g>
										</g>
									</g>
								</g>
							</g>
						</g>
					</g>
				</g>
			</g>
		</g>
	</g>
	<g>
		<g>
			<g>
				<g>
					<g>
						<g>
							<g>
								<g>
									<g>
										<g>
											<g>
												<path d="M1171.07,716.55h-5.23c-0.74,0-1.34,0.6-1.34,1.34v9.51c0,0.74,0.6,1.34,1.34,1.34h5.23              c0.74,0,1.34-0.6,1.34-1.34v-9.51C1172.41,717.15,1171.81,716.55,1171.07,716.55z M1169.73,726.2h-2.55v-6.97h2.55              V726.2z"></path>
											</g>
										</g>
									</g>
								</g>
							</g>
						</g>
					</g>
				</g>
			</g>
		</g>
	</g>
	<g>
		<g>
			<g>
				<g>
					<g>
						<g>
							<g>
								<g>
									<g>
										<g>
											<g>
												<path d="M1214.29,670.33l-9.17,0.01c-0.74-0.01-1.34,0.59-1.35,1.33s0.59,1.34,1.33,1.35c0.01,0,0.01,0,0.03,0              l5.94-0.01l-14.54,14.49l-5.08-5.04c-0.25-0.24-0.6-0.36-0.95-0.35c-0.35-0.01-0.7,0.11-0.95,0.35l-25.73,25.73              c-0.52,0.52-0.52,1.37,0,1.88c0.25,0.25,0.59,0.39,0.95,0.39s0.7-0.13,0.95-0.39l24.79-24.79l5.08,5.12              c0.24,0.27,0.59,0.42,0.95,0.43c0.36-0.01,0.7-0.17,0.95-0.43l15.46-15.48l-0.01,5.96c0,0.75,0.59,1.35,1.34,1.38              c0.75-0.01,1.34-0.63,1.34-1.38l0.01-9.19C1215.63,670.95,1215.03,670.33,1214.29,670.33z"></path>
											</g>
										</g>
									</g>
								</g>
							</g>
						</g>
					</g>
				</g>
			</g>
		</g>
	</g>
	<g>
		<g>
			<g>
				<g>
					<g>
						<g>
							<g>
								<g>
									<g>
										
											<rect x="1157.02" y="691.68" transform="matrix(0.7071 -0.7071 0.7071 0.7071 -147.5594 1031.2499)" class="st4" width="28.06" height="4.13"></rect>
									</g>
								</g>
							</g>
						</g>
					</g>
				</g>
			</g>
		</g>
	</g>
</g>
<g>
	<g>
		<g>
			<g>
				<g>
					<g>
						<g>
							<g>
								<g>
									<g>
										<path class="st4" d="M1322.25,704.21H1276c-6.6,0-12-5.4-12-12v-31.28c0-6.6,5.4-12,12-12h46.25c6.6,0,12,5.4,12,12v31.28            C1334.25,698.81,1328.85,704.21,1322.25,704.21z"></path>
									</g>
								</g>
							</g>
						</g>
					</g>
				</g>
			</g>
		</g>
	</g>
	<g>
		<g>
			<g>
				<g>
					<g>
						<g>
							<g>
								<g>
									<g>
										<circle class="st4" cx="1323.82" cy="680.75" r="10.45"></circle>
									</g>
								</g>
							</g>
						</g>
					</g>
				</g>
			</g>
		</g>
	</g>
	<g>
		<g>
			<g>
				<g>
					<g>
						<g>
							<g>
								<g>
									<g>
										<g>
											<path d="M1315.36,663.54c2.17,0,3.93-1.76,3.93-3.93s-1.76-3.93-3.93-3.93c-2.17,0-3.93,1.76-3.93,3.93             c0,0.89,0.29,1.7,0.79,2.36l-6.46,9.03c-0.39-0.13-0.8-0.2-1.22-0.2c-1.03,0-1.97,0.4-2.68,1.05l-4.31-2.44             c0.06-0.27,0.09-0.54,0.09-0.83c0-2.17-1.76-3.93-3.93-3.93c-2.17,0-3.93,1.76-3.93,3.93c0,0.28,0.03,0.56,0.09,0.83             l-4.31,2.44c-0.7-0.65-1.64-1.05-2.68-1.05c-2.17,0-3.93,1.76-3.93,3.93s1.76,3.93,3.93,3.93c2.17,0,3.93-1.76,3.93-3.93             c0-0.28-0.03-0.56-0.09-0.83l4.31-2.44c0.7,0.65,1.64,1.06,2.68,1.06c1.03,0,1.97-0.4,2.68-1.05l4.31,2.44             c-0.06,0.27-0.09,0.54-0.09,0.83c0,2.17,1.76,3.93,3.93,3.93c2.17,0,3.93-1.76,3.93-3.93c0-0.89-0.29-1.7-0.79-2.36             l6.46-9.03C1314.52,663.47,1314.93,663.54,1315.36,663.54z M1315.36,658.04c0.87,0,1.57,0.71,1.57,1.57             c0,0.87-0.71,1.57-1.57,1.57c-0.87,0-1.57-0.71-1.57-1.57C1313.79,658.75,1314.49,658.04,1315.36,658.04z              M1282.89,676.31c-0.87,0-1.57-0.71-1.57-1.57s0.71-1.57,1.57-1.57c0.87,0,1.57,0.71,1.57,1.57             S1283.75,676.31,1282.89,676.31z M1293.71,670.16c-0.87,0-1.57-0.71-1.57-1.57c0-0.87,0.71-1.57,1.57-1.57             c0.87,0,1.57,0.71,1.57,1.57C1295.28,669.46,1294.58,670.16,1293.71,670.16z M1304.54,676.31             c-0.87,0-1.57-0.71-1.57-1.57s0.71-1.57,1.57-1.57c0.87,0,1.57,0.71,1.57,1.57S1305.4,676.31,1304.54,676.31z"></path>
										</g>
									</g>
								</g>
							</g>
						</g>
					</g>
				</g>
			</g>
		</g>
		<g>
			<g>
				<g>
					<g>
						<g>
							<g>
								<g>
									<g>
										<g>
											<path d="M1329.85,701.9h-8.25h-44.96h-9.31c-0.54,0-0.98-0.44-0.98-0.98v-48.66c0-0.54,0.44-0.98,0.98-0.98h5.56             c0.65,0,1.18-0.53,1.18-1.18c0-0.65-0.53-1.18-1.18-1.18h-5.56c-1.84,0-3.34,1.5-3.34,3.34v48.66             c0,1.84,1.5,3.34,3.34,3.34h8.13v2.6c0,1.48,1.2,2.68,2.68,2.68h11.81l-5.56,10.85c-0.3,0.58-0.07,1.29,0.51,1.59             c0.17,0.09,0.36,0.13,0.54,0.13c0.43,0,0.84-0.23,1.05-0.64l6.11-11.93h13.04l6.11,11.93c0.21,0.41,0.62,0.64,1.05,0.64             c0.18,0,0.36-0.04,0.54-0.13c0.58-0.3,0.81-1.01,0.51-1.59l-5.56-10.85h11.81c1.48,0,2.68-1.2,2.68-2.68v-2.6h7.07             c0.65,0,1.18-0.53,1.18-1.18C1331.03,702.43,1330.51,701.9,1329.85,701.9z M1320.42,706.85c0,0.18-0.14,0.32-0.32,0.32             h-41.95c-0.18,0-0.32-0.14-0.32-0.32v-2.6h42.6V706.85z"></path>
										</g>
									</g>
								</g>
							</g>
						</g>
					</g>
				</g>
			</g>
		</g>
		<g>
			<g>
				<g>
					<g>
						<g>
							<g>
								<g>
									<g>
										<g>
											<path d="M1277.61,651.29h16.15h10.73h26.42c0.54,0,0.98,0.44,0.98,0.98v11.21c0,0.65,0.53,1.18,1.18,1.18             s1.18-0.53,1.18-1.18v-11.21c0-1.84-1.5-3.34-3.34-3.34h-25.24v-2.32c0-1.63-1.33-2.96-2.96-2.96h-7.17             c-1.63,0-2.96,1.33-2.96,2.96v2.32h-14.97c-0.65,0-1.18,0.53-1.18,1.18C1276.43,650.76,1276.96,651.29,1277.61,651.29z              M1294.94,646.61c0-0.33,0.27-0.6,0.6-0.6h7.17c0.33,0,0.6,0.27,0.6,0.6v2.32h-8.37L1294.94,646.61L1294.94,646.61z"></path>
										</g>
									</g>
								</g>
							</g>
						</g>
					</g>
				</g>
			</g>
		</g>
		<g>
			<g>
				<g>
					<g>
						<g>
							<g>
								<g>
									<g>
										<g>
											<path d="M1280.49,684.7c-0.65,0-1.18,0.53-1.18,1.18v10.42c0,0.65,0.53,1.18,1.18,1.18h4.78c0.65,0,1.18-0.53,1.18-1.18             v-10.42c0-0.65-0.53-1.18-1.18-1.18H1280.49z M1284.1,695.12h-2.43v-8.06h2.43V695.12z"></path>
										</g>
									</g>
								</g>
							</g>
						</g>
					</g>
				</g>
			</g>
		</g>
		<g>
			<g>
				<g>
					<g>
						<g>
							<g>
								<g>
									<g>
										<g>
											<path d="M1291.32,678.67c-0.65,0-1.18,0.53-1.18,1.18v16.45c0,0.65,0.53,1.18,1.18,1.18h4.78c0.65,0,1.18-0.53,1.18-1.18             v-16.45c0-0.65-0.53-1.18-1.18-1.18H1291.32z M1294.92,695.12h-2.43v-14.09h2.43V695.12z"></path>
										</g>
									</g>
								</g>
							</g>
						</g>
					</g>
				</g>
			</g>
		</g>
		<g>
			<g>
				<g>
					<g>
						<g>
							<g>
								<g>
									<g>
										<g>
											<path d="M1302.14,684.7c-0.65,0-1.18,0.53-1.18,1.18v10.42c0,0.65,0.53,1.18,1.18,1.18h4.78c0.65,0,1.18-0.53,1.18-1.18             v-10.42c0-0.65-0.53-1.18-1.18-1.18H1302.14z M1305.75,695.12h-2.43v-8.06h2.43V695.12z"></path>
										</g>
									</g>
								</g>
							</g>
						</g>
					</g>
				</g>
			</g>
		</g>
		<g>
			<g>
				<g>
					<g>
						<g>
							<g>
								<g>
									<g>
										<g>
											<path d="M1312.97,691.66c-0.65,0-1.18,0.53-1.18,1.18v3.46c0,0.65,0.53,1.18,1.18,1.18h4.78c0.65,0,1.18-0.53,1.18-1.18             s-0.53-1.18-1.18-1.18h-3.61v-2.28C1314.15,692.18,1313.62,691.66,1312.97,691.66z"></path>
										</g>
									</g>
								</g>
							</g>
						</g>
					</g>
				</g>
			</g>
		</g>
		<g>
			<g>
				<g>
					<g>
						<g>
							<g>
								<g>
									<g>
										<g>
											<path d="M1343.91,703.01l-6.77-11.72c1.71-1.83,2.96-4.06,3.63-6.55c1.07-3.98,0.52-8.13-1.54-11.7             c-4.25-7.36-13.7-9.89-21.06-5.64c-7.36,4.25-9.89,13.7-5.64,21.06c2.06,3.57,5.38,6.12,9.36,7.18             c1.33,0.36,2.68,0.53,4.01,0.53c1.17,0,2.33-0.13,3.47-0.4l6.76,11.72c0.83,1.44,2.34,2.24,3.89,2.24             c0.76,0,1.53-0.19,2.23-0.6c1.38-0.8,2.24-2.29,2.24-3.89C1344.51,704.46,1344.3,703.69,1343.91,703.01z M1322.5,693.36             c-3.37-0.9-6.18-3.06-7.93-6.08c-3.6-6.23-1.46-14.24,4.78-17.84c2.05-1.18,4.29-1.75,6.51-1.75             c4.52,0,8.91,2.34,11.33,6.53c1.74,3.02,2.21,6.54,1.3,9.91c-0.9,3.37-3.06,6.18-6.08,7.93             C1329.39,693.8,1325.87,694.27,1322.5,693.36z M1341.09,707.09c-1.01,0.59-2.32,0.24-2.9-0.78l-6.51-11.28             c0.65-0.27,1.29-0.58,1.91-0.94c0.62-0.36,1.21-0.76,1.77-1.19l6.51,11.28c0.19,0.32,0.29,0.69,0.29,1.06             C1342.15,706.01,1341.75,706.71,1341.09,707.09z"></path>
										</g>
									</g>
								</g>
							</g>
						</g>
					</g>
				</g>
			</g>
		</g>
		<g>
			<g>
				<g>
					<g>
						<g>
							<g>
								<g>
									<g>
										<g>
											<path d="M1336.58,684.07c0.83-2.68,0.63-5.55-0.56-8.09c-0.28-0.59-0.98-0.84-1.57-0.56c-0.59,0.28-0.84,0.98-0.56,1.57             c0.94,2,1.1,4.26,0.44,6.38c-0.66,2.13-2.09,3.92-4.02,5.03c-2.04,1.18-4.43,1.49-6.71,0.88             c-2.28-0.61-4.19-2.07-5.37-4.12c-2.44-4.22-0.99-9.64,3.24-12.07c3.09-1.78,6.92-1.54,9.76,0.61             c0.52,0.39,1.26,0.29,1.65-0.23c0.39-0.52,0.29-1.26-0.23-1.65c-3.6-2.72-8.45-3.03-12.36-0.77             c-2.59,1.5-4.44,3.91-5.22,6.8s-0.38,5.91,1.12,8.5c1.5,2.59,3.91,4.44,6.8,5.22c0.96,0.26,1.94,0.39,2.92,0.39             c1.94,0,3.86-0.51,5.58-1.51C1333.93,689.04,1335.74,686.77,1336.58,684.07z"></path>
										</g>
									</g>
								</g>
							</g>
						</g>
					</g>
				</g>
			</g>
		</g>
	</g>
	<g>
		<g>
			<g>
				<g>
					<g>
						<g>
							<g>
								<g>
									<g>
										<rect x="1256.14" y="665.34" class="st3" width="4.13" height="34.8"></rect>
									</g>
								</g>
							</g>
						</g>
					</g>
				</g>
			</g>
		</g>
	</g>
	<g>
		<g>
			<g>
				<g>
					<g>
						<g>
							<g>
								<g>
									<g>
										<rect x="1256.14" y="658.04" class="st3" width="4.13" height="4.59"></rect>
									</g>
								</g>
							</g>
						</g>
					</g>
				</g>
			</g>
		</g>
	</g>
</g>
<g>
	<g>
		<g>
			<g>
				<g>
					<g>
						<g>
							<g>
								<g>
									<path class="st4" d="M1519.36,576.71c0.03,0.54,0.04,1.09,0.04,1.65c0,16.86-12.83,36.3-36.3,36.3           c-6.93,0.02-13.71-1.99-19.51-5.77c1.01,0.12,2.02,0.19,3.04,0.19c5.74,0.01,11.32-1.91,15.83-5.46           c-5.46-0.11-10.24-3.67-11.92-8.86c0.79,0.15,1.6,0.23,2.4,0.23c1.13,0,2.26-0.15,3.35-0.45           c-5.95-1.2-10.23-6.44-10.23-12.51v-0.15c1.77,0.99,3.76,1.54,5.8,1.59c-5.61-3.74-7.35-11.2-3.97-17.04           c6.47,7.98,16.02,12.83,26.28,13.33c-0.22-0.96-0.33-1.94-0.32-2.92c-0.01-7.04,5.69-12.75,12.73-12.75           c3.53,0,6.91,1.46,9.32,4.04c2.86-0.56,5.6-1.61,8.11-3.09c-0.96,2.95-2.95,5.46-5.61,7.07c2.52-0.31,4.98-0.99,7.31-2.01           C1524.01,572.67,1521.86,574.91,1519.36,576.71z"></path>
								</g>
							</g>
						</g>
					</g>
				</g>
			</g>
		</g>
	</g>
</g>
<g>
	<g>
		<g>
			<g>
				<g>
					<g>
						<g>
							<g>
								<g>
									<path d="M1483.02,621.53c-7.31,0-14.42-2.11-20.55-6.1c-0.81-0.52-1.14-1.54-0.81-2.44c0.33-0.9,1.24-1.46,2.19-1.34           c0.92,0.11,1.86,0.17,2.79,0.17c0.01,0,0.03,0,0.04,0c3.61,0,7.18-0.85,10.41-2.43c-3.97-1.63-7.13-4.94-8.5-9.19           c-0.22-0.69-0.06-1.46,0.42-2c0.05-0.05,0.09-0.1,0.14-0.15c-3.17-2.75-5.14-6.8-5.13-11.21v-0.15           c0-0.73,0.39-1.41,1.02-1.78c0.26-0.15,0.55-0.24,0.84-0.27c-2.33-4.39-2.4-9.85,0.24-14.42c0.34-0.59,0.95-0.97,1.63-1.03           c0.67-0.05,1.34,0.23,1.77,0.76c5.56,6.86,13.58,11.28,22.29,12.36c-0.01-0.22-0.01-0.43-0.01-0.65           c0-3.95,1.53-7.67,4.33-10.47c2.79-2.8,6.51-4.34,10.47-4.35c0.01,0,0.01,0,0.02,0c3.68,0,7.24,1.39,9.96,3.85           c2.25-0.55,4.4-1.43,6.4-2.61c0.74-0.44,1.67-0.37,2.34,0.16c0.67,0.54,0.94,1.43,0.68,2.25           c-0.28,0.88-0.64,1.72-1.08,2.52c0.84-0.36,1.81-0.13,2.4,0.57c0.59,0.7,0.65,1.71,0.14,2.48           c-1.64,2.47-3.65,4.64-5.97,6.46c0,0.21,0.01,0.43,0.01,0.65c0,9.31-3.6,18.73-9.87,25.84           C1506.56,614.73,1497.5,621.54,1483.02,621.53z M1471.8,615.47c3.6,1.28,7.41,1.93,11.3,1.93           c12.89,0,20.93-6.05,25.41-11.13c5.61-6.37,8.83-14.79,8.83-23.11c0-0.52-0.01-1.04-0.04-1.54           c-0.03-0.7,0.29-1.37,0.85-1.78c0.43-0.31,0.85-0.63,1.25-0.97c-0.25,0.04-0.5,0.07-0.75,0.1           c-0.97,0.12-1.89-0.46-2.2-1.38c-0.32-0.92,0.05-1.94,0.89-2.44c0.33-0.2,0.64-0.41,0.94-0.64           c-0.65,0.18-1.31,0.33-1.98,0.46c-0.7,0.14-1.42-0.1-1.91-0.62c-2.01-2.15-4.85-3.38-7.8-3.38c0,0-0.01,0-0.01,0           c-2.85,0-5.53,1.12-7.55,3.13c-2.01,2.02-3.12,4.7-3.12,7.55c0,0.83,0.09,1.66,0.27,2.46c0.14,0.63-0.02,1.29-0.43,1.79           c-0.42,0.49-1.04,0.77-1.69,0.74c-9.69-0.48-18.81-4.65-25.52-11.55c-1.04,4.27,0.64,8.92,4.46,11.47           c0.77,0.51,1.1,1.47,0.82,2.34c-0.28,0.88-1.11,1.45-2.02,1.44c-1.09-0.03-2.17-0.18-3.23-0.45           c1.11,3.7,4.19,6.63,8.12,7.42c0.94,0.19,1.62,1,1.66,1.96c0.03,0.96-0.6,1.81-1.52,2.06c-0.95,0.26-1.91,0.42-2.89,0.49           c1.93,2.73,5.08,4.47,8.54,4.53c0.87,0.02,1.64,0.58,1.92,1.41c0.28,0.83,0,1.74-0.68,2.28           C1480.25,612.79,1476.13,614.64,1471.8,615.47z"></path>
								</g>
							</g>
						</g>
					</g>
				</g>
			</g>
		</g>
	</g>
</g>
<g>
	<g>
		<g>
			<g>
				<g>
					<g>
						<g>
							<g>
								<g>
									<path d="M1480.3,788.19h-427.43l4.05-25.31l1.76,0l409.07,0.68l-0.01,4.13l-407.3-0.67l-2.73,17.04h418.45v-19.09           l115.54-161.89v26.82L1480.3,786.79V788.19z M1480.3,766.29v13.36l107.27-151.07v-12.6L1480.3,766.29z"></path>
								</g>
							</g>
						</g>
					</g>
				</g>
			</g>
		</g>
	</g>
</g>
<g>
	<g>
		<g>
			<g>
				<g>
					<g>
						<g>
							<g>
								<g>
									<path d="M1257.16,507.05l-3.98-1.13c15.01-53,7.05-122.45,6.97-123.14l4.1-0.49c0.02,0.18,2.08,17.87,2.24,41.94           C1266.63,446.48,1265.13,478.9,1257.16,507.05z"></path>
								</g>
							</g>
						</g>
					</g>
				</g>
			</g>
		</g>
	</g>
</g>
<g>
	<g>
		<g>
			<g>
				<g>
					<g>
						<g>
							<g>
								<g>
									
										<rect x="1257.18" y="359.31" transform="matrix(0.9632 -0.2687 0.2687 0.9632 -52.1158 351.7819)" width="4.13" height="14"></rect>
								</g>
							</g>
						</g>
					</g>
				</g>
			</g>
		</g>
	</g>
</g>
<g>
	<g>
		<g>
			<g>
				<g>
					<g>
						<g>
							<g>
								<g>
									<path class="st0" d="M705.24,737.17c-22.84-43.21-36.57-84.92-44.06-112.31c-8.13-29.69-10.89-49.46-10.92-49.66l4.09-0.56           c0.03,0.19,2.77,19.76,10.83,49.21c7.44,27.16,21.06,68.54,43.71,111.38L705.24,737.17z"></path>
								</g>
							</g>
						</g>
					</g>
				</g>
			</g>
		</g>
	</g>
</g>
<g>
	<g>
		<g>
			<g>
				<g>
					<g>
						<g>
							<g>
								<g>
									
										<rect x="714.01" y="742.55" transform="matrix(0.848 -0.53 0.53 0.848 -289.1223 493.6478)" class="st0" width="4.13" height="16.68"></rect>
								</g>
							</g>
						</g>
					</g>
				</g>
			</g>
		</g>
	</g>
</g>
<g>
	<g>
		<g>
			<g>
				<g>
					<g>
						<g>
							<g>
								<g>
									
										<rect x="912.31" y="140.92" transform="matrix(0.9099 -0.4147 0.4147 0.9099 23.9454 396.2496)" width="24.12" height="4.13"></rect>
								</g>
							</g>
						</g>
					</g>
				</g>
			</g>
		</g>
	</g>
</g>
<g>
	<g>
		<g>
			<g>
				<g>
					<g>
						<g>
							<g>
								<g>
									
										<rect x="940.59" y="115.57" transform="matrix(0.9099 -0.4147 0.4147 0.9099 39.467 417.0332)" width="78.81" height="4.13"></rect>
								</g>
							</g>
						</g>
					</g>
				</g>
			</g>
		</g>
	</g>
</g>
<g>
	<g>
		<g>
			<g>
				<g>
					<g>
						<g>
							<g>
								<g>
									<polygon class="st3" points="1051.89,350.2 1047.7,288.39 1051.82,288.11 1055.58,343.61 1099.2,320.8 1101.11,324.46                     "></polygon>
								</g>
							</g>
						</g>
					</g>
				</g>
			</g>
		</g>
	</g>
</g>
<g>
	<g>
		<g>
			<g>
				<g>
					<g>
						<g>
							<g>
								<g>
									
										<rect x="1109.24" y="313.18" transform="matrix(0.8861 -0.4635 0.4635 0.8861 -19.204 552.3308)" class="st3" width="10.08" height="4.13"></rect>
								</g>
							</g>
						</g>
					</g>
				</g>
			</g>
		</g>
	</g>
</g>
<g>
	<g>
		<g>
			<g>
				<g>
					<g>
						<g>
							<g>
								<g>
									<path d="M936.94,294.35c-0.65,0-1.32-0.08-1.98-0.23l0.94-4.02c0.56,0.13,1.11,0.16,1.63,0.08           c0.74-0.11,1.47-0.43,2.14-0.96l2.53,3.27c-1.24,0.96-2.61,1.56-4.06,1.78C937.75,294.32,937.34,294.35,936.94,294.35z            M927.59,288.93c-1.22-1.51-2.36-3.3-3.38-5.31l3.69-1.87c0.89,1.76,1.87,3.3,2.9,4.58L927.59,288.93z M947.09,285.05           l-3.89-1.38c0.56-1.58,0.99-3.36,1.27-5.31l4.09,0.6C948.23,281.17,947.74,283.22,947.09,285.05z M921.24,275.97           c-0.55-1.92-1.01-3.92-1.35-5.95l4.08-0.69c0.32,1.88,0.73,3.73,1.24,5.49L921.24,275.97z M944.84,270.93           c-0.07-1.84-0.24-3.73-0.52-5.61l-0.01-0.05l4.09-0.61l0.01,0.06c0.3,2.03,0.49,4.07,0.56,6.07L944.84,270.93z            M919.13,261.92c0-0.26-0.01-0.53-0.01-0.79c0-1.83,0.1-3.63,0.31-5.35l4.1,0.49c-0.18,1.55-0.28,3.19-0.28,4.86           c0,0.24,0,0.48,0.01,0.72L919.13,261.92z M942.65,257.96c-0.58-1.85-1.25-3.6-2.01-5.2l3.74-1.77           c0.84,1.78,1.59,3.71,2.22,5.74L942.65,257.96z M925.24,249.22l-3.83-1.54c0.95-2.35,2.15-4.24,3.57-5.64l2.89,2.96           C926.85,245.98,925.97,247.4,925.24,249.22z M936.75,246.69c-1.27-1.42-2.61-2.41-3.87-2.88l1.44-3.87           c1.91,0.71,3.76,2.06,5.5,3.99L936.75,246.69z"></path>
								</g>
							</g>
						</g>
					</g>
				</g>
			</g>
		</g>
	</g>
</g>
<g>
	<g>
		<g>
			<g>
				<g>
					<g>
						<g>
							<g>
								<g>
									<path d="M998.75,304.34c-0.65,0-1.32-0.08-1.97-0.23l0.94-4.02c0.56,0.13,1.11,0.16,1.63,0.08           c0.74-0.11,1.47-0.43,2.14-0.96l2.53,3.27c-1.24,0.96-2.61,1.56-4.07,1.78C999.56,304.31,999.16,304.34,998.75,304.34z            M989.4,298.92c-1.22-1.51-2.36-3.3-3.38-5.31l3.69-1.87c0.89,1.76,1.87,3.3,2.91,4.58L989.4,298.92z M1008.9,295.04           l-3.89-1.38c0.56-1.58,0.99-3.36,1.27-5.31l4.09,0.6C1010.05,291.16,1009.55,293.21,1008.9,295.04z M983.05,285.96           c-0.55-1.92-1.01-3.92-1.35-5.95l4.08-0.69c0.32,1.88,0.73,3.73,1.25,5.49L983.05,285.96z M1006.65,280.92           c-0.07-1.84-0.24-3.73-0.52-5.61l-0.01-0.05l4.09-0.61l0.01,0.05c0.3,2.03,0.49,4.08,0.56,6.07L1006.65,280.92z            M980.95,271.91c0-0.26-0.01-0.53-0.01-0.79c0-1.83,0.1-3.63,0.31-5.35l4.1,0.49c-0.18,1.55-0.28,3.19-0.28,4.86           c0,0.24,0,0.48,0.01,0.72L980.95,271.91z M1004.46,267.95c-0.58-1.85-1.25-3.6-2.01-5.2l3.74-1.77           c0.84,1.78,1.59,3.71,2.22,5.74L1004.46,267.95z M987.05,259.21l-3.83-1.54c0.95-2.35,2.15-4.24,3.57-5.64l2.89,2.96           C988.66,255.97,987.78,257.39,987.05,259.21z M998.56,256.68c-1.27-1.42-2.61-2.41-3.87-2.88l1.44-3.87           c1.91,0.71,3.76,2.06,5.5,3.99L998.56,256.68z"></path>
								</g>
							</g>
						</g>
					</g>
				</g>
			</g>
		</g>
	</g>
</g>
<g>
	<g>
		<g>
			<g>
				<g>
					<g>
						<g>
							<g>
								<g>
									<polygon points="966.46,229.01 963.1,182.81 995.04,168.72 996.71,172.5 967.43,185.42 970.59,228.71          "></polygon>
								</g>
							</g>
						</g>
					</g>
				</g>
			</g>
		</g>
	</g>
</g>
<g>
	<g>
		<g>
			<g>
				<g>
					<g>
						<g>
							<g>
								<g>
									
										<rect x="1000.27" y="163.21" transform="matrix(0.884 -0.4674 0.4674 0.884 39.2868 488.9001)" width="9.4" height="4.13"></rect>
								</g>
							</g>
						</g>
					</g>
				</g>
			</g>
		</g>
	</g>
</g>
<g>
	<g>
		<g>
			<g>
				<g>
					<g>
						<g>
							<g>
								<g>
									<polygon class="st0" points="911.59,530.68 904.66,530.68 904.66,523.75 900.53,523.75 900.53,530.68 893.6,530.68            893.6,534.81 900.53,534.81 900.53,541.74 904.66,541.74 904.66,534.81 911.59,534.81          "></polygon>
								</g>
							</g>
						</g>
					</g>
				</g>
			</g>
		</g>
	</g>
</g>
<g>
	<g>
		<g>
			<g>
				<g>
					<g>
						<g>
							<g>
								<g>
									<polygon class="st0" points="936.79,457.3 929.86,457.3 929.86,450.37 925.73,450.37 925.73,457.3 918.8,457.3            918.8,461.43 925.73,461.43 925.73,468.36 929.86,468.36 929.86,461.43 936.79,461.43          "></polygon>
								</g>
							</g>
						</g>
					</g>
				</g>
			</g>
		</g>
	</g>
</g>
<g>
	<g>
		<g>
			<g>
				<g>
					<g>
						<g>
							<g>
								<g>
									<polygon class="st0" points="986.82,483.76 979.89,483.76 979.89,476.83 975.76,476.83 975.76,483.76 968.83,483.76            968.83,487.89 975.76,487.89 975.76,494.82 979.89,494.82 979.89,487.89 986.82,487.89          "></polygon>
								</g>
							</g>
						</g>
					</g>
				</g>
			</g>
		</g>
	</g>
</g>
<g>
	<g>
		<g>
			<g>
				<g>
					<g>
						<g>
							<g>
								<g>
									<polygon class="st0" points="983.26,439.85 976.33,439.85 976.33,432.92 972.2,432.92 972.2,439.85 965.27,439.85            965.27,443.98 972.2,443.98 972.2,450.91 976.33,450.91 976.33,443.98 983.26,443.98          "></polygon>
								</g>
							</g>
						</g>
					</g>
				</g>
			</g>
		</g>
	</g>
</g>
<g>
	<g>
		<g>
			<g>
				<g>
					<g>
						<g>
							<g>
								<g>
									<polygon class="st0" points="1018.12,405.57 1011.19,405.57 1011.19,398.64 1007.06,398.64 1007.06,405.57 1000.13,405.57            1000.13,409.7 1007.06,409.7 1007.06,416.63 1011.19,416.63 1011.19,409.7 1018.12,409.7          "></polygon>
								</g>
							</g>
						</g>
					</g>
				</g>
			</g>
		</g>
	</g>
</g>
<g>
	<g>
		<g>
			<g>
				<g>
					<g>
						<g>
							<g>
								<g>
									<polygon class="st0" points="989.57,366.93 982.64,366.93 982.64,360 978.5,360 978.5,366.93 971.58,366.93 971.58,371.06            978.5,371.06 978.5,377.99 982.64,377.99 982.64,371.06 989.57,371.06          "></polygon>
								</g>
							</g>
						</g>
					</g>
				</g>
			</g>
		</g>
	</g>
</g>
<g>
	<g>
		<g>
			<g>
				<g>
					<g>
						<g>
							<g>
								<g>
									<polygon class="st0" points="1030.47,355.24 1023.54,355.24 1023.54,348.32 1019.41,348.32 1019.41,355.24 1012.48,355.24            1012.48,359.38 1019.41,359.38 1019.41,366.31 1023.54,366.31 1023.54,359.38 1030.47,359.38          "></polygon>
								</g>
							</g>
						</g>
					</g>
				</g>
			</g>
		</g>
	</g>
</g>
<g>
	<g>
		<g>
			<g>
				<g>
					<g>
						<g>
							<g>
								<g>
									<polygon class="st0" points="971.79,529.7 964.86,529.7 964.86,522.77 960.73,522.77 960.73,529.7 953.8,529.7            953.8,533.83 960.73,533.83 960.73,540.76 964.86,540.76 964.86,533.83 971.79,533.83          "></polygon>
								</g>
							</g>
						</g>
					</g>
				</g>
			</g>
		</g>
	</g>
</g>
<g>
	<g>
		<g>
			<g>
				<g>
					<g>
						<g>
							<g>
								<g>
									<polygon class="st0" points="917.97,601.44 911.04,601.44 911.04,594.51 906.9,594.51 906.9,601.44 899.98,601.44            899.98,605.57 906.9,605.57 906.9,612.5 911.04,612.5 911.04,605.57 917.97,605.57          "></polygon>
								</g>
							</g>
						</g>
					</g>
				</g>
			</g>
		</g>
	</g>
</g>
<g>
	<g>
		<g>
			<g>
				<g>
					<g>
						<g>
							<g>
								<g>
									<polygon class="st0" points="974.26,583.4 967.33,583.4 967.33,576.47 963.2,576.47 963.2,583.4 956.27,583.4            956.27,587.53 963.2,587.53 963.2,594.46 967.33,594.46 967.33,587.53 974.26,587.53          "></polygon>
								</g>
							</g>
						</g>
					</g>
				</g>
			</g>
		</g>
	</g>
</g>
<g>
	<g>
		<g>
			<g>
				<g>
					<g>
						<g>
							<g>
								<g>
									<polygon class="st0" points="1004.74,646.8 997.81,646.8 997.81,639.87 993.68,639.87 993.68,646.8 986.75,646.8            986.75,650.94 993.68,650.94 993.68,657.87 997.81,657.87 997.81,650.94 1004.74,650.94          "></polygon>
								</g>
							</g>
						</g>
					</g>
				</g>
			</g>
		</g>
	</g>
</g>
<g>
	<g>
		<g>
			<g>
				<g>
					<g>
						<g>
							<g>
								<g>
									<polygon class="st0" points="1048.46,603.15 1041.53,603.15 1041.53,596.22 1037.4,596.22 1037.4,603.15 1030.47,603.15            1030.47,607.28 1037.4,607.28 1037.4,614.21 1041.53,614.21 1041.53,607.28 1048.46,607.28          "></polygon>
								</g>
							</g>
						</g>
					</g>
				</g>
			</g>
		</g>
	</g>
</g>
<g>
	<g>
		<g>
			<g>
				<g>
					<g>
						<g>
							<g>
								<g>
									<polygon class="st0" points="1109.15,561.79 1102.22,561.79 1102.22,554.86 1098.09,554.86 1098.09,561.79 1091.16,561.79            1091.16,565.92 1098.09,565.92 1098.09,572.85 1102.22,572.85 1102.22,565.92 1109.15,565.92          "></polygon>
								</g>
							</g>
						</g>
					</g>
				</g>
			</g>
		</g>
	</g>
</g>
<g>
	<g>
		<g>
			<g>
				<g>
					<g>
						<g>
							<g>
								<g>
									<polygon class="st0" points="1109.15,627.92 1102.22,627.92 1102.22,620.99 1098.09,620.99 1098.09,627.92 1091.16,627.92            1091.16,632.06 1098.09,632.06 1098.09,638.99 1102.22,638.99 1102.22,632.06 1109.15,632.06          "></polygon>
								</g>
							</g>
						</g>
					</g>
				</g>
			</g>
		</g>
	</g>
</g>
<g>
	<g>
		<g>
			<g>
				<g>
					<g>
						<g>
							<g>
								<g>
									<polygon class="st0" points="1196.03,539.67 1189.1,539.67 1189.1,532.74 1184.97,532.74 1184.97,539.67 1178.04,539.67            1178.04,543.81 1184.97,543.81 1184.97,550.74 1189.1,550.74 1189.1,543.81 1196.03,543.81          "></polygon>
								</g>
							</g>
						</g>
					</g>
				</g>
			</g>
		</g>
	</g>
</g>
<g>
	<g>
		<g>
			<g>
				<g>
					<g>
						<g>
							<g>
								<g>
									<polygon class="st0" points="1163.56,483.76 1156.63,483.76 1156.63,476.83 1152.49,476.83 1152.49,483.76 1145.57,483.76            1145.57,487.89 1152.49,487.89 1152.49,494.82 1156.63,494.82 1156.63,487.89 1163.56,487.89          "></polygon>
								</g>
							</g>
						</g>
					</g>
				</g>
			</g>
		</g>
	</g>
</g>
<g>
	<g>
		<g>
			<g>
				<g>
					<g>
						<g>
							<g>
								<g>
									<polygon class="st0" points="1229.58,466.29 1222.65,466.29 1222.65,459.36 1218.52,459.36 1218.52,466.29 1211.59,466.29            1211.59,470.43 1218.52,470.43 1218.52,477.36 1222.65,477.36 1222.65,470.43 1229.58,470.43          "></polygon>
								</g>
							</g>
						</g>
					</g>
				</g>
			</g>
		</g>
	</g>
</g>
<g>
	<g>
		<g>
			<g>
				<g>
					<g>
						<g>
							<g>
								<g>
									<polygon class="st0" points="1179.78,414.57 1172.85,414.57 1172.85,407.64 1168.72,407.64 1168.72,414.57 1161.79,414.57            1161.79,418.7 1168.72,418.7 1168.72,425.63 1172.85,425.63 1172.85,418.7 1179.78,418.7          "></polygon>
								</g>
							</g>
						</g>
					</g>
				</g>
			</g>
		</g>
	</g>
</g>
<g>
	<g>
		<g>
			<g>
				<g>
					<g>
						<g>
							<g>
								<g>
									<polygon class="st0" points="1214.95,357.5 1208.02,357.5 1208.02,350.57 1203.88,350.57 1203.88,357.5 1196.95,357.5            1196.95,361.63 1203.88,361.63 1203.88,368.56 1208.02,368.56 1208.02,361.63 1214.95,361.63          "></polygon>
								</g>
							</g>
						</g>
					</g>
				</g>
			</g>
		</g>
	</g>
</g>
<g>
	<g>
		<g>
			<g>
				<g>
					<g>
						<g>
							<g>
								<g>
									<path d="M957.29,675.63c-24.29-3.56-43.59-15.71-44.4-16.22l2.22-3.49c0.19,0.12,19.4,12.2,42.78,15.62L957.29,675.63z"></path>
								</g>
							</g>
						</g>
					</g>
				</g>
			</g>
		</g>
	</g>
</g>
</svg>
