<?xml version="1.0" encoding="UTF-8"?>
<!-- Generator: Adobe Illustrator 24.0.3, SVG Export Plug-In . SVG Version: 6.00 Build 0)  -->
<svg width="1510px" height="849px" xmlns="http://www.w3.org/2000/svg" xmlns:xlink="http://www.w3.org/1999/xlink" version="1.1" id="Calque_1" x="0px" y="0px" viewBox="0 0 1920 1080" style="enable-background:new 0 0 1920 1080;" xml:space="preserve">
<style type="text/css">
	.st0{fill:#D6C94D;}
	.st1{fill:#070707;}
	.st2{fill:#FFF173;}
	.st3{fill:#FFFFFF;}
	.st4{fill:#E2DA74;}
	.st5{fill:none;stroke:#000000;stroke-width:10;stroke-miterlimit:10;}
</style>
<g>
	<g>
		<g>
			<g>
				<g>
					<g>
						<g>
							<g>
								<g>
									<path class="st0" d="M1019.4,241.27c-184.88-37.71-408.23,67.28-446.29,238.72c-39.41,177.54,141.98,326.83,166.06,346.66           c155.13,127.68,426.56,185.13,548.01,53.97c90.32-97.55,56.66-255.1,47.74-296.84           C1306.66,451.51,1204.96,279.12,1019.4,241.27z"></path>
								</g>
							</g>
						</g>
					</g>
				</g>
			</g>
		</g>
	</g>
</g>
<g>
	<g>
		<g>
			<g>
				<g>
					<g>
						<g>
							<g>
								<g>
									<path class="st1" d="M1063.39,980.47c-1.35,0-2.45-1.09-2.46-2.44c-0.01-1.36,1.08-2.47,2.44-2.48           c2.44-0.02,4.9-0.06,7.32-0.12c1.37-0.04,2.49,1.04,2.52,2.4c0.03,1.36-1.04,2.49-2.4,2.52c-2.44,0.06-4.93,0.1-7.4,0.12           C1063.4,980.47,1063.39,980.47,1063.39,980.47z M1038.86,979.94c-0.04,0-0.08,0-0.12,0c-2.44-0.12-4.93-0.27-7.39-0.43           c-1.36-0.09-2.38-1.26-2.29-2.62c0.09-1.36,1.26-2.38,2.62-2.29c2.43,0.16,4.89,0.3,7.31,0.42           c1.36,0.07,2.4,1.22,2.33,2.58C1041.25,978.92,1040.16,979.94,1038.86,979.94z M1095.24,978.97           c-1.26,0-2.33-0.96-2.45-2.24c-0.12-1.35,0.88-2.55,2.23-2.67c2.43-0.22,4.88-0.46,7.27-0.73           c1.35-0.15,2.57,0.83,2.71,2.18c0.15,1.35-0.83,2.57-2.18,2.71c-2.43,0.27-4.91,0.51-7.37,0.74           C1095.38,978.96,1095.31,978.97,1095.24,978.97z M1007.08,977.27c-0.1,0-0.19-0.01-0.29-0.02           c-2.42-0.28-4.89-0.59-7.34-0.92c-1.35-0.18-2.29-1.41-2.12-2.76c0.18-1.35,1.42-2.29,2.76-2.12           c2.43,0.32,4.87,0.63,7.27,0.91c1.35,0.16,2.31,1.38,2.16,2.73C1009.37,976.35,1008.31,977.27,1007.08,977.27z            M1126.83,974.68c-1.16,0-2.2-0.83-2.42-2.01c-0.25-1.34,0.64-2.62,1.97-2.87c2.39-0.44,4.8-0.92,7.17-1.41           c1.33-0.28,2.63,0.57,2.91,1.9c0.28,1.33-0.57,2.63-1.9,2.91c-2.4,0.5-4.85,0.98-7.28,1.43           C1127.13,974.66,1126.98,974.68,1126.83,974.68z M975.53,972.55c-0.15,0-0.29-0.01-0.44-0.04           c-2.41-0.44-4.86-0.9-7.27-1.36c-1.33-0.26-2.2-1.55-1.94-2.88c0.26-1.33,1.55-2.2,2.88-1.94c2.39,0.46,4.81,0.92,7.2,1.35           c1.34,0.24,2.22,1.52,1.98,2.86C977.73,971.72,976.7,972.55,975.53,972.55z M1157.84,967.25c-1.06,0-2.04-0.69-2.36-1.76           c-0.39-1.3,0.35-2.67,1.65-3.06c2.33-0.7,4.67-1.43,6.96-2.18c1.29-0.42,2.68,0.28,3.1,1.57c0.42,1.29-0.28,2.68-1.57,3.1           c-2.33,0.76-4.71,1.51-7.09,2.22C1158.31,967.22,1158.07,967.25,1157.84,967.25z M944.32,965.97           c-0.19,0-0.38-0.02-0.58-0.07c-2.39-0.58-4.81-1.17-7.2-1.78c-1.32-0.33-2.11-1.67-1.78-2.99           c0.34-1.32,1.67-2.11,2.99-1.78c2.37,0.6,4.77,1.2,7.14,1.77c1.32,0.32,2.13,1.65,1.82,2.97           C946.43,965.22,945.43,965.97,944.32,965.97z M913.49,957.66c-0.23,0-0.47-0.03-0.71-0.1c-2.35-0.7-4.73-1.43-7.08-2.17           c-1.3-0.41-2.02-1.78-1.61-3.08c0.41-1.3,1.78-2.02,3.08-1.61c2.33,0.73,4.69,1.45,7.02,2.15c1.3,0.39,2.04,1.76,1.65,3.06           C915.53,956.97,914.55,957.66,913.49,957.66z M1187.79,956.32c-0.95,0-1.85-0.55-2.25-1.47c-0.55-1.24,0.02-2.69,1.27-3.24           c2.23-0.98,4.46-1.99,6.64-3.03c1.23-0.58,2.69-0.06,3.28,1.17c0.58,1.23,0.06,2.69-1.17,3.28           c-2.22,1.06-4.5,2.1-6.77,3.09C1188.45,956.25,1188.12,956.32,1187.79,956.32z M883.17,947.71c-0.27,0-0.55-0.05-0.83-0.14           c-2.3-0.82-4.64-1.67-6.95-2.53c-1.27-0.47-1.92-1.89-1.45-3.16c0.47-1.27,1.89-1.92,3.16-1.45           c2.29,0.85,4.61,1.69,6.9,2.51c1.28,0.46,1.95,1.86,1.49,3.14C885.13,947.08,884.18,947.71,883.17,947.71z M1216.06,941.57           c-0.83,0-1.63-0.42-2.1-1.17c-0.71-1.16-0.35-2.67,0.81-3.38c2.06-1.27,4.13-2.59,6.13-3.92c1.13-0.75,2.66-0.44,3.41,0.69           c0.75,1.13,0.44,2.66-0.69,3.41c-2.05,1.36-4.16,2.71-6.27,4.01C1216.94,941.45,1216.49,941.57,1216.06,941.57z            M853.41,936.2c-0.32,0-0.64-0.06-0.95-0.19c-2.27-0.95-4.56-1.92-6.8-2.88c-1.25-0.54-1.82-1.98-1.29-3.23           s1.98-1.82,3.23-1.29c2.23,0.96,4.5,1.92,6.75,2.86c1.25,0.52,1.85,1.96,1.32,3.22           C855.29,935.63,854.37,936.2,853.41,936.2z M824.29,923.18c-0.36,0-0.72-0.08-1.06-0.24c-2.21-1.06-4.45-2.15-6.64-3.23           c-1.22-0.6-1.72-2.08-1.12-3.29c0.6-1.22,2.08-1.72,3.29-1.12c2.17,1.07,4.39,2.15,6.59,3.2c1.23,0.59,1.74,2.05,1.16,3.28           C826.09,922.66,825.21,923.18,824.29,923.18z M1241.86,922.89c-0.7,0-1.39-0.3-1.88-0.87c-0.88-1.04-0.75-2.59,0.29-3.47           c1.84-1.56,3.68-3.18,5.45-4.79c1-0.91,2.56-0.84,3.47,0.16c0.92,1,0.84,2.56-0.16,3.47c-1.82,1.66-3.7,3.31-5.59,4.91           C1242.99,922.69,1242.42,922.89,1241.86,922.89z M795.9,908.66c-0.4,0-0.8-0.1-1.18-0.3c-2.15-1.17-4.32-2.37-6.45-3.57           c-1.18-0.67-1.61-2.16-0.94-3.35c0.66-1.18,2.16-1.6,3.35-0.94c2.12,1.19,4.27,2.38,6.4,3.54           c1.19,0.65,1.63,2.14,0.98,3.34C797.61,908.2,796.77,908.66,795.9,908.66z M1264.46,900.44c-0.57,0-1.14-0.2-1.6-0.59           c-1.03-0.89-1.15-2.44-0.26-3.47c1.57-1.83,3.13-3.71,4.63-5.6c0.85-1.06,2.39-1.24,3.46-0.39           c1.06,0.85,1.24,2.39,0.39,3.46c-1.54,1.93-3.14,3.87-4.75,5.74C1265.84,900.15,1265.15,900.44,1264.46,900.44z            M768.34,892.64c-0.44,0-0.89-0.12-1.29-0.37c-2.09-1.29-4.2-2.62-6.26-3.93c-1.15-0.73-1.48-2.25-0.75-3.4           c0.73-1.14,2.25-1.48,3.4-0.75c2.05,1.3,4.13,2.62,6.21,3.9c1.16,0.71,1.51,2.23,0.8,3.39           C769.97,892.23,769.16,892.64,768.34,892.64z M741.71,875.08c-0.49,0-0.98-0.15-1.41-0.45c-2.01-1.41-4.03-2.86-6.02-4.3           c-1.1-0.8-1.35-2.33-0.55-3.43c0.8-1.1,2.33-1.35,3.43-0.55c1.97,1.43,3.98,2.86,5.96,4.26c1.11,0.78,1.38,2.31,0.6,3.43           C743.24,874.71,742.48,875.08,741.71,875.08z M1283.25,874.72c-0.44,0-0.89-0.12-1.29-0.37c-1.16-0.71-1.51-2.23-0.8-3.39           c1.27-2.05,2.52-4.15,3.72-6.25c0.67-1.18,2.18-1.59,3.36-0.92c1.18,0.67,1.59,2.18,0.92,3.36c-1.23,2.15-2.51,4.3-3.8,6.4           C1284.88,874.31,1284.08,874.72,1283.25,874.72z M716.2,855.93c-0.54,0-1.08-0.18-1.54-0.54           c-1.59-1.27-3.19-2.58-4.77-3.88l-0.96-0.79c-1.05-0.86-1.2-2.41-0.33-3.46c0.86-1.05,2.41-1.2,3.46-0.33l0.96,0.79           c1.56,1.29,3.15,2.58,4.72,3.84c1.06,0.85,1.23,2.4,0.38,3.46C717.63,855.62,716.92,855.93,716.2,855.93z M1297.97,846.46           c-0.33,0-0.66-0.07-0.98-0.2c-1.25-0.54-1.82-1.99-1.28-3.23c0.96-2.21,1.9-4.48,2.79-6.74c0.5-1.26,1.93-1.88,3.19-1.38           c1.26,0.5,1.88,1.93,1.38,3.19c-0.91,2.31-1.87,4.62-2.85,6.88C1299.83,845.9,1298.92,846.46,1297.97,846.46z            M691.82,835.26c-0.58,0-1.17-0.21-1.64-0.63c-1.83-1.64-3.68-3.32-5.49-4.98c-1-0.92-1.07-2.47-0.15-3.47           c0.92-1,2.47-1.07,3.47-0.15c1.79,1.65,3.62,3.31,5.44,4.94c1.01,0.91,1.1,2.46,0.19,3.47           C693.17,834.98,692.5,835.26,691.82,835.26z M1308.71,816.43c-0.23,0-0.45-0.03-0.68-0.1c-1.31-0.38-2.06-1.74-1.68-3.04           c0.67-2.31,1.31-4.68,1.93-7.05c0.34-1.32,1.68-2.1,3-1.76c1.31,0.34,2.1,1.68,1.76,3c-0.62,2.41-1.28,4.82-1.96,7.17           C1310.76,815.73,1309.77,816.43,1308.71,816.43z M668.59,813.32c-0.63,0-1.25-0.24-1.73-0.72           c-1.74-1.73-3.49-3.49-5.22-5.25c-0.95-0.97-0.94-2.53,0.03-3.48c0.97-0.95,2.53-0.94,3.48,0.03           c1.71,1.74,3.45,3.49,5.17,5.21c0.96,0.96,0.97,2.51,0.01,3.48C669.86,813.08,669.23,813.32,668.59,813.32z M646.55,790.22           c-0.67,0-1.34-0.27-1.82-0.81c-1.65-1.83-3.31-3.68-4.93-5.52c-0.9-1.02-0.8-2.57,0.22-3.47c1.02-0.9,2.57-0.8,3.47,0.22           c1.6,1.82,3.25,3.66,4.89,5.47c0.91,1.01,0.83,2.56-0.17,3.47C647.72,790.01,647.13,790.22,646.55,790.22z M1315.78,785.33           c-0.14,0-0.28-0.01-0.42-0.04c-1.34-0.23-2.24-1.5-2.01-2.84c0.41-2.36,0.79-4.79,1.15-7.23c0.2-1.34,1.44-2.27,2.79-2.07           c1.34,0.2,2.27,1.45,2.07,2.79c-0.37,2.47-0.76,4.94-1.17,7.34C1318,784.49,1316.96,785.33,1315.78,785.33z M625.78,765.97           c-0.72,0-1.43-0.31-1.91-0.91c-1.55-1.92-3.1-3.86-4.61-5.79c-0.84-1.07-0.65-2.61,0.41-3.45           c1.07-0.84,2.61-0.65,3.45,0.41c1.5,1.91,3.04,3.84,4.57,5.73c0.85,1.06,0.69,2.61-0.37,3.46           C626.87,765.79,626.32,765.97,625.78,765.97z M1319.65,753.66c-0.06,0-0.13,0-0.19-0.01c-1.35-0.1-2.37-1.28-2.27-2.64           c0.18-2.41,0.34-4.87,0.48-7.3c0.08-1.36,1.23-2.4,2.59-2.32c1.36,0.08,2.39,1.24,2.32,2.59c-0.14,2.46-0.3,4.95-0.49,7.4           C1322,752.68,1320.92,753.66,1319.65,753.66z M606.48,740.54c-0.77,0-1.53-0.36-2.01-1.04c-1.44-2.02-2.86-4.06-4.24-6.07           c-0.77-1.12-0.49-2.65,0.63-3.42c1.12-0.77,2.65-0.49,3.42,0.63c1.37,1.98,2.78,4.01,4.2,6.01           c0.79,1.11,0.53,2.64-0.58,3.43C607.47,740.4,606.97,740.54,606.48,740.54z M1320.73,721.79c-1.35,0-2.45-1.09-2.46-2.45           c-0.01-2.41-0.05-4.87-0.1-7.32c-0.03-1.36,1.05-2.48,2.4-2.51c1.38-0.03,2.48,1.05,2.51,2.4c0.06,2.47,0.09,4.97,0.1,7.4           c0.01,1.36-1.09,2.47-2.45,2.47C1320.74,721.79,1320.74,721.79,1320.73,721.79z M588.89,713.92c-0.83,0-1.64-0.42-2.1-1.18           c-1.29-2.11-2.57-4.25-3.81-6.35c-0.69-1.17-0.3-2.68,0.88-3.37c1.17-0.69,2.68-0.3,3.37,0.88           c1.22,2.08,2.49,4.2,3.76,6.28c0.71,1.16,0.34,2.67-0.82,3.38C589.77,713.8,589.33,713.92,588.89,713.92z M1319.42,689.91           c-1.27,0-2.35-0.98-2.45-2.27c-0.18-2.4-0.38-4.85-0.6-7.3c-0.12-1.35,0.88-2.55,2.23-2.67c1.36-0.12,2.55,0.88,2.67,2.23           c0.22,2.47,0.43,4.95,0.61,7.37c0.1,1.35-0.91,2.54-2.27,2.64C1319.55,689.91,1319.49,689.91,1319.42,689.91z            M573.33,686.06c-0.9,0-1.76-0.49-2.2-1.35c-1.12-2.2-2.22-4.44-3.29-6.64c-0.59-1.22-0.08-2.69,1.15-3.28           c1.22-0.59,2.69-0.08,3.28,1.15c1.05,2.18,2.14,4.38,3.24,6.56c0.61,1.21,0.13,2.69-1.08,3.31           C574.08,685.98,573.7,686.06,573.33,686.06z M1316.03,658.2c-1.21,0-2.26-0.89-2.43-2.12c-0.33-2.4-0.68-4.84-1.05-7.25           c-0.2-1.34,0.72-2.6,2.06-2.8c1.35-0.2,2.6,0.72,2.8,2.06c0.37,2.44,0.72,4.9,1.06,7.32c0.19,1.35-0.76,2.59-2.1,2.77           C1316.25,658.19,1316.14,658.2,1316.03,658.2z M560.17,657c-0.98,0-1.9-0.59-2.29-1.55c-0.91-2.3-1.81-4.63-2.66-6.92           c-0.47-1.27,0.17-2.69,1.45-3.16c1.27-0.47,2.69,0.18,3.16,1.45c0.84,2.26,1.72,4.55,2.62,6.82           c0.5,1.26-0.11,2.69-1.38,3.19C560.78,656.95,560.48,657,560.17,657z M549.9,626.82c-1.07,0-2.06-0.71-2.37-1.79           c-0.67-2.38-1.32-4.79-1.93-7.17c-0.34-1.32,0.46-2.66,1.77-2.99c1.32-0.34,2.66,0.46,2.99,1.78           c0.6,2.34,1.23,4.71,1.9,7.05c0.37,1.31-0.39,2.67-1.7,3.04C550.34,626.79,550.12,626.82,549.9,626.82z M1310.8,626.72           c-1.15,0-2.19-0.82-2.41-1.99c-0.45-2.35-0.92-4.71-1.43-7.2c-0.27-1.33,0.59-2.63,1.92-2.9c1.33-0.27,2.63,0.59,2.9,1.92           c0.51,2.51,0.98,4.88,1.44,7.25c0.26,1.33-0.61,2.62-1.95,2.88C1311.11,626.71,1310.95,626.72,1310.8,626.72z            M542.99,595.7c-1.19,0-2.23-0.86-2.43-2.07c-0.39-2.44-0.75-4.92-1.07-7.35c-0.18-1.35,0.77-2.58,2.12-2.76           c1.35-0.18,2.58,0.77,2.76,2.12c0.31,2.39,0.67,4.81,1.05,7.21c0.22,1.34-0.7,2.6-2.04,2.82           C543.25,595.69,543.12,595.7,542.99,595.7z M1304.05,595.53c-1.1,0-2.11-0.75-2.39-1.87c-0.58-2.34-1.19-4.73-1.81-7.1           c-0.35-1.31,0.44-2.66,1.75-3.01c1.31-0.35,2.66,0.44,3.01,1.75c0.63,2.39,1.25,4.81,1.83,7.17           c0.33,1.32-0.48,2.65-1.8,2.98C1304.44,595.51,1304.24,595.53,1304.05,595.53z M1295.35,564.83           c-1.04,0-2.01-0.67-2.34-1.71c-0.74-2.33-1.51-4.67-2.28-6.96c-0.43-1.29,0.26-2.68,1.55-3.11           c1.29-0.43,2.68,0.26,3.11,1.55c0.78,2.31,1.55,4.68,2.3,7.03c0.41,1.29-0.3,2.68-1.59,3.09           C1295.85,564.8,1295.6,564.83,1295.35,564.83z M539.93,564c-1.32,0-2.41-1.05-2.46-2.38c-0.08-2.47-0.12-4.97-0.12-7.43           c0-1.36,1.1-2.46,2.46-2.46c0,0,0,0,0,0c1.36,0,2.46,1.1,2.46,2.46c0,2.41,0.04,4.86,0.12,7.28           c0.04,1.36-1.02,2.49-2.38,2.54C539.98,564,539.95,564,539.93,564z M1284.69,534.76c-0.98,0-1.91-0.59-2.29-1.57           c-0.88-2.25-1.79-4.54-2.71-6.81c-0.51-1.26,0.09-2.69,1.35-3.21c1.26-0.51,2.69,0.09,3.2,1.35           c0.93,2.29,1.85,4.6,2.74,6.87c0.49,1.27-0.13,2.69-1.4,3.19C1285.29,534.71,1284.98,534.76,1284.69,534.76z            M541.06,532.15c-0.08,0-0.17,0-0.26-0.01c-1.35-0.14-2.33-1.35-2.19-2.7c0.25-2.45,0.55-4.94,0.88-7.39           c0.18-1.35,1.42-2.29,2.77-2.11c1.35,0.18,2.29,1.42,2.11,2.77c-0.32,2.4-0.61,4.83-0.86,7.23           C543.37,531.2,542.3,532.15,541.06,532.15z M1272.17,505.42c-0.93,0-1.82-0.53-2.23-1.43c-1.02-2.2-2.07-4.43-3.13-6.63           c-0.59-1.22-0.07-2.69,1.15-3.28c1.23-0.59,2.69-0.07,3.28,1.15c1.07,2.22,2.13,4.47,3.16,6.69           c0.57,1.23,0.04,2.69-1.2,3.27C1272.87,505.34,1272.51,505.42,1272.17,505.42z M546.48,500.74c-0.19,0-0.39-0.02-0.58-0.07           c-1.32-0.32-2.13-1.65-1.81-2.97c0.58-2.39,1.21-4.81,1.87-7.19c0.36-1.31,1.72-2.08,3.03-1.72           c1.31,0.36,2.08,1.72,1.72,3.03c-0.65,2.33-1.26,4.7-1.83,7.04C548.6,499.98,547.59,500.74,546.48,500.74z M1257.86,476.9           c-0.87,0-1.72-0.47-2.17-1.29c-1.15-2.13-2.34-4.29-3.53-6.42c-0.66-1.19-0.24-2.68,0.94-3.35           c1.19-0.66,2.68-0.24,3.35,0.94c1.2,2.15,2.4,4.33,3.57,6.48c0.65,1.19,0.2,2.69-0.99,3.33           C1258.66,476.81,1258.26,476.9,1257.86,476.9z M556.05,470.38c-0.3,0-0.6-0.05-0.89-0.17c-1.27-0.49-1.89-1.92-1.4-3.18           c0.89-2.29,1.83-4.6,2.79-6.87c0.53-1.25,1.97-1.83,3.22-1.31c1.25,0.53,1.83,1.97,1.3,3.22           c-0.94,2.22-1.86,4.49-2.74,6.73C557.96,469.78,557.03,470.38,556.05,470.38z M1241.8,449.34c-0.82,0-1.62-0.41-2.09-1.15           c-1.29-2.06-2.62-4.14-3.94-6.18c-0.74-1.14-0.41-2.66,0.73-3.4c1.14-0.74,2.66-0.41,3.4,0.73           c1.33,2.06,2.67,4.16,3.97,6.24c0.72,1.15,0.37,2.67-0.78,3.39C1242.69,449.22,1242.24,449.34,1241.8,449.34z            M569.46,441.49c-0.4,0-0.8-0.1-1.17-0.3c-1.19-0.65-1.64-2.14-0.99-3.33c1.17-2.16,2.4-4.34,3.64-6.48           c0.68-1.17,2.19-1.58,3.36-0.89c1.18,0.68,1.58,2.19,0.89,3.36c-1.22,2.1-2.42,4.24-3.57,6.36           C571.18,441.03,570.33,441.49,569.46,441.49z M1223.98,422.88c-0.76,0-1.51-0.35-2-1.02c-1.43-1.97-2.88-3.96-4.34-5.9           c-0.81-1.09-0.59-2.63,0.5-3.44c1.09-0.81,2.63-0.59,3.44,0.5c1.47,1.96,2.94,3.97,4.38,5.96c0.8,1.1,0.55,2.64-0.55,3.43           C1224.99,422.72,1224.48,422.88,1223.98,422.88z M586.31,414.42c-0.49,0-0.99-0.15-1.42-0.45           c-1.11-0.78-1.37-2.32-0.59-3.43c1.42-2.01,2.89-4.04,4.38-6.03c0.81-1.09,2.35-1.31,3.44-0.5           c1.09,0.81,1.31,2.35,0.5,3.44c-1.46,1.95-2.9,3.95-4.3,5.92C587.85,414.06,587.09,414.42,586.31,414.42z M1204.44,397.7           c-0.7,0-1.4-0.3-1.89-0.88c-1.55-1.86-3.14-3.73-4.72-5.57c-0.89-1.03-0.77-2.58,0.26-3.47c1.03-0.89,2.58-0.77,3.47,0.26           c1.6,1.85,3.2,3.75,4.77,5.63c0.87,1.04,0.73,2.59-0.31,3.46C1205.56,397.51,1205,397.7,1204.44,397.7z M606.12,389.42           c-0.58,0-1.16-0.2-1.63-0.62c-1.02-0.9-1.11-2.45-0.22-3.47c1.63-1.84,3.3-3.69,4.98-5.5c0.92-1,2.48-1.06,3.48-0.13           c1,0.92,1.06,2.48,0.13,3.48c-1.65,1.78-3.3,3.6-4.9,5.42C607.48,389.14,606.8,389.42,606.12,389.42z M1183.18,373.99           c-0.64,0-1.29-0.25-1.77-0.75c-1.69-1.75-3.41-3.5-5.11-5.2c-0.96-0.96-0.96-2.52,0-3.48c0.96-0.96,2.52-0.96,3.48,0           c1.72,1.72,3.46,3.49,5.17,5.26c0.94,0.98,0.92,2.53-0.06,3.48C1184.41,373.76,1183.8,373.99,1183.18,373.99z            M628.4,366.61c-0.66,0-1.32-0.26-1.8-0.79c-0.92-1-0.87-2.55,0.13-3.48c1.8-1.67,3.64-3.35,5.49-4.99           c1.02-0.9,2.57-0.81,3.47,0.2c0.9,1.02,0.81,2.57-0.2,3.47c-1.82,1.62-3.64,3.27-5.41,4.91           C629.6,366.39,629,366.61,628.4,366.61z M1160.2,351.95c-0.58,0-1.16-0.2-1.63-0.62c-1.82-1.61-3.67-3.23-5.52-4.8           c-1.03-0.88-1.15-2.44-0.27-3.47s2.44-1.15,3.47-0.27c1.87,1.6,3.75,3.23,5.58,4.86c1.02,0.9,1.11,2.46,0.21,3.47           C1161.56,351.67,1160.88,351.95,1160.2,351.95z M652.74,346.02c-0.74,0-1.46-0.33-1.95-0.96           c-0.83-1.08-0.63-2.62,0.44-3.45c1.94-1.5,3.93-3,5.91-4.47c1.09-0.81,2.63-0.58,3.44,0.51c0.81,1.09,0.58,2.63-0.51,3.44           c-1.96,1.45-3.92,2.93-5.83,4.41C653.8,345.85,653.27,346.02,652.74,346.02z M1135.52,331.77c-0.51,0-1.03-0.16-1.48-0.49           c-1.94-1.46-3.92-2.92-5.89-4.33c-1.1-0.79-1.35-2.33-0.56-3.43c0.79-1.1,2.33-1.35,3.43-0.56c1.99,1.44,4,2.91,5.97,4.39           c1.09,0.82,1.31,2.36,0.49,3.44C1137,331.43,1136.27,331.77,1135.52,331.77z M678.8,327.63c-0.81,0-1.6-0.4-2.07-1.13           c-0.74-1.14-0.41-2.66,0.73-3.4c2.06-1.33,4.17-2.66,6.26-3.96c1.15-0.71,2.67-0.36,3.39,0.8c0.71,1.16,0.36,2.67-0.8,3.39           c-2.07,1.28-4.15,2.59-6.18,3.91C679.72,327.5,679.26,327.63,678.8,327.63z M1109.24,313.72c-0.45,0-0.9-0.12-1.3-0.37           c-2.06-1.29-4.16-2.57-6.24-3.81c-1.17-0.7-1.55-2.21-0.85-3.37c0.7-1.17,2.21-1.55,3.37-0.85           c2.11,1.26,4.23,2.56,6.32,3.87c1.15,0.72,1.5,2.24,0.78,3.39C1110.86,313.31,1110.06,313.72,1109.24,313.72z            M706.27,311.42c-0.88,0-1.72-0.47-2.17-1.29c-0.64-1.2-0.2-2.69,1-3.33c2.16-1.16,4.36-2.32,6.55-3.45           c1.21-0.62,2.69-0.15,3.31,1.06c0.62,1.21,0.15,2.69-1.06,3.31c-2.17,1.12-4.34,2.26-6.47,3.41           C707.06,311.33,706.66,311.42,706.27,311.42z M1081.5,298.03c-0.38,0-0.76-0.09-1.11-0.27c-2.16-1.1-4.37-2.19-6.55-3.25           c-1.22-0.59-1.74-2.06-1.15-3.28c0.59-1.22,2.06-1.74,3.28-1.15c2.21,1.07,4.44,2.17,6.64,3.29           c1.21,0.62,1.69,2.1,1.08,3.31C1083.26,297.53,1082.4,298.03,1081.5,298.03z M734.93,297.37c-0.94,0-1.84-0.54-2.25-1.46           c-0.55-1.24,0.01-2.69,1.25-3.25c2.25-1,4.54-2,6.81-2.96c1.25-0.53,2.69,0.05,3.22,1.3c0.53,1.25-0.05,2.69-1.3,3.22           c-2.25,0.95-4.51,1.94-6.74,2.93C735.6,297.3,735.26,297.37,734.93,297.37z M764.57,285.47c-1.01,0-1.95-0.62-2.31-1.63           c-0.46-1.28,0.2-2.69,1.48-3.15c2.32-0.83,4.67-1.66,7-2.46c1.28-0.44,2.68,0.25,3.12,1.53c0.44,1.29-0.25,2.68-1.53,3.12           c-2.31,0.79-4.64,1.61-6.93,2.43C765.12,285.42,764.84,285.47,764.57,285.47z M1052.47,284.87c-0.3,0-0.61-0.06-0.91-0.18           c-2.25-0.9-4.54-1.79-6.81-2.64c-1.27-0.48-1.91-1.9-1.44-3.17c0.48-1.27,1.89-1.92,3.17-1.44           c2.3,0.86,4.63,1.77,6.91,2.68c1.26,0.5,1.87,1.94,1.37,3.2C1054.37,284.28,1053.45,284.87,1052.47,284.87z M794.97,275.73           c-1.07,0-2.06-0.71-2.37-1.79c-0.37-1.31,0.39-2.67,1.7-3.03c2.37-0.67,4.77-1.32,7.15-1.95c1.31-0.35,2.66,0.44,3.01,1.75           c0.35,1.31-0.44,2.66-1.75,3.01c-2.35,0.62-4.73,1.27-7.07,1.93C795.41,275.7,795.19,275.73,794.97,275.73z            M1022.38,274.39c-0.23,0-0.47-0.03-0.7-0.1c-2.32-0.69-4.68-1.37-7.02-2.02c-1.31-0.36-2.08-1.72-1.72-3.02           c0.36-1.31,1.72-2.08,3.02-1.72c2.37,0.65,4.77,1.34,7.12,2.04c1.3,0.39,2.04,1.76,1.65,3.06           C1024.42,273.7,1023.44,274.39,1022.38,274.39z M825.97,268.17c-1.14,0-2.17-0.8-2.41-1.96c-0.27-1.33,0.58-2.63,1.91-2.91           c2.4-0.5,4.85-0.98,7.27-1.44c1.33-0.25,2.62,0.62,2.87,1.96c0.25,1.33-0.62,2.62-1.96,2.87           c-2.39,0.45-4.81,0.93-7.19,1.42C826.31,268.15,826.14,268.17,825.97,268.17z M991.68,266.71c-0.16,0-0.33-0.02-0.49-0.05           c-2.37-0.48-4.79-0.95-7.18-1.39c-1.34-0.24-2.22-1.53-1.98-2.86c0.24-1.34,1.53-2.22,2.86-1.98           c2.42,0.44,4.87,0.92,7.27,1.41c1.33,0.27,2.19,1.57,1.92,2.9C993.85,265.9,992.83,266.71,991.68,266.71z M857.43,262.83           c-1.21,0-2.27-0.9-2.43-2.14c-0.18-1.35,0.77-2.58,2.11-2.76c2.44-0.32,4.91-0.63,7.34-0.91c1.35-0.16,2.57,0.81,2.73,2.16           c0.16,1.35-0.81,2.57-2.16,2.73c-2.41,0.28-4.85,0.58-7.26,0.9C857.64,262.82,857.53,262.83,857.43,262.83z M960.2,261.69           c-0.09,0-0.19-0.01-0.29-0.02c-2.4-0.28-4.85-0.54-7.27-0.78c-1.35-0.13-2.34-1.33-2.21-2.69           c0.13-1.35,1.33-2.34,2.69-2.21c2.45,0.24,4.93,0.5,7.37,0.79c1.35,0.16,2.32,1.38,2.16,2.73           C962.49,260.76,961.43,261.69,960.2,261.69z M889.17,259.78c-1.29,0-2.38-1.01-2.45-2.31c-0.08-1.36,0.95-2.52,2.31-2.6           c2.45-0.14,4.94-0.27,7.39-0.37c1.36-0.05,2.5,1,2.56,2.35c0.06,1.36-1,2.5-2.35,2.56c-2.42,0.1-4.88,0.22-7.3,0.37           C889.27,259.78,889.22,259.78,889.17,259.78z M928.39,259.3c-0.03,0-0.06,0-0.09,0c-2.42-0.08-4.88-0.15-7.31-0.19           c-1.36-0.02-2.44-1.14-2.42-2.5c0.02-1.36,1.15-2.44,2.5-2.42c2.46,0.04,4.95,0.11,7.4,0.19c1.36,0.05,2.42,1.19,2.37,2.54           C930.8,258.25,929.71,259.3,928.39,259.3z"></path>
								</g>
							</g>
						</g>
					</g>
				</g>
			</g>
		</g>
	</g>
</g>
<g>
	<g>
		<g>
			<g>
				<g>
					<g>
						<g>
							<g>
								<g>
									<ellipse cx="995.5" cy="774.75" rx="252.49" ry="65.54"></ellipse>
								</g>
							</g>
						</g>
					</g>
				</g>
			</g>
		</g>
	</g>
</g>
<g>
	<g>
		<g>
			<g>
				<g>
					<g>
						<g>
							<g>
								<g>
									<path class="st3" d="M850.01,497.17c-33.86,14.97-34.43,80.5-34.69,110.57c-0.55,63.56,23.2,183.85,106.24,201.63           c55.69,11.93,133.46-4.15,143.1-75.88C1079.46,623.29,915.26,468.31,850.01,497.17z"></path>
								</g>
							</g>
						</g>
					</g>
				</g>
			</g>
		</g>
	</g>
</g>
<g>
	<g>
		<g>
			<g>
				<g>
					<g>
						<g>
							<g>
								<g>
									<path d="M972.07,473.98c16.49,19.54,16.08,49.45,3.36,69.53c-20.46,32.29-95.06,25.75-120.77-2.03           c-19.74-21.33,2.71-43.68,23.21-66.37C902.34,448.02,949.55,447.31,972.07,473.98z"></path>
								</g>
							</g>
						</g>
					</g>
				</g>
			</g>
		</g>
	</g>
</g>
<g>
	<g>
		<g>
			<g>
				<g>
					<g>
						<g>
							<g>
								<g>
									<path class="st4" d="M951.45,434.18c9.97,1.69,20.27-12.21,36.79,0.83c31.35,24.74-14.21,69.69-44.78,65.85           c-7.13-0.9-11.7-3.76-16.32-0.91c-9,5.56-3.7,23.88-9.97,26.29c-6.55,2.52-9.1-18.13-20.85-13.6           c-20.49,7.91,14.19,27.52,7.25,36.55c-7.33,9.54-44.12,3.24-59.82-18.42c-19.22-26.5-14.58-63.88,5.35-88.62           C878.12,406.13,915.6,428.1,951.45,434.18z"></path>
								</g>
							</g>
						</g>
					</g>
				</g>
			</g>
		</g>
	</g>
</g>
<g>
	<g>
		<g>
			<g>
				<g>
					<g>
						<g>
							<g>
								<g>
									<g>
										<path class="st3" d="M1012.93,811.11c81.36,23.9,189.35,30.68,257.78-28.96c24.93-21.73,42.81-51.16,54.94-81.68            c8.47-21.32,29.41-69.97,11.01-91.46c-14.02-16.37-42.17,2.64-52.47,14.77c-58.3,68.7-60.68,104.08-92.66,114.56            c-58.7,19.24-123.57-161.36-219.02-156.68c-52.43,2.57-118.37,63.06-108.1,119.67"></path>
									</g>
								</g>
							</g>
						</g>
					</g>
				</g>
			</g>
		</g>
		<g>
			<g>
				<g>
					<g>
						<g>
							<g>
								<g>
									<g>
										<path d="M1127.44,830.99c-45.31,0-86.88-9.2-115.2-17.52l1.39-4.72c31.94,9.38,80.92,19.9,132.9,16.75            c50.43-3.06,91.66-18.27,122.57-45.2c22.52-19.63,40.78-46.79,54.27-80.73c0.43-1.08,0.89-2.22,1.37-3.43            c8.62-21.5,26.57-66.25,10.06-85.53c-3.13-3.65-7.29-5.5-12.38-5.5c-0.02,0-0.03,0-0.05,0            c-7.39,0.02-15.11,3.78-20.28,6.93c-6.12,3.73-12.11,8.71-16.03,13.33c-25.37,29.89-40.37,53.89-51.33,71.41            c-14.71,23.53-23.59,37.73-42.44,43.9c-3.27,1.07-6.55,1.58-9.83,1.58c-25.61,0-51.55-31.01-81.07-66.3            c-36.97-44.2-78.89-94.29-128.77-91.85c-28.57,1.4-62.55,20.96-84.55,48.66c-17.64,22.21-25.19,46.4-21.25,68.11            l-4.84,0.88c-4.19-23.12,3.7-48.71,22.24-72.04c11.11-13.99,25.26-26.18,40.9-35.25c15.97-9.26,32.31-14.54,47.26-15.27            c52.33-2.56,95.07,48.53,132.78,93.6c16.09,19.24,31.3,37.41,45.74,49.54c15.61,13.11,28.28,17.45,39.86,13.66            c17.16-5.62,25.68-19.25,39.8-41.84c11.04-17.65,26.15-41.82,51.75-71.98c7.2-8.49,24.44-21.96,40.04-22            c6.64-0.01,12.05,2.41,16.17,7.22c18.45,21.54,0.44,66.44-9.23,90.56c-0.48,1.2-0.94,2.34-1.36,3.41            c-13.78,34.67-32.49,62.47-55.61,82.62c-31.74,27.67-73.97,43.28-125.5,46.41            C1140.31,830.81,1133.83,830.99,1127.44,830.99z"></path>
									</g>
								</g>
							</g>
						</g>
					</g>
				</g>
			</g>
		</g>
	</g>
</g>
<g>
	<g>
		<g>
			<g>
				<g>
					<g>
						<g>
							<g>
								<g>
									<g>
										<path d="M1127.44,830.99c-45.31,0-86.88-9.2-115.2-17.52c-32.24-9.47-58.7-20.13-80.9-32.58            c-23.63-13.26-41.73-28.38-53.78-44.96l3.98-2.89c11.63,16,29.2,30.65,52.21,43.56c21.57,12.1,48.44,22.92,79.88,32.15            c31.94,9.38,80.92,19.9,132.9,16.75c50.43-3.06,91.66-18.27,122.57-45.2c22.52-19.63,40.78-46.79,54.27-80.73            c0.43-1.08,0.89-2.22,1.37-3.43c8.62-21.5,26.57-66.25,10.06-85.53c-3.13-3.65-7.29-5.5-12.38-5.5c-0.02,0-0.03,0-0.05,0            c-7.39,0.02-15.11,3.78-20.28,6.93c-6.12,3.73-12.11,8.71-16.03,13.33c-25.37,29.89-40.37,53.89-51.33,71.41            c-14.71,23.53-23.59,37.73-42.44,43.9c-3.25,1.07-6.49,1.55-9.7,1.55c-17.12,0-33.37-13.78-46.16-26.58            c-4.7-4.71-9.85-10.26-15.73-16.96c-6.3-7.18-12.62-14.73-19.3-22.73c-16.32-19.51-33.19-39.68-51.44-56.35            c-7.15-6.53-13.89-11.96-20.6-16.62c-19.64-13.61-38.19-19.79-56.73-18.88c-15.58,0.76-33.3,7-49.89,17.56l-2.64-4.15            c17.3-11.01,35.87-17.52,52.3-18.33c19.66-0.96,39.21,5.5,59.77,19.75c6.9,4.78,13.81,10.35,21.12,17.03            c18.49,16.89,35.47,37.19,51.89,56.82c6.67,7.97,12.97,15.5,19.23,22.64c5.81,6.62,10.88,12.09,15.51,16.73            c21.08,21.1,36.77,28.45,50.85,23.83c17.16-5.62,25.68-19.25,39.8-41.84c11.04-17.65,26.15-41.82,51.75-71.98            c4.24-5,10.68-10.36,17.22-14.35c5.71-3.48,14.3-7.63,22.83-7.65c0.02,0,0.04,0,0.06,0c6.59,0,12.01,2.43,16.11,7.22            c18.45,21.54,0.44,66.44-9.23,90.56c-0.48,1.2-0.94,2.34-1.36,3.41c-13.78,34.67-32.49,62.47-55.61,82.62            c-31.74,27.67-73.97,43.28-125.5,46.41C1140.31,830.81,1133.83,830.99,1127.44,830.99z"></path>
									</g>
								</g>
							</g>
						</g>
					</g>
				</g>
			</g>
		</g>
	</g>
</g>
<g>
	<g>
		<g>
			<g>
				<g>
					<g>
						<g>
							<g>
								<g>
									<polygon class="st4" points="1162.32,538.39 1125.3,415.82 1365.09,363.76 1365.09,492.43          "></polygon>
								</g>
							</g>
						</g>
					</g>
				</g>
			</g>
		</g>
	</g>
</g>
<g>
	<g>
		<g>
			<g>
				<g>
					<g>
						<g>
							<g>
								<g>
									<polygon class="st2" points="1125.3,415.82 1162.32,329.64 1392.06,278.91 1365.09,363.76          "></polygon>
								</g>
							</g>
						</g>
					</g>
				</g>
			</g>
		</g>
	</g>
	<g>
		<g>
			<g>
				<g>
					<g>
						<g>
							<g>
								<g>
									<path d="M1125.3,418.28c-0.73,0-1.42-0.32-1.9-0.9c-0.59-0.71-0.73-1.69-0.36-2.54l37.02-86.18           c0.31-0.73,0.96-1.26,1.73-1.43l229.74-50.73c0.86-0.19,1.75,0.09,2.35,0.74c0.59,0.65,0.79,1.57,0.53,2.4l-26.97,84.85           c-0.27,0.84-0.96,1.47-1.82,1.66l-239.79,52.07C1125.65,418.27,1125.47,418.28,1125.3,418.28z M1164.08,331.77           l-34.64,80.63l233.74-50.75l25.25-79.42L1164.08,331.77z"></path>
								</g>
							</g>
						</g>
					</g>
				</g>
			</g>
		</g>
	</g>
</g>
<g>
	<g>
		<g>
			<g>
				<g>
					<g>
						<g>
							<g>
								<g>
									<polygon points="1160.63,541.3 1148.64,501.6 1153.35,500.18 1164.01,535.49 1238.74,518.55 1239.83,523.34          "></polygon>
								</g>
							</g>
						</g>
					</g>
				</g>
			</g>
		</g>
	</g>
</g>
<g>
	<g>
		<g>
			<g>
				<g>
					<g>
						<g>
							<g>
								<g>
									
										<rect x="1142.89" y="347.77" transform="matrix(0.9723 -0.2339 0.2339 0.9723 -47.9253 296.3306)" width="165.12" height="4.92"></rect>
								</g>
							</g>
						</g>
					</g>
				</g>
			</g>
		</g>
	</g>
</g>
<g>
	<g>
		<g>
			<g>
				<g>
					<g>
						<g>
							<g>
								<g>
									
										<rect x="1313.86" y="323.67" transform="matrix(0.979 -0.2039 0.2039 0.979 -38.7325 276.3477)" width="15.65" height="4.92"></rect>
								</g>
							</g>
						</g>
					</g>
				</g>
			</g>
		</g>
	</g>
</g>
<g>
	<g>
		<g>
			<g>
				<g>
					<g>
						<g>
							<g>
								<g>
									<path d="M1302.16,561.85c-8.34,3.08-7.9,18.31-7.53,25.22c0.61,11.13,2.86,24.99,12.46,31.93           c9.02,6.53,22.08,7.01,32.42,3.68c26.81-8.65,37.25-42.44,33.06-67.86c-1.8-10.89-5.12-21.52-9.27-31.73           c-2-4.91-4.21-9.74-6.61-14.48c-4.47-8.8-9.33-0.3-11.34,5.13c-3.84,10.38-4.57,21.29-6.98,31.99           c-1.53,6.79-4.12,25.24-13.19,26.7C1316.43,573.84,1309.82,559.03,1302.16,561.85z"></path>
								</g>
							</g>
						</g>
					</g>
				</g>
			</g>
		</g>
	</g>
</g>
<g>
	<g>
		<g>
			<g>
				<g>
					<g>
						<g>
							<g>
								<g>
									<path class="st4" d="M1145.18,828.53c0,0,18.53-37.34,49.96-35.43s33.57,15.82,33.57,15.82S1180.04,828.97,1145.18,828.53z           "></path>
								</g>
							</g>
						</g>
					</g>
				</g>
			</g>
		</g>
	</g>
</g>
<g>
	<g>
		<g>
			<g>
				<g>
					<g>
						<g>
							<g>
								<g>
									<path class="st3" d="M1151.13,843.62l-0.27-4.91c0.79-0.04,79.67-4.81,117.52-37.08l3.19,3.74           c-16.47,14.04-41.76,24.74-75.18,31.81C1171.62,842.44,1151.33,843.61,1151.13,843.62z"></path>
								</g>
							</g>
						</g>
					</g>
				</g>
			</g>
		</g>
	</g>
</g>
<g>
	<g>
		<g>
			<g>
				<g>
					<g>
						<g>
							<g>
								<g>
									<path class="st3" d="M954.35,553.1c-4.05,0-8.54-0.69-12.86-2.76l1.7-3.55c11.04,5.28,23.92,0.01,24.05-0.04l1.52,3.63           C968.37,550.54,962.16,553.1,954.35,553.1z"></path>
								</g>
							</g>
						</g>
					</g>
				</g>
			</g>
		</g>
	</g>
</g>
<g>
	<g>
		<g>
			<g>
				<g>
					<g>
						<g>
							<g>
								<g>
									<polygon points="1365.09,492.43 1409.56,415.82 1392.06,278.91 1350.96,366.83          "></polygon>
								</g>
							</g>
						</g>
					</g>
				</g>
			</g>
		</g>
	</g>
</g>
<g>
	<g>
		<g>
			<g>
				<g>
					<g>
						<g>
							<g>
								<g>
									
										<rect x="1142.32" y="472.57" transform="matrix(0.9573 -0.2892 0.2892 0.9573 -89.9874 351.5495)" width="4.92" height="15.51"></rect>
								</g>
							</g>
						</g>
					</g>
				</g>
			</g>
		</g>
	</g>
</g>
<g>
	<g>
		<g>
			<g>
				<g>
					<g>
						<g>
							<g>
								<g>
									<path d="M1047.36,436.89c-12.1-10.23-18.24-21.17-18.24-32.49c0-15.69,12.13-30.93,35.07-44.08           c21.71-12.43,52.73-22.86,89.71-30.16l0.95,4.83c-74.52,14.7-120.81,41.3-120.81,69.41c0,9.81,5.55,19.48,16.5,28.74           L1047.36,436.89z"></path>
								</g>
							</g>
						</g>
					</g>
				</g>
			</g>
		</g>
	</g>
</g>
<g>
	<g>
		<g>
			<g>
				<g>
					<g>
						<g>
							<g>
								<g>
									<path d="M1281.06,490.21v-4.92c45.23,0,89.49-4.1,128.01-11.84c14.4-2.9,27.98-6.3,40.35-10.11           c15.86-4.89,29.75-10.44,41.26-16.5l2.29,4.35c-11.78,6.2-25.95,11.87-42.1,16.85c-12.53,3.86-26.27,7.3-40.83,10.23           C1371.21,486.08,1326.61,490.21,1281.06,490.21z"></path>
								</g>
							</g>
						</g>
					</g>
				</g>
			</g>
		</g>
	</g>
</g>
<g>
	<g>
		<g>
			<g>
				<g>
					<g>
						<g>
							<g>
								<g>
									<path d="M1512.19,438.99l-3.04-3.87c12.56-9.85,18.93-20.18,18.93-30.72c0-14.33-12.05-28.53-34.84-41.07           c-22.73-12.5-55.13-22.81-93.7-29.81l0.88-4.84c39.08,7.09,72,17.58,95.19,30.34c24.46,13.45,37.39,29.14,37.39,45.38           C1533,416.52,1526,428.16,1512.19,438.99z"></path>
								</g>
							</g>
						</g>
					</g>
				</g>
			</g>
		</g>
	</g>
</g>
<g>
	<g>
		<g>
			<g>
				<g>
					<g>
						<g>
							<g>
								<g>
									<path class="st3" d="M1391.24,268.06c-15.28-5.39-32.15-9.81-50.16-13.14c-26.1-4.83-53.82-7.29-82.4-7.29           c-30.76,0-60.42,2.82-88.15,8.39l-0.97-4.82c28.05-5.63,58.03-8.49,89.12-8.49c28.88,0,56.91,2.48,83.3,7.37           c18.26,3.38,35.38,7.87,50.9,13.34L1391.24,268.06z"></path>
								</g>
							</g>
						</g>
					</g>
				</g>
			</g>
		</g>
	</g>
</g>
<g>
	<g>
		<g>
			<g>
				<g>
					<g>
						<g>
							<g>
								<g>
									<path class="st3" d="M1048.12,338.56h-4.92c0-11.38,4.36-22.49,12.95-33.02c8.15-9.99,19.94-19.24,35.04-27.5l2.36,4.32           c-14.54,7.95-25.84,16.8-33.59,26.29C1052.1,318.28,1048.12,328.34,1048.12,338.56z"></path>
								</g>
							</g>
						</g>
					</g>
				</g>
			</g>
		</g>
	</g>
</g>
<g>
	<g>
		<g>
			<g>
				<g>
					<g>
						<g>
							<g>
								<g>
									<path class="st3" d="M1258.68,434.41c-51.84,0-101.89-8.23-140.95-23.19l1.76-4.59c38.5,14.74,87.93,22.86,139.19,22.86           c32.21,0,63.14-3.09,91.93-9.17c12.71-2.69,24.85-5.95,36.11-9.7c25.29-8.43,46.2-19.4,60.46-31.73           c14.64-12.66,22.06-26.22,22.06-40.32c0-7.31-2.06-14.59-6.11-21.65l4.27-2.45c4.49,7.82,6.77,15.93,6.77,24.1           c0,15.37-8.22,30.6-23.77,44.04c-14.74,12.75-36.23,24.05-62.12,32.68c-11.43,3.81-23.76,7.12-36.65,9.85           C1322.51,431.29,1291.24,434.41,1258.68,434.41z"></path>
								</g>
							</g>
						</g>
					</g>
				</g>
			</g>
		</g>
	</g>
</g>
<g>
	<g>
		<g>
			<g>
				<g>
					<g>
						<g>
							<g>
								<g>
									<polygon points="1049.85,536.32 1049.85,588.96 1041.29,588.96 1041.29,530.7          "></polygon>
								</g>
							</g>
						</g>
					</g>
				</g>
			</g>
		</g>
	</g>
</g>
<g>
	<g>
		<g>
			<g>
				<g>
					<g>
						<g>
							<g>
								<g>
									<polygon class="st4" points="1041.29,530.7 1033.66,531.98 1033.66,585.29 1041.29,588.96          "></polygon>
								</g>
							</g>
						</g>
					</g>
				</g>
			</g>
		</g>
	</g>
</g>
<g>
	<g>
		<g>
			<g>
				<g>
					<g>
						<g>
							<g>
								<g>
									<ellipse class="st4" cx="1049.85" cy="481.41" rx="36.09" ry="48.19"></ellipse>
								</g>
							</g>
						</g>
					</g>
				</g>
			</g>
		</g>
	</g>
</g>
<g>
	<g>
		<g>
			<g>
				<g>
					<g>
						<g>
							<g>
								<g>
									<path class="st3" d="M1037.4,532.05c-21.25,0-38.55-22.72-38.55-50.65c0-27.93,17.29-50.65,38.55-50.65           c21.25,0,38.55,22.72,38.55,50.65C1075.95,509.33,1058.65,532.05,1037.4,532.05z M1037.4,435.68           c-18.54,0-33.63,20.51-33.63,45.73c0,25.22,15.09,45.73,33.63,45.73s33.63-20.51,33.63-45.73           C1071.03,456.19,1055.94,435.68,1037.4,435.68z"></path>
								</g>
							</g>
						</g>
					</g>
				</g>
			</g>
		</g>
	</g>
</g>
<g>
	<g>
		<g>
			<g>
				<g>
					<g>
						<g>
							<g>
								<g>
									<path d="M1021.16,562.56c5.48-12.7,37.86-15.26,47.07-1.22c3.83,5.83,3.21,13.86,0.61,19.56           c-4.49,9.83-15.72,14.57-25.06,13.45C1027.44,592.39,1016.87,572.5,1021.16,562.56z"></path>
								</g>
							</g>
						</g>
					</g>
				</g>
			</g>
		</g>
	</g>
</g>
<g>
	<g>
		<g>
			<g>
				<g>
					<g>
						<g>
							<g>
								<g>
									<path d="M1022.37,516.42c-5.73-7.69-9.44-16.84-11.04-27.21c-4.25-27.65,14.41-47.35,15.21-48.17l3.54,3.42l-1.77-1.71           l1.77,1.71c-0.18,0.19-17.76,18.82-13.89,44.01c1.47,9.57,4.88,17.99,10.12,25.02L1022.37,516.42z"></path>
								</g>
							</g>
						</g>
					</g>
				</g>
			</g>
		</g>
	</g>
</g>
<g>
	<g>
		<g>
			<g>
				<g>
					<g>
						<g>
							<g>
								<g>
									<path d="M837.59,733.25c-21.5-44.04-25.87-92.04-25.75-124.55c0.13-35.19,5.42-60.39,5.47-60.64l4.81,1.03           c-0.05,0.25-5.25,25.04-5.36,59.76c-0.11,31.95,4.18,79.1,25.25,122.25L837.59,733.25z"></path>
								</g>
							</g>
						</g>
					</g>
				</g>
			</g>
		</g>
	</g>
</g>
<g>
	<g>
		<g>
			<g>
				<g>
					<g>
						<g>
							<g>
								<g>
									<path class="st3" d="M819.44,733.22c-14.26-30.25-19.16-62.04-20.77-83.38c-1.74-23.12-0.14-38.87-0.07-39.53l4.89,0.51           c-0.02,0.16-1.63,16.06,0.09,38.76c1.58,20.9,6.39,52,20.31,81.54L819.44,733.22z"></path>
								</g>
							</g>
						</g>
					</g>
				</g>
			</g>
		</g>
	</g>
</g>
<g>
	<g>
		<g>
			<g>
				<g>
					<g>
						<g>
							<g>
								<g>
									<line class="st3" x1="1037.4" y1="457.39" x2="1057.49" y2="469.46"></line>
								</g>
							</g>
						</g>
					</g>
				</g>
			</g>
		</g>
	</g>
	<g>
		<g>
			<g>
				<g>
					<g>
						<g>
							<g>
								<g>
									
										<rect x="1044.99" y="451.71" transform="matrix(0.515 -0.8572 0.8572 0.515 110.8017 1122.6702)" width="4.92" height="23.44"></rect>
								</g>
							</g>
						</g>
					</g>
				</g>
			</g>
		</g>
	</g>
</g>
<g>
	<g>
		<g>
			<g>
				<g>
					<g>
						<g>
							<g>
								<g>
									<line class="st3" x1="1035.52" y1="476.11" x2="1055.62" y2="488.18"></line>
								</g>
							</g>
						</g>
					</g>
				</g>
			</g>
		</g>
	</g>
	<g>
		<g>
			<g>
				<g>
					<g>
						<g>
							<g>
								<g>
									
										<rect x="1043.11" y="470.43" transform="matrix(0.515 -0.8572 0.8572 0.515 93.8381 1130.1326)" width="4.92" height="23.44"></rect>
								</g>
							</g>
						</g>
					</g>
				</g>
			</g>
		</g>
	</g>
</g>
<g>
	<g>
		<g>
			<g>
				<g>
					<g>
						<g>
							<g>
								<g>
									<path d="M1077.28,519.7l-4.19-2.58c10.41-16.9,13.61-34.27,9.52-51.63c-3.06-13.01-9.31-21.15-9.37-21.24l3.88-3.03           c0.28,0.36,6.88,8.92,10.22,22.9C1090.42,477.02,1091.18,497.12,1077.28,519.7z"></path>
								</g>
							</g>
						</g>
					</g>
				</g>
			</g>
		</g>
	</g>
</g>
<g>
	<g>
		<g>
			<g>
				<g>
					<g>
						<g>
							<g>
								<g>
									<path class="st3" d="M834.91,480.04l-4.8-1.08c3.8-16.83,9.03-28.93,16.46-38.06c7.8-9.6,18.06-16.06,32.27-20.34           c11.75-3.54,27.73-2.68,47.51,2.54c14.58,3.85,25.62,8.63,26.08,8.84l-1.97,4.51c-0.44-0.19-44.13-19.02-70.21-11.17           C854.8,432.93,842.09,448.28,834.91,480.04z"></path>
								</g>
							</g>
						</g>
					</g>
				</g>
			</g>
		</g>
	</g>
</g>
<g>
	<g>
		<g>
			<g>
				<g>
					<g>
						<g>
							<g>
								<g>
									<path class="st3" d="M972.52,495.88l-2.45-4.27l1.22,2.13l-1.22-2.13c0.05-0.03,5.48-3.17,11.39-8.39           c5.33-4.71,12.18-12.14,14.5-20.76c1.66-6.19,0.79-12.29-2.59-18.15l4.26-2.46c4.06,7.04,5.09,14.41,3.07,21.91           c-2.13,7.9-7.54,15.71-16.08,23.23C978.36,492.51,972.75,495.75,972.52,495.88z"></path>
								</g>
							</g>
						</g>
					</g>
				</g>
			</g>
		</g>
	</g>
</g>
<g>
	<g>
		<g>
			<g>
				<g>
					<g>
						<g>
							<g>
								<g>
									<path d="M502.62,818.22c-22.46,0-40.73-18.27-40.73-40.73c0-22.46,18.27-40.73,40.73-40.73s40.73,18.27,40.73,40.73           C543.35,799.96,525.08,818.22,502.62,818.22z M502.62,741.69c-19.74,0-35.81,16.06-35.81,35.81           c0,19.74,16.06,35.81,35.81,35.81c19.74,0,35.81-16.06,35.81-35.81C538.43,757.76,522.37,741.69,502.62,741.69z"></path>
								</g>
							</g>
						</g>
					</g>
				</g>
			</g>
		</g>
	</g>
</g>
<g>
	<g>
		<g>
			<g>
				<g>
					<g>
						<g>
							<g>
								<g>
									<path d="M1498.83,567.88c-13.62,0-24.7-11.08-24.7-24.7c0-13.62,11.08-24.7,24.7-24.7c13.62,0,24.7,11.08,24.7,24.7           C1523.53,556.8,1512.45,567.88,1498.83,567.88z M1498.83,523.4c-10.91,0-19.78,8.88-19.78,19.78s8.88,19.78,19.78,19.78           c10.91,0,19.78-8.88,19.78-19.78S1509.74,523.4,1498.83,523.4z"></path>
								</g>
							</g>
						</g>
					</g>
				</g>
			</g>
		</g>
	</g>
</g>
<g>
	<g>
		<g>
			<g>
				<g>
					<g>
						<g>
							<g>
								<g>
									<path class="st3" d="M1239.29,497.38c-8.4,0-15.23-6.83-15.23-15.23s6.83-15.23,15.23-15.23s15.23,6.83,15.23,15.23           S1247.69,497.38,1239.29,497.38z M1239.29,471.83c-5.69,0-10.31,4.63-10.31,10.31c0,5.69,4.63,10.31,10.31,10.31           c5.69,0,10.31-4.63,10.31-10.31C1249.6,476.46,1244.97,471.83,1239.29,471.83z"></path>
								</g>
							</g>
						</g>
					</g>
				</g>
			</g>
		</g>
	</g>
</g>
<g>
	<g>
		<g>
			<g>
				<g>
					<g>
						<g>
							<g>
								<g>
									<circle class="st0" cx="539.81" cy="802.71" r="19.13"></circle>
								</g>
							</g>
						</g>
					</g>
				</g>
			</g>
		</g>
	</g>
</g>
<g>
	<g>
		<g>
			<g>
				<g>
					<g>
						<g>
							<g>
								<g>
									<path class="st0" d="M1442.19,304.9c-13.62,0-24.7-11.08-24.7-24.7s11.08-24.7,24.7-24.7c13.62,0,24.7,11.08,24.7,24.7           S1455.82,304.9,1442.19,304.9z M1442.19,260.42c-10.91,0-19.78,8.88-19.78,19.78c0,10.91,8.88,19.78,19.78,19.78           c10.91,0,19.78-8.88,19.78-19.78C1461.98,269.29,1453.1,260.42,1442.19,260.42z"></path>
								</g>
							</g>
						</g>
					</g>
				</g>
			</g>
		</g>
	</g>
</g>
<g>
	<g>
		<g>
			<g>
				<g>
					<g>
						<g>
							<g>
								<g>
									<polygon class="st0" points="927.6,668.51 918.01,668.51 918.01,658.92 912.29,658.92 912.29,668.51 902.7,668.51            902.7,674.23 912.29,674.23 912.29,683.81 918.01,683.81 918.01,674.23 927.6,674.23          "></polygon>
								</g>
							</g>
						</g>
					</g>
				</g>
			</g>
		</g>
	</g>
</g>
<g>
	<g>
		<g>
			<g>
				<g>
					<g>
						<g>
							<g>
								<g>
									<polygon class="st0" points="1013.76,650.45 1004.17,650.45 1004.17,640.86 998.45,640.86 998.45,650.45 988.87,650.45            988.87,656.17 998.45,656.17 998.45,665.76 1004.17,665.76 1004.17,656.17 1013.76,656.17          "></polygon>
								</g>
							</g>
						</g>
					</g>
				</g>
			</g>
		</g>
	</g>
</g>
<g>
	<g>
		<g>
			<g>
				<g>
					<g>
						<g>
							<g>
								<g>
									<polygon class="st0" points="983.74,745.68 974.15,745.68 974.15,736.09 968.43,736.09 968.43,745.68 958.84,745.68            958.84,751.4 968.43,751.4 968.43,760.99 974.15,760.99 974.15,751.4 983.74,751.4          "></polygon>
								</g>
							</g>
						</g>
					</g>
				</g>
			</g>
		</g>
	</g>
</g>
<g>
	<g>
		<g>
			<g>
				<g>
					<g>
						<g>
							<g>
								<g>
									<polygon class="st0" points="1081.46,718.8 1071.87,718.8 1071.87,709.22 1066.15,709.22 1066.15,718.8 1056.56,718.8            1056.56,724.52 1066.15,724.52 1066.15,734.11 1071.87,734.11 1071.87,724.52 1081.46,724.52          "></polygon>
								</g>
							</g>
						</g>
					</g>
				</g>
			</g>
		</g>
	</g>
</g>
<g>
	<g>
		<g>
			<g>
				<g>
					<g>
						<g>
							<g>
								<g>
									<polygon class="st0" points="1293.51,668.51 1283.92,668.51 1283.92,658.92 1278.2,658.92 1278.2,668.51 1268.61,668.51            1268.61,674.23 1278.2,674.23 1278.2,683.81 1283.92,683.81 1283.92,674.23 1293.51,674.23          "></polygon>
								</g>
							</g>
						</g>
					</g>
				</g>
			</g>
		</g>
	</g>
</g>
<g>
	<g>
		<g>
			<g>
				<g>
					<g>
						<g>
							<g>
								<g>
									<polygon class="st0" points="1271.13,745.68 1261.54,745.68 1261.54,736.09 1255.82,736.09 1255.82,745.68 1246.23,745.68            1246.23,751.4 1255.82,751.4 1255.82,760.99 1261.54,760.99 1261.54,751.4 1271.13,751.4          "></polygon>
								</g>
							</g>
						</g>
					</g>
				</g>
			</g>
		</g>
	</g>
</g>
<g>
	<g>
		<g>
			<g>
				<g>
					<g>
						<g>
							<g>
								<g>
									<polygon class="st0" points="1171.92,771.89 1162.33,771.89 1162.33,762.31 1156.61,762.31 1156.61,771.89 1147.02,771.89            1147.02,777.61 1156.61,777.61 1156.61,787.2 1162.33,787.2 1162.33,777.61 1171.92,777.61          "></polygon>
								</g>
							</g>
						</g>
					</g>
				</g>
			</g>
		</g>
	</g>
</g>
<g>
	<g>
		<g>
			<g>
				<g>
					<g>
						<g>
							<g>
								<g>
									<polygon class="st0" points="1093.42,790.17 1083.83,790.17 1083.83,780.58 1078.11,780.58 1078.11,790.17 1068.52,790.17            1068.52,795.89 1078.11,795.89 1078.11,805.48 1083.83,805.48 1083.83,795.89 1093.42,795.89          "></polygon>
								</g>
							</g>
						</g>
					</g>
				</g>
			</g>
		</g>
	</g>
</g>
<g>
	<g>
		<g>
			<g>
				<g>
					<g>
						<g>
							<g>
								<g>
									<polygon class="st0" points="1489.03,412.96 1479.44,412.96 1479.44,403.38 1473.72,403.38 1473.72,412.96 1464.13,412.96            1464.13,418.68 1473.72,418.68 1473.72,428.27 1479.44,428.27 1479.44,418.68 1489.03,418.68          "></polygon>
								</g>
							</g>
						</g>
					</g>
				</g>
			</g>
		</g>
	</g>
</g>
<g>
	<g>
		<g>
			<g>
				<g>
					<g>
						<g>
							<g>
								<g>
									<polygon class="st3" points="1143.51,267.55 1133.92,267.55 1133.92,257.96 1128.2,257.96 1128.2,267.55 1118.61,267.55            1118.61,273.26 1128.2,273.26 1128.2,282.85 1133.92,282.85 1133.92,273.26 1143.51,273.26          "></polygon>
								</g>
							</g>
						</g>
					</g>
				</g>
			</g>
		</g>
	</g>
</g>
</svg>
