<?xml version="1.0" encoding="UTF-8"?>
<svg width="300px" height="171px" xmlns="http://www.w3.org/2000/svg" id="Calque_1" data-name="Calque 1" viewBox="0 0 1280 730">
  <defs>
    <style>.cls-1{font-size:41.25px;font-family:Syne-Bold, Syne;font-weight:700;}.cls-2{fill:#0c0d0d;}.cls-3{fill:#e9e66f;}</style>
  </defs>
  <title>logo-voilà</title>
  <text class="cls-1" transform="translate(421.59 404.74) rotate(79.68)">A</text>
  <text class="cls-1" transform="translate(431.25 448.64) rotate(61.97)">G</text>
  <text class="cls-1" transform="translate(457.18 492.34) rotate(46.47)">E</text>
  <text class="cls-1" transform="translate(488.29 523.35) rotate(33.57)">N</text>
  <text class="cls-1" transform="matrix(0.93, 0.37, -0.37, 0.93, 529.85, 549.31)">C</text>
  <text class="cls-1" transform="translate(574.69 565.88) rotate(11.72)">E</text>
  <text class="cls-1" transform="translate(615.96 573.2) rotate(5.2)"> </text>
  <text class="cls-1" transform="translate(635.88 575.2) rotate(-1.56)">C</text>
  <text class="cls-1" transform="translate(683.51 572.89) rotate(-11.21)">R</text>
  <text class="cls-1" transform="translate(727.71 563.1) rotate(-20.92)">É</text>
  <text class="cls-1" transform="translate(767.66 546.83) rotate(-31.32)">A</text>
  <text class="cls-1" transform="translate(801.93 525.05) rotate(-41.75)">T</text>
  <text class="cls-1" transform="translate(831.4 496.59) rotate(-51.56)">I</text>
  <text class="cls-1" transform="matrix(0.45, -0.89, 0.89, 0.45, 846.91, 476.74)">V</text>
  <text class="cls-1" transform="translate(865.74 435.39) rotate(-80.06)">E</text>
  <path class="cls-2" d="M482.47,231.52c-4.85,0-8,5.33-9.7,9.69L429.4,349h-15L371,241.21c-1.69-4.36-4.84-9.69-9.69-9.69v-6.06h43.13l32.23,76.09,31.26-76.09h14.54Z"></path>
  <path class="cls-2" d="M615.25,287.73c-.13,36.59-28.34,65.08-66.62,64.95s-66.29-28.83-66.16-65.42,28.33-65.32,66.62-65.19S615.38,251.14,615.25,287.73Zm-38.77-.14c.12-33.44-12.15-59.65-27.41-59.7S521.35,254,521.23,287.4s12.15,59.41,27.42,59.46S576.36,321,576.48,287.59Z"></path>
  <path class="cls-2" d="M668,333.29c0,4.85,4.85,9.69,9.7,9.69V349h-46V241.21c0-4.84-4.85-9.69-9.7-9.69v-6.06h46ZM626.76,184a19.39,19.39,0,1,1,19.39,19.38A19.45,19.45,0,0,1,626.76,184Z"></path>
  <path class="cls-2" d="M727.32,333.29c0,4.85,4.84,9.69,9.69,9.69V349H691V170.94c0-4.84-4.85-9.69-9.69-9.69v-6.06h46Z"></path>
  <path class="cls-2" d="M861.31,333.29c0,4.85,4.85,9.69,9.69,9.69V349H825V329.17c-6.79,10.9-23,23.26-42.41,23.26-19.14,0-39.49-9.45-39.49-35.62,0-47,86.74-31.25,81.17-70.75-1.7-12.36-10.42-18.17-22.78-18.17-26.17,0-33.92,23-33.92,41.43H756.15V225.46c19.87-2.18,29.32-3.39,45.31-3.39,42.65,0,59.85,25.69,59.85,64.94ZM755.67,178.46A19.25,19.25,0,0,1,791,164.89c6.06,8.48,19.14,29.8,22.78,35.37,2.18,3.88-7.27,4.85-18.66,3.15-6.06-1-15-3.39-26.65-9.69C762,190.33,756.63,184.51,755.67,178.46ZM825,314.39V287c0-.73.24-11.39,0-22.05-4.37,15-43.38,26.9-43.38,51.85,0,12.85,6.06,20.84,17.45,20.84S822.54,325.29,825,314.39Z"></path>
  <path class="cls-3" d="M879.92,330.59A19.39,19.39,0,1,1,899.3,350,19.44,19.44,0,0,1,879.92,330.59Z"></path>
</svg>
