<?xml version="1.0" encoding="UTF-8"?>
<!-- Generator: Adobe Illustrator 24.0.3, SVG Export Plug-In . SVG Version: 6.00 Build 0)  -->
<svg xmlns="http://www.w3.org/2000/svg" xmlns:xlink="http://www.w3.org/1999/xlink" version="1.1" id="Calque_1" x="0px" y="0px" viewBox="0 0 1920 1080" style="enable-background:new 0 0 1920 1080;" xml:space="preserve">
<style type="text/css">
	.st0{fill:#D6C94D;}
	.st1{fill:#070707;}
	.st2{fill:#FFF173;}
	.st3{fill:#FFFFFF;}
	.st4{fill:#E2DA74;}
	.st5{fill:none;stroke:#000000;stroke-width:10;stroke-miterlimit:10;}
</style>
<g>
	<g>
		<g>
			<g>
				<g>
					<g>
						<g>
							<g>
								<g>
									<circle class="st0" cx="673.61" cy="175.58" r="59.13"></circle>
								</g>
							</g>
						</g>
					</g>
				</g>
			</g>
		</g>
	</g>
</g>
<g>
	<g>
		<g>
			<g>
				<g>
					<g>
						<g>
							<g>
								<g>
									<path class="st3" d="M663.4,248.73c-2.4-0.33-4.8-0.79-7.15-1.35l1.1-4.57c2.2,0.53,4.46,0.96,6.7,1.27L663.4,248.73z            M687.56,248.12l-0.88-4.62c2.23-0.43,4.45-0.97,6.62-1.61l1.34,4.51C692.32,247.08,689.94,247.66,687.56,248.12z            M634,237.92c-2.04-1.3-4.04-2.71-5.94-4.21l2.9-3.7c1.78,1.4,3.66,2.72,5.56,3.94L634,237.92z M716.37,235.8l-2.73-3.83           c1.84-1.31,3.65-2.73,5.36-4.22l3.09,3.55C720.26,232.89,718.34,234.4,716.37,235.8z M611.72,215.9           c-1.32-2.03-2.56-4.14-3.67-6.29l4.17-2.17c1.04,2.01,2.2,3.99,3.44,5.89L611.72,215.9z M737.49,212.67l-4.07-2.37           c1.14-1.96,2.19-4,3.13-6.05l4.28,1.95C739.83,208.4,738.71,210.58,737.49,212.67z M600.58,186.62           c-0.36-2.39-0.6-4.83-0.72-7.24l4.7-0.24c0.11,2.27,0.34,4.55,0.68,6.78L600.58,186.62z M747.11,182.85l-4.68-0.46           c0.22-2.25,0.33-4.54,0.33-6.81h4.7C747.46,178.01,747.34,180.45,747.11,182.85z M741.37,161.73           c-0.45-2.22-1.02-4.44-1.69-6.6l4.49-1.39c0.71,2.31,1.32,4.68,1.8,7.06L741.37,161.73z M607.08,156.65l-4.52-1.29           c0.66-2.33,1.45-4.65,2.34-6.9l4.37,1.73C608.44,152.3,607.7,154.47,607.08,156.65z M729.53,134.9           c-1.33-1.83-2.77-3.62-4.28-5.31l3.51-3.13c1.61,1.81,3.15,3.71,4.57,5.67L729.53,134.9z M620.93,130.79l-3.58-3.05           c1.57-1.84,3.24-3.63,4.98-5.31l3.27,3.38C623.96,127.39,622.39,129.06,620.93,130.79z M707.64,115.37           c-1.97-1.12-4.02-2.15-6.09-3.06l1.9-4.3c2.21,0.98,4.4,2.08,6.51,3.27L707.64,115.37z M644.22,112.97l-2-4.26           c2.19-1.03,4.46-1.96,6.74-2.77l1.57,4.43C648.39,111.13,646.27,112,644.22,112.97z M679.63,106.69           c-2.25-0.19-4.55-0.28-6.81-0.25l-0.06-4.7c2.42-0.03,4.87,0.06,7.27,0.27L679.63,106.69z"></path>
								</g>
							</g>
						</g>
					</g>
				</g>
			</g>
		</g>
	</g>
</g>
<g>
	<g>
		<g>
			<g>
				<g>
					<g>
						<g>
							<g>
								<g>
									<path class="st0" d="M1247.16,169.32c-176.76-36.05-390.3,64.32-426.69,228.23c-37.68,169.74,135.74,312.47,158.77,331.43           c148.31,122.07,407.82,177,523.93,51.6c86.36-93.26,54.17-243.9,45.65-283.8C1521.8,370.32,1424.57,205.5,1247.16,169.32z"></path>
								</g>
							</g>
						</g>
					</g>
				</g>
			</g>
		</g>
	</g>
</g>
<g>
	<g>
		<g>
			<g>
				<g>
					<g>
						<g>
							<g>
								<g>
									<path class="st1" d="M1289.22,876.05c-1.29,0-2.34-1.04-2.35-2.33c-0.01-1.3,1.04-2.36,2.33-2.37           c2.33-0.02,4.68-0.05,6.99-0.11c1.29-0.02,2.38,0.99,2.41,2.29c0.03,1.3-0.99,2.38-2.29,2.41           c-2.34,0.06-4.72,0.1-7.08,0.11C1289.23,876.05,1289.22,876.05,1289.22,876.05z M1265.77,875.54c-0.04,0-0.08,0-0.12,0           c-2.35-0.12-4.73-0.25-7.06-0.41c-1.3-0.09-2.28-1.21-2.19-2.5c0.09-1.3,1.2-2.27,2.5-2.19c2.31,0.15,4.66,0.29,6.99,0.4           c1.3,0.06,2.3,1.17,2.23,2.47C1268.05,874.56,1267.01,875.54,1265.77,875.54z M1319.67,874.61c-1.2,0-2.23-0.92-2.34-2.14           c-0.12-1.29,0.84-2.44,2.13-2.55c2.32-0.21,4.66-0.44,6.95-0.69c1.29-0.14,2.45,0.79,2.59,2.08           c0.14,1.29-0.79,2.45-2.08,2.59c-2.33,0.26-4.7,0.49-7.05,0.7C1319.81,874.6,1319.74,874.61,1319.67,874.61z            M1235.38,872.98c-0.09,0-0.18-0.01-0.28-0.02c-2.34-0.28-4.7-0.57-7.02-0.88c-1.29-0.17-2.19-1.35-2.02-2.64           c0.17-1.29,1.35-2.2,2.64-2.02c2.3,0.3,4.63,0.6,6.95,0.87c1.29,0.15,2.21,1.32,2.06,2.61           C1237.57,872.1,1236.56,872.98,1235.38,872.98z M1349.88,870.51c-1.11,0-2.1-0.79-2.31-1.92c-0.24-1.28,0.61-2.5,1.89-2.74           c2.3-0.42,4.6-0.88,6.85-1.35c1.28-0.27,2.52,0.55,2.78,1.82c0.27,1.27-0.55,2.52-1.82,2.78           c-2.28,0.48-4.62,0.94-6.96,1.37C1350.16,870.49,1350.02,870.51,1349.88,870.51z M1205.22,868.47           c-0.14,0-0.28-0.01-0.42-0.04c-2.29-0.41-4.63-0.85-6.95-1.3c-1.27-0.25-2.11-1.48-1.86-2.76           c0.25-1.28,1.48-2.11,2.76-1.86c2.3,0.45,4.61,0.88,6.89,1.29c1.28,0.23,2.13,1.45,1.9,2.73           C1207.32,867.68,1206.33,868.47,1205.22,868.47z M1379.52,863.41c-1.01,0-1.95-0.66-2.25-1.68           c-0.37-1.24,0.34-2.55,1.58-2.93c2.24-0.67,4.48-1.37,6.65-2.08c1.23-0.4,2.56,0.27,2.97,1.5c0.4,1.23-0.27,2.56-1.5,2.97           c-2.21,0.73-4.49,1.44-6.78,2.12C1379.97,863.38,1379.74,863.41,1379.52,863.41z M1175.38,862.18           c-0.18,0-0.37-0.02-0.55-0.07c-2.28-0.55-4.59-1.12-6.88-1.7c-1.26-0.32-2.02-1.6-1.7-2.86c0.32-1.26,1.6-2.02,2.86-1.7           c2.27,0.58,4.56,1.14,6.82,1.69c1.26,0.3,2.04,1.57,1.74,2.84C1177.4,861.46,1176.44,862.18,1175.38,862.18z            M1145.91,854.23c-0.22,0-0.45-0.03-0.67-0.1c-2.26-0.68-4.54-1.37-6.77-2.07c-1.24-0.39-1.93-1.71-1.54-2.95           c0.39-1.24,1.71-1.93,2.95-1.54c2.21,0.69,4.47,1.38,6.72,2.05c1.24,0.37,1.95,1.68,1.58,2.93           C1147.86,853.57,1146.92,854.23,1145.91,854.23z M1408.16,852.95c-0.91,0-1.77-0.53-2.16-1.41           c-0.52-1.19,0.02-2.58,1.21-3.1c2.14-0.94,4.27-1.91,6.35-2.9c1.17-0.56,2.58-0.06,3.13,1.11           c0.56,1.17,0.06,2.58-1.11,3.13c-2.12,1.01-4.3,2-6.48,2.96C1408.79,852.89,1408.47,852.95,1408.16,852.95z            M1116.92,844.72c-0.26,0-0.53-0.04-0.79-0.14c-2.2-0.79-4.44-1.6-6.65-2.42c-1.22-0.45-1.84-1.8-1.39-3.02           c0.45-1.22,1.8-1.84,3.02-1.39c2.19,0.81,4.41,1.62,6.59,2.4c1.22,0.44,1.86,1.78,1.42,3.01           C1118.79,844.12,1117.88,844.72,1116.92,844.72z M1435.18,838.85c-0.79,0-1.56-0.4-2.01-1.12           c-0.68-1.11-0.34-2.55,0.77-3.24c1.97-1.21,3.95-2.47,5.86-3.75c1.08-0.72,2.54-0.42,3.26,0.66           c0.72,1.08,0.42,2.54-0.66,3.26c-1.96,1.3-3.98,2.59-6,3.83C1436.03,838.74,1435.6,838.85,1435.18,838.85z M1088.46,833.72           c-0.3,0-0.61-0.06-0.9-0.18c-2.17-0.9-4.36-1.83-6.5-2.76c-1.19-0.51-1.74-1.9-1.23-3.09c0.51-1.19,1.9-1.74,3.09-1.23           c2.13,0.92,4.3,1.84,6.45,2.73c1.2,0.5,1.77,1.88,1.27,3.07C1090.26,833.18,1089.38,833.72,1088.46,833.72z            M1060.62,821.27c-0.34,0-0.69-0.07-1.01-0.23c-2.1-1-4.23-2.04-6.35-3.09c-1.16-0.57-1.64-1.98-1.07-3.15           c0.57-1.16,1.98-1.64,3.15-1.07c2.1,1.04,4.22,2.07,6.3,3.06c1.17,0.56,1.67,1.96,1.11,3.14           C1062.34,820.78,1061.5,821.27,1060.62,821.27z M1459.85,820.99c-0.67,0-1.33-0.28-1.8-0.83           c-0.84-0.99-0.72-2.47,0.27-3.31c1.75-1.49,3.51-3.03,5.21-4.58c0.96-0.87,2.45-0.81,3.32,0.15           c0.88,0.96,0.81,2.45-0.15,3.32c-1.75,1.59-3.55,3.17-5.34,4.7C1460.93,820.81,1460.39,820.99,1459.85,820.99z            M1033.48,807.39c-0.38,0-0.77-0.09-1.12-0.29c-2.05-1.12-4.12-2.26-6.17-3.41c-1.13-0.64-1.53-2.07-0.9-3.2           c0.64-1.13,2.07-1.54,3.2-0.9c2.03,1.14,4.09,2.28,6.12,3.39c1.14,0.62,1.56,2.05,0.94,3.19           C1035.12,806.95,1034.31,807.39,1033.48,807.39z M1481.45,799.53c-0.54,0-1.09-0.19-1.53-0.57           c-0.99-0.85-1.1-2.33-0.25-3.32c1.5-1.75,2.99-3.55,4.43-5.35c0.81-1.02,2.29-1.18,3.3-0.37c1.02,0.81,1.18,2.29,0.37,3.3           c-1.47,1.85-3,3.69-4.54,5.49C1482.77,799.25,1482.12,799.53,1481.45,799.53z M1007.13,792.07c-0.42,0-0.85-0.11-1.24-0.35           c-2-1.24-4.01-2.5-5.99-3.76c-1.1-0.7-1.42-2.15-0.72-3.25c0.7-1.09,2.15-1.42,3.25-0.72c1.95,1.25,3.95,2.5,5.93,3.73           c1.1,0.68,1.45,2.13,0.76,3.24C1008.69,791.68,1007.92,792.07,1007.13,792.07z M981.67,775.28c-0.47,0-0.94-0.14-1.35-0.43           c-1.92-1.35-3.86-2.73-5.76-4.11c-1.05-0.76-1.29-2.23-0.53-3.28c0.76-1.05,2.23-1.29,3.28-0.53           c1.88,1.36,3.8,2.73,5.7,4.07c1.06,0.75,1.32,2.21,0.57,3.28C983.14,774.93,982.41,775.28,981.67,775.28z M1499.42,774.94           c-0.42,0-0.85-0.11-1.23-0.35c-1.1-0.68-1.45-2.13-0.76-3.24c1.21-1.96,2.41-3.97,3.55-5.98c0.64-1.13,2.08-1.52,3.21-0.87           c1.13,0.64,1.52,2.08,0.88,3.21c-1.17,2.05-2.4,4.11-3.64,6.12C1500.98,774.55,1500.21,774.94,1499.42,774.94z            M957.28,756.98c-0.52,0-1.04-0.17-1.47-0.52c-1.51-1.21-3.04-2.46-4.56-3.7l-0.92-0.76c-1-0.83-1.14-2.31-0.32-3.31           c0.83-1,2.31-1.15,3.31-0.32l0.92,0.76c1.5,1.23,3.02,2.47,4.51,3.67c1.01,0.81,1.18,2.29,0.36,3.31           C958.65,756.68,957.97,756.98,957.28,756.98z M1513.5,747.92c-0.31,0-0.63-0.06-0.93-0.19c-1.19-0.52-1.74-1.9-1.22-3.09           c0.92-2.11,1.81-4.28,2.67-6.44c0.48-1.21,1.84-1.8,3.05-1.32c1.21,0.48,1.8,1.85,1.32,3.05c-0.87,2.2-1.79,4.42-2.73,6.58           C1515.27,747.39,1514.41,747.92,1513.5,747.92z M933.98,737.21c-0.56,0-1.12-0.2-1.57-0.6c-1.74-1.56-3.5-3.16-5.24-4.76           c-0.96-0.88-1.02-2.37-0.14-3.32c0.88-0.96,2.37-1.02,3.32-0.14c1.73,1.59,3.48,3.17,5.2,4.72           c0.97,0.87,1.05,2.35,0.18,3.32C935.26,736.94,934.62,737.21,933.98,737.21z M1523.76,719.21c-0.22,0-0.43-0.03-0.65-0.09           c-1.25-0.36-1.97-1.66-1.61-2.91c0.64-2.21,1.26-4.48,1.84-6.74c0.33-1.26,1.61-2.01,2.87-1.69           c1.26,0.33,2.01,1.61,1.69,2.87c-0.6,2.3-1.23,4.61-1.88,6.86C1525.72,718.54,1524.78,719.21,1523.76,719.21z            M911.77,716.24c-0.6,0-1.2-0.23-1.66-0.68c-1.67-1.66-3.35-3.35-4.99-5.02c-0.91-0.93-0.9-2.42,0.03-3.33           c0.93-0.91,2.42-0.9,3.33,0.03c1.63,1.66,3.29,3.33,4.95,4.98c0.92,0.92,0.93,2.4,0.01,3.33           C912.98,716,912.37,716.24,911.77,716.24z M890.69,694.15c-0.64,0-1.28-0.26-1.74-0.77c-1.58-1.75-3.17-3.52-4.71-5.27           c-0.86-0.97-0.77-2.46,0.21-3.32c0.97-0.86,2.46-0.77,3.32,0.21c1.53,1.73,3.1,3.49,4.68,5.23           c0.87,0.96,0.8,2.45-0.17,3.32C891.81,693.95,891.25,694.15,890.69,694.15z M1530.53,689.48c-0.13,0-0.27-0.01-0.4-0.03           c-1.28-0.22-2.14-1.44-1.92-2.72c0.39-2.26,0.76-4.58,1.1-6.91c0.19-1.29,1.38-2.17,2.67-1.98           c1.29,0.19,2.17,1.39,1.98,2.67c-0.35,2.36-0.73,4.72-1.12,7.02C1532.65,688.67,1531.65,689.48,1530.53,689.48z            M870.83,670.97c-0.69,0-1.37-0.3-1.83-0.87c-1.48-1.83-2.97-3.7-4.41-5.53c-0.8-1.02-0.62-2.5,0.4-3.3           c1.02-0.8,2.5-0.63,3.3,0.4c1.43,1.82,2.9,3.67,4.37,5.48c0.82,1.01,0.66,2.49-0.35,3.31           C871.88,670.8,871.35,670.97,870.83,670.97z M1534.22,659.2c-0.06,0-0.12,0-0.18-0.01c-1.3-0.1-2.27-1.23-2.17-2.52           c0.17-2.31,0.33-4.65,0.46-6.98c0.07-1.3,1.17-2.3,2.48-2.22c1.3,0.07,2.29,1.18,2.22,2.48c-0.13,2.35-0.29,4.73-0.46,7.07           C1536.47,658.26,1535.44,659.2,1534.22,659.2z M852.38,646.66c-0.74,0-1.46-0.34-1.92-0.99c-1.37-1.93-2.73-3.88-4.06-5.8           c-0.74-1.07-0.47-2.53,0.6-3.27c1.07-0.74,2.53-0.47,3.27,0.6c1.31,1.9,2.66,3.84,4.01,5.74c0.75,1.06,0.5,2.53-0.55,3.28           C853.33,646.52,852.85,646.66,852.38,646.66z M1535.26,628.72c-1.29,0-2.34-1.04-2.35-2.34c-0.01-2.3-0.04-4.66-0.1-7           c-0.03-1.3,1-2.37,2.3-2.4c0.02,0,0.04,0,0.05,0c1.27,0,2.32,1.02,2.35,2.3c0.05,2.37,0.09,4.75,0.1,7.08           c0.01,1.3-1.04,2.36-2.34,2.36C1535.27,628.72,1535.26,628.72,1535.26,628.72z M835.57,621.2c-0.79,0-1.57-0.4-2.01-1.13           c-1.23-2.02-2.46-4.06-3.64-6.07c-0.66-1.12-0.28-2.56,0.84-3.22c1.12-0.66,2.56-0.28,3.22,0.84c1.17,1.99,2.38,4.01,3.6,6           c0.68,1.11,0.33,2.56-0.78,3.23C836.41,621.09,835.98,621.2,835.57,621.2z M1534.01,598.25c-1.22,0-2.25-0.94-2.34-2.17           c-0.17-2.29-0.37-4.64-0.58-6.98c-0.12-1.29,0.84-2.44,2.13-2.55c1.3-0.12,2.44,0.84,2.55,2.13           c0.21,2.36,0.41,4.74,0.58,7.05c0.1,1.3-0.87,2.42-2.17,2.52C1534.13,598.25,1534.07,598.25,1534.01,598.25z            M820.68,594.57c-0.86,0-1.68-0.47-2.1-1.29c-1.07-2.11-2.12-4.24-3.14-6.35c-0.56-1.17-0.07-2.58,1.1-3.14           c1.17-0.56,2.58-0.07,3.14,1.1c1,2.08,2.05,4.19,3.1,6.27c0.59,1.16,0.12,2.57-1.03,3.16           C821.4,594.49,821.04,594.57,820.68,594.57z M1530.76,567.93c-1.16,0-2.16-0.85-2.33-2.03c-0.32-2.3-0.65-4.63-1-6.94           c-0.19-1.28,0.69-2.48,1.97-2.68c1.28-0.2,2.48,0.69,2.68,1.97c0.35,2.33,0.69,4.68,1.01,7c0.18,1.29-0.72,2.47-2.01,2.65           C1530.97,567.92,1530.87,567.93,1530.76,567.93z M808.11,566.79c-0.93,0-1.82-0.56-2.19-1.48           c-0.87-2.2-1.73-4.42-2.55-6.62c-0.45-1.22,0.17-2.57,1.38-3.02c1.22-0.45,2.57,0.17,3.02,1.38           c0.8,2.16,1.65,4.36,2.51,6.52c0.48,1.21-0.11,2.57-1.32,3.05C808.69,566.73,808.4,566.79,808.11,566.79z M798.28,537.93           c-1.03,0-1.97-0.68-2.26-1.71c-0.64-2.27-1.26-4.58-1.84-6.85c-0.32-1.26,0.44-2.54,1.7-2.86c1.26-0.32,2.54,0.44,2.86,1.7           c0.57,2.24,1.18,4.51,1.81,6.74c0.35,1.25-0.37,2.55-1.62,2.9C798.71,537.9,798.49,537.93,798.28,537.93z M1525.76,537.84           c-1.1,0-2.09-0.78-2.31-1.91c-0.43-2.25-0.88-4.5-1.37-6.88c-0.26-1.27,0.56-2.51,1.83-2.77c1.28-0.26,2.51,0.56,2.77,1.83           c0.49,2.4,0.94,4.67,1.38,6.93c0.25,1.28-0.59,2.51-1.86,2.76C1526.06,537.82,1525.91,537.84,1525.76,537.84z            M791.68,508.18c-1.13,0-2.13-0.82-2.32-1.98c-0.38-2.34-0.72-4.7-1.03-7.03c-0.17-1.29,0.74-2.47,2.02-2.64           c1.29-0.17,2.47,0.74,2.64,2.02c0.3,2.28,0.64,4.6,1.01,6.9c0.21,1.28-0.67,2.49-1.95,2.69           C791.93,508.17,791.8,508.18,791.68,508.18z M1519.31,508.02c-1.06,0-2.02-0.72-2.28-1.79c-0.55-2.23-1.13-4.52-1.73-6.78           c-0.33-1.26,0.42-2.54,1.67-2.87c1.26-0.33,2.54,0.42,2.87,1.67c0.6,2.29,1.19,4.6,1.75,6.86           c0.31,1.26-0.46,2.54-1.72,2.85C1519.68,508,1519.49,508.02,1519.31,508.02z M1511,478.67c-1,0-1.92-0.64-2.24-1.64           c-0.71-2.22-1.44-4.46-2.18-6.66c-0.41-1.23,0.25-2.56,1.48-2.98c1.23-0.41,2.56,0.25,2.98,1.48           c0.74,2.21,1.49,4.48,2.2,6.72c0.4,1.24-0.29,2.56-1.52,2.96C1511.47,478.63,1511.23,478.67,1511,478.67z M788.75,477.86           c-1.26,0-2.31-1-2.35-2.28c-0.07-2.36-0.11-4.75-0.12-7.1c0-1.3,1.05-2.35,2.35-2.35c0,0,0,0,0,0           c1.3,0,2.35,1.05,2.35,2.35c0,2.31,0.04,4.65,0.11,6.96c0.04,1.3-0.98,2.38-2.28,2.42           C788.8,477.86,788.78,477.86,788.75,477.86z M1500.8,449.92c-0.94,0-1.83-0.57-2.19-1.5c-0.84-2.15-1.71-4.34-2.6-6.51           c-0.49-1.2,0.09-2.57,1.29-3.06c1.2-0.49,2.58,0.09,3.06,1.29c0.89,2.19,1.77,4.4,2.62,6.57c0.47,1.21-0.12,2.57-1.33,3.05           C1501.37,449.87,1501.08,449.92,1500.8,449.92z M789.83,447.41c-0.08,0-0.16,0-0.24-0.01c-1.29-0.13-2.23-1.29-2.1-2.58           c0.24-2.35,0.53-4.72,0.84-7.06c0.17-1.29,1.36-2.19,2.65-2.02c1.29,0.17,2.19,1.36,2.02,2.65           c-0.31,2.29-0.59,4.62-0.83,6.92C792.04,446.51,791.02,447.41,789.83,447.41z M1488.83,421.86c-0.89,0-1.74-0.5-2.13-1.36           c-0.97-2.09-1.98-4.23-2.99-6.34c-0.56-1.17-0.07-2.58,1.1-3.14c1.17-0.56,2.58-0.07,3.14,1.1           c1.02,2.13,2.04,4.28,3.02,6.39c0.55,1.18,0.03,2.58-1.14,3.12C1489.5,421.79,1489.16,421.86,1488.83,421.86z            M795.02,417.39c-0.18,0-0.37-0.02-0.56-0.07c-1.26-0.31-2.04-1.58-1.73-2.84c0.55-2.28,1.16-4.59,1.79-6.87           c0.35-1.25,1.64-1.99,2.89-1.64c1.25,0.35,1.99,1.64,1.64,2.89c-0.62,2.23-1.21,4.5-1.75,6.73           C797.04,416.66,796.08,417.39,795.02,417.39z M1475.15,394.6c-0.84,0-1.64-0.45-2.07-1.23c-1.11-2.06-2.25-4.12-3.38-6.14           c-0.63-1.13-0.23-2.57,0.9-3.2c1.13-0.63,2.57-0.23,3.2,0.9c1.14,2.03,2.29,4.12,3.41,6.2c0.62,1.14,0.19,2.57-0.95,3.19           C1475.91,394.5,1475.53,394.6,1475.15,394.6z M804.16,388.36c-0.28,0-0.57-0.05-0.85-0.16c-1.21-0.47-1.81-1.83-1.34-3.04           c0.85-2.19,1.75-4.4,2.67-6.57c0.51-1.2,1.89-1.76,3.08-1.25c1.2,0.51,1.75,1.89,1.25,3.08c-0.9,2.13-1.78,4.29-2.62,6.44           C805.99,387.79,805.1,388.36,804.16,388.36z M1459.79,368.25c-0.78,0-1.55-0.39-1.99-1.1c-1.24-1.97-2.5-3.96-3.76-5.91           c-0.71-1.09-0.39-2.55,0.7-3.25c1.09-0.71,2.55-0.39,3.25,0.7c1.27,1.97,2.55,3.97,3.8,5.97c0.69,1.1,0.36,2.55-0.74,3.24           C1460.65,368.13,1460.22,368.25,1459.79,368.25z M816.99,360.74c-0.38,0-0.76-0.09-1.12-0.29           c-1.14-0.62-1.56-2.05-0.94-3.19c1.12-2.07,2.29-4.15,3.48-6.2c0.65-1.12,2.09-1.51,3.21-0.86           c1.12,0.65,1.51,2.09,0.86,3.21c-1.16,2.01-2.31,4.06-3.41,6.08C818.63,360.3,817.82,360.74,816.99,360.74z            M1442.76,342.95c-0.73,0-1.45-0.34-1.91-0.97c-1.37-1.89-2.76-3.79-4.14-5.64c-0.78-1.04-0.56-2.51,0.48-3.29           s2.51-0.56,3.29,0.48c1.4,1.87,2.81,3.79,4.19,5.7c0.76,1.05,0.52,2.52-0.53,3.28           C1443.72,342.8,1443.24,342.95,1442.76,342.95z M833.1,334.86c-0.47,0-0.94-0.14-1.35-0.43c-1.06-0.75-1.31-2.22-0.56-3.28           c1.36-1.92,2.76-3.86,4.18-5.76c0.78-1.04,2.25-1.26,3.29-0.48c1.04,0.78,1.26,2.25,0.48,3.29           c-1.39,1.87-2.78,3.77-4.11,5.66C834.57,334.52,833.84,334.86,833.1,334.86z M1424.08,318.87c-0.67,0-1.34-0.29-1.81-0.85           c-1.48-1.78-3-3.57-4.51-5.32c-0.85-0.98-0.74-2.47,0.25-3.32c0.98-0.85,2.47-0.74,3.32,0.25           c1.53,1.77,3.06,3.58,4.56,5.38c0.83,1,0.7,2.48-0.3,3.31C1425.14,318.7,1424.61,318.87,1424.08,318.87z M852.04,310.96           c-0.55,0-1.11-0.19-1.56-0.59c-0.97-0.86-1.07-2.35-0.21-3.32c1.55-1.75,3.15-3.52,4.76-5.26           c0.88-0.95,2.37-1.01,3.32-0.13c0.95,0.88,1.01,2.37,0.13,3.32c-1.58,1.71-3.16,3.45-4.68,5.18           C853.34,310.69,852.69,310.96,852.04,310.96z M1403.75,296.21c-0.62,0-1.23-0.24-1.69-0.72c-1.6-1.66-3.25-3.33-4.89-4.97           c-0.92-0.92-0.92-2.41,0-3.33c0.92-0.92,2.41-0.92,3.33,0c1.66,1.66,3.32,3.35,4.94,5.03c0.9,0.93,0.88,2.42-0.06,3.33           C1404.93,295.99,1404.34,296.21,1403.75,296.21z M873.34,289.15c-0.63,0-1.26-0.25-1.72-0.75           c-0.88-0.95-0.83-2.44,0.12-3.32c1.72-1.59,3.48-3.2,5.25-4.77c0.97-0.86,2.46-0.78,3.32,0.19           c0.86,0.97,0.78,2.46-0.19,3.32c-1.74,1.55-3.48,3.13-5.17,4.7C874.48,288.94,873.91,289.15,873.34,289.15z            M1381.78,275.14c-0.55,0-1.11-0.2-1.56-0.59c-1.74-1.54-3.51-3.09-5.27-4.59c-0.99-0.84-1.1-2.33-0.26-3.32           c0.84-0.99,2.33-1.1,3.32-0.26c1.78,1.52,3.58,3.09,5.34,4.65c0.97,0.86,1.06,2.35,0.2,3.32           C1383.08,274.87,1382.43,275.14,1381.78,275.14z M896.61,269.46c-0.7,0-1.4-0.31-1.86-0.91c-0.79-1.03-0.6-2.5,0.42-3.3           c1.85-1.43,3.75-2.87,5.65-4.27c1.04-0.77,2.52-0.55,3.29,0.49c0.77,1.04,0.55,2.52-0.49,3.29           c-1.87,1.39-3.75,2.8-5.58,4.22C897.62,269.3,897.11,269.46,896.61,269.46z M1358.18,255.84c-0.49,0-0.99-0.15-1.41-0.47           c-1.86-1.39-3.75-2.79-5.63-4.14c-1.05-0.76-1.29-2.23-0.53-3.28c0.76-1.05,2.23-1.29,3.28-0.53           c1.9,1.37,3.82,2.79,5.7,4.2c1.04,0.78,1.25,2.25,0.47,3.29C1359.6,255.52,1358.89,255.84,1358.18,255.84z M921.52,251.88           c-0.77,0-1.53-0.38-1.98-1.08c-0.7-1.09-0.39-2.55,0.7-3.25c1.97-1.27,3.98-2.54,5.99-3.78c1.11-0.68,2.55-0.34,3.24,0.76           c0.68,1.1,0.34,2.55-0.76,3.24c-1.98,1.22-3.97,2.48-5.91,3.74C922.4,251.76,921.96,251.88,921.52,251.88z M1333.06,238.59           c-0.43,0-0.86-0.12-1.24-0.36c-1.97-1.23-3.98-2.46-5.96-3.65c-1.11-0.67-1.48-2.11-0.81-3.22           c0.67-1.11,2.11-1.48,3.22-0.81c2.01,1.2,4.05,2.45,6.04,3.7c1.1,0.69,1.44,2.14,0.75,3.24           C1334.61,238.2,1333.84,238.59,1333.06,238.59z M947.79,236.39c-0.84,0-1.65-0.45-2.07-1.24           c-0.62-1.14-0.19-2.57,0.96-3.18c2.06-1.11,4.17-2.22,6.26-3.3c1.15-0.6,2.57-0.14,3.17,1.01c0.6,1.15,0.14,2.57-1.01,3.17           c-2.07,1.07-4.15,2.16-6.19,3.26C948.55,236.3,948.16,236.39,947.79,236.39z M1306.54,223.58c-0.36,0-0.72-0.08-1.06-0.26           c-2.06-1.05-4.17-2.09-6.26-3.1c-1.17-0.56-1.66-1.97-1.09-3.14c0.56-1.17,1.97-1.66,3.14-1.09           c2.12,1.02,4.25,2.08,6.35,3.15c1.16,0.59,1.62,2,1.03,3.16C1308.22,223.11,1307.39,223.58,1306.54,223.58z M975.19,222.95           c-0.9,0-1.76-0.52-2.15-1.4c-0.53-1.19,0.01-2.58,1.19-3.1c2.15-0.95,4.34-1.91,6.51-2.83c1.19-0.51,2.58,0.05,3.08,1.25           c0.51,1.2-0.05,2.58-1.25,3.08c-2.15,0.91-4.32,1.85-6.44,2.8C975.83,222.89,975.51,222.95,975.19,222.95z M1003.52,211.57           c-0.96,0-1.87-0.6-2.21-1.56c-0.44-1.22,0.19-2.57,1.42-3.01c2.22-0.8,4.47-1.59,6.69-2.35c1.23-0.42,2.57,0.24,2.99,1.46           c0.42,1.23-0.24,2.57-1.46,2.99c-2.2,0.75-4.43,1.53-6.62,2.32C1004.06,211.53,1003.79,211.57,1003.52,211.57z            M1278.78,211c-0.29,0-0.59-0.05-0.87-0.17c-2.14-0.86-4.34-1.71-6.51-2.53c-1.22-0.46-1.83-1.81-1.37-3.03           c0.46-1.22,1.81-1.83,3.03-1.37c2.21,0.83,4.43,1.69,6.61,2.56c1.21,0.48,1.79,1.85,1.31,3.06           C1280.6,210.44,1279.72,211,1278.78,211z M1032.59,202.26c-1.03,0-1.97-0.68-2.26-1.71c-0.35-1.25,0.38-2.55,1.63-2.9           c2.26-0.64,4.56-1.26,6.84-1.87c1.26-0.33,2.54,0.42,2.87,1.67c0.33,1.26-0.42,2.54-1.67,2.87           c-2.25,0.6-4.53,1.22-6.76,1.85C1033.02,202.23,1032.8,202.26,1032.59,202.26z M1250.01,200.98c-0.22,0-0.45-0.03-0.67-0.1           c-2.23-0.67-4.49-1.31-6.71-1.93c-1.25-0.34-1.99-1.64-1.64-2.89c0.35-1.25,1.64-1.99,2.89-1.64           c2.25,0.62,4.54,1.28,6.81,1.95c1.24,0.37,1.95,1.68,1.58,2.93C1251.96,200.32,1251.03,200.98,1250.01,200.98z            M1062.23,195.03c-1.09,0-2.07-0.76-2.3-1.88c-0.26-1.27,0.55-2.52,1.83-2.78c2.29-0.47,4.63-0.94,6.95-1.38           c1.28-0.24,2.51,0.6,2.75,1.87c0.24,1.28-0.6,2.51-1.87,2.75c-2.29,0.43-4.6,0.89-6.87,1.36           C1062.55,195.02,1062.39,195.03,1062.23,195.03z M1220.67,193.63c-0.16,0-0.31-0.02-0.47-0.05           c-2.27-0.46-4.58-0.91-6.86-1.33c-1.28-0.23-2.12-1.46-1.89-2.74c0.23-1.28,1.46-2.12,2.74-1.89           c2.32,0.42,4.66,0.88,6.96,1.35c1.27,0.26,2.09,1.5,1.83,2.77C1222.74,192.87,1221.76,193.63,1220.67,193.63z            M1092.3,189.93c-1.16,0-2.17-0.86-2.33-2.04c-0.17-1.29,0.73-2.47,2.02-2.64c2.33-0.31,4.69-0.6,7.02-0.87           c1.29-0.15,2.46,0.78,2.61,2.06c0.15,1.29-0.78,2.46-2.07,2.61c-2.31,0.27-4.64,0.56-6.94,0.86           C1092.51,189.92,1092.41,189.93,1092.3,189.93z M1190.56,188.84c-0.09,0-0.18-0.01-0.27-0.02           c-2.29-0.27-4.63-0.52-6.95-0.74c-1.29-0.13-2.24-1.27-2.11-2.57c0.13-1.29,1.27-2.24,2.57-2.11           c2.35,0.23,4.72,0.48,7.04,0.75c1.29,0.15,2.21,1.32,2.06,2.61C1192.75,187.95,1191.74,188.84,1190.56,188.84z            M1122.65,187.02c-1.24,0-2.27-0.96-2.34-2.21c-0.08-1.3,0.91-2.41,2.21-2.49c2.34-0.14,4.72-0.26,7.06-0.36           c1.3-0.06,2.39,0.95,2.45,2.25c0.05,1.3-0.95,2.39-2.25,2.45c-2.32,0.1-4.67,0.22-6.98,0.35           C1122.75,187.01,1122.7,187.02,1122.65,187.02z M1160.16,186.55c-0.03,0-0.06,0-0.08,0c-2.32-0.08-4.67-0.14-6.99-0.18           c-1.3-0.02-2.33-1.09-2.31-2.39c0.02-1.3,1.09-2.35,2.39-2.31c2.35,0.04,4.73,0.1,7.08,0.18c1.3,0.05,2.31,1.13,2.27,2.43           C1162.46,185.55,1161.42,186.55,1160.16,186.55z"></path>
								</g>
							</g>
						</g>
					</g>
				</g>
			</g>
		</g>
	</g>
</g>
<g>
	<g>
		<g>
			<g>
				<g>
					<g>
						<g>
							<g>
								<g>
									<path d="M1623.34,485.23c-21.47,0-38.94-17.47-38.94-38.94s17.47-38.94,38.94-38.94c21.47,0,38.94,17.47,38.94,38.94           S1644.81,485.23,1623.34,485.23z M1623.34,412.06c-18.88,0-34.23,15.36-34.23,34.23c0,18.88,15.36,34.23,34.23,34.23           c18.88,0,34.23-15.36,34.23-34.23C1657.58,427.42,1642.22,412.06,1623.34,412.06z"></path>
								</g>
							</g>
						</g>
					</g>
				</g>
			</g>
		</g>
	</g>
</g>
<g>
	<g>
		<g>
			<g>
				<g>
					<g>
						<g>
							<g>
								<g>
									<circle class="st0" cx="1039.85" cy="873.71" r="18.29"></circle>
								</g>
							</g>
						</g>
					</g>
				</g>
			</g>
		</g>
	</g>
</g>
<g>
	<g>
		<g>
			<g>
				<g>
					<g>
						<g>
							<g>
								<g>
									<polygon class="st0" points="802.24,286.73 794.35,286.73 794.35,278.85 789.65,278.85 789.65,286.73 781.76,286.73            781.76,291.44 789.65,291.44 789.65,299.32 794.35,299.32 794.35,291.44 802.24,291.44          "></polygon>
								</g>
							</g>
						</g>
					</g>
				</g>
			</g>
		</g>
	</g>
</g>
<g>
	<g>
		<g>
			<g>
				<g>
					<g>
						<g>
							<g>
								<g>
									<ellipse class="st0" cx="673.61" cy="460.53" rx="129.05" ry="10.89"></ellipse>
								</g>
							</g>
						</g>
					</g>
				</g>
			</g>
		</g>
	</g>
</g>
<g>
	<g>
		<g>
			<g>
				<g>
					<g>
						<g>
							<g>
								<g>
									<path class="st3" d="M665.37,201.16c-1.87,0-3.67-0.74-4.99-2.07l-20.58-20.58l9.98-9.98l15.59,15.59l32.07-32.07           l9.98,9.98l-37.06,37.06C669.03,200.42,667.24,201.16,665.37,201.16z"></path>
								</g>
							</g>
						</g>
					</g>
				</g>
			</g>
		</g>
	</g>
</g>
<g>
	<g>
		<g>
			<g>
				<g>
					<g>
						<g>
							<g>
								<g>
									<polygon class="st0" points="1617.38,463.75 1600.84,447.2 1604.16,443.88 1617.38,457.1 1642.52,431.96 1645.85,435.28                     "></polygon>
								</g>
							</g>
						</g>
					</g>
				</g>
			</g>
		</g>
	</g>
</g>
<g>
	<g>
		<g>
			<g>
				<g>
					<g>
						<g>
							<g>
								<g>
									<path d="M759.9,610.2c-13.97,0-25.33-11.36-25.33-25.33c0-13.97,11.36-25.33,25.33-25.33c13.97,0,25.33,11.36,25.33,25.33           C785.24,598.83,773.87,610.2,759.9,610.2z M759.9,564.23c-11.38,0-20.63,9.26-20.63,20.63c0,11.38,9.26,20.63,20.63,20.63           c11.38,0,20.63-9.26,20.63-20.63C780.54,573.49,771.28,564.23,759.9,564.23z"></path>
								</g>
							</g>
						</g>
					</g>
				</g>
			</g>
		</g>
	</g>
</g>
<g>
	<g>
		<g>
			<g>
				<g>
					<g>
						<g>
							<g>
								<g>
									<polygon class="st0" points="756.16,597.06 745.15,586.05 748.48,582.73 756.16,590.41 771.33,575.24 774.66,578.57                     "></polygon>
								</g>
							</g>
						</g>
					</g>
				</g>
			</g>
		</g>
	</g>
</g>
<g>
	<g>
		<g>
			<g>
				<g>
					<g>
						<g>
							<g>
								<g>
									<polyline class="st0" points="592.74,466.26 592.74,269.9 752.96,269.9 752.96,466.26          "></polyline>
								</g>
							</g>
						</g>
					</g>
				</g>
			</g>
		</g>
	</g>
	<g>
		<g>
			<g>
				<g>
					<g>
						<g>
							<g>
								<g>
									<polygon class="st3" points="755.31,466.26 750.61,466.26 750.61,272.25 595.09,272.25 595.09,466.26 590.39,466.26            590.39,267.55 755.31,267.55          "></polygon>
								</g>
							</g>
						</g>
					</g>
				</g>
			</g>
		</g>
	</g>
</g>
<g>
	<g>
		<g>
			<g>
				<g>
					<g>
						<g>
							<g>
								<g>
									<rect x="617.6" y="298.99" width="110.5" height="4.7"></rect>
								</g>
							</g>
						</g>
					</g>
				</g>
			</g>
		</g>
	</g>
</g>
<g>
	<g>
		<g>
			<g>
				<g>
					<g>
						<g>
							<g>
								<g>
									<rect x="617.6" y="321.29" width="110.5" height="4.7"></rect>
								</g>
							</g>
						</g>
					</g>
				</g>
			</g>
		</g>
	</g>
</g>
<g>
	<g>
		<g>
			<g>
				<g>
					<g>
						<g>
							<g>
								<g>
									<rect x="617.6" y="344.75" width="110.5" height="4.7"></rect>
								</g>
							</g>
						</g>
					</g>
				</g>
			</g>
		</g>
	</g>
</g>
<g>
	<g>
		<g>
			<g>
				<g>
					<g>
						<g>
							<g>
								<g>
									<rect x="617.6" y="367.06" width="110.5" height="4.7"></rect>
								</g>
							</g>
						</g>
					</g>
				</g>
			</g>
		</g>
	</g>
</g>
<g>
	<g>
		<g>
			<g>
				<g>
					<g>
						<g>
							<g>
								<g>
									<path d="M728.1,428.38H617.6c-1.3,0-2.35-1.05-2.35-2.35v-37.14c0-1.3,1.05-2.35,2.35-2.35h110.5           c1.3,0,2.35,1.05,2.35,2.35v37.14C730.45,427.33,729.4,428.38,728.1,428.38z M619.95,423.68h105.8v-32.44h-105.8V423.68z"></path>
								</g>
							</g>
						</g>
					</g>
				</g>
			</g>
		</g>
	</g>
</g>
<g>
	<g>
		<g>
			<g>
				<g>
					<g>
						<g>
							<g>
								<g>
									<g>
										<path d="M931.86,237.49c-26.77,0-48.54-21.78-48.54-48.54s21.78-48.54,48.54-48.54c26.77,0,48.54,21.78,48.54,48.54            S958.63,237.49,931.86,237.49z M931.86,145.1c-24.17,0-43.84,19.67-43.84,43.84c0,24.17,19.67,43.84,43.84,43.84            c24.17,0,43.84-19.67,43.84-43.84C975.7,164.77,956.04,145.1,931.86,145.1z"></path>
									</g>
								</g>
							</g>
						</g>
					</g>
				</g>
			</g>
		</g>
	</g>
	<g>
		<g>
			<g>
				<g>
					<g>
						<g>
							<g>
								<g>
									<g>
										<ellipse cx="931.86" cy="411.56" rx="100.82" ry="8.5"></ellipse>
									</g>
								</g>
							</g>
						</g>
					</g>
				</g>
			</g>
		</g>
	</g>
	<g>
		<g>
			<g>
				<g>
					<g>
						<g>
							<g>
								<g>
									<g>
										<polyline points="868.69,416.03 868.69,262.63 993.85,262.63 993.85,416.03           "></polyline>
									</g>
								</g>
							</g>
						</g>
					</g>
				</g>
			</g>
		</g>
		<g>
			<g>
				<g>
					<g>
						<g>
							<g>
								<g>
									<g>
										<polygon class="st3" points="996.2,416.03 991.5,416.03 991.5,264.98 871.04,264.98 871.04,416.03 866.33,416.03             866.33,260.28 996.2,260.28           "></polygon>
									</g>
								</g>
							</g>
						</g>
					</g>
				</g>
			</g>
		</g>
	</g>
	<g>
		<g>
			<g>
				<g>
					<g>
						<g>
							<g>
								<g>
									<g>
										<rect x="888.11" y="284.84" class="st3" width="86.33" height="4.7"></rect>
									</g>
								</g>
							</g>
						</g>
					</g>
				</g>
			</g>
		</g>
	</g>
	<g>
		<g>
			<g>
				<g>
					<g>
						<g>
							<g>
								<g>
									<g>
										<rect x="888.11" y="302.26" class="st3" width="86.33" height="4.7"></rect>
									</g>
								</g>
							</g>
						</g>
					</g>
				</g>
			</g>
		</g>
	</g>
	<g>
		<g>
			<g>
				<g>
					<g>
						<g>
							<g>
								<g>
									<g>
										<rect x="888.11" y="320.59" class="st3" width="86.33" height="4.7"></rect>
									</g>
								</g>
							</g>
						</g>
					</g>
				</g>
			</g>
		</g>
	</g>
	<g>
		<g>
			<g>
				<g>
					<g>
						<g>
							<g>
								<g>
									<g>
										<rect x="888.11" y="338.02" class="st3" width="86.33" height="4.7"></rect>
									</g>
								</g>
							</g>
						</g>
					</g>
				</g>
			</g>
		</g>
	</g>
	<g>
		<g>
			<g>
				<g>
					<g>
						<g>
							<g>
								<g>
									<g>
										<path class="st3" d="M974.43,386.95H925.4c-1.3,0-2.35-1.05-2.35-2.35v-29.02c0-1.3,1.05-2.35,2.35-2.35h49.03            c1.3,0,2.35,1.05,2.35,2.35v29.02C976.78,385.9,975.73,386.95,974.43,386.95z M927.76,382.25h44.33v-24.31h-44.33V382.25z            "></path>
									</g>
								</g>
							</g>
						</g>
					</g>
				</g>
			</g>
		</g>
	</g>
</g>
<g>
	<g>
		<g>
			<g>
				<g>
					<g>
						<g>
							<g>
								<g>
									<g>
										<path d="M410.13,237.49c-26.77,0-48.54-21.78-48.54-48.54s21.78-48.54,48.54-48.54s48.54,21.78,48.54,48.54            S436.9,237.49,410.13,237.49z M410.13,145.1c-24.17,0-43.84,19.67-43.84,43.84c0,24.17,19.67,43.84,43.84,43.84            c24.17,0,43.84-19.67,43.84-43.84C453.97,164.77,434.3,145.1,410.13,145.1z"></path>
									</g>
								</g>
							</g>
						</g>
					</g>
				</g>
			</g>
		</g>
	</g>
	<g>
		<g>
			<g>
				<g>
					<g>
						<g>
							<g>
								<g>
									<g>
										<ellipse cx="410.13" cy="411.56" rx="100.82" ry="8.5"></ellipse>
									</g>
								</g>
							</g>
						</g>
					</g>
				</g>
			</g>
		</g>
	</g>
	<g>
		<g>
			<g>
				<g>
					<g>
						<g>
							<g>
								<g>
									<g>
										<polyline points="346.95,416.03 346.95,262.63 472.12,262.63 472.12,416.03           "></polyline>
									</g>
								</g>
							</g>
						</g>
					</g>
				</g>
			</g>
		</g>
		<g>
			<g>
				<g>
					<g>
						<g>
							<g>
								<g>
									<g>
										<polygon class="st3" points="474.47,416.03 469.77,416.03 469.77,264.98 349.3,264.98 349.3,416.03 344.6,416.03             344.6,260.28 474.47,260.28           "></polygon>
									</g>
								</g>
							</g>
						</g>
					</g>
				</g>
			</g>
		</g>
	</g>
	<g>
		<g>
			<g>
				<g>
					<g>
						<g>
							<g>
								<g>
									<g>
										<rect x="366.37" y="284.84" class="st3" width="86.33" height="4.7"></rect>
									</g>
								</g>
							</g>
						</g>
					</g>
				</g>
			</g>
		</g>
	</g>
	<g>
		<g>
			<g>
				<g>
					<g>
						<g>
							<g>
								<g>
									<g>
										<rect x="366.37" y="302.26" class="st3" width="86.33" height="4.7"></rect>
									</g>
								</g>
							</g>
						</g>
					</g>
				</g>
			</g>
		</g>
	</g>
	<g>
		<g>
			<g>
				<g>
					<g>
						<g>
							<g>
								<g>
									<g>
										<rect x="366.37" y="320.59" class="st3" width="86.33" height="4.7"></rect>
									</g>
								</g>
							</g>
						</g>
					</g>
				</g>
			</g>
		</g>
	</g>
	<g>
		<g>
			<g>
				<g>
					<g>
						<g>
							<g>
								<g>
									<g>
										<rect x="366.37" y="338.02" class="st3" width="86.33" height="4.7"></rect>
									</g>
								</g>
							</g>
						</g>
					</g>
				</g>
			</g>
		</g>
	</g>
	<g>
		<g>
			<g>
				<g>
					<g>
						<g>
							<g>
								<g>
									<g>
										<path class="st3" d="M410.13,386.95h-43.76c-1.3,0-2.35-1.05-2.35-2.35v-29.02c0-1.3,1.05-2.35,2.35-2.35h43.76            c1.3,0,2.35,1.05,2.35,2.35v29.02C412.48,385.9,411.43,386.95,410.13,386.95z M368.72,382.25h39.05v-24.31h-39.05V382.25z            "></path>
									</g>
								</g>
							</g>
						</g>
					</g>
				</g>
			</g>
		</g>
	</g>
</g>
<g>
	<g>
		<g>
			<g>
				<g>
					<g>
						<g>
							<g>
								<g>
									<g>
										
											<rect x="403.07" y="166.71" transform="matrix(0.7071 -0.7071 0.7071 0.7071 -13.4814 345.3442)" width="14.11" height="44.47"></rect>
									</g>
								</g>
							</g>
						</g>
					</g>
				</g>
			</g>
		</g>
	</g>
	<g>
		<g>
			<g>
				<g>
					<g>
						<g>
							<g>
								<g>
									<g>
										
											<rect x="387.89" y="181.89" transform="matrix(0.7071 -0.7071 0.7071 0.7071 -13.4808 345.3457)" width="44.47" height="14.11"></rect>
									</g>
								</g>
							</g>
						</g>
					</g>
				</g>
			</g>
		</g>
	</g>
</g>
<g>
	<g>
		<g>
			<g>
				<g>
					<g>
						<g>
							<g>
								<g>
									<g>
										
											<rect x="924.81" y="166.71" transform="matrix(0.7071 -0.7071 0.7071 0.7071 139.3297 714.2647)" width="14.11" height="44.47"></rect>
									</g>
								</g>
							</g>
						</g>
					</g>
				</g>
			</g>
		</g>
	</g>
	<g>
		<g>
			<g>
				<g>
					<g>
						<g>
							<g>
								<g>
									<g>
										
											<rect x="909.63" y="181.89" transform="matrix(0.7071 -0.7071 0.7071 0.7071 139.3316 714.2676)" width="44.47" height="14.11"></rect>
									</g>
								</g>
							</g>
						</g>
					</g>
				</g>
			</g>
		</g>
	</g>
</g>
<g>
	<g>
		<g>
			<g>
				<g>
					<g>
						<g>
							<g>
								<g>
									<g>
										<ellipse cx="1262.49" cy="697.04" rx="207.64" ry="53.9"></ellipse>
									</g>
								</g>
							</g>
						</g>
					</g>
				</g>
			</g>
		</g>
	</g>
	<g>
		<g>
			<g>
				<g>
					<g>
						<g>
							<g>
								<g>
									<g>
										<path d="M842.71,469.38c7.06-18.23,43.66-7.63,56.27-4.7c0.84,0.2,1.81,0.34,2.51-0.17c0.85-0.6,0.92-1.84,0.74-2.87            c-0.64-3.74-3.26-6.77-5.15-10.06c-7.61-13.28,8.59-9.95,15.99-7.11c19.47,7.48,33.07,35.6,15.09,52.46            c-13.52,12.67-32.87,10.38-48.66,3.69c-12.07-5.12-23.57-11.71-32.83-21.1C842.65,475.44,841.66,472.09,842.71,469.38z"></path>
									</g>
								</g>
							</g>
						</g>
					</g>
				</g>
			</g>
		</g>
	</g>
	<g>
		<g>
			<g>
				<g>
					<g>
						<g>
							<g>
								<g>
									<g>
										<path d="M1166.7,294.46c-13.52,12.44-12.7,50.55,5.43,69.54c13.75,14.4,32.73,12.86,40.52,12.23            c19.86-1.61,47.75-13.69,49.72-29.83C1265.84,318.06,1189.93,273.08,1166.7,294.46z"></path>
									</g>
								</g>
							</g>
						</g>
					</g>
				</g>
			</g>
		</g>
	</g>
	<g>
		<g>
			<g>
				<g>
					<g>
						<g>
							<g>
								<g>
									<g>
										<path class="st4" d="M1145,295.81c9.31,18.84,26.36,38.03,46.2,38.25c23.86,0.26,40.66-28.46,46.19-24.34            c4.94,3.69-8.49,26.7-3.48,30.31c3.61,2.6,15.57-11.66,18.05-9.78c3.12,2.36-14.79,25.1-10.15,30.27            c4.26,4.74,29.27-3.3,39.2-21.06c12.78-22.88-1.53-58.18-22.82-76.71c-26.69-23.24-81.7-30.65-110.42-6.5            C1135,267,1138.44,282.54,1145,295.81z"></path>
									</g>
								</g>
							</g>
						</g>
					</g>
				</g>
			</g>
		</g>
	</g>
	<g>
		<g>
			<g>
				<g>
					<g>
						<g>
							<g>
								<g>
									<g>
										<path class="st3" d="M1187.33,372.3c-0.81,0-1.64-0.03-2.49-0.1c-6-0.47-10.76-2.43-10.96-2.51l1.81-4.34l-0.9,2.17            l0.9-2.17c0.17,0.07,16.68,6.73,24.59-3.31l3.7,2.91C1200.16,369.79,1194.44,372.3,1187.33,372.3z"></path>
									</g>
								</g>
							</g>
						</g>
					</g>
				</g>
			</g>
		</g>
	</g>
	<g>
		<g>
			<g>
				<g>
					<g>
						<g>
							<g>
								<g>
									<g>
										<path class="st3" d="M1244.49,389.27c-39.97-10.95-94.97-0.59-119.69,33.6c-15.42,21.33-9.67,38.94-2.1,136.49            c8.61,110.99,3.9,123.38,18.9,138.59c41.18,41.75,154.45,27.19,201.59-35.7C1407.26,576.77,1339.26,415.23,1244.49,389.27            z"></path>
									</g>
								</g>
							</g>
						</g>
					</g>
				</g>
			</g>
		</g>
	</g>
	<g>
		<g>
			<g>
				<g>
					<g>
						<g>
							<g>
								<g>
									<g>
										<path class="st3" d="M1183.24,395.65c-47.38-11-68.28,66.42-141.74,75.6c-55.57,6.94-95.27-30.9-116.54-9.45            c-9.85,9.93-11.16,27.94-6.3,40.95c20.09,53.83,164.79,73.14,255.14,15.75c15.68-9.96,55.19-35.06,53.55-69.3            C1226.25,426.46,1207.08,401.19,1183.24,395.65z"></path>
									</g>
								</g>
							</g>
						</g>
					</g>
				</g>
			</g>
		</g>
	</g>
	<g>
		<g>
			<g>
				<g>
					<g>
						<g>
							<g>
								<g>
									<g>
										<path d="M1043.39,555.71c-12.95,0-25.8-0.9-38.26-2.73c-35.38-5.2-63.29-17.1-78.57-33.52l3.44-3.2            c14.35,15.41,41.98,27.1,75.81,32.07c35.31,5.18,73.89,2.81,108.64-6.68c12.67-3.46,24.77-7.86,35.98-13.07l1.98,4.26            c-11.45,5.33-23.8,9.82-36.72,13.35C1092.58,552.49,1067.81,555.71,1043.39,555.71z"></path>
									</g>
								</g>
							</g>
						</g>
					</g>
				</g>
			</g>
		</g>
	</g>
	<g>
		<g>
			<g>
				<g>
					<g>
						<g>
							<g>
								<g>
									<g>
										<path d="M918.28,486.24l-4.7-0.08c0.18-10.64,3.63-19.88,9.71-26.01c12.05-12.16,28.84-7.06,50.1-0.6            c18.55,5.63,41.63,12.64,67.82,9.37c17.53-2.19,33.78-8.63,49.69-19.68c8.89-6.18,16.74-13.12,22.58-18.48            c2.8-2.57,5.56-5.16,8.22-7.67c5.35-5.03,10.4-9.79,15.48-14.05c8.13-6.82,15.04-11.22,21.74-13.83            c8.23-3.21,16.36-3.81,24.85-1.84c11.82,2.74,23.14,10.25,31.88,21.14l-3.67,2.94c-8.08-10.07-18.48-17-29.28-19.5            c-17.21-4-30.6,4.7-42.51,14.69c-4.98,4.18-9.99,8.89-15.28,13.88c-2.67,2.51-5.43,5.11-8.26,7.71            c-5.95,5.46-13.96,12.54-23.08,18.88c-16.54,11.5-33.48,18.2-51.79,20.49c-27.18,3.4-50.8-3.77-69.77-9.54            c-20.51-6.23-35.34-10.73-45.4-0.59C921.48,468.64,918.44,476.95,918.28,486.24z"></path>
									</g>
								</g>
							</g>
						</g>
					</g>
				</g>
			</g>
		</g>
	</g>
	<g>
		<g>
			<g>
				<g>
					<g>
						<g>
							<g>
								<g>
									<g>
										<path d="M1204.77,498.45l-3.2-3.45c16.27-15.07,24.15-30.44,23.42-45.68l4.7-0.23            C1230.49,465.78,1222.11,482.39,1204.77,498.45z"></path>
									</g>
								</g>
							</g>
						</g>
					</g>
				</g>
			</g>
		</g>
	</g>
	<g>
		<g>
			<g>
				<g>
					<g>
						<g>
							<g>
								<g>
									<g>
										<path d="M1086.03,550.56l-4.7-0.27c0.02-0.34,0.52-8.37,4.25-16.67c5.1-11.32,13.73-17.59,24.98-18.12            c13.82-0.66,22.34,4.27,27.05,8.52c5.18,4.67,7.02,9.55,7.1,9.76l-4.41,1.63c-0.25-0.66-6.46-16.33-29.51-15.21            c-9.46,0.45-16.48,5.58-20.86,15.24C1086.51,542.95,1086.03,550.49,1086.03,550.56z"></path>
									</g>
								</g>
							</g>
						</g>
					</g>
				</g>
			</g>
		</g>
	</g>
</g>
<g>
	<g>
		<g>
			<g>
				<g>
					<g>
						<g>
							<g>
								<g>
									<path d="M1046.42,573.18c-19.88,0-34.28-1.77-34.44-1.79l0.58-4.67c0.63,0.08,63.33,7.62,109.3-9.57l1.65,4.41           c-24.64,9.21-53.66,11.39-73.66,11.6C1048.7,573.18,1047.55,573.18,1046.42,573.18z"></path>
								</g>
							</g>
						</g>
					</g>
				</g>
			</g>
		</g>
	</g>
</g>
<g>
	<g>
		<g>
			<g>
				<g>
					<g>
						<g>
							<g>
								<g>
									<path d="M1370.55,584.94l-4.7-0.14c0.71-23.39-2.73-46.7-10.21-69.3c-6-18.1-14.59-35.8-25.54-52.58           c-18.69-28.64-38.02-44.92-38.21-45.08l3.01-3.61c0.81,0.67,19.98,16.8,39.05,45.98c11.2,17.14,19.99,35.21,26.13,53.71           C1367.75,537.07,1371.28,560.96,1370.55,584.94z"></path>
								</g>
							</g>
						</g>
					</g>
				</g>
			</g>
		</g>
	</g>
</g>
<g>
	<g>
		<g>
			<g>
				<g>
					<g>
						<g>
							<g>
								<g>
									<path d="M1358.62,640.45l-4.16-2.19c7.48-14.18,10.04-36.52,10.07-36.74l4.67,0.52           C1369.09,602.99,1366.51,625.49,1358.62,640.45z"></path>
								</g>
							</g>
						</g>
					</g>
				</g>
			</g>
		</g>
	</g>
</g>
<g>
	<g>
		<g>
			<g>
				<g>
					<g>
						<g>
							<g>
								<g>
									<path class="st3" d="M1386.29,602.05l-4.67-0.55c4.82-41.13-3.59-75.2-11.49-96.54c-8.57-23.16-18.42-36.75-18.52-36.88           l3.79-2.78c0.42,0.57,10.27,14.14,19.08,37.86C1382.59,525.01,1391.23,559.91,1386.29,602.05z"></path>
								</g>
							</g>
						</g>
					</g>
				</g>
			</g>
		</g>
	</g>
</g>
<g>
	<g>
		<g>
			<g>
				<g>
					<g>
						<g>
							<g>
								<g>
									
										<rect x="1343.55" y="447.96" transform="matrix(0.8186 -0.5744 0.5744 0.8186 -17.058 855.6149)" class="st3" width="4.7" height="13.71"></rect>
								</g>
							</g>
						</g>
					</g>
				</g>
			</g>
		</g>
	</g>
</g>
<g>
	<g>
		<g>
			<g>
				<g>
					<g>
						<g>
							<g>
								<g>
									
										<rect x="1300.27" y="702.2" transform="matrix(0.0145 -0.9999 0.9999 0.0145 618.6838 2036.7994)" class="st3" width="84.6" height="4.7"></rect>
								</g>
							</g>
						</g>
					</g>
				</g>
			</g>
		</g>
	</g>
</g>
<g>
	<g>
		<g>
			<g>
				<g>
					<g>
						<g>
							<g>
								<g>
									
										<rect x="1163.45" y="711.4" transform="matrix(0.9745 -0.2246 0.2246 0.9745 -133.8441 280.4427)" class="st3" width="4.7" height="34.3"></rect>
								</g>
							</g>
						</g>
					</g>
				</g>
			</g>
		</g>
	</g>
</g>
<g>
	<g>
		<g>
			<g>
				<g>
					<g>
						<g>
							<g>
								<g>
									<path class="st3" d="M549.1,404.9c-10.63-1.3-17.61-5.05-20.75-11.16c-4.25-8.29-0.93-19.63,9.89-33.68           c9.91-12.87,25.9-27.58,46.25-42.55l2.79,3.79c-40.05,29.45-61.53,57.04-54.73,70.29c2.38,4.64,8.14,7.55,17.13,8.64           L549.1,404.9z"></path>
								</g>
							</g>
						</g>
					</g>
				</g>
			</g>
		</g>
	</g>
</g>
<g>
	<g>
		<g>
			<g>
				<g>
					<g>
						<g>
							<g>
								<g>
									<path class="st3" d="M619.15,393.84l-1.41-4.49c25.31-7.93,53.23-19.58,80.75-33.7c13.73-7.04,27.05-14.53,39.59-22.27           c12.31-7.59,23.82-15.38,34.22-23.16l2.82,3.77c-10.51,7.86-22.14,15.73-34.57,23.4c-12.65,7.8-26.08,15.35-39.91,22.45           C672.89,374.07,644.71,385.83,619.15,393.84z"></path>
								</g>
							</g>
						</g>
					</g>
				</g>
			</g>
		</g>
	</g>
</g>
<g>
	<g>
		<g>
			<g>
				<g>
					<g>
						<g>
							<g>
								<g>
									<path class="st3" d="M816.96,275.67l-3.65-2.96c10.84-13.35,14.71-24.03,11.19-30.89c-4.38-8.54-20.28-11.21-44.76-7.51           c-25.02,3.78-57.36,14.09-91.05,29.03l-1.91-4.3c34.07-15.1,66.83-25.54,92.25-29.38c27.02-4.08,44.19-0.62,49.65,10.01           C833.12,248.31,829.06,260.76,816.96,275.67z"></path>
								</g>
							</g>
						</g>
					</g>
				</g>
			</g>
		</g>
	</g>
</g>
<g>
	<g>
		<g>
			<g>
				<g>
					<g>
						<g>
							<g>
								<g>
									<path class="st0" d="M539.12,325.17c-7.21,0-13.07-5.86-13.07-13.07c0-7.21,5.86-13.07,13.07-13.07s13.07,5.86,13.07,13.07           C552.19,319.31,546.33,325.17,539.12,325.17z M539.12,303.73c-4.62,0-8.37,3.75-8.37,8.37c0,4.62,3.75,8.37,8.37,8.37           s8.37-3.75,8.37-8.37C547.49,307.49,543.74,303.73,539.12,303.73z"></path>
								</g>
							</g>
						</g>
					</g>
				</g>
			</g>
		</g>
	</g>
</g>
<g>
	<g>
		<g>
			<g>
				<g>
					<g>
						<g>
							<g>
								<g>
									<path d="M546.92,388.34c-7.11,0-13.28-0.38-18.37-1.14c-10.94-1.63-16.9-4.94-18.23-10.1           c-1.58-6.16,3.91-13.23,16.79-21.62l2.57,3.94c-14.73,9.59-15.26,14.74-14.81,16.51c0.77,3,5.87,5.35,14.37,6.62           c11.64,1.74,29.31,1.39,51.09-0.99l0.51,4.68C568.05,387.63,556.61,388.34,546.92,388.34z"></path>
								</g>
							</g>
						</g>
					</g>
				</g>
			</g>
		</g>
	</g>
</g>
<g>
	<g>
		<g>
			<g>
				<g>
					<g>
						<g>
							<g>
								<g>
									<path d="M760.72,342.57l-1.64-4.41c18.07-6.72,33.44-13.4,45.68-19.85c5.33-2.81,10-5.56,13.89-8.16           c13.62-9.12,14.07-14.05,13.64-15.74c-0.9-3.51-7.78-6.12-18.89-7.16l0.44-4.68c13.97,1.32,21.49,4.81,23,10.67           c1.53,5.96-3.56,12.77-15.58,20.82c-4.02,2.69-8.84,5.53-14.31,8.41C794.54,329.02,778.98,335.79,760.72,342.57z"></path>
								</g>
							</g>
						</g>
					</g>
				</g>
			</g>
		</g>
	</g>
</g>
</svg>
